<svg width="277" height="230" viewBox="0 0 277 230" fill="none" xmlns="http://www.w3.org/2000/svg">
<path d="M40.5639 208.685C94.665 236.945 182.341 236.945 236.429 208.685C290.517 180.426 290.53 134.624 236.429 106.364C182.328 78.1045 94.6523 78.1109 40.5639 106.364C-13.5245 134.618 -13.5181 180.432 40.5639 208.685Z" fill="#EFEFEF"/>
<path d="M24.5173 163.635H26.7959C27.8403 160.148 28.5249 156.563 28.8391 152.936C29.3355 146.221 26.0831 135.942 20.1256 132.499C14.1681 129.055 10.9411 133.313 12.9397 136.954C14.9383 140.595 21.6786 150.95 21.7677 159.861L24.5173 163.635Z" fill="#F36B31"/>
<path d="M23.9713 163.635H24.6078C25.2296 159.237 25.2296 154.774 24.6078 150.377C23.5767 141.664 20.7125 137.615 18.052 134.802C17.9937 134.741 17.9134 134.705 17.8287 134.702C17.7439 134.7 17.6617 134.731 17.6001 134.789C17.5385 134.848 17.5025 134.928 17.5001 135.013C17.4977 135.098 17.5291 135.18 17.5874 135.241C20.1778 137.972 22.9656 141.918 23.9522 150.447C24.5827 154.82 24.5891 159.26 23.9713 163.635Z" fill="white"/>
<path d="M24.7023 163.635C23.5311 158.11 18.2101 151.542 13.1883 150.409C7.36445 149.136 4.53209 152.21 5.36589 154.864C6.19968 157.519 10.8015 158.753 15.2696 160.835C16.7741 161.531 18.1494 162.478 19.3367 163.635H24.7023Z" fill="#F36B31"/>
<path d="M22.5855 163.635H23.2665C20.8033 157.442 15.2023 153.025 10.6196 152.618C10.5781 152.614 10.5362 152.618 10.4962 152.63C10.4563 152.642 10.4193 152.662 10.3872 152.689C10.3552 152.715 10.3288 152.748 10.3097 152.785C10.2906 152.822 10.2791 152.863 10.2759 152.904C10.2706 152.946 10.2739 152.988 10.2857 153.029C10.2974 153.069 10.3174 153.106 10.3442 153.139C10.3711 153.171 10.4044 153.197 10.4419 153.216C10.4794 153.235 10.5204 153.246 10.5623 153.248C14.8904 153.636 20.1796 157.786 22.5855 163.635Z" fill="white"/>
<path d="M230.169 105.403L234.936 107.905L235.337 104.92C232.976 98.2619 234.917 90.7133 237.469 87.569C240.021 84.4248 239.531 82.1144 238.608 81.0833C237.686 80.0522 234.185 79.2693 230.722 83.3173C227.26 87.3653 226.464 92.279 227.044 97.2372C227.413 100.337 229.042 103.519 230.169 105.403Z" fill="#F36B31"/>
<path opacity="0.2" d="M230.169 105.403L234.936 107.905L235.337 104.92C232.976 98.2619 234.917 90.7133 237.469 87.569C240.021 84.4248 239.531 82.1144 238.608 81.0833C237.686 80.0522 234.185 79.2693 230.722 83.3173C227.26 87.3653 226.464 92.279 227.044 97.2372C227.413 100.337 229.042 103.519 230.169 105.403Z" fill="#191720"/>
<path d="M232.131 106.434L233.073 106.931C233.064 106.913 233.053 106.896 233.041 106.88C231.692 105.276 229.948 97.4218 230.68 92.82C231.584 87.1362 234.499 83.4255 236.994 81.8534C237.025 81.8346 237.051 81.8098 237.072 81.7806C237.093 81.7514 237.107 81.7182 237.115 81.6832C237.123 81.6482 237.123 81.6119 237.117 81.5766C237.11 81.5414 237.097 81.5078 237.077 81.4779C237.036 81.417 236.974 81.3743 236.903 81.3589C236.831 81.3434 236.757 81.3564 236.695 81.3951C234.149 83.0309 231.068 86.8689 230.133 92.7373C229.458 97.0208 230.807 103.806 232.131 106.434Z" fill="white"/>
<path d="M235.028 94.0421C236.422 97.46 236.415 99.134 234.143 99.484C232.094 99.7895 229.605 102.278 231.916 106.32L245.434 113.41C245.468 112.655 245.655 111.914 245.983 111.232C246.312 110.551 246.774 109.943 247.344 109.445C249.565 107.224 251.615 105.55 251.296 103.08C250.978 100.611 248.833 98.2302 248.477 96.0788C248.12 93.9275 249.215 92.6991 251.551 90.2868C253.887 87.8746 256.006 84.1321 252.888 82.4263C249.769 80.7205 246.198 83.642 244.709 85.6087C243.219 87.5754 241.857 88.441 238.923 88.2756C235.989 88.1101 233.634 90.6242 235.028 94.0421Z" fill="#F36B31"/>
<path d="M238.852 109.961C238.788 99.4715 246.305 87.1874 250.487 84.7051C250.549 84.6657 250.593 84.6042 250.611 84.5331C250.628 84.4621 250.618 84.387 250.582 84.3232C250.544 84.2619 250.484 84.2178 250.414 84.2C250.344 84.1823 250.27 84.1922 250.207 84.2277C245.968 86.7737 238.387 99.0642 238.305 109.687L238.852 109.961Z" fill="white"/>
<path d="M240.865 99.0576C240.807 99.0707 240.747 99.0641 240.694 99.0386C240.641 99.0132 240.598 98.9705 240.572 98.9176C239.358 96.6522 238.336 94.2889 237.517 91.8526C237.506 91.8183 237.502 91.7823 237.505 91.7464C237.508 91.7106 237.518 91.6758 237.535 91.6438C237.551 91.6119 237.574 91.5836 237.601 91.5604C237.629 91.5373 237.661 91.5198 237.695 91.5089C237.729 91.498 237.765 91.494 237.801 91.4971C237.837 91.5002 237.872 91.5103 237.904 91.5268C237.936 91.5434 237.964 91.566 237.987 91.5935C238.01 91.621 238.028 91.6529 238.039 91.6871C238.85 94.0897 239.859 96.4208 241.056 98.6566C241.09 98.7217 241.097 98.7976 241.075 98.8678C241.054 98.938 241.006 98.9971 240.941 99.0321L240.865 99.0576Z" fill="white"/>
<path d="M239.06 105.486C239.008 105.496 238.954 105.491 238.905 105.471C238.855 105.452 238.812 105.42 238.78 105.378C238.738 105.317 238.722 105.242 238.735 105.169C238.748 105.096 238.789 105.032 238.85 104.989C241.591 103.071 244.916 102.17 248.251 102.444C248.323 102.453 248.389 102.491 248.434 102.548C248.479 102.606 248.499 102.68 248.489 102.752C248.48 102.825 248.442 102.891 248.385 102.936C248.327 102.98 248.253 103 248.181 102.991C244.988 102.748 241.808 103.604 239.168 105.416C239.137 105.446 239.1 105.47 239.06 105.486Z" fill="white"/>
<path d="M159.176 41.4104L143.665 32.4551L128.16 41.4104L143.665 50.3657L159.176 41.4104Z" fill="#EFEFEF"/>
<path d="M143.664 68.2825L159.175 59.3272V41.4102L143.664 50.3655V68.2825Z" fill="#EBEBEB"/>
<path d="M146.655 62.3379C146.573 62.3394 146.492 62.3196 146.42 62.2806C146.321 62.2083 146.242 62.1118 146.191 62.0004C146.14 61.889 146.118 61.7664 146.127 61.6441V59.7347V59.5946H146.223L147.712 58.7227V60.8421C147.71 61.1151 147.642 61.3836 147.515 61.625C147.388 61.8665 147.204 62.0738 146.98 62.2297C146.884 62.2947 146.771 62.3321 146.655 62.3379ZM146.369 59.8747V61.6314C146.358 61.7131 146.369 61.7962 146.399 61.873C146.429 61.9498 146.478 62.0177 146.541 62.0706C146.592 62.0936 146.649 62.1022 146.705 62.0955C146.761 62.0888 146.814 62.0669 146.859 62.0324C147.05 61.8994 147.207 61.7236 147.317 61.5191C147.428 61.3147 147.489 61.0872 147.496 60.8549V60.7021H146.942L146.834 59.9574L146.369 59.8747ZM147.133 60.4603H147.477V59.1555L146.585 59.671L147.025 59.7538L147.133 60.4603Z" fill="white"/>
<path d="M146.922 63.8528C146.89 63.8528 146.859 63.84 146.836 63.8174C146.814 63.7947 146.801 63.7639 146.801 63.7319V62.1406C146.8 62.1245 146.803 62.1084 146.808 62.0933C146.814 62.0782 146.823 62.0645 146.834 62.0531C146.846 62.0417 146.859 62.0328 146.875 62.027C146.89 62.0213 146.906 62.0188 146.922 62.0197C146.954 62.0197 146.985 62.0325 147.007 62.0551C147.03 62.0778 147.043 62.1086 147.043 62.1406V63.7064C147.046 63.7241 147.044 63.7422 147.04 63.7595C147.035 63.7768 147.027 63.7928 147.015 63.8067C147.004 63.8205 146.99 63.8317 146.973 63.8397C146.957 63.8476 146.94 63.8521 146.922 63.8528Z" fill="white"/>
<path d="M146.23 64.2539C146.209 64.2537 146.188 64.2477 146.17 64.2365C146.152 64.2252 146.137 64.2092 146.128 64.1902C146.119 64.1772 146.113 64.1624 146.111 64.1469C146.108 64.1314 146.109 64.1155 146.113 64.1003C146.118 64.0852 146.125 64.0712 146.135 64.0592C146.146 64.0472 146.158 64.0377 146.173 64.0311L147.554 63.2291C147.568 63.2212 147.583 63.216 147.599 63.2139C147.614 63.2118 147.63 63.2129 147.646 63.217C147.661 63.2212 147.676 63.2283 147.688 63.238C147.701 63.2478 147.711 63.2599 147.719 63.2737C147.734 63.3019 147.737 63.3345 147.729 63.3651C147.721 63.3957 147.701 63.4221 147.675 63.4392L146.287 64.2348L146.23 64.2539Z" fill="white"/>
<path d="M151.169 61.5044C151.125 61.5177 151.079 61.5177 151.035 61.5044C150.989 61.4732 150.951 61.4302 150.927 61.38C150.902 61.3297 150.891 61.2738 150.895 61.218V60.8934C150.894 60.8778 150.897 60.8622 150.902 60.8475C150.907 60.8329 150.916 60.8195 150.927 60.8082C150.937 60.7969 150.95 60.7879 150.965 60.7817C150.979 60.7756 150.994 60.7724 151.01 60.7724C151.026 60.7715 151.042 60.774 151.057 60.7797C151.072 60.7855 151.086 60.7944 151.097 60.8058C151.109 60.8172 151.118 60.8309 151.123 60.846C151.129 60.8611 151.132 60.8772 151.131 60.8934V61.1607C151.131 61.2116 151.131 61.237 151.131 61.237C151.131 61.237 151.169 61.237 151.207 61.237C151.281 61.1698 151.34 61.087 151.378 60.9946C151.417 60.9022 151.434 60.8024 151.43 60.7024V58.6147C151.43 58.5991 151.433 58.5837 151.439 58.5694C151.445 58.555 151.454 58.5421 151.466 58.5314C151.477 58.5207 151.49 58.5124 151.505 58.507C151.52 58.5016 151.535 58.4993 151.551 58.5002C151.581 58.5002 151.61 58.5122 151.632 58.5337C151.653 58.5552 151.665 58.5844 151.665 58.6147V60.7406C151.67 60.8823 151.642 61.0232 151.584 61.1523C151.525 61.2815 151.438 61.3954 151.328 61.4853C151.277 61.5016 151.223 61.5081 151.169 61.5044Z" fill="white"/>
<path d="M149.906 59.6516V59.4479C149.936 58.9178 150.09 58.4021 150.355 57.9422C150.62 57.4824 150.99 57.0912 151.434 56.8001C151.593 56.6665 151.789 56.5849 151.996 56.5665C152.203 56.5481 152.41 56.5938 152.59 56.6973C152.77 56.8008 152.914 56.9573 153.002 57.1453C153.09 57.3334 153.118 57.5439 153.082 57.7485V57.8185L149.906 59.6516ZM152.147 56.8256C151.936 56.8322 151.732 56.896 151.555 57.0102C151.177 57.2595 150.856 57.5866 150.615 57.9697C150.373 58.3528 150.216 58.7829 150.154 59.2315L152.84 57.6849C152.851 57.5346 152.822 57.3843 152.757 57.2483C152.693 57.1124 152.594 56.9953 152.471 56.9084C152.372 56.8523 152.26 56.8237 152.147 56.8256Z" fill="white"/>
<path d="M155.426 59.0599C155.395 59.06 155.365 59.0481 155.342 59.0268C155.32 59.0055 155.306 58.9763 155.305 58.9454V54.8846C155.305 54.8525 155.317 54.8218 155.34 54.7991C155.363 54.7764 155.394 54.7637 155.426 54.7637C155.458 54.7637 155.488 54.7764 155.511 54.7991C155.534 54.8218 155.547 54.8525 155.547 54.8846V58.9454C155.545 58.9763 155.531 59.0055 155.509 59.0268C155.486 59.0481 155.457 59.06 155.426 59.0599Z" fill="white"/>
<path d="M155.099 55.8073H155.054C155.039 55.801 155.026 55.792 155.015 55.7806C155.004 55.7692 154.995 55.7557 154.989 55.7409C154.983 55.7262 154.98 55.7103 154.98 55.6944C154.981 55.6785 154.984 55.6628 154.99 55.6481L155.417 54.668L155.888 55.2153C155.898 55.227 155.905 55.2406 155.91 55.2553C155.915 55.2699 155.917 55.2854 155.916 55.3007C155.915 55.3161 155.91 55.3311 155.903 55.3448C155.896 55.3586 155.887 55.3708 155.875 55.3808C155.863 55.3909 155.85 55.3985 155.835 55.4033C155.82 55.4081 155.805 55.4099 155.79 55.4087C155.774 55.4076 155.759 55.4034 155.746 55.3964C155.732 55.3894 155.72 55.3798 155.71 55.3681L155.48 55.1135L155.207 55.75C155.196 55.7688 155.18 55.7842 155.161 55.7943C155.142 55.8044 155.12 55.8089 155.099 55.8073Z" fill="white"/>
<path d="M156.551 58.4366C156.52 58.435 156.491 58.4215 156.47 58.399C156.449 58.3765 156.437 58.3467 156.437 58.3157V54.2549C156.433 54.2372 156.433 54.2187 156.437 54.201C156.441 54.1832 156.448 54.1665 156.46 54.1522C156.471 54.138 156.485 54.1264 156.502 54.1185C156.518 54.1106 156.536 54.1064 156.555 54.1064C156.573 54.1064 156.591 54.1106 156.607 54.1185C156.624 54.1264 156.638 54.138 156.649 54.1522C156.661 54.1665 156.669 54.1832 156.673 54.201C156.677 54.2187 156.676 54.2372 156.672 54.2549V58.3157C156.672 58.3478 156.66 58.3785 156.637 58.4012C156.614 58.4239 156.583 58.4366 156.551 58.4366Z" fill="white"/>
<path d="M156.204 55.1774H156.159C156.145 55.1712 156.132 55.1621 156.12 55.1507C156.109 55.1393 156.101 55.1258 156.095 55.1111C156.089 55.0963 156.086 55.0805 156.086 55.0645C156.086 55.0486 156.09 55.0329 156.096 55.0183L156.522 54.0381L156.993 54.5855C157.014 54.6079 157.026 54.6375 157.026 54.6682C157.026 54.6989 157.014 54.7285 156.993 54.7509C156.97 54.7724 156.939 54.7843 156.907 54.7843C156.876 54.7843 156.845 54.7724 156.821 54.7509L156.599 54.49L156.325 55.1265C156.312 55.1457 156.293 55.1607 156.272 55.1698C156.251 55.1788 156.227 55.1814 156.204 55.1774Z" fill="white"/>
<path d="M143.663 68.2825L128.152 59.3272L128.159 41.4102L143.663 50.3655V68.2825Z" fill="#D1D1D1"/>
<path d="M136.753 46.3751L152.251 37.4134L150.501 36.4014L134.996 45.3631L136.753 46.3751Z" fill="white"/>
<path d="M130.507 51.6828L136.064 54.8652C136.383 55.0757 136.649 55.358 136.841 55.6895C137.032 56.021 137.143 56.3926 137.165 56.7746V60.1989C137.165 60.9054 136.669 61.1918 136.064 60.8354L130.507 57.653C130.187 57.4428 129.921 57.1606 129.73 56.8291C129.539 56.4975 129.428 56.1257 129.406 55.7435V52.3193C129.406 51.6128 129.903 51.3327 130.507 51.6828Z" fill="#F36B31"/>
<path d="M130.082 52.5361L130.292 52.6634V56.4632L130.082 56.3423V52.5361Z" fill="#F36B31"/>
<path d="M130.941 53.0322L131.304 53.2486V57.0484L130.941 56.8384V53.0322Z" fill="#F36B31"/>
<path d="M131.801 53.5293L132.011 53.6502V57.4564L131.801 57.3355V53.5293Z" fill="#F36B31"/>
<path d="M132.441 53.8984L132.868 54.1467V57.9528L132.441 57.6982V53.8984Z" fill="#F36B31"/>
<path d="M133.512 54.5215L133.728 54.6424V58.4486L133.512 58.3213V54.5215Z" fill="#F36B31"/>
<path d="M134.135 54.8721L134.581 55.1394V58.9392L134.129 58.6719L134.135 54.8721Z" fill="#F36B31"/>
<path d="M135.23 55.5146L135.441 55.6356V59.4354L135.23 59.3145V55.5146Z" fill="#F36B31"/>
<path d="M135.723 55.7881L135.831 55.8517V59.6515L135.723 59.5943V55.7881Z" fill="#F36B31"/>
<path d="M134.844 55.3047L134.946 55.3683V59.1681L134.844 59.1109V55.3047Z" fill="#F36B31"/>
<path d="M133.113 54.293L133.215 54.3502V58.1564L133.113 58.0928V54.293Z" fill="#F36B31"/>
<path d="M132.16 53.7451L132.268 53.8088V57.6149L132.16 57.5513V53.7451Z" fill="#F36B31"/>
<path d="M131.484 53.3701L131.593 53.4338V57.2399L131.484 57.1763V53.3701Z" fill="#F36B31"/>
<path d="M130.559 52.8096L130.667 52.8732V56.6794L130.559 56.6157V52.8096Z" fill="#F36B31"/>
<path d="M136.09 56.0049L136.3 56.1258V59.932L136.09 59.8111V56.0049Z" fill="#F36B31"/>
<path d="M138.494 38.4252L120.392 27.9805L102.297 38.4252L120.392 48.8762L138.494 38.4252Z" fill="#EFEFEF"/>
<path d="M112.637 44.3952L130.739 33.9505L128.982 32.9385L110.887 43.3832L112.637 44.3952Z" fill="white"/>
<path d="M120.395 81.712L138.496 71.2674V38.4248L120.395 48.8759V81.712Z" fill="#EBEBEB"/>
<path d="M123.383 75.7993C123.3 75.8008 123.218 75.7787 123.147 75.7357C123.047 75.6646 122.967 75.5684 122.916 75.4567C122.864 75.345 122.843 75.2217 122.855 75.0992V73.1897V73.0497H122.956L124.439 72.1777V74.2972C124.436 74.57 124.368 74.8381 124.241 75.0794C124.114 75.3207 123.931 75.5282 123.707 75.6848C123.612 75.752 123.5 75.7917 123.383 75.7993ZM123.096 73.3361V75.0928C123.086 75.1746 123.096 75.2577 123.126 75.3344C123.156 75.4112 123.205 75.4792 123.268 75.532C123.32 75.555 123.377 75.5636 123.433 75.5569C123.489 75.5502 123.542 75.5284 123.587 75.4938C123.777 75.3608 123.934 75.1851 124.045 74.9806C124.155 74.7761 124.216 74.5486 124.223 74.3163V74.1636H123.669L123.561 73.4189L123.096 73.3361ZM123.86 73.9217H124.236V72.6169L123.345 73.1388L123.784 73.2152L123.86 73.9217Z" fill="white"/>
<path d="M123.652 77.2893C123.62 77.2893 123.589 77.2766 123.567 77.2539C123.544 77.2312 123.531 77.2004 123.531 77.1684V75.5708C123.531 75.5552 123.534 75.5398 123.541 75.5254C123.547 75.5111 123.556 75.4982 123.567 75.4874C123.578 75.4767 123.592 75.4684 123.606 75.463C123.621 75.4577 123.637 75.4554 123.652 75.4562C123.683 75.4562 123.713 75.468 123.736 75.4894C123.758 75.5107 123.771 75.5398 123.773 75.5708V77.1684C123.772 77.1999 123.758 77.2298 123.736 77.2522C123.714 77.2745 123.684 77.2878 123.652 77.2893Z" fill="white"/>
<path d="M122.968 77.7085C122.947 77.7089 122.927 77.7039 122.909 77.6938C122.891 77.6837 122.876 77.669 122.866 77.6512C122.851 77.623 122.848 77.5904 122.856 77.5598C122.864 77.5292 122.884 77.5028 122.91 77.4857L124.291 76.6901C124.305 76.6821 124.32 76.6769 124.336 76.6749C124.352 76.6728 124.368 76.6738 124.383 76.678C124.399 76.6821 124.413 76.6893 124.426 76.699C124.438 76.7087 124.449 76.7208 124.457 76.7346C124.465 76.7479 124.47 76.7627 124.472 76.778C124.474 76.7933 124.473 76.8088 124.469 76.8237C124.464 76.8385 124.457 76.8524 124.448 76.8645C124.438 76.8765 124.426 76.8865 124.412 76.8938L123.025 77.6957C123.008 77.7059 122.987 77.7103 122.968 77.7085Z" fill="white"/>
<path d="M127.899 74.9403C127.853 74.9404 127.807 74.9295 127.766 74.9085C127.719 74.8773 127.682 74.8343 127.657 74.7841C127.633 74.7338 127.622 74.6779 127.626 74.622V74.2911C127.626 74.2755 127.629 74.26 127.635 74.2457C127.641 74.2314 127.65 74.2185 127.662 74.2077C127.673 74.197 127.686 74.1887 127.701 74.1833C127.716 74.178 127.731 74.1756 127.747 74.1765C127.762 74.1765 127.777 74.1795 127.791 74.1852C127.804 74.191 127.817 74.1994 127.828 74.2101C127.838 74.2207 127.847 74.2333 127.853 74.2472C127.858 74.2611 127.861 74.276 127.861 74.2911V74.622C127.861 74.6666 127.861 74.6921 127.861 74.6984C127.861 74.7048 127.899 74.6984 127.938 74.6984C128.012 74.6299 128.07 74.546 128.109 74.4526C128.147 74.3591 128.165 74.2584 128.16 74.1574V72.0379C128.16 72.0059 128.173 71.9751 128.196 71.9524C128.219 71.9297 128.249 71.917 128.281 71.917C128.313 71.9185 128.343 71.9318 128.365 71.9541C128.388 71.9765 128.401 72.0064 128.402 72.0379V74.1574C128.408 74.2999 128.38 74.4418 128.32 74.5713C128.261 74.7008 128.171 74.8142 128.059 74.9021C128.009 74.9268 127.955 74.9398 127.899 74.9403Z" fill="white"/>
<path d="M126.637 73.0881V72.8781C126.667 72.349 126.821 71.8343 127.086 71.3756C127.351 70.9168 127.721 70.5267 128.164 70.2367C128.323 70.103 128.519 70.0214 128.726 70.003C128.933 69.9846 129.14 70.0303 129.32 70.1338C129.5 70.2374 129.644 70.3938 129.732 70.5818C129.82 70.7699 129.848 70.9805 129.813 71.185V71.255L126.637 73.0881ZM128.877 70.2558C128.667 70.2654 128.463 70.329 128.285 70.4403C127.906 70.6904 127.586 71.0185 127.344 71.4027C127.103 71.7869 126.946 72.2183 126.885 72.668L129.571 71.1214C129.58 70.9703 129.551 70.8194 129.487 70.6825C129.422 70.5456 129.324 70.4273 129.202 70.3385C129.102 70.2843 128.991 70.2559 128.877 70.2558Z" fill="white"/>
<path d="M132.18 72.496C132.147 72.496 132.117 72.4832 132.094 72.4606C132.071 72.4379 132.059 72.4071 132.059 72.3751V68.3143C132.059 68.2822 132.071 68.2515 132.094 68.2288C132.117 68.2061 132.147 68.1934 132.18 68.1934C132.212 68.1934 132.242 68.2061 132.265 68.2288C132.288 68.2515 132.3 68.2822 132.3 68.3143V72.3751C132.3 72.4071 132.288 72.4379 132.265 72.4606C132.242 72.4832 132.212 72.496 132.18 72.496Z" fill="white"/>
<path d="M131.829 69.2433H131.784C131.77 69.2377 131.757 69.2293 131.746 69.2185C131.734 69.2077 131.726 69.1948 131.72 69.1805C131.714 69.1662 131.711 69.1509 131.711 69.1354C131.711 69.12 131.714 69.1047 131.721 69.0905L132.147 68.1104L132.618 68.6577C132.638 68.6814 132.648 68.7121 132.646 68.7431C132.643 68.7741 132.629 68.803 132.605 68.8232C132.582 68.8435 132.551 68.8535 132.52 68.8511C132.489 68.8487 132.46 68.8341 132.44 68.8105L132.211 68.5495L131.937 69.186C131.926 69.2048 131.91 69.2202 131.891 69.2303C131.872 69.2405 131.85 69.245 131.829 69.2433Z" fill="white"/>
<path d="M133.283 71.8658C133.252 71.8658 133.223 71.8537 133.202 71.8322C133.18 71.8107 133.168 71.7816 133.168 71.7512V67.6904C133.167 67.6749 133.17 67.6593 133.175 67.6447C133.18 67.63 133.189 67.6166 133.199 67.6053C133.21 67.594 133.223 67.585 133.237 67.5788C133.252 67.5727 133.267 67.5695 133.283 67.5695C133.299 67.5686 133.315 67.5711 133.33 67.5768C133.345 67.5826 133.359 67.5915 133.37 67.6029C133.382 67.6143 133.391 67.628 133.396 67.6431C133.402 67.6582 133.405 67.6743 133.404 67.6904V71.7512C133.404 71.7668 133.401 71.7822 133.394 71.7966C133.388 71.8109 133.379 71.8238 133.368 71.8346C133.357 71.8453 133.343 71.8536 133.329 71.859C133.314 71.8643 133.298 71.8667 133.283 71.8658Z" fill="white"/>
<path d="M132.939 68.6139H132.888C132.86 68.6001 132.837 68.5761 132.826 68.5467C132.814 68.5172 132.813 68.4845 132.824 68.4548L133.251 67.4746L133.728 68.022C133.748 68.045 133.759 68.0744 133.759 68.1047C133.759 68.1351 133.748 68.1644 133.728 68.1875C133.717 68.1988 133.704 68.2078 133.689 68.214C133.674 68.2201 133.658 68.2233 133.642 68.2233C133.626 68.2233 133.611 68.2201 133.596 68.214C133.581 68.2078 133.568 68.1988 133.556 68.1875L133.334 67.9265L133.06 68.563C133.047 68.5829 133.029 68.5984 133.008 68.6075C132.986 68.6166 132.962 68.6188 132.939 68.6139Z" fill="white"/>
<path d="M120.392 81.712L102.297 71.2674V38.4248L120.392 48.8759V81.712Z" fill="#D1D1D1"/>
<path d="M105.98 64.4383L111.53 67.6207C111.851 67.8301 112.119 68.112 112.311 68.4437C112.503 68.7753 112.615 69.1474 112.638 69.5301V72.9608C112.638 73.6609 112.141 73.9473 111.53 73.5973L105.98 70.4149C105.659 70.2058 105.392 69.9239 105.201 69.5921C105.009 69.2603 104.899 68.8879 104.879 68.5054V65.0811C104.879 64.3428 105.375 64.0882 105.98 64.4383Z" fill="#EFEFEF"/>
<path d="M105.551 65.291L105.761 65.4183V69.2181L105.551 69.0972V65.291Z" fill="#D1D1D1"/>
<path d="M106.41 65.7871L106.773 66.0035V69.8097L106.41 69.5933V65.7871Z" fill="#D1D1D1"/>
<path d="M107.262 66.2842L107.478 66.4051L107.472 70.2113L107.262 70.0903V66.2842Z" fill="#D1D1D1"/>
<path d="M107.91 66.6533L108.33 66.9015V70.7077L107.91 70.4531V66.6533Z" fill="#D1D1D1"/>
<path d="M108.98 67.2773L109.191 67.3983V71.2044L108.98 71.0772V67.2773Z" fill="#D1D1D1"/>
<path d="M109.602 67.627L110.053 67.8943V71.6941L109.602 71.4268V67.627Z" fill="#D1D1D1"/>
<path d="M110.699 68.2637L110.909 68.391V72.1908L110.699 72.0698V68.2637Z" fill="#D1D1D1"/>
<path d="M111.191 68.543L111.3 68.6066V72.4128L111.191 72.3491V68.543Z" fill="#D1D1D1"/>
<path d="M110.312 68.0596L110.414 68.1232V71.923L110.312 71.8657V68.0596Z" fill="#D1D1D1"/>
<path d="M108.582 67.0479L108.684 67.1051V70.9113L108.582 70.8477V67.0479Z" fill="#D1D1D1"/>
<path d="M107.633 66.5L107.735 66.5637V70.3698L107.633 70.3062V66.5Z" fill="#D1D1D1"/>
<path d="M106.953 66.125L107.061 66.1886V69.9948L106.953 69.9312V66.125Z" fill="#D1D1D1"/>
<path d="M106.027 65.5645L106.136 65.6281V69.4343L106.027 69.3706V65.5645Z" fill="#D1D1D1"/>
<path d="M111.562 68.7598L111.773 68.8807V72.6869L111.562 72.5659V68.7598Z" fill="#D1D1D1"/>
<path d="M110.887 47.6228L112.637 48.6348V44.3958L110.887 43.3838V47.6228Z" fill="#F0F0F0"/>
<path d="M84.1941 72.7574L71.2671 65.2979L53.1719 75.7425L66.0989 83.2085L84.1941 72.7574Z" fill="#EFEFEF"/>
<path d="M66.1016 113.059L84.1968 102.614V72.7568L66.1016 83.2079V113.059Z" fill="#EBEBEB"/>
<path d="M69.0871 107.121C69.0062 107.122 68.9265 107.1 68.858 107.057C68.7581 106.985 68.6785 106.889 68.6272 106.778C68.5758 106.666 68.5545 106.543 68.5652 106.42V104.511V104.371H68.6607L70.1501 103.499V105.619C70.1469 105.891 70.0789 106.159 69.9516 106.401C69.8244 106.642 69.6415 106.849 69.4181 107.006C69.3198 107.073 69.2056 107.112 69.0871 107.121ZM68.8071 104.657V106.414C68.7952 106.496 68.8049 106.579 68.835 106.656C68.8651 106.733 68.9147 106.801 68.9789 106.853C69.031 106.874 69.0873 106.881 69.1429 106.874C69.1984 106.868 69.2514 106.847 69.2972 106.815C69.4878 106.682 69.6446 106.506 69.7551 106.302C69.8657 106.097 69.9268 105.87 69.9336 105.638V105.485H69.3799L69.2717 104.74L68.8071 104.657ZM69.5709 105.243H69.9146V103.932L69.0235 104.454L69.4627 104.53L69.5709 105.243Z" fill="white"/>
<path d="M69.3592 108.636C69.3271 108.636 69.2964 108.623 69.2737 108.601C69.251 108.578 69.2383 108.547 69.2383 108.515V106.917C69.2383 106.902 69.2414 106.886 69.2476 106.872C69.2537 106.858 69.2627 106.845 69.2741 106.834C69.2854 106.823 69.2988 106.815 69.3134 106.81C69.3281 106.804 69.3436 106.802 69.3592 106.803C69.3896 106.803 69.4187 106.815 69.4402 106.836C69.4617 106.858 69.4738 106.887 69.4738 106.917V108.515C69.4738 108.546 69.462 108.576 69.4406 108.598C69.4193 108.621 69.3902 108.634 69.3592 108.636Z" fill="white"/>
<path d="M68.6692 109.031C68.6486 109.032 68.628 109.027 68.6099 109.017C68.5919 109.007 68.5771 108.992 68.5674 108.973C68.5583 108.96 68.552 108.945 68.5489 108.93C68.5459 108.914 68.5462 108.898 68.5498 108.882C68.5534 108.867 68.5602 108.852 68.5698 108.839C68.5794 108.826 68.5916 108.816 68.6056 108.808L69.9931 108.012C70.0069 108.004 70.0221 107.999 70.0379 107.997C70.0537 107.995 70.0698 107.996 70.0851 108C70.1005 108.004 70.1149 108.012 70.1275 108.021C70.1401 108.031 70.1507 108.043 70.1586 108.057C70.1665 108.07 70.1715 108.085 70.1735 108.1C70.1755 108.116 70.1744 108.131 70.1702 108.146C70.1661 108.161 70.159 108.175 70.1493 108.187C70.1397 108.199 70.1277 108.209 70.1141 108.216L68.7265 109.018C68.7092 109.028 68.6892 109.033 68.6692 109.031Z" fill="white"/>
<path d="M73.6065 106.287C73.56 106.287 73.5142 106.276 73.4728 106.255C73.4264 106.224 73.3889 106.181 73.3644 106.131C73.3398 106.081 73.3289 106.025 73.3328 105.969V105.638C73.3328 105.608 73.3449 105.578 73.3664 105.557C73.3878 105.535 73.417 105.523 73.4474 105.523C73.4629 105.523 73.4785 105.525 73.4932 105.53C73.5078 105.536 73.5212 105.544 73.5325 105.555C73.5439 105.565 73.5529 105.578 73.559 105.593C73.5652 105.607 73.5683 105.622 73.5683 105.638V105.969C73.5683 106.013 73.5683 106.039 73.5683 106.045C73.5683 106.052 73.6065 106.045 73.6447 106.045C73.7176 105.976 73.7752 105.892 73.8136 105.798C73.8519 105.705 73.8703 105.605 73.8675 105.504V103.385C73.8633 103.367 73.8632 103.349 73.8672 103.331C73.8712 103.313 73.8791 103.296 73.8904 103.282C73.9018 103.268 73.9162 103.256 73.9326 103.248C73.949 103.24 73.967 103.236 73.9852 103.236C74.0034 103.236 74.0214 103.24 74.0378 103.248C74.0542 103.256 74.0686 103.268 74.08 103.282C74.0913 103.296 74.0992 103.313 74.1032 103.331C74.1072 103.349 74.1071 103.367 74.1029 103.385V105.504C74.1082 105.646 74.0804 105.787 74.0219 105.916C73.9634 106.046 73.8756 106.159 73.7656 106.249C73.7162 106.274 73.6617 106.287 73.6065 106.287Z" fill="white"/>
<path d="M72.3438 104.441V104.231C72.3739 103.702 72.5278 103.188 72.7931 102.729C73.0585 102.27 73.4277 101.88 73.8713 101.59C74.0294 101.455 74.2255 101.372 74.4326 101.353C74.6397 101.334 74.8476 101.379 75.0277 101.483C75.2078 101.587 75.3512 101.745 75.4382 101.934C75.5252 102.123 75.5515 102.334 75.5134 102.538V102.608L72.3438 104.441ZM74.5842 101.609C74.3743 101.619 74.1704 101.682 73.9922 101.794C73.6135 102.044 73.2926 102.372 73.0511 102.756C72.8096 103.14 72.653 103.572 72.592 104.021L75.2779 102.468C75.2869 102.318 75.2578 102.168 75.1932 102.032C75.1287 101.897 75.0308 101.779 74.9088 101.692C74.8116 101.636 74.7023 101.606 74.5905 101.603L74.5842 101.609Z" fill="white"/>
<path d="M77.8905 103.843C77.8584 103.843 77.8276 103.83 77.805 103.807C77.7823 103.785 77.7695 103.754 77.7695 103.722V99.661C77.7695 99.6289 77.7823 99.5981 77.805 99.5755C77.8276 99.5528 77.8584 99.54 77.8905 99.54C77.9225 99.54 77.9533 99.5528 77.976 99.5755C77.9986 99.5981 78.0114 99.6289 78.0114 99.661V103.722C78.0114 103.754 77.9986 103.785 77.976 103.807C77.9533 103.83 77.9225 103.843 77.8905 103.843Z" fill="white"/>
<path d="M77.5436 100.622H77.499C77.4846 100.617 77.4715 100.608 77.4604 100.597C77.4493 100.587 77.4405 100.574 77.4346 100.559C77.4286 100.545 77.4257 100.53 77.4258 100.514C77.4259 100.499 77.4292 100.484 77.4354 100.469L77.8618 99.4893L78.3328 100.037C78.3531 100.06 78.3631 100.091 78.3607 100.122C78.3583 100.153 78.3437 100.182 78.3201 100.202C78.3084 100.212 78.2948 100.22 78.2802 100.225C78.2655 100.229 78.2501 100.231 78.2347 100.23C78.2037 100.228 78.1749 100.213 78.1546 100.189L77.9255 99.9284L77.6518 100.565C77.641 100.584 77.6251 100.599 77.606 100.609C77.5868 100.619 77.5652 100.624 77.5436 100.622Z" fill="white"/>
<path d="M78.992 103.212C78.961 103.213 78.9312 103.201 78.9087 103.179C78.8862 103.158 78.8727 103.129 78.8711 103.098V99.0371C78.8711 99.0051 78.8838 98.9743 78.9065 98.9516C78.9292 98.9289 78.96 98.9162 78.992 98.9162C79.0081 98.9153 79.0243 98.9178 79.0394 98.9235C79.0545 98.9293 79.0682 98.9381 79.0796 98.9496C79.091 98.961 79.0999 98.9747 79.1056 98.9898C79.1114 99.0049 79.1139 99.021 79.113 99.0371V103.098C79.113 103.113 79.1098 103.129 79.1037 103.143C79.0975 103.158 79.0885 103.171 79.0772 103.181C79.0659 103.192 79.0525 103.2 79.0378 103.206C79.0232 103.211 79.0076 103.213 78.992 103.212Z" fill="white"/>
<path d="M78.6412 99.9855C78.6269 99.9908 78.611 99.9908 78.5967 99.9855C78.5823 99.9799 78.5691 99.9715 78.558 99.9607C78.547 99.9499 78.5382 99.937 78.5323 99.9227C78.5263 99.9084 78.5233 99.8931 78.5234 99.8776C78.5236 99.8622 78.5268 99.8469 78.533 99.8327L78.9595 98.8525L79.4305 99.3999C79.4515 99.4223 79.4632 99.4519 79.4632 99.4827C79.4632 99.5134 79.4515 99.543 79.4305 99.5654C79.4192 99.5768 79.4058 99.5858 79.3911 99.5919C79.3764 99.5981 79.3605 99.6012 79.3445 99.6012C79.3286 99.6012 79.3127 99.5981 79.298 99.5919C79.2833 99.5858 79.2699 99.5768 79.2586 99.5654L79.0359 99.3044L78.7622 99.9409C78.7483 99.959 78.7295 99.9728 78.7081 99.9807C78.6867 99.9885 78.6635 99.9902 78.6412 99.9855Z" fill="white"/>
<path d="M66.0989 113.059L53.1719 105.6V75.7422L66.0989 83.2081V113.059Z" fill="#D1D1D1"/>
<path d="M59.1797 83.4499L60.93 84.4619V80.2229L59.1797 79.2109V83.4499Z" fill="#EFEFEF"/>
<path d="M60.93 80.2228L79.0316 69.7718L77.2749 68.7598L59.1797 79.2108L60.93 80.2228Z" fill="white"/>
<path d="M60.9278 98.1339L37.6644 84.7041L14.3945 98.1339L37.6644 111.57L60.9278 98.1339Z" fill="#EFEFEF"/>
<path d="M37.6641 129.481L60.9275 116.051V98.1338L37.6641 111.57V129.481Z" fill="#EBEBEB"/>
<path d="M40.6493 123.536C40.5688 123.535 40.49 123.513 40.4202 123.473C40.3207 123.401 40.2415 123.304 40.1902 123.193C40.1389 123.081 40.1173 122.958 40.1274 122.836V120.927V120.787H40.2229L41.7123 119.908V122.034C41.7081 122.306 41.6397 122.573 41.5124 122.813C41.3852 123.053 41.2028 123.259 40.9803 123.415C40.8824 123.484 40.7683 123.525 40.6493 123.536ZM40.3629 121.073V122.83C40.3516 122.911 40.3615 122.993 40.3916 123.069C40.4217 123.145 40.4711 123.211 40.5348 123.262C40.5869 123.286 40.6444 123.296 40.7014 123.29C40.7584 123.285 40.8129 123.264 40.8594 123.231C41.0493 123.097 41.2056 122.921 41.316 122.717C41.4265 122.512 41.488 122.285 41.4959 122.053V121.894H40.923L40.8148 121.149L40.3629 121.073ZM41.1267 121.659H41.4959V120.354L40.6112 120.876L41.0503 120.952L41.1267 121.659Z" fill="white"/>
<path d="M40.9185 125.05C40.9035 125.05 40.8886 125.047 40.8747 125.041C40.8608 125.036 40.8482 125.027 40.8375 125.017C40.8269 125.006 40.8184 124.993 40.8127 124.979C40.8069 124.965 40.804 124.951 40.804 124.936V123.338C40.7998 123.32 40.7997 123.302 40.8037 123.284C40.8077 123.266 40.8156 123.25 40.827 123.235C40.8383 123.221 40.8527 123.209 40.8691 123.201C40.8855 123.194 40.9035 123.189 40.9217 123.189C40.9399 123.189 40.9579 123.194 40.9743 123.201C40.9907 123.209 41.0051 123.221 41.0165 123.235C41.0278 123.25 41.0357 123.266 41.0397 123.284C41.0437 123.302 41.0436 123.32 41.0395 123.338V124.936C41.0395 124.951 41.0363 124.967 41.0302 124.981C41.024 124.995 41.015 125.008 41.0037 125.019C40.9924 125.03 40.979 125.038 40.9643 125.043C40.9497 125.049 40.9341 125.051 40.9185 125.05Z" fill="white"/>
<path d="M40.2227 125.445C40.1973 125.443 40.1729 125.434 40.1532 125.417C40.1336 125.401 40.1195 125.379 40.1132 125.354C40.1068 125.33 40.1085 125.303 40.1178 125.28C40.1272 125.256 40.1439 125.236 40.1655 125.222L41.553 124.427C41.5656 124.417 41.58 124.411 41.5953 124.408C41.6105 124.405 41.6262 124.406 41.6413 124.409C41.6564 124.413 41.6705 124.42 41.6827 124.429C41.695 124.439 41.705 124.451 41.7121 124.465C41.7213 124.478 41.7275 124.493 41.7306 124.508C41.7336 124.524 41.7333 124.54 41.7297 124.556C41.7261 124.571 41.7193 124.586 41.7097 124.599C41.7001 124.612 41.6879 124.622 41.6739 124.63L40.2864 125.445H40.2227Z" fill="white"/>
<path d="M45.1613 122.708C45.1194 122.718 45.076 122.718 45.034 122.708C44.9854 122.677 44.9461 122.634 44.9203 122.582C44.8945 122.531 44.8832 122.473 44.8877 122.415V122.091C44.8877 122.059 44.9004 122.028 44.9231 122.005C44.9457 121.983 44.9765 121.97 45.0086 121.97C45.0407 121.97 45.0714 121.983 45.0941 122.005C45.1168 122.028 45.1295 122.059 45.1295 122.091V122.415C45.1208 122.442 45.1208 122.471 45.1295 122.498C45.1295 122.498 45.1677 122.498 45.2123 122.498C45.2841 122.428 45.3404 122.344 45.3777 122.251C45.415 122.157 45.4323 122.058 45.4287 121.957V119.838C45.4302 119.806 45.4434 119.776 45.4658 119.754C45.4881 119.732 45.518 119.718 45.5496 119.717C45.5817 119.717 45.6124 119.73 45.6351 119.752C45.6578 119.775 45.6705 119.806 45.6705 119.838V121.957C45.6758 122.099 45.648 122.24 45.5895 122.369C45.5309 122.498 45.4432 122.612 45.3332 122.702C45.2772 122.718 45.2183 122.72 45.1613 122.708Z" fill="white"/>
<path d="M43.9062 120.856V120.646C43.9339 120.117 44.0868 119.601 44.3523 119.142C44.6178 118.683 44.9885 118.293 45.4338 118.005C45.5919 117.87 45.788 117.787 45.9951 117.768C46.2022 117.749 46.4101 117.794 46.5902 117.898C46.7703 118.002 46.9137 118.16 47.0007 118.349C47.0877 118.538 47.114 118.749 47.0759 118.953V119.023L43.9062 120.856ZM46.1467 118.024C45.935 118.035 45.7293 118.098 45.5484 118.209C45.1708 118.459 44.8511 118.788 44.6108 119.172C44.3704 119.556 44.2148 119.987 44.1545 120.436L46.8341 118.883C46.8443 118.734 46.8164 118.584 46.753 118.448C46.6895 118.312 46.5926 118.195 46.4713 118.107C46.3724 118.051 46.2603 118.022 46.1467 118.024Z" fill="white"/>
<path d="M49.4522 120.264C49.4361 120.265 49.42 120.262 49.4049 120.256C49.3898 120.251 49.3761 120.242 49.3647 120.23C49.3533 120.219 49.3444 120.205 49.3386 120.19C49.3329 120.175 49.3304 120.159 49.3313 120.143V116.082C49.3272 116.064 49.3271 116.046 49.331 116.028C49.335 116.01 49.343 115.994 49.3543 115.979C49.3656 115.965 49.38 115.954 49.3964 115.946C49.4128 115.938 49.4308 115.934 49.4491 115.934C49.4673 115.934 49.4853 115.938 49.5017 115.946C49.5181 115.954 49.5325 115.965 49.5438 115.979C49.5551 115.994 49.5631 116.01 49.5671 116.028C49.5711 116.046 49.571 116.064 49.5668 116.082V120.143C49.5677 120.158 49.5654 120.174 49.56 120.189C49.5546 120.203 49.5463 120.217 49.5356 120.228C49.5249 120.239 49.5119 120.248 49.4976 120.254C49.4833 120.261 49.4678 120.264 49.4522 120.264Z" fill="white"/>
<path d="M49.1331 117.011H49.0822C49.0675 117.005 49.0543 116.996 49.0433 116.985C49.0323 116.973 49.0239 116.959 49.0185 116.944C49.0131 116.929 49.0109 116.914 49.012 116.898C49.0131 116.882 49.0175 116.866 49.0249 116.852L49.445 115.872L49.9224 116.419C49.9435 116.444 49.954 116.476 49.9516 116.508C49.9492 116.54 49.9341 116.57 49.9096 116.591C49.8851 116.612 49.8533 116.623 49.8211 116.621C49.7888 116.618 49.7589 116.603 49.7378 116.579L49.515 116.318L49.2413 116.954C49.23 116.972 49.214 116.987 49.195 116.997C49.176 117.008 49.1546 117.012 49.1331 117.011Z" fill="white"/>
<path d="M50.5545 119.634C50.5225 119.634 50.4917 119.621 50.469 119.598C50.4463 119.576 50.4336 119.545 50.4336 119.513V115.452C50.4336 115.42 50.4463 115.389 50.469 115.366C50.4917 115.344 50.5225 115.331 50.5545 115.331C50.5866 115.331 50.6174 115.344 50.64 115.366C50.6627 115.389 50.6755 115.42 50.6755 115.452V119.513C50.6755 119.545 50.6627 119.576 50.64 119.598C50.6174 119.621 50.5866 119.634 50.5545 119.634Z" fill="white"/>
<path d="M50.2037 116.381H50.1592C50.1448 116.376 50.1316 116.367 50.1205 116.357C50.1095 116.346 50.1007 116.333 50.0948 116.319C50.0888 116.304 50.0858 116.289 50.0859 116.274C50.0861 116.258 50.0893 116.243 50.0955 116.229L50.522 115.242L50.993 115.79C51.0043 115.801 51.0133 115.814 51.0195 115.829C51.0256 115.844 51.0288 115.86 51.0288 115.875C51.0288 115.891 51.0256 115.907 51.0195 115.922C51.0133 115.937 51.0043 115.95 50.993 115.961C50.9823 115.973 50.9694 115.981 50.9552 115.988C50.941 115.994 50.9257 115.997 50.9102 115.997C50.8948 115.997 50.8795 115.994 50.8652 115.988C50.851 115.981 50.8382 115.973 50.8275 115.961L50.5984 115.7L50.3247 116.337C50.3113 116.356 50.2926 116.37 50.2711 116.378C50.2495 116.386 50.226 116.387 50.2037 116.381Z" fill="white"/>
<path d="M37.6644 129.481L14.3945 116.051V98.1338L37.6644 111.57V129.481Z" fill="#D1D1D1"/>
<path d="M25.1523 108.585L26.9027 109.597V105.358L25.1523 104.346V108.585Z" fill="#EFEFEF"/>
<path d="M26.9027 105.357L50.1725 91.9275L48.4222 90.9092L25.1523 104.345L26.9027 105.357Z" fill="white"/>
<path d="M18.0816 109.221L23.6317 112.404C23.9528 112.613 24.2203 112.895 24.4126 113.227C24.605 113.558 24.7168 113.93 24.7392 114.313V117.744C24.7392 118.444 24.2427 118.73 23.6317 118.38L18.0816 115.198C17.7606 114.989 17.4936 114.707 17.3022 114.375C17.1109 114.043 17.0006 113.671 16.9805 113.288V109.864C16.9805 109.151 17.4769 108.897 18.0816 109.221Z" fill="#EFEFEF"/>
<path d="M17.6523 110.074L17.8624 110.195V114.001L17.6523 113.88V110.074Z" fill="#D1D1D1"/>
<path d="M18.5078 110.57L18.877 110.787V114.587L18.5078 114.376V110.57Z" fill="#D1D1D1"/>
<path d="M19.3672 111.067L19.5836 111.188L19.5772 114.994L19.3672 114.874V111.067Z" fill="#D1D1D1"/>
<path d="M20.0156 111.437L20.4421 111.685L20.4357 115.491L20.0156 115.236V111.437Z" fill="#D1D1D1"/>
<path d="M21.082 112.06L21.2921 112.181V115.987L21.082 115.859V112.06Z" fill="#D1D1D1"/>
<path d="M21.7031 112.41L22.155 112.677V116.477L21.7031 116.21V112.41Z" fill="#D1D1D1"/>
<path d="M22.8047 113.053L23.0147 113.174V116.973L22.8047 116.853V113.053Z" fill="#D1D1D1"/>
<path d="M23.293 113.326L23.4012 113.39V117.19L23.293 117.132V113.326Z" fill="#D1D1D1"/>
<path d="M22.4141 112.843L22.5159 112.9V116.706L22.4141 116.649V112.843Z" fill="#D1D1D1"/>
<path d="M20.6836 111.831L20.7854 111.888V115.695L20.6836 115.631V111.831Z" fill="#D1D1D1"/>
<path d="M19.7383 111.283L19.8465 111.347V115.147L19.7383 115.089V111.283Z" fill="#D1D1D1"/>
<path d="M19.0547 110.908L19.1629 110.972V114.778L19.0547 114.714V110.908Z" fill="#D1D1D1"/>
<path d="M18.1289 110.348L18.2371 110.411V114.211L18.1289 114.154V110.348Z" fill="#D1D1D1"/>
<path d="M23.6602 113.543L23.8702 113.67V117.47L23.6602 117.349V113.543Z" fill="#D1D1D1"/>
<path d="M55.7593 62.3124L37.6641 51.8613L19.5625 62.3124L37.6641 72.7571L55.7593 62.3124Z" fill="#EFEFEF"/>
<path d="M37.6641 108.585L55.7593 98.1338V62.3125L37.6641 72.7572V108.585Z" fill="#EBEBEB"/>
<path d="M40.6493 102.64C40.5693 102.64 40.4905 102.621 40.4202 102.582C40.3207 102.51 40.2415 102.414 40.1902 102.303C40.1389 102.191 40.1173 102.068 40.1274 101.946V100.036V99.8964H40.2229L41.7123 99.0244V101.144C41.7086 101.417 41.6404 101.685 41.5132 101.926C41.3859 102.167 41.2033 102.374 40.9803 102.531C40.8814 102.596 40.7672 102.633 40.6493 102.64ZM40.3629 100.176V101.94C40.3528 102.02 40.3633 102.102 40.3933 102.178C40.4234 102.254 40.472 102.32 40.5348 102.372C40.5869 102.396 40.6444 102.406 40.7014 102.4C40.7584 102.395 40.8129 102.374 40.8594 102.34C41.0494 102.205 41.2057 102.028 41.3161 101.823C41.4265 101.618 41.488 101.39 41.4959 101.157V101.004H40.923L40.8148 100.259L40.3629 100.176ZM41.1267 100.762H41.4959V99.4572L40.6112 99.9791L41.0503 100.056L41.1267 100.762Z" fill="white"/>
<path d="M40.9155 104.155C40.8999 104.155 40.8845 104.151 40.8702 104.145C40.8558 104.139 40.8429 104.13 40.8322 104.119C40.8215 104.107 40.8131 104.094 40.8078 104.079C40.8024 104.065 40.8001 104.049 40.801 104.034V102.442C40.8001 102.427 40.8024 102.411 40.8078 102.397C40.8131 102.382 40.8215 102.369 40.8322 102.357C40.8429 102.346 40.8558 102.337 40.8702 102.331C40.8845 102.325 40.8999 102.321 40.9155 102.321C40.9316 102.321 40.9478 102.323 40.9629 102.329C40.978 102.335 40.9917 102.343 41.0031 102.355C41.0145 102.366 41.0234 102.38 41.0291 102.395C41.0349 102.41 41.0374 102.426 41.0365 102.442V104.034C41.0374 104.05 41.0349 104.066 41.0291 104.081C41.0234 104.096 41.0145 104.11 41.0031 104.121C40.9917 104.133 40.978 104.141 40.9629 104.147C40.9478 104.153 40.9316 104.155 40.9155 104.155Z" fill="white"/>
<path d="M40.2227 104.556C40.1973 104.554 40.1729 104.544 40.1532 104.528C40.1336 104.512 40.1195 104.49 40.1132 104.465C40.1068 104.44 40.1085 104.414 40.1178 104.39C40.1272 104.367 40.1439 104.346 40.1655 104.333L41.553 103.531C41.5808 103.515 41.6139 103.51 41.645 103.519C41.676 103.527 41.7024 103.548 41.7185 103.575C41.7345 103.603 41.7388 103.636 41.7305 103.667C41.7221 103.698 41.7018 103.725 41.6739 103.741L40.2864 104.536C40.2677 104.549 40.2454 104.556 40.2227 104.556Z" fill="white"/>
<path d="M45.1614 101.813C45.1162 101.813 45.0719 101.8 45.0341 101.775C44.9855 101.745 44.9461 101.703 44.9202 101.652C44.8943 101.602 44.8831 101.545 44.8877 101.488V101.164C44.8877 101.132 44.9005 101.101 44.9232 101.078C44.9458 101.056 44.9766 101.043 45.0087 101.043C45.0407 101.043 45.0715 101.056 45.0942 101.078C45.1169 101.101 45.1296 101.132 45.1296 101.164V101.488C45.1209 101.515 45.1209 101.544 45.1296 101.571C45.1567 101.579 45.1853 101.579 45.2123 101.571C45.285 101.503 45.342 101.42 45.3793 101.328C45.4167 101.235 45.4336 101.136 45.4288 101.037V98.917C45.4288 98.8849 45.4415 98.8542 45.4642 98.8315C45.4869 98.8088 45.5176 98.7961 45.5497 98.7961C45.5658 98.7952 45.5819 98.7977 45.597 98.8034C45.6121 98.8092 45.6258 98.818 45.6372 98.8294C45.6487 98.8409 45.6575 98.8546 45.6633 98.8697C45.669 98.8848 45.6715 98.9009 45.6706 98.917V101.037C45.6759 101.178 45.6481 101.319 45.5896 101.449C45.531 101.578 45.4433 101.692 45.3333 101.781C45.2794 101.805 45.2204 101.816 45.1614 101.813Z" fill="white"/>
<path d="M43.9062 99.9863V99.7826C43.9349 99.2523 44.0882 98.7362 44.3536 98.2762C44.619 97.8161 44.9891 97.4251 45.4338 97.1349C45.5933 97.0028 45.7895 96.9228 45.9958 96.9058C46.2022 96.8887 46.4089 96.9354 46.5879 97.0395C46.7669 97.1435 46.9097 97.3 46.9969 97.4878C47.0842 97.6756 47.1118 97.8856 47.0759 98.0896V98.1532L43.9062 99.9863ZM46.1467 97.1603C45.935 97.1711 45.7293 97.2345 45.5484 97.3449C45.1716 97.5949 44.8523 97.9223 44.612 98.3053C44.3716 98.6883 44.2157 99.1182 44.1545 99.5662L46.8341 98.0196C46.8456 97.8699 46.8182 97.7197 46.7547 97.5837C46.6911 97.4476 46.5935 97.3303 46.4713 97.2431C46.3757 97.1758 46.2633 97.1361 46.1467 97.1285V97.1603Z" fill="white"/>
<path d="M49.4522 99.3497C49.4202 99.3497 49.3894 99.337 49.3667 99.3143C49.344 99.2916 49.3313 99.2609 49.3313 99.2288V95.168C49.3272 95.1503 49.3271 95.1318 49.331 95.114C49.335 95.0963 49.343 95.0796 49.3543 95.0653C49.3656 95.051 49.38 95.0395 49.3964 95.0316C49.4128 95.0236 49.4308 95.0195 49.4491 95.0195C49.4673 95.0195 49.4853 95.0236 49.5017 95.0316C49.5181 95.0395 49.5325 95.051 49.5438 95.0653C49.5551 95.0796 49.5631 95.0963 49.5671 95.114C49.5711 95.1318 49.571 95.1503 49.5668 95.168V99.2288C49.5668 99.2598 49.555 99.2896 49.5337 99.3121C49.5123 99.3346 49.4832 99.3481 49.4522 99.3497Z" fill="white"/>
<path d="M49.1331 96.11H49.0822C49.0675 96.1039 49.0543 96.0948 49.0433 96.0832C49.0323 96.0717 49.0239 96.058 49.0185 96.0431C49.0131 96.0281 49.0109 96.0122 49.012 95.9963C49.0131 95.9804 49.0175 95.965 49.0249 95.9509L49.445 94.9707L49.9224 95.5181C49.9434 95.5405 49.9551 95.5701 49.9551 95.6008C49.9551 95.6316 49.9434 95.6612 49.9224 95.6836C49.8989 95.705 49.8682 95.7169 49.8364 95.7169C49.8046 95.7169 49.774 95.705 49.7505 95.6836L49.5277 95.4226L49.254 96.0591C49.2415 96.0789 49.2232 96.0945 49.2016 96.1036C49.18 96.1127 49.1561 96.1149 49.1331 96.11Z" fill="white"/>
<path d="M50.5545 98.7128C50.523 98.7112 50.4931 98.698 50.4707 98.6757C50.4484 98.6533 50.4351 98.6234 50.4336 98.5918V94.5311C50.4336 94.499 50.4463 94.4683 50.469 94.4456C50.4917 94.4229 50.5225 94.4102 50.5545 94.4102C50.5866 94.4102 50.6174 94.4229 50.64 94.4456C50.6627 94.4683 50.6755 94.499 50.6755 94.5311V98.5918C50.6739 98.6234 50.6607 98.6533 50.6383 98.6757C50.616 98.698 50.5861 98.7112 50.5545 98.7128Z" fill="white"/>
<path d="M50.204 95.486H50.1595C50.1448 95.4797 50.1315 95.4707 50.1204 95.4593C50.1093 95.4479 50.1005 95.4344 50.0946 95.4196C50.0887 95.4049 50.0857 95.3891 50.0859 95.3731C50.0862 95.3572 50.0895 95.3415 50.0958 95.3269L50.5223 94.3467L50.9933 94.8941C51.0046 94.9053 51.0136 94.9187 51.0198 94.9334C51.0259 94.9482 51.0291 94.964 51.0291 94.98C51.0291 94.996 51.0259 95.0118 51.0198 95.0265C51.0136 95.0413 51.0046 95.0547 50.9933 95.0659C50.9702 95.0856 50.9409 95.0965 50.9105 95.0965C50.8802 95.0965 50.8508 95.0856 50.8278 95.0659L50.5986 94.8049L50.3249 95.4414C50.311 95.4595 50.2923 95.4733 50.2709 95.4812C50.2495 95.489 50.2263 95.4907 50.204 95.486Z" fill="white"/>
<path d="M37.6641 108.585L19.5625 98.1338V62.3125L37.6641 72.7572V108.585Z" fill="#D1D1D1"/>
<path d="M28.1484 71.5036L29.9051 72.5156V68.283L28.1484 67.2646V71.5036Z" fill="#EFEFEF"/>
<path d="M29.9051 68.2824L48.0004 57.8314L46.25 56.8193L28.1484 67.264L29.9051 68.2824Z" fill="white"/>
<path d="M23.2442 91.3037L28.7943 94.4861C29.1157 94.6948 29.383 94.9766 29.5744 95.3085C29.7658 95.6404 29.8758 96.0129 29.8955 96.3956V99.8199C29.8955 100.52 29.4054 100.806 28.7943 100.456L23.2442 97.2739C22.922 97.0656 22.6538 96.784 22.4613 96.4521C22.2688 96.1202 22.1576 95.7475 22.1367 95.3645V91.9402C22.1431 91.2401 22.6332 90.9536 23.2442 91.3037Z" fill="#EFEFEF"/>
<path d="M22.8164 92.1631L23.0264 92.284V96.0902L22.8164 95.9629V92.1631Z" fill="#D1D1D1"/>
<path d="M23.6758 92.6602L24.0386 92.8702V96.6764L23.6758 96.46V92.6602Z" fill="#D1D1D1"/>
<path d="M24.5312 93.1504L24.7413 93.2777V97.0775L24.5312 96.9566V93.1504Z" fill="#D1D1D1"/>
<path d="M25.1797 93.5195L25.5998 93.7741V97.5739L25.1797 97.3257V93.5195Z" fill="#D1D1D1"/>
<path d="M26.2539 94.1426L26.4639 94.2635V98.0697L26.2539 97.9487V94.1426Z" fill="#D1D1D1"/>
<path d="M26.8711 94.4932L27.323 94.7605V98.5667L26.8711 98.2993V94.4932Z" fill="#D1D1D1"/>
<path d="M27.9688 95.1357L28.1788 95.2567V99.0628L27.9688 98.9355V95.1357Z" fill="#D1D1D1"/>
<path d="M28.4609 95.416L28.5628 95.4733V99.2795L28.4609 99.2158V95.416Z" fill="#D1D1D1"/>
<path d="M27.5781 94.9258L27.6863 94.9894V98.7956L27.5781 98.7319V94.9258Z" fill="#D1D1D1"/>
<path d="M25.8477 93.9141L25.9559 93.9777V97.7775L25.8477 97.7202V93.9141Z" fill="#D1D1D1"/>
<path d="M24.8984 93.373L25.0066 93.4303V97.2365L24.8984 97.1729V93.373Z" fill="#D1D1D1"/>
<path d="M24.2227 92.9971L24.3245 93.0544V96.8605L24.2227 96.7969V92.9971Z" fill="#D1D1D1"/>
<path d="M23.3008 92.4375L23.4026 92.4948V96.301L23.3008 96.2373V92.4375Z" fill="#D1D1D1"/>
<path d="M28.8203 95.6328L29.0367 95.7537V99.5536L28.8203 99.4326V95.6328Z" fill="#D1D1D1"/>
<path d="M19.7346 160.93L89.2005 201.028C90.0545 201.462 90.9987 201.688 91.9564 201.688C92.9141 201.688 93.8583 201.462 94.7124 201.028L246.915 113.194C248.436 112.315 248.436 110.89 246.915 110.011L177.449 69.9128C176.596 69.4765 175.651 69.249 174.693 69.249C173.735 69.249 172.79 69.4765 171.937 69.9128L19.7346 157.748C18.2135 158.626 18.2135 160.052 19.7346 160.93Z" fill="#707070"/>
<path d="M57.2849 179.547C58.4693 180.144 59.7773 180.456 61.1038 180.456C62.4304 180.456 63.7384 180.144 64.9227 179.547C67.0422 178.325 67.0422 176.365 64.9227 175.123C63.7393 174.523 62.4309 174.21 61.1038 174.21C59.7768 174.21 58.4684 174.523 57.2849 175.123C55.1654 176.365 55.1654 178.338 57.2849 179.547Z" fill="#191720"/>
<path d="M90.5069 201.028L21.0411 160.93C19.6791 160.14 19.539 158.918 20.6147 158.04C19.9353 158.577 19.3767 159.252 18.9753 160.02C18.5739 160.787 18.3388 161.631 18.2852 162.495V165.086C18.3374 166.042 18.6141 166.973 19.0929 167.802C19.5718 168.631 20.2392 169.336 21.0411 169.86L90.5069 209.958C91.3563 210.402 92.305 210.621 93.2629 210.594V201.69C92.3028 201.709 91.354 201.481 90.5069 201.028Z" fill="#707070"/>
<path d="M246.909 122.117C247.713 121.595 248.382 120.891 248.862 120.061C249.342 119.232 249.619 118.301 249.671 117.344V114.753C249.62 113.888 249.385 113.043 248.982 112.275C248.579 111.506 248.018 110.833 247.335 110.298C248.417 111.176 248.277 112.398 246.915 113.181L94.713 201.029C93.863 201.471 92.9148 201.69 91.957 201.665V210.62C92.9148 210.645 93.863 210.426 94.713 209.984L246.909 122.117Z" fill="#191720"/>
<path d="M100.647 192.723L34.1601 154.317C33.2435 153.789 33.2435 152.93 34.1601 152.408L162.679 78.1873C163.192 77.9268 163.759 77.791 164.334 77.791C164.909 77.791 165.476 77.9268 165.989 78.1873L232.501 116.586C233.411 117.115 233.411 117.968 232.501 118.496L103.931 192.723C103.422 192.979 102.86 193.112 102.289 193.112C101.719 193.112 101.157 192.979 100.647 192.723Z" fill="white"/>
<path d="M73.8537 171.279L81.6124 166.798L79.0283 165.309L71.2695 169.783L73.8537 171.279Z" fill="#F36B31"/>
<path d="M166.936 117.541L174.694 113.06L172.104 111.57L164.352 116.051L166.936 117.541Z" fill="#F36B31"/>
<path d="M182.447 108.585L190.206 104.105L187.622 102.615L179.863 107.09L182.447 108.585Z" fill="#F36B31"/>
<path d="M207.346 92.8959C207.647 93.0466 207.979 93.1251 208.316 93.1251C208.653 93.1251 208.986 93.0466 209.287 92.8959C209.404 92.856 209.505 92.7805 209.577 92.6801C209.649 92.5797 209.688 92.4593 209.688 92.3358C209.688 92.2124 209.649 92.092 209.577 91.9916C209.505 91.8911 209.404 91.8157 209.287 91.7757C208.987 91.6221 208.654 91.542 208.316 91.542C207.979 91.542 207.646 91.6221 207.346 91.7757C207.229 91.8157 207.128 91.8911 207.056 91.9916C206.984 92.092 206.945 92.2124 206.945 92.3358C206.945 92.4593 206.984 92.5797 207.056 92.6801C207.128 92.7805 207.229 92.856 207.346 92.8959Z" fill="#191720"/>
<path d="M210.447 101.686C211.047 101.99 211.711 102.148 212.385 102.148C213.058 102.148 213.722 101.99 214.323 101.686C215.392 101.049 215.392 100.063 214.323 99.4452C213.722 99.141 213.058 98.9824 212.385 98.9824C211.711 98.9824 211.047 99.141 210.447 99.4452C209.377 100.063 209.377 101.068 210.447 101.686Z" fill="#191720"/>
<path d="M207.708 97.7907C208.42 97.377 208.382 96.6896 207.625 96.2504L194.895 88.8863C194.485 88.6666 194.029 88.5475 193.565 88.5386C193.1 88.5298 192.64 88.6315 192.222 88.8353C191.509 89.2491 191.547 89.9365 192.305 90.3756L205.072 97.7397C205.477 97.9526 205.927 98.0681 206.384 98.0769C206.841 98.0858 207.295 97.9878 207.708 97.7907Z" fill="#191720"/>
<path d="M185.978 67.9272L186.41 67.6726C186.111 68.7587 185.966 69.8813 185.978 71.0078V72.5608C185.978 78.1364 192.667 92.3809 195.13 97.4218C195.385 97.9501 192.005 101.546 192.005 101.546L196.021 99.2295C196.021 99.2295 206.059 90.9552 206.059 84.1575V82.6045C206.059 75.775 201.565 67.6471 196.021 64.4456C193.221 62.8353 190.694 62.7781 188.874 64.0001L185.055 66.1896L185.978 67.9272ZM190.999 73.14C190.999 69.9576 193.246 68.6401 196.021 70.244C195.792 72.2998 199.547 78.7029 201.037 78.9384C201.037 82.1208 198.79 83.4383 196.021 81.8344C194.564 80.8796 193.352 79.5949 192.484 78.0843C191.616 76.5737 191.116 74.8799 191.025 73.14H190.999Z" fill="#F36B31"/>
<path d="M181.85 75.0493C181.964 81.8724 192.326 101.546 192.326 101.546C192.326 101.546 202.23 93.1317 202.122 86.3086V84.7556C202.007 77.9325 197.38 69.8746 191.779 66.7686C186.178 63.6626 181.735 66.6668 181.85 73.4962V75.0493ZM186.878 75.5457C186.827 72.3633 189.055 71.0076 191.849 72.5606C193.326 73.4891 194.563 74.7528 195.46 76.2491C196.357 77.7453 196.888 79.432 197.011 81.1722C197.068 84.3546 194.84 85.7104 192.04 84.1573C190.565 83.227 189.329 81.9628 188.432 80.4669C187.536 78.971 187.003 77.2853 186.878 75.5457Z" fill="#F36B31"/>
<path opacity="0.1" d="M181.85 75.0493C181.964 81.8724 192.326 101.546 192.326 101.546C192.326 101.546 202.23 93.1317 202.122 86.3086V84.7556C202.007 77.9325 197.38 69.8746 191.779 66.7686C186.178 63.6626 181.735 66.6668 181.85 73.4962V75.0493ZM186.878 75.5457C186.827 72.3633 189.055 71.0076 191.849 72.5606C193.326 73.4891 194.563 74.7528 195.46 76.2491C196.357 77.7453 196.888 79.432 197.011 81.1722C197.068 84.3546 194.84 85.7104 192.04 84.1573C190.565 83.227 189.329 81.9628 188.432 80.4669C187.536 78.971 187.003 77.2853 186.878 75.5457Z" fill="#191720"/>
<path d="M84.7799 166.047C91.2148 169.751 106.299 167.059 118.475 160.025L151.923 140.721C164.098 133.688 168.745 124.993 162.297 121.295C155.85 117.597 140.752 120.303 128.564 127.329L95.1801 146.608C83.0105 153.635 78.3514 162.361 84.7799 166.047Z" fill="#F0F0F0"/>
<path d="M182.166 4.20846H182.198L187.704 1.02604H187.748C191.217 -0.730652 195.851 -0.24692 200.841 2.99915C210.872 9.45309 218.529 24.3468 217.949 36.2554C217.657 42.1938 215.403 46.2673 211.922 48.0622H211.89L206.378 51.2446H206.34C202.871 53.0076 198.231 52.5176 193.235 49.2779C183.21 42.8176 175.553 27.9302 176.132 16.0216C176.438 10.0768 178.723 6.00334 182.166 4.20846Z" fill="#707070"/>
<path d="M206.656 51.0788L211.907 48.0237H211.945C215.395 46.2224 217.674 42.1489 217.967 36.2169C218.221 30.9086 216.84 25.0084 214.345 19.5283L208.833 22.7107C211.334 28.1909 212.716 34.0911 212.455 39.4057C212.181 45.1977 209.991 49.2266 206.656 51.0788Z" fill="#191720"/>
<path d="M193.262 49.2718C183.237 42.8115 175.581 27.9241 176.16 16.0155C176.739 4.10688 185.351 -0.316675 195.356 6.13727C205.362 12.5912 213.044 27.4849 212.465 39.3935C211.886 51.3021 203.287 55.7257 193.262 49.2718Z" fill="#707070"/>
<path d="M201.66 48.4309C207.573 48.7174 208.534 42.0661 208.662 39.2019C209.171 28.7 202.131 15.0156 193.291 9.31903C191.407 7.99953 189.215 7.18838 186.926 6.96404C181.019 6.67763 180.058 13.3289 179.924 16.1931C179.415 26.695 186.448 40.3794 195.296 46.1078C197.179 47.4273 199.371 48.2384 201.66 48.4628V48.4309Z" fill="#FAFAFA"/>
<path d="M193.149 29.6739C193.219 29.6741 193.288 29.6611 193.352 29.6357C193.485 29.5925 193.6 29.5068 193.68 29.3918C193.759 29.2767 193.798 29.1388 193.792 28.9992V13.8318C193.792 13.663 193.725 13.5011 193.605 13.3817C193.486 13.2624 193.324 13.1953 193.155 13.1953C192.986 13.1953 192.824 13.2624 192.705 13.3817C192.586 13.5011 192.519 13.663 192.519 13.8318V27.1534L185.435 18.0517C185.33 17.9166 185.176 17.8287 185.006 17.8072C184.837 17.7857 184.666 17.8325 184.531 17.9371C184.396 18.0418 184.308 18.1958 184.286 18.3653C184.265 18.5348 184.312 18.7059 184.416 18.8409L192.659 29.4256C192.717 29.501 192.791 29.5624 192.876 29.6054C192.96 29.6483 193.054 29.6717 193.149 29.6739Z" fill="#707070"/>
<path d="M196.804 40.8953C196.833 40.9011 196.864 40.9011 196.893 40.8953C196.961 40.8746 197.018 40.8286 197.052 40.7669C197.086 40.7052 197.096 40.6326 197.078 40.5643L193.507 28.5411C193.487 28.4727 193.44 28.4152 193.378 28.3812C193.315 28.3472 193.241 28.3395 193.173 28.3597C193.105 28.38 193.047 28.4266 193.013 28.4892C192.979 28.5519 192.971 28.6255 192.992 28.6939L196.556 40.717C196.574 40.7685 196.608 40.8132 196.652 40.8451C196.696 40.877 196.749 40.8945 196.804 40.8953Z" fill="#F36B31"/>
<path d="M193.357 25.9891C192.173 25.2317 191.161 25.7536 191.098 27.1539C191.102 27.9176 191.286 28.6697 191.635 29.3488C191.985 30.0279 192.49 30.6149 193.109 31.0619C194.286 31.8257 195.298 31.3038 195.368 29.9035C195.363 29.1391 195.178 28.3867 194.829 27.7068C194.48 27.0269 193.975 26.4386 193.357 25.9891Z" fill="#F36B31"/>
<path d="M89.3771 162.324L97.1295 157.843L94.5453 156.354L86.793 160.828L89.3771 162.324Z" fill="#F36B31"/>
<path d="M104.889 153.368L112.648 148.887L110.057 147.397L102.305 151.872L104.889 153.368Z" fill="#F36B31"/>
<path d="M101.699 151.541C101.699 155.284 99.0767 159.816 95.837 161.725C94.1121 162.724 92.5591 162.756 91.4898 162.005C91.0587 161.666 90.7046 161.24 90.4511 160.754C90.1976 160.267 90.0505 159.733 90.0195 159.186C90.2372 159.084 90.4497 158.971 90.656 158.848C93.8957 156.983 96.518 152.432 96.518 148.664C96.5211 148.386 96.5041 148.107 96.4671 147.831C96.9526 147.574 97.4863 147.421 98.0342 147.381C98.5821 147.342 99.1322 147.417 99.6495 147.602C100.922 148.136 101.699 149.517 101.699 151.541Z" fill="#191720"/>
<path d="M102.226 143.853L102.118 143.789C100.489 142.923 98.2991 143.083 95.836 144.496C90.8396 147.379 86.7852 154.393 86.7852 160.166C86.7852 163.068 87.8099 165.099 89.4648 166.041C91.1196 166.983 93.3537 166.823 95.8296 165.404C100.826 162.521 104.874 155.5 104.874 149.727C104.88 146.825 103.875 144.795 102.226 143.853ZM95.8614 161.712C94.1302 162.712 92.5772 162.744 91.5079 161.986C90.5659 161.35 89.993 160.077 89.993 158.326C89.993 154.59 92.6217 150.052 95.8614 148.143C97.3381 147.29 98.681 147.143 99.6803 147.583C100.915 148.111 101.692 149.492 101.692 151.529C101.698 155.297 99.0757 159.848 95.836 161.725L95.8614 161.712Z" fill="#707070"/>
<path d="M99.9806 147.754L99.9106 147.716C98.8541 147.15 97.422 147.258 95.8371 148.168C92.5974 150.039 89.9688 154.59 89.9688 158.352C89.9688 160.261 90.6052 161.534 91.7064 162.171C92.8075 162.807 94.2523 162.68 95.8371 161.75C99.0768 159.879 101.699 155.328 101.699 151.567C101.699 149.683 101.044 148.359 99.9806 147.754ZM95.8371 160.388C94.4496 161.19 93.2021 161.216 92.3365 160.605C91.5854 160.076 91.1208 159.064 91.1208 157.664C91.21 156.028 91.6835 154.436 92.5029 153.017C93.3223 151.599 94.4646 150.393 95.8371 149.498C96.283 149.187 96.7954 148.984 97.3335 148.905C97.8716 148.827 98.4206 148.875 98.9368 149.046C99.9297 149.473 100.553 150.58 100.553 152.229C100.465 153.864 99.9915 155.455 99.172 156.873C98.3524 158.291 97.2099 159.495 95.8371 160.388Z" fill="#F36B31"/>
<path d="M120.397 144.406L128.155 139.931L125.571 138.436L117.812 142.916L120.397 144.406Z" fill="#F36B31"/>
<path d="M135.919 135.451L143.671 130.976L141.087 129.48L133.328 133.961L135.919 135.451Z" fill="#F36B31"/>
<path d="M151.426 126.496L159.179 122.021L156.595 120.525L148.836 125.006L151.426 126.496Z" fill="#F36B31"/>
<path d="M112.824 84.8507C112.905 84.7424 113.019 84.6628 113.148 84.6233C113.278 84.5839 113.416 84.5867 113.544 84.6314C113.672 84.6761 113.782 84.7604 113.858 84.8719C113.935 84.9834 113.974 85.1165 113.97 85.2517C114.02 85.614 113.983 85.9829 113.862 86.3281C113.742 86.6734 113.541 86.985 113.276 87.2375C112.767 87.6767 112.251 87.4985 112.13 86.8365C112.081 86.4743 112.118 86.1055 112.239 85.7603C112.36 85.4152 112.56 85.1035 112.824 84.8507Z" fill="#F36B31"/>
<path d="M118.799 87.6639L113.612 84.666L112.473 87.4093L117.679 90.4135L118.799 87.6639Z" fill="#F36B31"/>
<path d="M117.996 87.8355C118.506 87.4027 119.015 87.5809 119.142 88.2429C119.189 88.6046 119.15 88.9723 119.028 89.3162C118.907 89.6601 118.706 89.9705 118.442 90.2223C117.933 90.6615 117.417 90.4833 117.296 89.8214C117.25 89.4587 117.289 89.0902 117.411 88.7453C117.532 88.4005 117.733 88.0889 117.996 87.8355Z" fill="#F36B31"/>
<path d="M157.867 112.938C157.867 113.065 157.867 113.18 157.867 113.307C157.867 113.562 157.867 113.823 157.867 114.084C156.836 113.645 155.493 113.791 154.016 114.644C150.776 116.515 148.148 121.066 148.148 124.828C148.148 126.571 148.72 127.832 149.662 128.487C149.398 128.675 149.124 128.85 148.841 129.009L148.542 129.162L147.645 132.542L142.451 129.646C140.809 128.697 139.797 126.673 139.797 123.784C139.797 118.011 143.845 110.997 148.841 108.107C151.311 106.681 153.545 106.535 155.206 107.471L160.298 110.322L160.406 110.386L157.867 112.938Z" fill="#707070"/>
<path d="M160.402 110.329L160.294 110.266C158.664 109.4 156.475 109.559 154.012 110.972C149.015 113.855 144.961 120.869 144.961 126.642C144.961 129.545 145.986 131.575 147.641 132.517C149.295 133.459 151.529 133.3 154.005 131.881C159.002 128.997 163.05 121.977 163.05 116.204C163.069 113.302 162.044 111.271 160.402 110.329ZM154.037 128.189C152.306 129.188 150.753 129.22 149.684 128.463C148.742 127.826 148.169 126.553 148.169 124.803C148.169 121.067 150.797 116.529 154.037 114.619C155.514 113.766 156.857 113.62 157.888 114.059C159.123 114.587 159.899 115.969 159.899 118.005C159.886 121.773 157.251 126.324 154.012 128.189H154.037Z" fill="#707070"/>
<path d="M159.887 118.031C159.887 121.773 157.264 126.305 154.024 128.214C152.3 129.214 150.747 129.245 149.677 128.494C149.246 128.156 148.892 127.729 148.639 127.243C148.385 126.757 148.238 126.222 148.207 125.675C148.425 125.573 148.637 125.461 148.844 125.337C152.083 123.473 154.706 118.922 154.706 115.154C154.709 114.875 154.692 114.596 154.655 114.32C155.14 114.063 155.674 113.91 156.222 113.871C156.77 113.831 157.32 113.906 157.837 114.091C159.097 114.625 159.887 115.994 159.887 118.031Z" fill="#191720"/>
<path d="M158.156 114.231L158.086 114.186C157.03 113.626 155.591 113.728 154.013 114.645C150.773 116.516 148.145 121.06 148.145 124.828C148.145 126.738 148.781 128.011 149.882 128.647C150.983 129.284 152.428 129.15 154.013 128.221C157.253 126.356 159.875 121.805 159.875 118.037C159.888 116.16 159.251 114.842 158.156 114.231ZM154.013 126.859C152.619 127.667 151.372 127.693 150.512 127.082C149.755 126.553 149.297 125.541 149.297 124.141C149.386 122.505 149.859 120.913 150.679 119.494C151.498 118.075 152.64 116.87 154.013 115.975C155.197 115.288 156.279 115.167 157.106 115.523C158.099 115.95 158.723 117.057 158.723 118.705C158.634 120.339 158.162 121.929 157.343 123.346C156.525 124.762 155.384 125.966 154.013 126.859Z" fill="#F36B31"/>
<path d="M148.838 119.933L163.478 111.481C165.177 110.494 159.659 104.734 155.553 104.346C153.293 104.073 151.001 104.29 148.832 104.982C148.832 104.982 151.957 108.986 151.423 111.258C150.888 113.53 148.838 119.933 148.838 119.933Z" fill="#F36B31"/>
<path d="M128.157 96.0459C128.157 96.0459 149.377 106.752 150.294 107.394C151.21 108.037 150.294 115.503 148.836 119.933C147.379 124.363 145.138 131.173 144.241 133.083C143.344 134.992 142.172 135.705 140.021 136.946L124.745 145.774L104.066 148.295L95.8555 143.839L97.9941 130.403C97.9941 130.403 119.972 118.711 122.982 116.973C125.993 115.236 134.897 107.083 128.157 96.0459Z" fill="#F36B31"/>
<path opacity="0.2" d="M128.157 96.0459C128.157 96.0459 149.377 106.752 150.294 107.394C151.21 108.037 150.294 115.503 148.836 119.933C147.379 124.363 145.138 131.173 144.241 133.083C143.344 134.992 142.172 135.705 140.021 136.946L124.745 145.774L104.066 148.295L95.8555 143.839L97.9941 130.403C97.9941 130.403 119.972 118.711 122.982 116.973C125.993 115.236 134.897 107.083 128.157 96.0459Z" fill="#191720"/>
<path d="M150.704 117.381C152.614 112.251 154.039 107.999 153.797 105.129C153.505 101.724 152.232 98.9421 146.618 97.5418C141.004 96.1416 133.156 96.167 133.156 96.167L130.77 97.5482C130.77 97.5482 146.911 106.905 148.744 107.923C149.864 108.559 151.061 111.366 148.865 119.94L149.24 120.156C149.425 120.271 150.093 119.03 150.704 117.381Z" fill="#F36B31"/>
<path opacity="0.3" d="M150.704 117.381C152.614 112.251 154.039 107.999 153.797 105.129C153.505 101.724 152.232 98.9421 146.618 97.5418C141.004 96.1416 133.156 96.167 133.156 96.167L130.77 97.5482C130.77 97.5482 146.911 106.905 148.744 107.923C149.864 108.559 151.061 111.366 148.865 119.94L149.24 120.156C149.425 120.271 150.093 119.03 150.704 117.381Z" fill="white"/>
<path d="M138.473 102.016L141.082 100.527C141.082 100.527 140.93 91.4823 137.123 89.2864C133.317 87.0906 120.397 88.5863 120.397 88.5863L117.812 90.0757L138.473 102.016Z" fill="#F36B31"/>
<path d="M130.009 91.3557C128.768 92.0749 128.768 93.2333 130.009 93.9462C130.705 94.3005 131.475 94.4853 132.256 94.4853C133.037 94.4853 133.807 94.3005 134.503 93.9462C135.737 93.2333 135.737 92.0686 134.503 91.3557C133.806 91.0043 133.036 90.8213 132.256 90.8213C131.475 90.8213 130.706 91.0043 130.009 91.3557Z" fill="#F0F0F0"/>
<path d="M133.982 95.6775C133.11 96.1867 133.11 97.0078 133.982 97.5106C134.475 97.7625 135.02 97.8939 135.573 97.8939C136.127 97.8939 136.672 97.7625 137.165 97.5106C138.043 97.0078 138.043 96.1867 137.165 95.6775C136.671 95.4285 136.126 95.2988 135.573 95.2988C135.021 95.2988 134.476 95.4285 133.982 95.6775Z" fill="#F0F0F0"/>
<path d="M123.983 90.2036C123.105 90.7065 123.105 91.5275 123.983 92.0367C124.476 92.2857 125.021 92.4154 125.574 92.4154C126.127 92.4154 126.672 92.2857 127.165 92.0367C128.044 91.5275 128.044 90.7065 127.165 90.2036C126.673 89.9517 126.127 89.8203 125.574 89.8203C125.021 89.8203 124.476 89.9517 123.983 90.2036Z" fill="#F0F0F0"/>
<path d="M138.885 99.394C139.394 98.9548 139.903 99.133 140.031 99.795C140.078 100.158 140.039 100.526 139.917 100.871C139.795 101.216 139.595 101.528 139.331 101.781C139.249 101.889 139.136 101.969 139.007 102.008C138.877 102.048 138.738 102.045 138.611 102C138.483 101.955 138.373 101.871 138.296 101.76C138.22 101.648 138.181 101.515 138.185 101.38C138.136 101.017 138.174 100.648 138.296 100.303C138.417 99.9573 138.619 99.6459 138.885 99.394Z" fill="#F36B31"/>
<path d="M144.823 102.208L139.629 99.21L138.496 101.953L143.696 104.951L144.823 102.208Z" fill="#F36B31"/>
<path d="M144.017 102.379C144.098 102.271 144.211 102.191 144.341 102.152C144.47 102.112 144.609 102.115 144.736 102.16C144.864 102.204 144.974 102.289 145.051 102.4C145.127 102.512 145.166 102.645 145.162 102.78C145.211 103.143 145.173 103.512 145.051 103.857C144.929 104.202 144.727 104.514 144.462 104.766C143.953 105.205 143.444 105.02 143.317 104.365C143.269 104.002 143.308 103.633 143.429 103.288C143.551 102.943 143.752 102.632 144.017 102.379Z" fill="#F36B31"/>
<path d="M144.017 102.379C144.098 102.271 144.211 102.191 144.341 102.152C144.47 102.112 144.609 102.115 144.736 102.16C144.864 102.204 144.974 102.289 145.051 102.4C145.127 102.512 145.166 102.645 145.162 102.78C145.211 103.143 145.173 103.512 145.051 103.857C144.929 104.202 144.727 104.514 144.462 104.766C143.953 105.205 143.444 105.02 143.317 104.365C143.269 104.002 143.308 103.633 143.429 103.288C143.551 102.943 143.752 102.632 144.017 102.379Z" fill="#191720"/>
<path d="M99.6942 146.45C99.6942 146.577 99.6942 146.692 99.6942 146.819C99.6942 147.073 99.6942 147.334 99.6942 147.595C98.6631 147.156 97.3201 147.303 95.8753 148.155C92.6356 150.027 90.0069 154.578 90.0069 158.339C90.0069 160.083 90.5797 161.343 91.5217 161.999C91.2573 162.187 90.9832 162.361 90.7007 162.521L90.4015 162.674L89.5041 166.053L84.3104 163.157C82.6683 162.209 81.6562 160.185 81.6562 157.295C81.6562 151.523 85.7043 144.508 90.7007 141.619C93.1702 140.193 95.4043 140.047 97.0655 140.982L102.157 143.834L102.266 143.897L99.6942 146.45Z" fill="#707070"/>
<path d="M84.2043 136.349L80.3281 149.785L88.0869 154.266L92.1031 140.912L84.2043 136.349Z" fill="#F36B31"/>
<path opacity="0.2" d="M84.2043 136.349L80.3281 149.785L88.0869 154.266L92.1031 140.912L84.2043 136.349Z" fill="#191720"/>
<path d="M84.2031 136.348C84.2031 136.348 88.6012 140.084 92.1019 140.911C96.6973 142.025 104.004 142.146 106.595 142.324C110.554 142.598 113.545 142.592 114.945 142.089C116.759 141.453 121.635 138.62 122.984 137.844C125.568 136.354 126.669 130.492 119.547 128.888C114.731 127.891 109.826 127.389 104.908 127.393L84.2031 136.348Z" fill="#F36B31"/>
<path d="M128.063 134.63C127.842 135.184 127.692 135.764 127.618 136.355C127.413 136.97 127.365 137.626 127.478 138.265C127.963 139.067 128.726 139.663 129.623 139.939C130.268 140.082 130.937 140.091 131.586 139.965C132.235 139.839 132.852 139.581 133.397 139.207C134.715 138.417 135.707 137.463 137.579 136.928C138.916 136.645 140.176 136.074 141.27 135.254C142.308 134.42 143.695 132.116 141.709 131.582C139.724 131.047 135.408 132.931 131.475 133.103L128.063 134.63Z" fill="#707070"/>
<path d="M128.066 132.173V135.113C128.187 135.444 128.396 135.735 128.671 135.954C128.946 136.173 129.277 136.311 129.626 136.355C129.945 136.401 130.272 136.366 130.574 136.253C131.051 136.071 131.464 135.753 131.763 135.339C132.061 134.925 132.232 134.433 132.254 133.923L132.369 132.173H128.066Z" fill="#FFA8A7"/>
<path d="M133.667 113.988C133.667 117.648 132.636 133.471 132.636 133.471C132.636 133.471 131.14 135.38 127.888 133.471L126.793 115.79L133.667 113.988Z" fill="#707070"/>
<path d="M116.606 129.583L126.789 123.714C127.207 123.495 127.556 123.166 127.8 122.763C128.044 122.36 128.173 121.897 128.173 121.426C128.173 120.955 128.044 120.492 127.8 120.089C127.556 119.686 127.207 119.357 126.789 119.138L119.202 114.759C118.775 114.542 118.303 114.43 117.824 114.43C117.346 114.43 116.874 114.542 116.446 114.759L106.263 120.627C105.847 120.848 105.5 121.177 105.257 121.58C105.015 121.984 104.887 122.445 104.887 122.915C104.887 123.386 105.015 123.847 105.257 124.25C105.5 124.654 105.847 124.983 106.263 125.204L113.85 129.583C114.277 129.799 114.749 129.912 115.228 129.912C115.706 129.912 116.178 129.799 116.606 129.583Z" fill="#F36B31"/>
<path d="M116.606 129.583L126.789 123.714C127.207 123.495 127.556 123.166 127.8 122.763C128.044 122.36 128.173 121.897 128.173 121.426C128.173 120.955 128.044 120.492 127.8 120.089C127.556 119.686 127.207 119.357 126.789 119.138L119.202 114.759C118.775 114.542 118.303 114.43 117.824 114.43C117.346 114.43 116.874 114.542 116.446 114.759L106.263 120.627C105.847 120.848 105.5 121.177 105.257 121.58C105.015 121.984 104.887 122.445 104.887 122.915C104.887 123.386 105.015 123.847 105.257 124.25C105.5 124.654 105.847 124.983 106.263 125.204L113.85 129.583C114.277 129.799 114.749 129.912 115.228 129.912C115.706 129.912 116.178 129.799 116.606 129.583Z" fill="white"/>
<path d="M106.266 122.218L113.852 126.597C114.28 126.814 114.752 126.927 115.23 126.927C115.709 126.927 116.181 126.814 116.608 126.597L126.792 120.729C126.958 120.673 127.103 120.566 127.205 120.423C127.307 120.28 127.362 120.109 127.362 119.933C127.362 119.758 127.307 119.587 127.205 119.444C127.103 119.301 126.958 119.194 126.792 119.138L119.205 114.759C118.778 114.542 118.306 114.43 117.827 114.43C117.348 114.43 116.876 114.542 116.449 114.759L106.266 120.627C106.099 120.684 105.955 120.791 105.853 120.933C105.75 121.076 105.695 121.247 105.695 121.423C105.695 121.598 105.75 121.77 105.853 121.912C105.955 122.055 106.099 122.162 106.266 122.218Z" fill="#F36B31"/>
<path d="M112.471 83.2654L111.179 88.5928L105.629 88.9301L106.825 81.5469L112.471 83.2654Z" fill="#FFA8A7"/>
<path d="M117.881 79.2559C117.881 79.2559 118.517 81.509 118.256 81.6363C117.855 81.6974 117.448 81.6974 117.047 81.6363L117.881 79.2559Z" fill="#F28F8F"/>
<path d="M116.814 72.0635C117.705 73.1137 118.52 74.8386 117.89 79.0648C117.203 83.6857 116.35 84.2203 115.662 84.6659C114.765 85.2514 111.175 84.9396 110.163 84.2012C108.947 83.3165 107.07 80.5096 106.624 77.7409C106.102 74.4885 107.191 70.8796 109.584 70.2623C112.951 69.3903 116.057 71.1724 116.814 72.0635Z" fill="#FFA8A7"/>
<path d="M106.263 83.0429C107.122 83.9339 108.886 84.1758 109.993 84.3795C111.1 84.5832 114.506 84.8059 115.511 82.3809C116.517 79.9559 115.83 78.212 117.064 77.6264C118.299 77.0408 119.534 76.6589 119.858 76.3534C120.183 76.0479 120.189 72.0572 116.873 69.9886C113.557 67.92 108.478 67.4427 105.137 71.6371C102.603 74.8768 103.641 80.306 106.263 83.0429Z" fill="#707070"/>
<path d="M109.605 84.4108C110.465 84.4872 113.183 84.0608 114.004 82.9406C114.825 81.8204 115.156 79.8154 115.277 78.7652C115.288 78.3516 115.439 77.9541 115.707 77.6383C115.974 77.3224 116.341 77.107 116.747 77.0276C117.568 76.7667 119.382 75.8756 119.382 75.8756V75.3791C119.967 75.3424 120.554 75.3424 121.139 75.3791C121.52 75.4492 121.31 76.0156 120.343 76.5057C119.375 76.9958 116.721 77.9442 116.314 78.2688C115.907 78.5934 115.716 79.9618 115.391 81.4194C115.066 82.8769 114.061 85.0537 109.605 84.4108Z" fill="#707070"/>
<path d="M117.243 90.4392L120.425 88.6125C120.731 87.6896 120.24 87.225 119.375 87.2822C118.509 87.3395 118.777 86.4994 118.248 86.2639C117.554 85.9456 117.16 86.1238 116.848 85.9775C116.536 85.8311 116.402 85.4619 115.995 85.4173C114.175 85.2455 112.934 87.8423 112.934 87.8423L117.243 90.4392Z" fill="#F28F8F"/>
<path d="M95.6367 113.811C95.6367 113.811 109.697 106.841 112.147 105.714C114.598 104.588 118.442 102.952 120.485 102.952C121.283 103.018 122.031 103.37 122.591 103.943C123.151 104.516 123.486 105.271 123.534 106.071C123.56 107.299 123.49 108.527 123.324 109.743C119.461 111.011 115.513 112.004 111.511 112.716C105.661 113.734 95.6367 113.811 95.6367 113.811Z" fill="#707070"/>
<path d="M97.1674 109.781C97.1674 112.671 96.8937 115.675 98.0967 117.788C99.2996 119.901 105.817 124.79 111.953 123.765C115.963 123.09 127.865 117.61 127.865 117.61C127.865 117.61 133.638 115.491 133.663 113.982C133.702 111.761 133.549 108.629 128.514 108.763C123.925 108.884 110.387 111.71 110.387 111.71L97.1674 109.781Z" fill="#707070"/>
<path d="M101.093 86.8869C103.269 84.6147 104.74 84.4238 105.783 84.7038C108.182 85.3904 110.505 86.3202 112.715 87.4789C112.715 87.4789 111.875 95.6131 115.853 97.9554V110.634C115.853 110.634 115.732 112.009 114 113.377C112.473 114.58 109.017 115.796 104.892 115.452C99.9914 115.045 97.1654 109.781 97.1654 109.781C97.1654 109.781 97.0381 99.4129 97.7319 95.2949C98.5466 90.4895 100.341 87.6762 101.093 86.8869Z" fill="#707070"/>
<path d="M115.857 98.5734C115.857 98.5734 113.451 96.6639 112.719 94.1816C112.719 94.1816 113.005 98.0769 115.857 100.05V98.5734Z" fill="#707070"/>
<path d="M138.128 104.556C139.271 104.603 140.395 104.255 141.31 103.569C141.31 103.569 142.418 101.418 143.78 101.603C143.78 101.603 144.022 100.686 143.462 100.387C142.902 100.088 142.66 100.171 142.431 99.8523C142.202 99.5341 142.176 98.9422 141.158 98.9422C140.738 98.9422 140.795 98.643 139.777 98.5221C138.758 98.4012 137.752 100.75 137.008 100.75L138.128 104.556Z" fill="#FFA8A7"/>
<path d="M112.716 87.4795C116.21 88.0205 117.476 89.058 118.749 90.2355C120.022 91.413 127.813 99.229 127.813 99.229L137.246 100.585C137.741 100.986 138.105 101.527 138.289 102.138C138.671 103.245 138.328 104.455 137.965 104.741C137.965 104.741 128.609 105.301 126.769 104.951C124.93 104.601 115.822 98.5543 115.822 98.5543C114.951 97.8978 114.221 97.0735 113.674 96.13C113.128 95.1866 112.776 94.1432 112.639 93.0614C112.047 89.2234 112.716 87.4795 112.716 87.4795Z" fill="#707070"/>
<path d="M104.328 121.098L89.8737 138.742C89.7133 138.762 89.5517 138.773 89.39 138.774C88.8168 138.783 88.2504 138.649 87.7415 138.385L75.5338 131.333L74.7063 130.856C74.2544 130.595 73.8789 129.525 73.8789 128.469V125.496C73.8784 122.443 74.6816 119.443 76.2078 116.799C77.734 114.154 79.9293 111.958 82.5733 110.431L97.1487 102.017L112.66 110.972L104.328 121.098Z" fill="#F36B31"/>
<g opacity="0.1">
<path d="M104.328 121.098L89.8737 138.742C89.7133 138.762 89.5517 138.773 89.39 138.774C88.8168 138.783 88.2504 138.649 87.7415 138.385L75.5338 131.333L74.7063 130.856C74.2544 130.595 73.8789 129.525 73.8789 128.469V125.496C73.8784 122.443 74.6816 119.443 76.2078 116.799C77.734 114.154 79.9293 111.958 82.5733 110.431L97.1487 102.017L112.66 110.972L104.328 121.098Z" fill="#191720"/>
</g>
<path d="M99.3452 127.183L112.641 110.978L97.1302 102.022L82.5611 110.43C80.6765 111.521 79.0139 112.957 77.6602 114.663L99.3452 127.183Z" fill="#F36B31"/>
<path d="M112.641 123.988C112.641 125.044 112.272 126.114 111.813 126.375L110.986 126.852L91.0259 138.379C90.6628 138.574 90.265 138.698 89.8548 138.741C89.6944 138.762 89.5328 138.772 89.3711 138.773V134.452C89.3706 131.397 90.1745 128.397 91.7019 125.752C93.2293 123.108 95.4263 120.912 98.0718 119.386L99.7203 118.438L112.641 110.972V123.988Z" fill="#F36B31"/>
<g opacity="0.2">
<path d="M112.641 123.988C112.641 125.044 112.272 126.114 111.813 126.375L110.986 126.852L91.0259 138.379C90.6628 138.574 90.265 138.698 89.8548 138.741C89.6944 138.762 89.5328 138.772 89.3711 138.773V134.452C89.3706 131.397 90.1745 128.397 91.7019 125.752C93.2293 123.108 95.4263 120.912 98.0718 119.386L99.7203 118.438L112.641 110.972V123.988Z" fill="#191720"/>
</g>
<path d="M116.922 145.819L124.732 145.794L135.909 139.34L124.961 147.251L116.719 147.366L116.922 145.819Z" fill="#D1D1D1"/>
<path d="M97.9596 156.932C97.9596 156.932 112.039 151.624 113.235 151C114.64 150.139 115.972 149.167 117.22 148.091C117.474 147.755 117.594 147.335 117.555 146.915C117.516 146.494 117.322 146.103 117.01 145.819C117.01 145.819 111.281 145.558 109.811 146.01C108.99 146.258 95.7383 150.51 95.7383 150.51L97.9596 156.932Z" fill="#D1D1D1"/>
<path d="M97.336 151C96.1712 150.001 95.0001 150.415 94.7137 151.917C94.6043 152.746 94.6919 153.589 94.9695 154.377C95.2471 155.166 95.7068 155.878 96.3112 156.455C97.476 157.454 98.6471 157.047 98.9335 155.539C99.0424 154.71 98.9545 153.867 98.677 153.079C98.3994 152.29 97.94 151.578 97.336 151Z" fill="#707070"/>
</svg>
