<svg width="254" height="232" viewBox="0 0 254 232" fill="none" xmlns="http://www.w3.org/2000/svg">
<path d="M146.781 34.4434V168.285H230.251V34.4434H146.781ZM190.341 37.6894H227.24V67.2472H190.341V37.6894ZM190.341 70.4933H227.24V99.7439H190.341V70.4933ZM190.341 103.014H227.24V132.891H190.341V103.014ZM187.294 165.044H149.835V136.137H187.294V165.044ZM187.294 132.867H149.835V102.984H187.294V132.867ZM187.294 99.7439H149.835V70.4933H187.294V99.7439ZM187.294 67.2231H149.835V37.6894H187.294V67.2231ZM190.341 165.014V136.107H227.24V165.014H190.341Z" fill="#B2B2B2"/>
<path d="M78.8435 56.2686H42.625V105.285H78.8435V56.2686Z" fill="#B2B2B2"/>
<path d="M75.4201 60.8936H46.043V100.647H75.4201V60.8936Z" fill="white"/>
<path d="M49.7059 110.934H21.3164V149.35H49.7059V110.934Z" fill="#B2B2B2"/>
<path d="M47.0196 114.565H23.9961V145.725H47.0196V114.565Z" fill="white"/>
<path d="M91.8398 199.68H46.6058L46.6058 166.28C46.6058 163.143 47.852 160.134 50.0702 157.916C52.2883 155.698 55.2968 154.452 58.4338 154.452H80.0059C83.1429 154.452 86.1513 155.698 88.3695 157.916C90.5877 160.134 91.8338 163.143 91.8338 166.28V199.68H91.8398Z" fill="white" stroke="#191720" stroke-miterlimit="10"/>
<path d="M39.8789 230.73H8.06273L8.06273 192.422C8.06273 189.162 9.35774 186.036 11.6629 183.731C13.968 181.426 17.0944 180.131 20.3544 180.131H39.8789L39.8789 230.718V230.73Z" fill="white"/>
<path d="M39.8789 230.73H8.06273L8.06273 192.422C8.06273 189.162 9.35774 186.036 11.6629 183.731C13.968 181.426 17.0944 180.131 20.3544 180.131H39.8789L39.8789 230.718V230.73Z" stroke="#191720" stroke-miterlimit="10"/>
<path d="M48.7148 230.73H16.8987L16.8987 192.422C16.8987 189.162 18.1937 186.036 20.4988 183.731C22.8039 181.426 25.9304 180.131 29.1903 180.131H48.7148L48.7148 230.718V230.73Z" fill="white" stroke="#191720" stroke-miterlimit="10"/>
<path d="M84.9336 199.68H39.6996L39.6996 166.28C39.6996 163.143 40.9457 160.134 43.1639 157.916C45.3821 155.698 48.3905 154.452 51.5275 154.452H73.1057C76.2426 154.452 79.2511 155.698 81.4693 157.916C83.6874 160.134 84.9336 163.143 84.9336 166.28V199.68Z" fill="white"/>
<path d="M84.9336 199.68H39.6996L39.6996 166.28C39.6996 163.143 40.9457 160.134 43.1639 157.916C45.3821 155.698 48.3905 154.452 51.5275 154.452H73.1057C76.2426 154.452 79.2511 155.698 81.4693 157.916C83.6874 160.134 84.9336 163.143 84.9336 166.28V199.68V199.68Z" stroke="#191720" stroke-miterlimit="10"/>
<path d="M79.9883 230.73H19.4454V202.805C19.4454 201.671 19.8959 200.583 20.6978 199.781C21.4997 198.979 22.5873 198.529 23.7213 198.529H79.9883V230.73Z" fill="white"/>
<path d="M79.9883 230.73H19.4454V202.805C19.4454 201.671 19.8959 200.583 20.6978 199.781C21.4997 198.979 22.5873 198.529 23.7213 198.529H79.9883V230.73Z" stroke="#191720" stroke-miterlimit="10"/>
<path d="M20.3359 209.641H51.044" stroke="#191720" stroke-miterlimit="10"/>
<path d="M82.9922 230.73H51.176V192.422C51.176 189.162 52.471 186.036 54.7762 183.731C57.0813 181.426 60.2077 180.131 63.4677 180.131H82.9922V230.718V230.73Z" fill="white"/>
<path d="M82.9922 230.73H51.176V192.422C51.176 189.162 52.471 186.036 54.7762 183.731C57.0813 181.426 60.2077 180.131 63.4677 180.131H82.9922V230.718V230.73Z" stroke="#191720" stroke-miterlimit="10"/>
<path d="M91.8398 230.73H60.0237V192.422C60.0237 189.162 61.3187 186.036 63.6238 183.731C65.9289 181.426 69.0554 180.131 72.3153 180.131H91.8398V230.718V230.73Z" fill="white" stroke="#191720" stroke-miterlimit="10"/>
<path d="M132.657 205.834L131.272 192.958H69.2657L65.9414 205.834H132.657Z" fill="#191720" stroke="#191720" stroke-linecap="round" stroke-linejoin="round"/>
<path d="M140.115 65.3022C140.115 66.0851 138.911 66.8138 138.821 67.5847C138.73 68.3555 139.869 69.2769 139.742 70.0418C139.616 70.8066 138.291 71.3426 138.11 72.1255C137.929 72.9084 138.869 73.9624 138.628 74.6971C138.387 75.4318 136.99 75.751 136.689 76.4677C136.388 77.1843 137.158 78.4008 136.809 79.0934C136.46 79.786 135.002 79.8763 134.617 80.5448C134.232 81.2133 134.792 82.5201 134.334 83.1525C133.876 83.7848 132.455 83.6644 131.925 84.2606C131.395 84.8568 131.805 86.242 131.263 86.802C130.721 87.3621 129.329 87.0369 128.751 87.5548C128.173 88.0728 128.348 89.5001 127.733 89.9638C127.119 90.4275 125.788 89.9216 125.138 90.3552C124.487 90.7889 124.475 92.2222 123.801 92.6136C123.126 93.0051 121.874 92.3125 121.175 92.6558C120.477 92.9991 120.266 94.4143 119.543 94.7154C118.82 95.0166 117.676 94.1493 116.935 94.4023C116.195 94.6552 115.803 96.0223 115.044 96.209C114.286 96.3957 113.274 95.408 112.503 95.5586C111.732 95.7091 111.166 97.016 110.395 97.1184C109.624 97.2207 108.739 96.0946 107.956 96.1427C107.173 96.1909 106.444 97.4195 105.661 97.4195C104.879 97.4195 104.138 96.215 103.367 96.1427C102.596 96.0705 101.693 97.2147 100.928 97.1184C100.163 97.022 99.5729 95.7091 98.8141 95.5586C98.0552 95.408 97.0073 96.4077 96.2726 96.209C95.5379 96.0103 95.1163 94.6371 94.3816 94.4023C93.6469 94.1674 92.4906 95.0045 91.7739 94.7094C91.0572 94.4143 90.8404 92.9991 90.1418 92.6558C89.4433 92.3125 88.1906 93.0051 87.5161 92.6136C86.8416 92.2222 86.8235 90.8069 86.1791 90.3552C85.5347 89.9036 84.1917 90.4396 83.5835 89.9578C82.9752 89.476 83.1439 88.0547 82.5657 87.5488C81.9876 87.0429 80.5904 87.3561 80.0544 86.796C79.5184 86.2359 79.8918 84.8508 79.3919 84.2546C78.8921 83.6584 77.4648 83.7788 76.983 83.1465C76.5012 82.5141 77.1034 81.2012 76.6999 80.5328C76.2964 79.8643 74.8932 79.78 74.5138 79.0874C74.1344 78.3948 74.9233 77.1783 74.6282 76.4616C74.3331 75.745 72.9299 75.4318 72.689 74.6911C72.4481 73.9503 73.3936 72.8844 73.213 72.1195C73.0323 71.3547 71.6953 70.8367 71.5749 70.0659C71.4544 69.295 72.5565 68.3917 72.4963 67.6088C72.4361 66.8258 71.2617 66.1032 71.2617 65.3022C71.2617 64.5012 72.4963 63.7845 72.5565 63.0137C72.6167 62.2428 71.5147 61.3214 71.6351 60.5566C71.7556 59.7917 73.0925 59.2557 73.2732 58.5029C73.4539 57.7501 72.5083 56.6962 72.7492 55.9314C72.9901 55.1665 74.3934 54.8775 74.6884 54.1608C74.9835 53.4441 74.2187 52.2337 74.574 51.5411C74.9293 50.8485 76.3807 50.7521 76.7601 50.0897C77.1396 49.4272 76.5915 48.1083 77.0432 47.476C77.4949 46.8436 78.9222 46.9641 79.4521 46.3679C79.9821 45.7716 79.5726 44.3865 80.1146 43.8264C80.6566 43.2663 82.0478 43.5915 82.632 43.0736C83.2161 42.5557 83.0294 41.1284 83.6437 40.6647C84.258 40.201 85.595 40.7008 86.2393 40.2672C86.8837 39.8336 86.9018 38.4003 87.5763 38.0088C88.2508 37.6174 89.5035 38.316 90.2021 37.9667C90.9007 37.6174 91.1115 36.2081 91.8341 35.913C92.5568 35.6179 93.7011 36.4731 94.4418 36.2262C95.1826 35.9793 95.574 34.6002 96.3328 34.4195C97.0917 34.2388 98.1094 35.2205 98.8743 35.0699C99.6391 34.9193 100.211 33.6125 100.988 33.5101C101.765 33.4077 102.644 34.5399 103.427 34.4857C104.21 34.4315 104.933 33.209 105.722 33.209C106.511 33.209 107.245 34.4135 108.016 34.4857C108.787 34.558 109.684 33.4137 110.425 33.5101C111.166 33.6065 111.78 34.9254 112.539 35.0699C113.298 35.2144 114.346 34.2207 115.08 34.4195C115.815 34.6182 116.237 35.9973 116.971 36.2262C117.706 36.455 118.863 35.624 119.579 35.913C120.296 36.2021 120.519 37.6294 121.211 37.9667C121.904 38.3039 123.169 37.6174 123.837 38.0088C124.505 38.4003 124.536 39.8155 125.174 40.2672C125.812 40.7189 127.161 40.1889 127.77 40.6647C128.378 41.1404 128.209 42.5677 128.787 43.0736C129.366 43.5795 130.763 43.2724 131.299 43.8264C131.835 44.3805 131.467 45.7716 131.961 46.3679C132.455 46.9641 133.888 46.8497 134.37 47.476C134.852 48.1023 134.25 49.4272 134.653 50.0897C135.057 50.7521 136.49 50.8485 136.845 51.5411C137.201 52.2337 136.43 53.4441 136.725 54.1608C137.02 54.8775 138.423 55.1906 138.664 55.9314C138.905 56.6721 137.959 57.7381 138.146 58.5029C138.333 59.2678 139.658 59.7857 139.778 60.5566C139.899 61.3274 138.797 62.2368 138.857 63.0137C138.917 63.7906 140.115 64.5133 140.115 65.3022Z" fill="#191720"/>
<path opacity="0.1" d="M140.116 65.3022C140.116 64.5133 138.912 63.7845 138.828 63.0137C138.743 62.2428 139.87 61.3214 139.743 60.5566C139.617 59.7917 138.292 59.2557 138.111 58.5029C137.93 57.7501 138.87 56.6962 138.629 55.9314C138.388 55.1665 136.991 54.8775 136.69 54.1608C136.389 53.4441 137.159 52.2337 136.81 51.5411C136.461 50.8485 135.003 50.7521 134.618 50.0897C134.233 49.4272 134.793 48.1144 134.335 47.476C133.877 46.8376 132.456 46.9701 131.926 46.3679C131.396 45.7656 131.806 44.3925 131.264 43.8264C130.722 43.2603 129.33 43.5976 128.752 43.0736C128.174 42.5497 128.355 41.1344 127.734 40.6647C127.114 40.1949 125.789 40.7068 125.139 40.2672C124.488 39.8276 124.476 38.4003 123.802 38.0088C123.127 37.6174 121.875 38.316 121.176 37.9667C120.478 37.6174 120.267 36.2081 119.544 35.913C118.821 35.6179 117.677 36.4731 116.936 36.2262C116.196 35.9793 115.804 34.6002 115.045 34.4195C114.286 34.2388 113.275 35.2205 112.504 35.0699C111.733 34.9193 111.167 33.6125 110.39 33.5101C109.613 33.4077 108.74 34.5399 107.981 34.4857C107.222 34.4315 106.469 33.209 105.687 33.209C104.904 33.209 104.163 34.4135 103.392 34.4857C102.621 34.558 101.718 33.4137 100.953 33.5101C100.188 33.6065 99.5979 34.9254 98.8391 35.0699C98.0803 35.2144 97.0324 34.2207 96.2977 34.4195C95.563 34.6182 95.1414 35.9973 94.4067 36.2262C93.6719 36.455 92.5156 35.624 91.799 35.913C91.0823 36.2021 90.8655 37.6294 90.1669 37.9667C89.4683 38.3039 88.2157 37.6174 87.5412 38.0088C86.8667 38.4003 86.8486 39.8155 86.2042 40.2672C85.5598 40.7189 84.2228 40.1889 83.6086 40.6647C82.9943 41.1404 83.1689 42.5677 82.5968 43.0736C82.0247 43.5795 80.6215 43.2663 80.0794 43.8264C79.5374 44.3865 79.9168 45.7716 79.417 46.3679C78.9171 46.9641 77.4898 46.8436 77.008 47.476C76.5262 48.1083 77.1285 49.4212 76.725 50.0897C76.3215 50.7582 74.9183 50.8425 74.5389 51.5411C74.1595 52.2397 74.9544 53.4441 74.6533 54.1608C74.3522 54.8775 72.955 55.1906 72.7141 55.9314C72.4732 56.6721 73.4187 57.7381 73.238 58.5029C73.0574 59.2678 71.7204 59.7857 71.5999 60.5566C71.4795 61.3274 72.5816 62.2368 72.5214 63.0137C72.4611 63.7906 71.2266 64.5133 71.2266 65.3022C71.2266 66.0911 72.4611 66.8138 72.5214 67.5847C72.5816 68.3555 71.4795 69.2769 71.5999 70.0418C71.7204 70.8066 73.0574 71.3426 73.238 72.0954C73.4187 72.8482 72.4732 73.9322 72.7141 74.667C72.955 75.4017 74.3522 75.7209 74.6533 76.4375C74.9544 77.1542 74.1835 78.3707 74.5389 79.0633C74.7267 79.3445 75.0018 79.5561 75.3218 79.6655C75.1411 79.0091 74.6533 78.2683 74.834 77.7143C75.0749 76.9735 76.4781 76.6604 76.7732 75.9437C77.0683 75.2271 76.3094 74.0166 76.6587 73.324C77.008 72.6314 78.4654 72.5351 78.8449 71.8726C79.2243 71.2101 78.6762 69.8912 79.1279 69.2589C79.5796 68.6265 81.0129 68.753 81.5067 68.1508C82.0006 67.5485 81.6332 66.1754 82.1692 65.6093C82.7052 65.0432 84.1084 65.3805 84.6866 64.8565C85.2647 64.3326 85.084 62.9173 85.6983 62.4476C86.3126 61.9778 87.6496 62.4837 88.294 62.0501C88.9383 61.6165 88.9624 60.1832 89.6369 59.7917C90.3114 59.4003 91.5581 60.0989 92.2627 59.7496C92.9673 59.4003 93.1721 57.991 93.8887 57.6959C94.6054 57.4008 95.7557 58.256 96.4964 58.0091C97.2372 57.7622 97.6346 56.3831 98.3874 56.2024C99.1402 56.0217 100.194 57.0034 100.929 56.8528C101.664 56.7022 102.266 55.3954 103.043 55.293C103.82 55.1906 104.699 56.3228 105.452 56.2686C106.204 56.2144 106.963 54.9919 107.746 54.9919C108.529 54.9919 109.27 56.1964 110.041 56.2686C110.812 56.3409 111.709 55.1967 112.48 55.293C113.251 55.3894 113.829 56.7083 114.588 56.8528C115.346 56.9973 116.394 56.0037 117.135 56.2024C117.876 56.4011 118.291 57.7802 119.026 58.0091C119.761 58.2379 120.917 57.4069 121.634 57.6959C122.35 57.985 122.567 59.4123 123.26 59.7556C123.952 60.0989 125.217 59.4063 125.886 59.7917C126.554 60.1772 126.584 61.5984 127.229 62.0501C127.873 62.5018 129.21 61.9718 129.824 62.4476C130.438 62.9233 130.258 64.3507 130.836 64.8565C131.414 65.3624 132.811 65.0553 133.353 65.6154C133.895 66.1754 133.516 67.5546 134.016 68.1508C134.516 68.747 135.943 68.6326 136.395 69.2649C136.846 69.8973 136.274 71.2101 136.678 71.8726C136.925 72.2761 137.551 72.4748 138.081 72.7157C138.11 72.8198 138.144 72.9224 138.183 73.0229C138.078 72.7358 138.053 72.4257 138.111 72.1255C138.292 71.3727 139.623 70.8428 139.743 70.0719C139.863 69.301 138.761 68.3977 138.828 67.6148C138.894 66.8319 140.116 66.1032 140.116 65.3022Z" fill="white"/>
<path d="M140.115 65.3022C140.115 66.0851 138.911 66.8138 138.821 67.5847C138.73 68.3555 139.869 69.2769 139.742 70.0418C139.616 70.8066 138.291 71.3426 138.11 72.1255C137.929 72.9084 138.869 73.9624 138.628 74.6971C138.387 75.4318 136.99 75.751 136.689 76.4677C136.388 77.1843 137.158 78.4008 136.809 79.0934C136.46 79.786 135.002 79.8763 134.617 80.5448C134.232 81.2133 134.792 82.5201 134.334 83.1525C133.876 83.7848 132.455 83.6644 131.925 84.2606C131.395 84.8568 131.805 86.242 131.263 86.802C130.721 87.3621 129.329 87.0369 128.751 87.5548C128.173 88.0728 128.348 89.5001 127.733 89.9638C127.119 90.4275 125.788 89.9216 125.138 90.3552C124.487 90.7889 124.475 92.2222 123.801 92.6136C123.126 93.0051 121.874 92.3125 121.175 92.6558C120.477 92.9991 120.266 94.4143 119.543 94.7154C118.82 95.0166 117.676 94.1493 116.935 94.4023C116.195 94.6552 115.803 96.0223 115.044 96.209C114.286 96.3957 113.274 95.408 112.503 95.5586C111.732 95.7091 111.166 97.016 110.395 97.1184C109.624 97.2207 108.739 96.0946 107.956 96.1427C107.173 96.1909 106.444 97.4195 105.661 97.4195C104.879 97.4195 104.138 96.215 103.367 96.1427C102.596 96.0705 101.693 97.2147 100.928 97.1184C100.163 97.022 99.5729 95.7091 98.8141 95.5586C98.0552 95.408 97.0073 96.4077 96.2726 96.209C95.5379 96.0102 95.1163 94.6371 94.3816 94.4023C93.6469 94.1674 92.4906 95.0045 91.7739 94.7094C91.0572 94.4143 90.8404 92.9991 90.1419 92.6558C89.4433 92.3125 88.1906 93.0051 87.5161 92.6136C86.8416 92.2222 86.8235 90.8069 86.1791 90.3552C85.5347 89.9036 84.1917 90.4396 83.5835 89.9578C82.9752 89.476 83.1439 88.0547 82.5657 87.5488C81.9876 87.0429 80.5904 87.3561 80.0544 86.796C79.5184 86.2359 79.8918 84.8508 79.3919 84.2546C78.8921 83.6584 77.4648 83.7788 76.983 83.1465C76.5012 82.5141 77.1034 81.2012 76.6999 80.5328C76.2964 79.8643 74.8932 79.78 74.5138 79.0874C74.1344 78.3948 74.9233 77.1783 74.6282 76.4616C74.3331 75.745 72.9299 75.4318 72.689 74.6911C72.4481 73.9503 73.3936 72.8844 73.213 72.1195C73.0323 71.3547 71.6953 70.8367 71.5749 70.0659C71.4544 69.295 72.5565 68.3917 72.4963 67.6088C72.4361 66.8258 71.2617 66.1032 71.2617 65.3022C71.2617 64.5012 72.4963 63.7845 72.5565 63.0137C72.6167 62.2428 71.5147 61.3214 71.6351 60.5566C71.7556 59.7917 73.0925 59.2557 73.2732 58.5029C73.4539 57.7501 72.5083 56.6962 72.7492 55.9314C72.9901 55.1665 74.3934 54.8775 74.6884 54.1608C74.9835 53.4441 74.2187 52.2337 74.574 51.5411C74.9293 50.8485 76.3807 50.7521 76.7601 50.0897C77.1396 49.4272 76.5915 48.1083 77.0432 47.476C77.4949 46.8436 78.9222 46.9641 79.4521 46.3679C79.9821 45.7716 79.5726 44.3865 80.1146 43.8264C80.6566 43.2663 82.0478 43.5915 82.632 43.0736C83.2161 42.5557 83.0294 41.1284 83.6437 40.6647C84.258 40.201 85.595 40.7008 86.2393 40.2672C86.8837 39.8336 86.9018 38.4003 87.5763 38.0088C88.2508 37.6174 89.5035 38.316 90.2021 37.9667C90.9007 37.6174 91.1115 36.2081 91.8341 35.913C92.5568 35.6179 93.7011 36.4731 94.4418 36.2262C95.1826 35.9793 95.574 34.6002 96.3328 34.4195C97.0917 34.2388 98.1094 35.2205 98.8743 35.0699C99.6391 34.9193 100.211 33.6125 100.988 33.5101C101.765 33.4077 102.644 34.5399 103.427 34.4857C104.21 34.4315 104.933 33.209 105.722 33.209C106.511 33.209 107.245 34.4135 108.016 34.4857C108.787 34.558 109.684 33.4137 110.425 33.5101C111.166 33.6065 111.78 34.9254 112.539 35.0699C113.298 35.2144 114.346 34.2207 115.08 34.4195C115.815 34.6182 116.237 35.9973 116.971 36.2262C117.706 36.455 118.863 35.624 119.579 35.913C120.296 36.2021 120.519 37.6294 121.211 37.9667C121.904 38.3039 123.169 37.6174 123.837 38.0088C124.505 38.4003 124.536 39.8155 125.174 40.2672C125.812 40.7189 127.161 40.1889 127.77 40.6647C128.378 41.1404 128.209 42.5677 128.787 43.0736C129.366 43.5795 130.763 43.2724 131.299 43.8264C131.835 44.3805 131.467 45.7716 131.961 46.3679C132.455 46.9641 133.888 46.8497 134.37 47.476C134.852 48.1023 134.25 49.4272 134.653 50.0897C135.057 50.7521 136.49 50.8485 136.845 51.5411C137.201 52.2337 136.43 53.4441 136.725 54.1608C137.02 54.8775 138.423 55.1906 138.664 55.9314C138.905 56.6721 137.959 57.7381 138.146 58.5029C138.333 59.2678 139.658 59.7857 139.778 60.5566C139.899 61.3274 138.797 62.2368 138.857 63.0137C138.917 63.7906 140.115 64.5133 140.115 65.3022Z" stroke="#191720" stroke-linecap="round" stroke-linejoin="round"/>
<path d="M101.576 105.447C101.576 105.447 92.1451 108.061 85.3157 109.061C78.4863 110.06 74.2767 110.066 72.8735 113.481C71.4703 116.896 60.0217 155.433 57.6128 160.052C55.2038 164.671 53.8006 175.108 58.0163 175.307C62.2319 175.505 74.8789 149.013 74.8789 149.013L78.6911 156.24C78.6911 156.24 66.8511 193.374 67.0498 194.982C67.2486 196.59 72.47 199.8 82.3045 200.601C92.139 201.402 93.1448 201.203 99.9741 203.009C106.803 204.816 116.03 202.407 120.45 199.998C124.871 197.589 129.881 196.788 131.893 195.584C133.904 194.379 133.898 194.181 133.898 191.772C133.898 189.363 124.461 154.632 124.461 154.632L130.086 139.775C130.086 139.775 142.932 166.273 143.534 168.682C144.136 171.091 147.948 174.102 151.562 173.301C155.175 172.5 158.789 169.886 157.789 163.864C156.789 157.842 139.921 115.89 138.716 112.276C137.512 108.663 138.915 105.248 133.898 104.044C128.882 102.839 104.19 104.243 104.19 104.243L101.576 105.447Z" fill="#F36B31"/>
<path opacity="0.3" d="M138.715 112.277C137.51 108.663 138.913 105.249 133.897 104.044C129.35 102.954 108.675 104.002 104.809 104.213L106.194 108.862C106.194 108.862 115.528 110.669 120.949 110.669C126.369 110.669 130.885 110.067 132.993 115.788C135.101 121.509 148.049 158.848 152.867 166.677C153.812 168.186 154.847 169.636 155.969 171.019C157.474 169.507 158.341 167.213 157.775 163.864C156.782 157.842 139.919 115.89 138.715 112.277Z" fill="#191720"/>
<path opacity="0.3" d="M131.892 195.584C133.898 194.379 133.898 194.181 133.898 191.772C133.898 189.363 124.461 154.632 124.461 154.632L129.845 140.407C128.297 138.142 126.002 134.433 126.267 132.752C126.545 130.219 126.68 127.671 126.671 125.122C126.671 125.122 125.165 134.758 120.95 140.178C116.734 145.598 95.3544 148.007 84.8153 148.007C79.3169 148.007 76.2816 148.664 75.2277 149.675L77.0826 153.186C81.3585 155.89 91.8253 159.763 103.485 161.557C115.144 163.352 121.251 187.152 123.358 190.465C125.466 193.777 118.842 198.896 114.626 199.498C110.41 200.101 104.689 197.089 98.9679 197.692C93.2466 198.294 90.5365 201.305 88.7298 198.294C86.9231 195.283 88.1276 188.056 86.3209 191.368C84.5142 194.68 83.9119 198.595 81.8041 198.595C80.2925 198.595 74.9145 198.438 71.4336 198.24C74.9164 199.573 78.5818 200.369 82.304 200.6C92.1445 201.407 93.1442 201.203 99.9736 203.009C106.803 204.816 116.029 202.407 120.45 199.998C124.87 197.589 129.881 196.788 131.892 195.584Z" fill="#191720"/>
<path opacity="0.3" d="M76.5708 152.223L76.6852 151.928C76.6852 151.928 72.6803 145.816 73.126 143.202C73.5716 140.588 73.0718 133.253 73.0718 133.253C73.0718 133.253 67.6517 153.729 65.2427 157.644C62.8338 161.558 55.908 172.699 55.908 172.699C55.908 172.699 55.8538 172.922 55.7695 173.302C56.1851 174.506 56.9017 175.259 58.0159 175.307C62.2315 175.512 74.8785 149.013 74.8785 149.013L76.5708 152.223Z" fill="#191720"/>
<path d="M101.576 105.447C101.576 105.447 92.1451 108.061 85.3157 109.061C78.4863 110.06 74.2767 110.066 72.8735 113.481C71.4703 116.896 60.0217 155.433 57.6128 160.052C55.2038 164.671 53.8006 175.108 58.0163 175.307C62.2319 175.505 74.8789 149.013 74.8789 149.013L78.6911 156.24C78.6911 156.24 66.8511 193.374 67.0498 194.982C67.2486 196.59 72.47 199.8 82.3045 200.601C92.139 201.402 93.1448 201.203 99.9741 203.009C106.803 204.816 116.03 202.407 120.45 199.998C124.871 197.589 129.881 196.788 131.893 195.584C133.904 194.379 133.898 194.181 133.898 191.772C133.898 189.363 124.461 154.632 124.461 154.632L130.086 139.775C130.086 139.775 142.932 166.273 143.534 168.682C144.136 171.091 147.948 174.102 151.562 173.301C155.175 172.5 158.789 169.886 157.789 163.864C156.789 157.842 139.921 115.89 138.716 112.276C137.512 108.663 138.915 105.248 133.898 104.044C128.882 102.839 104.19 104.243 104.19 104.243L101.576 105.447Z" stroke="#191720" stroke-linecap="round" stroke-linejoin="round"/>
<path d="M130.086 139.775C130.086 139.775 126.672 135.559 126.268 132.753C125.865 129.946 129.683 119.702 129.683 119.702" stroke="#191720" stroke-linecap="round" stroke-linejoin="round"/>
<path d="M74.8775 149.013C74.8775 149.013 73.125 145.634 73.125 143.195C73.125 140.756 76.4373 129.591 76.4373 129.591" stroke="#191720" stroke-linecap="round" stroke-linejoin="round"/>
<path d="M108.404 114.481C111.61 111.145 114.52 107.536 117.101 103.695C110.325 103.894 104.189 104.243 104.189 104.243L101.575 105.448C101.575 105.448 98.2024 106.381 94.0289 107.351C93.794 110.657 93.3002 117.998 93.1436 122.112C92.9448 127.532 92.7461 130.14 92.7461 130.14C92.7461 130.14 100.973 122.31 108.404 114.481Z" stroke="#191720" stroke-linecap="round" stroke-linejoin="round"/>
<path d="M62.833 158.047C62.833 158.047 60.4241 173.301 58.0151 175.307C55.6062 177.312 51.794 176.716 50.186 169.284C48.5781 161.853 50.186 160.052 52.7937 156.439C55.4014 152.825 61.8273 150.013 62.833 158.047Z" fill="#F36B31"/>
<path opacity="0.3" d="M62.8291 158.047C62.8291 158.047 60.4202 173.301 58.0112 175.307C55.6023 177.312 51.7901 176.716 50.1821 169.284C48.5742 161.853 50.1821 160.052 52.7898 156.439C55.3975 152.825 61.8234 150.013 62.8291 158.047Z" fill="#191720"/>
<path d="M62.833 158.047C62.833 158.047 60.4241 173.301 58.0151 175.307C55.6062 177.312 51.794 176.716 50.186 169.284C48.5781 161.853 50.186 160.052 52.7937 156.439C55.4014 152.825 61.8273 150.013 62.833 158.047Z" stroke="#191720" stroke-linecap="round" stroke-linejoin="round"/>
<path d="M95.1547 90.3909C95.1547 90.3909 97.5636 98.8222 97.3589 104.242C97.1541 109.662 95.7569 117.895 95.1547 121.707C94.5524 125.519 97.3589 122.912 103.785 114.685C110.211 106.459 112.017 104.044 112.415 101.231C112.812 98.4187 112.818 90.7944 112.818 90.7944C111.742 91.8202 110.415 92.5454 108.97 92.8973C107.525 93.2493 106.013 93.2157 104.586 92.7998C99.5691 91.3966 96.3592 87.7832 95.5522 87.7832C94.7452 87.7832 95.1547 90.3909 95.1547 90.3909Z" fill="white"/>
<path opacity="0.2" d="M104.586 92.7998C99.5691 91.3966 96.3592 87.7832 95.5522 87.7832C94.7452 87.7832 95.1547 90.3909 95.1547 90.3909C95.1547 90.3909 95.6365 92.0892 96.1544 94.4439C98.6356 97.4973 103.484 103.477 104.188 104.242C105.134 105.32 106.886 109.662 103.785 114.685C110.211 106.453 112.017 104.044 112.415 101.231C112.812 98.4187 112.818 90.7944 112.818 90.7944C111.742 91.8202 110.415 92.5454 108.97 92.8973C107.525 93.2493 106.013 93.2157 104.586 92.7998Z" fill="#191720"/>
<path d="M95.1547 90.3909C95.1547 90.3909 97.5636 98.8222 97.3589 104.242C97.1541 109.662 95.7569 117.895 95.1547 121.707C94.5524 125.519 97.3589 122.912 103.785 114.685C110.211 106.459 112.017 104.044 112.415 101.231C112.812 98.4187 112.818 90.7944 112.818 90.7944C111.742 91.8202 110.415 92.5454 108.97 92.8973C107.525 93.2493 106.013 93.2157 104.586 92.7998C99.5691 91.3966 96.3592 87.7832 95.5522 87.7832C94.7452 87.7832 95.1547 90.3909 95.1547 90.3909Z" stroke="#191720" stroke-linecap="round" stroke-linejoin="round"/>
<path d="M92.993 74.9862C92.993 74.9862 90.7467 72.3605 89.2411 74.6128C87.7355 76.8652 92.2522 84.3691 93.5591 84.3691C94.866 84.3691 94.3059 79.1176 94.3059 77.8047C94.3059 76.4918 92.993 74.9862 92.993 74.9862Z" fill="white" stroke="#191720" stroke-linecap="round" stroke-linejoin="round"/>
<path d="M119.077 77.0517C119.077 77.0517 121.323 74.4259 122.829 76.6783C124.334 78.9306 119.817 86.4345 118.511 86.4345C117.204 86.4345 117.764 81.177 117.764 79.8641C117.764 78.5512 119.077 77.0517 119.077 77.0517Z" fill="white"/>
<path opacity="0.2" d="M119.077 77.0517C119.077 77.0517 121.323 74.4259 122.829 76.6783C124.334 78.9306 119.817 86.4345 118.511 86.4345C117.204 86.4345 117.764 81.177 117.764 79.8641C117.764 78.5512 119.077 77.0517 119.077 77.0517Z" fill="#191720"/>
<path d="M119.077 77.0517C119.077 77.0517 121.323 74.4259 122.829 76.6783C124.334 78.9306 119.817 86.4345 118.511 86.4345C117.204 86.4345 117.764 81.177 117.764 79.8641C117.764 78.5512 119.077 77.0517 119.077 77.0517Z" stroke="#191720" stroke-linecap="round" stroke-linejoin="round"/>
<path d="M112.957 56.5938C112.722 57.1659 112.559 57.8524 112.126 58.1054C111.451 58.4908 110.199 57.7982 109.5 58.1415C108.801 58.4848 108.591 59.9 107.868 60.2011C107.145 60.5023 106.001 59.6411 105.26 59.888C104.52 60.1349 104.128 61.508 103.369 61.6947C102.61 61.8814 101.593 60.8877 100.828 61.0383C100.063 61.1888 99.4909 62.5017 98.714 62.598C97.9371 62.6944 97.0578 61.5742 96.2749 61.6224C95.6004 61.6646 94.95 62.6101 94.2755 62.8269C93.3902 65.2358 92.8602 68.4397 92.806 72.7036C92.806 72.7036 92.6193 85.0795 93.9322 88.4581C95.2451 91.8366 102.189 98.0276 104.622 98.401C107.055 98.7744 108.187 98.0276 109.313 96.9015C110.44 95.7753 117.745 89.771 118.503 87.3319C119.262 84.8929 122.069 69.1383 121.129 63.8868C120.557 60.6829 117.076 58.0391 112.957 56.5938Z" fill="white"/>
<path opacity="0.2" d="M115.642 57.7686C116.515 59.3163 117.28 61.7614 116.949 65.435C116.262 72.963 116.774 78.9552 115.575 84.1044C114.377 89.2535 110.282 94.8784 107.987 96.1491C105.693 97.4198 102.91 97.1067 99.827 95.3963L99.6523 95.306C101.61 96.9862 103.549 98.281 104.621 98.4436C107.06 98.817 108.186 98.0702 109.312 96.9441C110.438 95.8179 117.744 89.8136 118.502 87.3745C119.261 84.9355 122.068 69.1809 121.128 63.9294C120.688 61.4302 118.508 59.2802 115.642 57.7686Z" fill="#191720"/>
<path d="M112.957 56.5938C112.722 57.1659 112.559 57.8524 112.126 58.1054C111.451 58.4908 110.199 57.7982 109.5 58.1415C108.801 58.4848 108.591 59.9 107.868 60.2011C107.145 60.5023 106.001 59.6411 105.26 59.888C104.52 60.1349 104.128 61.508 103.369 61.6947C102.61 61.8814 101.593 60.8877 100.828 61.0383C100.063 61.1888 99.4909 62.5017 98.714 62.598C97.9371 62.6944 97.0578 61.5742 96.2749 61.6224C95.6004 61.6646 94.95 62.6101 94.2755 62.8269C93.3902 65.2358 92.8602 68.4397 92.806 72.7036C92.806 72.7036 92.6193 85.0795 93.9322 88.4581C95.2451 91.8366 102.189 98.0276 104.622 98.401C107.055 98.7744 108.187 98.0276 109.313 96.9015C110.44 95.7753 117.745 89.771 118.503 87.3319C119.262 84.8929 122.069 69.1383 121.129 63.8868C120.557 60.6829 117.076 58.0391 112.957 56.5938Z" stroke="#191720" stroke-linecap="round" stroke-linejoin="round"/>
<path d="M106.5 83.6165C106.5 83.6165 109.312 83.9959 109.511 81.3701" stroke="#191720" stroke-linecap="round" stroke-linejoin="round"/>
<path d="M111.192 86.9943C111.192 86.9943 107.814 87.5544 101.996 85.8682C101.996 85.8682 102.749 90.3729 105.748 91.1197C108.747 91.8664 111.192 86.9943 111.192 86.9943Z" stroke="#191720" stroke-linecap="round" stroke-linejoin="round"/>
<path d="M103.742 76.0524C103.706 77.1365 103.261 78.0097 102.743 77.9916C102.225 77.9736 101.833 77.0762 101.87 75.9922C101.906 74.9082 102.351 74.0349 102.869 74.053C103.387 74.0711 103.785 74.9624 103.742 76.0524Z" fill="#191720"/>
<path d="M101.375 74.336C101.831 74.1243 102.334 74.0357 102.835 74.0791C103.336 74.1224 103.817 74.2961 104.23 74.5829" stroke="#191720" stroke-linecap="round" stroke-linejoin="round"/>
<path d="M113.651 77.359C113.536 78.437 113.048 79.2741 112.512 79.2199C111.976 79.1657 111.675 78.2443 111.79 77.1603C111.904 76.0763 112.392 75.2452 112.928 75.2994C113.464 75.3536 113.765 76.275 113.651 77.359Z" fill="#191720"/>
<path d="M111.426 75.4804C111.895 75.3012 112.403 75.2486 112.899 75.3279C113.394 75.4072 113.861 75.6156 114.25 75.9321" stroke="#191720" stroke-linecap="round" stroke-linejoin="round"/>
<path d="M99.1602 70.6197C100.121 70.0335 101.212 69.6928 102.335 69.6277C103.459 69.5626 104.582 69.775 105.604 70.2463" stroke="#191720" stroke-width="2" stroke-linecap="round" stroke-linejoin="round"/>
<path d="M110.934 71.3611C110.934 71.3611 113.903 69.3797 116.878 72.9751" stroke="#191720" stroke-width="2" stroke-linecap="round" stroke-linejoin="round"/>
<path d="M128.073 176.114C128.073 176.114 125.062 169.887 124.863 164.268C124.664 158.649 127.073 155.638 129.681 158.445C132.289 161.251 130.283 173.302 128.073 176.114Z" fill="#F36B31"/>
<path opacity="0.3" d="M128.073 176.114C128.073 176.114 125.062 169.887 124.863 164.268C124.664 158.649 127.073 155.638 129.681 158.445C132.289 161.251 130.283 173.302 128.073 176.114Z" fill="#191720"/>
<path d="M128.073 176.114C128.073 176.114 125.062 169.887 124.863 164.268C124.664 158.649 127.073 155.638 129.681 158.445C132.289 161.251 130.283 173.302 128.073 176.114Z" stroke="#191720" stroke-linecap="round" stroke-linejoin="round"/>
<path d="M151.163 156.637C151.163 156.637 137.709 156.637 130.283 153.831C122.858 151.024 116.233 147.001 112.819 143.791C109.404 140.581 108.199 139.774 104.189 139.377C100.178 138.98 97.1604 136.763 97.1604 138.173C97.1604 139.582 98.3649 140.581 99.5694 141.184C100.774 141.786 105.188 143.791 105.188 143.791C105.188 143.791 105.592 144.797 101.376 145.598C97.167 146.414 93.061 147.693 89.1326 149.41C85.5192 151.018 84.3147 152.223 85.5192 152.626C86.7237 153.03 90.5358 151.62 91.3368 151.62C92.1378 151.62 96.5582 151.018 96.5582 151.018C96.5582 151.018 88.3256 154.632 87.1212 155.637C85.9167 156.643 82.508 158.046 83.9112 158.649C85.3144 159.251 91.1381 158.245 91.1381 158.245C91.1381 158.245 85.1157 160.052 87.5247 160.853C89.9336 161.654 94.9502 160.455 94.9502 160.455C94.9502 160.455 100.774 161.256 102.382 160.455C103.99 159.654 113.421 155.637 113.421 155.637C113.421 155.637 127.875 168.08 140.323 171.091C152.771 174.102 152.566 171.091 152.566 171.091" fill="white"/>
<path opacity="0.2" d="M137.112 170.128C139.521 169.062 141.424 168.182 141.424 168.182L142.026 156.138C138.063 155.752 133.595 155.06 130.295 153.813C122.857 151.019 116.232 147.002 112.818 143.792C110.409 141.539 109.114 140.473 107.169 139.901C108.198 140.757 109.204 141.859 109.204 142.913C109.204 145.02 105.591 147.128 102.881 148.333L92.0405 153.151C92.0405 153.151 100.773 149.537 100.171 151.645C99.5684 153.753 93.5461 156.463 87.5237 157.968C86.6107 158.195 85.7151 158.487 84.8438 158.842C86.9757 158.986 91.1371 158.27 91.1371 158.27C91.1371 158.27 85.1148 160.076 87.5237 160.877C89.9326 161.678 94.9493 160.48 94.9493 160.48C94.9493 160.48 100.773 161.281 102.381 160.48C103.989 159.679 113.42 155.662 113.42 155.662C113.42 155.662 125.519 166.075 137.112 170.128Z" fill="#191720"/>
<path d="M151.163 156.637C151.163 156.637 137.709 156.637 130.283 153.831C122.858 151.024 116.233 147.001 112.819 143.791C109.404 140.581 108.199 139.774 104.189 139.377C100.178 138.98 97.1604 136.763 97.1604 138.173C97.1604 139.582 98.3649 140.581 99.5694 141.184C100.774 141.786 105.188 143.791 105.188 143.791C105.188 143.791 105.592 144.797 101.376 145.598C97.167 146.414 93.061 147.693 89.1326 149.41C85.5192 151.018 84.3147 152.223 85.5192 152.626C86.7237 153.03 90.5358 151.62 91.3368 151.62C92.1378 151.62 96.5582 151.018 96.5582 151.018C96.5582 151.018 88.3256 154.632 87.1212 155.637C85.9167 156.643 82.508 158.046 83.9112 158.649C85.3144 159.251 91.1381 158.245 91.1381 158.245C91.1381 158.245 85.1157 160.052 87.5247 160.853C89.9336 161.654 94.9502 160.455 94.9502 160.455C94.9502 160.455 100.774 161.256 102.382 160.455C103.99 159.654 113.421 155.637 113.421 155.637C113.421 155.637 127.875 168.08 140.323 171.091C152.771 174.102 152.566 171.091 152.566 171.091" stroke="#191720" stroke-linecap="round" stroke-linejoin="round"/>
<path d="M91.1367 158.245L98.2311 155.746" stroke="#191720" stroke-linecap="round" stroke-linejoin="round"/>
<path d="M94.9492 160.456L99.6286 159.233" stroke="#191720" stroke-linecap="round" stroke-linejoin="round"/>
<path d="M157.789 167.881C156.982 172.898 154.777 176.313 145.539 176.114C136.301 175.915 128.074 176.114 128.074 176.114C128.844 173.216 129.381 170.262 129.682 167.279C130.284 161.859 130.284 153.831 130.284 153.831C130.284 153.831 142.931 156.637 153.169 155.638" fill="#F36B31"/>
<path opacity="0.3" d="M157.789 167.881C156.982 172.898 154.777 176.313 145.539 176.114C136.301 175.915 128.074 176.114 128.074 176.114C128.844 173.216 129.381 170.262 129.682 167.279C130.284 161.859 130.284 153.831 130.284 153.831C130.284 153.831 142.931 156.637 153.169 155.638" fill="#191720"/>
<path d="M157.789 167.881C156.982 172.898 154.777 176.313 145.539 176.114C136.301 175.915 128.074 176.114 128.074 176.114C128.844 173.216 129.381 170.262 129.682 167.279C130.284 161.859 130.284 153.831 130.284 153.831C130.284 153.831 142.931 156.637 153.169 155.638" stroke="#191720" stroke-linecap="round" stroke-linejoin="round"/>
<path d="M64.0369 129.338C64.0369 129.338 62.9528 132.687 56.4065 144.997C50.89 155.379 49.1797 159.854 49.1797 163.666C49.1797 167.478 52.5944 171.899 57.611 168.683C62.6276 165.467 64.2356 161.618 65.0547 155.999C65.8737 150.381 70.1917 131.874 70.1917 131.874C70.1917 131.874 68.8548 127.333 64.0369 129.338Z" fill="white"/>
<path opacity="0.2" d="M65.0563 155.999C65.8572 150.38 70.1933 131.873 70.1933 131.873C70.1933 131.873 69.2177 128.579 65.9777 128.862L64.7732 133.62C64.7732 133.62 60.425 156.74 56.2094 162.762C55.5131 163.844 54.6013 164.771 53.531 165.484C52.4606 166.198 51.2547 166.684 49.9883 166.911C51.2831 169.387 54.0413 170.97 57.6126 168.682C62.6353 165.472 64.2553 161.618 65.0563 155.999Z" fill="#191720"/>
<path d="M64.0369 129.338C64.0369 129.338 62.9528 132.687 56.4065 144.997C50.89 155.379 49.1797 159.854 49.1797 163.666C49.1797 167.478 52.5944 171.899 57.611 168.683C62.6276 165.467 64.2356 161.618 65.0547 155.999C65.8737 150.381 70.1917 131.874 70.1917 131.874C70.1917 131.874 68.8548 127.333 64.0369 129.338Z" stroke="#191720" stroke-linecap="round" stroke-linejoin="round"/>
<path d="M66.0424 122.515C66.0424 122.515 59.2191 122.515 58.4181 123.514C57.6171 124.514 57.6111 127.128 60.02 127.128C62.429 127.128 66.2472 126.929 67.4516 126.128C68.6561 125.327 68.0599 122.147 66.0424 122.515Z" fill="white" stroke="#191720" stroke-linecap="round" stroke-linejoin="round"/>
<path d="M63.187 133.428C63.1094 134.01 63.1791 134.602 63.3895 135.15C63.5999 135.698 63.9444 136.185 64.3915 136.565C65.9573 137.963 68.9264 137.089 68.4024 136.222C67.8785 135.355 64.7408 133.602 64.7408 133.602L63.187 133.428Z" fill="white" stroke="#191720" stroke-linecap="round" stroke-linejoin="round"/>
<path d="M62.8307 130.344C62.8307 130.344 61.6262 132.349 62.4272 133.355C63.2282 134.361 65.4384 134.56 68.0521 133.957C70.6658 133.355 71.4608 130.543 69.2566 130.344C67.116 130.234 64.9713 130.234 62.8307 130.344Z" fill="white" stroke="#191720" stroke-linecap="round" stroke-linejoin="round"/>
<path d="M61.8265 127.128C61.8265 127.128 60.2246 128.133 60.8268 129.741C61.429 131.349 64.0367 131.343 67.2467 130.741C70.4566 130.139 70.4626 126.73 69.2581 126.525C68.0536 126.321 61.8265 127.128 61.8265 127.128Z" fill="white" stroke="#191720" stroke-linecap="round" stroke-linejoin="round"/>
<path d="M73.5706 140.582C71.3084 140.58 69.1394 139.681 67.5403 138.08C65.9412 136.48 65.043 134.31 65.043 132.048V118.901H82.1043V132.048C82.1043 133.169 81.8836 134.279 81.4548 135.314C81.0259 136.349 80.3973 137.29 79.6049 138.082C78.8125 138.875 77.8717 139.503 76.8363 139.932C75.801 140.361 74.6913 140.582 73.5706 140.582Z" fill="white"/>
<path opacity="0.3" d="M75.943 118.944V133.397C75.943 133.397 75.2806 136.734 70.83 137.613C69.6896 137.832 68.5276 137.919 67.3672 137.872C68.1612 138.722 69.1216 139.4 70.1888 139.863C71.2559 140.326 72.4069 140.565 73.5702 140.564C75.8304 140.564 77.9982 139.667 79.5981 138.071C81.1979 136.474 82.0991 134.308 82.1039 132.048V118.901H75.9852L75.943 118.944Z" fill="#191720"/>
<path d="M73.5706 140.582C71.3084 140.58 69.1394 139.681 67.5403 138.08C65.9412 136.48 65.043 134.31 65.043 132.048V118.901H82.1043V132.048C82.1043 133.169 81.8836 134.279 81.4548 135.314C81.0259 136.349 80.3973 137.29 79.6049 138.082C78.8125 138.875 77.8717 139.503 76.8363 139.932C75.801 140.361 74.6913 140.582 73.5706 140.582V140.582Z" stroke="#191720" stroke-linecap="round" stroke-linejoin="round"/>
<path d="M62.7305 99.4011C63.5162 98.8741 64.4653 98.6475 65.4044 98.7627" stroke="#191720" stroke-linecap="round" stroke-linejoin="round"/>
<path d="M69.9094 117.895C69.9094 117.895 71.0054 115.216 68.4459 112.168C66.4284 109.759 62.803 109.41 60.8457 106.983C59.5509 105.381 59.84 103.014 60.9722 101.226" stroke="#191720" stroke-linecap="round" stroke-linejoin="round"/>
<path d="M70.6602 108.013C70.6602 108.013 75.0444 109.109 76.3814 112.758C77.7184 116.408 76.7488 117.751 76.7488 117.751" stroke="#191720" stroke-linecap="round" stroke-linejoin="round"/>
<path d="M1 205.834H253" stroke="#191720" stroke-linecap="round" stroke-linejoin="round"/>
<path d="M229.908 94.4746H171.124C168.879 94.4746 167.059 96.2946 167.059 98.5397V211.001C167.059 213.247 168.879 215.067 171.124 215.067H229.908C232.153 215.067 233.973 213.247 233.973 211.001V98.5397C233.973 96.2946 232.153 94.4746 229.908 94.4746Z" fill="#191720" stroke="#191720" stroke-linecap="round" stroke-linejoin="round"/>
<path d="M226.806 94.4746H168.022C165.777 94.4746 163.957 96.2946 163.957 98.5397V211.001C163.957 213.247 165.777 215.067 168.022 215.067H226.806C229.052 215.067 230.872 213.247 230.872 211.001V98.5397C230.872 96.2946 229.052 94.4746 226.806 94.4746Z" fill="white" stroke="#191720" stroke-linecap="round" stroke-linejoin="round"/>
<path d="M202.036 101.677H193.707C193.48 101.677 193.262 101.587 193.102 101.427C192.942 101.266 192.852 101.049 192.852 100.822C192.853 100.596 192.944 100.379 193.104 100.219C193.264 100.059 193.48 99.9684 193.707 99.9668H202.036C202.262 99.9668 202.48 100.057 202.64 100.217C202.801 100.378 202.891 100.595 202.891 100.822C202.892 100.934 202.87 101.046 202.827 101.15C202.785 101.254 202.722 101.349 202.642 101.428C202.563 101.508 202.468 101.571 202.364 101.614C202.26 101.656 202.148 101.678 202.036 101.677Z" fill="#191720"/>
<path d="M226.637 204.286H168.184V101.779H182.035L183.589 103.068C184.135 103.519 184.82 103.766 185.528 103.767H209.979C210.715 103.769 211.426 103.501 211.978 103.014L213.387 101.809H226.637V204.286Z" fill="#191720"/>
<path d="M211.062 154.073C218.529 146.606 218.529 134.499 211.062 127.032C203.595 119.565 191.488 119.565 184.021 127.032C176.553 134.499 176.553 146.606 184.021 154.073C191.488 161.541 203.595 161.541 211.062 154.073Z" stroke="#F36B31" stroke-miterlimit="10"/>
<path d="M197.538 156.312C206.242 156.312 213.298 149.256 213.298 140.552C213.298 131.847 206.242 124.791 197.538 124.791C188.834 124.791 181.777 131.847 181.777 140.552C181.777 149.256 188.834 156.312 197.538 156.312Z" fill="#F36B31"/>
<path d="M222.324 178.258C221.167 177.96 219.989 177.746 218.801 177.619C217.103 177.493 215.748 178.137 215.073 178.137C214.399 178.137 213.604 176.457 211.002 175.421C208.4 174.385 206.371 177.752 204.112 177.752C203.041 177.752 202.348 176.987 201.649 176.162C201.335 175.678 200.94 175.253 200.481 174.903C200.019 174.471 199.43 174.198 198.801 174.126C198.632 174.114 198.463 174.114 198.295 174.126C198.126 174.114 197.957 174.114 197.789 174.126C197.16 174.198 196.571 174.471 196.109 174.903C195.65 175.253 195.255 175.678 194.94 176.162C194.242 176.987 193.555 177.752 192.477 177.752C190.219 177.752 188.183 174.385 185.588 175.421C182.992 176.457 182.197 178.137 181.517 178.137C180.836 178.137 179.487 177.493 177.789 177.619C176.6 177.747 175.423 177.96 174.266 178.258C175.422 178.558 176.6 178.771 177.789 178.896C179.487 179.028 180.842 178.378 181.517 178.378C182.191 178.378 182.986 180.064 185.588 181.1C188.189 182.136 190.219 178.769 192.477 178.769C193.555 178.769 194.242 179.528 194.94 180.359C195.257 180.839 195.652 181.263 196.109 181.612C196.573 182.043 197.161 182.317 197.789 182.395C197.957 182.407 198.126 182.407 198.295 182.395C198.463 182.407 198.632 182.407 198.801 182.395C199.429 182.317 200.017 182.043 200.481 181.612C200.938 181.263 201.333 180.839 201.649 180.359C202.348 179.528 203.041 178.769 204.112 178.769C206.371 178.769 208.406 182.136 211.002 181.1C213.598 180.064 214.393 178.378 215.073 178.378C215.754 178.378 217.103 179.028 218.801 178.896C219.99 178.772 221.167 178.558 222.324 178.258Z" fill="#F36B31"/>
<path opacity="0.7" d="M219.689 178.251C218.992 178.055 218.282 177.914 217.563 177.829C216.545 177.745 215.756 178.173 215.317 178.173C214.877 178.173 214.431 177.058 212.866 176.366C211.3 175.673 210.077 177.914 208.716 177.914C208.066 177.914 207.65 177.408 207.229 176.86C207.041 176.544 206.803 176.261 206.524 176.023C206.255 175.741 205.898 175.561 205.512 175.511C205.41 175.502 205.307 175.502 205.205 175.511C204.962 175.499 204.718 175.539 204.492 175.63C204.265 175.72 204.061 175.858 203.892 176.035C203.613 176.273 203.375 176.556 203.188 176.872C202.766 177.42 202.351 177.926 201.7 177.926C201.111 177.843 200.56 177.587 200.116 177.191C199.731 176.858 199.299 176.584 198.834 176.378C198.631 176.288 198.411 176.245 198.189 176.251C197.97 176.245 197.751 176.288 197.551 176.378C197.085 176.584 196.653 176.858 196.268 177.191C195.823 177.588 195.269 177.844 194.678 177.926C194.034 177.926 193.618 177.42 193.197 176.872C193.009 176.556 192.771 176.273 192.492 176.035C192.222 175.755 191.866 175.574 191.48 175.523C191.378 175.514 191.275 175.514 191.173 175.523C191.071 175.514 190.968 175.514 190.866 175.523C190.481 175.574 190.124 175.755 189.854 176.035C189.577 176.273 189.341 176.556 189.156 176.872C188.734 177.42 188.318 177.926 187.668 177.926C186.307 177.926 185.084 175.691 183.519 176.378C181.953 177.064 181.471 178.185 181.068 178.185C180.664 178.185 179.863 177.757 178.821 177.841C178.103 177.926 177.392 178.067 176.695 178.263C177.391 178.461 178.102 178.602 178.821 178.684C179.839 178.775 180.658 178.341 181.068 178.341C181.477 178.341 181.953 179.461 183.519 180.148C185.084 180.834 186.307 178.6 187.668 178.6C188.318 178.6 188.734 179.106 189.156 179.654C189.34 179.969 189.576 180.25 189.854 180.485C190.125 180.765 190.481 180.947 190.866 181.003C190.968 181.009 191.071 181.009 191.173 181.003C191.275 181.009 191.378 181.009 191.48 181.003C191.865 180.947 192.221 180.765 192.492 180.485C192.772 180.25 193.011 179.969 193.197 179.654C193.618 179.106 194.034 178.6 194.678 178.6C195.27 178.678 195.825 178.934 196.268 179.335C196.653 179.668 197.085 179.942 197.551 180.148C197.752 180.236 197.97 180.277 198.189 180.268C198.41 180.277 198.631 180.236 198.834 180.148C199.301 179.942 199.733 179.666 200.116 179.329C200.559 178.933 201.111 178.679 201.7 178.6C202.351 178.6 202.766 179.106 203.188 179.654C203.374 179.969 203.612 180.25 203.892 180.485C204.162 180.766 204.519 180.948 204.904 181.003C205.004 181.009 205.105 181.009 205.205 181.003C205.307 181.009 205.41 181.009 205.512 181.003C205.898 180.948 206.254 180.766 206.524 180.485C206.804 180.25 207.043 179.969 207.229 179.654C207.65 179.106 208.066 178.6 208.716 178.6C210.077 178.6 211.3 180.834 212.866 180.148C214.431 179.461 214.907 178.341 215.317 178.341C215.726 178.341 216.521 178.775 217.563 178.684C218.282 178.602 218.993 178.461 219.689 178.263V178.251Z" fill="white"/>
<path d="M197.41 144.622C196.992 144.623 196.579 144.541 196.192 144.382C195.806 144.222 195.455 143.988 195.16 143.693C194.865 143.397 194.63 143.046 194.471 142.66C194.311 142.274 194.23 141.86 194.23 141.442V131.373C194.23 130.956 194.313 130.543 194.473 130.157C194.633 129.772 194.867 129.421 195.162 129.127C195.458 128.832 195.808 128.598 196.194 128.439C196.58 128.28 196.993 128.198 197.41 128.199C198.252 128.199 199.059 128.534 199.654 129.129C200.25 129.724 200.584 130.531 200.584 131.373V141.442C200.585 141.86 200.503 142.273 200.344 142.659C200.185 143.045 199.951 143.395 199.657 143.691C199.362 143.986 199.012 144.22 198.626 144.38C198.241 144.54 197.828 144.622 197.41 144.622Z" fill="#191720"/>
<path d="M197.437 146.905C195.948 146.904 194.521 146.312 193.468 145.26C192.414 144.208 191.821 142.781 191.818 141.292V136.565C191.794 136.475 191.79 136.382 191.808 136.291C191.826 136.2 191.864 136.115 191.921 136.041C191.977 135.968 192.049 135.908 192.132 135.867C192.215 135.826 192.307 135.805 192.399 135.805C192.492 135.805 192.583 135.826 192.666 135.867C192.749 135.908 192.821 135.968 192.878 136.041C192.934 136.115 192.972 136.2 192.99 136.291C193.008 136.382 193.005 136.475 192.98 136.565V141.292C192.98 142.474 193.45 143.608 194.286 144.444C195.121 145.279 196.255 145.749 197.437 145.749C198.619 145.749 199.752 145.279 200.588 144.444C201.424 143.608 201.893 142.474 201.893 141.292V136.565C201.867 136.475 201.862 136.38 201.879 136.288C201.896 136.196 201.934 136.11 201.99 136.035C202.046 135.96 202.119 135.899 202.202 135.858C202.286 135.816 202.378 135.794 202.472 135.794C202.565 135.794 202.657 135.816 202.741 135.858C202.824 135.899 202.897 135.96 202.953 136.035C203.009 136.11 203.047 136.196 203.064 136.288C203.081 136.38 203.076 136.475 203.05 136.565V141.292C203.048 142.781 202.456 144.207 201.404 145.259C200.352 146.312 198.925 146.904 197.437 146.905Z" fill="#191720"/>
<path d="M197.436 152.951C197.276 152.951 197.123 152.888 197.01 152.775C196.897 152.662 196.834 152.509 196.834 152.349V146.327C196.809 146.237 196.806 146.144 196.824 146.053C196.842 145.962 196.88 145.876 196.936 145.803C196.993 145.729 197.065 145.67 197.148 145.629C197.231 145.588 197.322 145.566 197.415 145.566C197.507 145.566 197.599 145.588 197.682 145.629C197.765 145.67 197.837 145.729 197.893 145.803C197.949 145.876 197.988 145.962 198.006 146.053C198.024 146.144 198.02 146.237 197.996 146.327V152.349C197.996 152.502 197.939 152.649 197.835 152.761C197.731 152.872 197.588 152.94 197.436 152.951Z" fill="#191720"/>
<path d="M201.306 153.259H193.561C193.472 153.283 193.378 153.286 193.287 153.268C193.196 153.251 193.111 153.212 193.037 153.156C192.964 153.1 192.904 153.027 192.863 152.944C192.822 152.861 192.801 152.77 192.801 152.677C192.801 152.585 192.822 152.494 192.863 152.411C192.904 152.328 192.964 152.255 193.037 152.199C193.111 152.143 193.196 152.104 193.287 152.086C193.378 152.069 193.472 152.072 193.561 152.096H201.306C201.395 152.072 201.489 152.069 201.58 152.086C201.67 152.104 201.756 152.143 201.829 152.199C201.903 152.255 201.963 152.328 202.004 152.411C202.045 152.494 202.066 152.585 202.066 152.677C202.066 152.77 202.045 152.861 202.004 152.944C201.963 153.027 201.903 153.1 201.829 153.156C201.756 153.212 201.67 153.251 201.58 153.268C201.489 153.286 201.395 153.283 201.306 153.259Z" fill="#191720"/>
<path opacity="0.3" d="M226.638 159.835V101.779H213.388L211.979 102.984C211.427 103.471 210.716 103.738 209.98 103.737H185.529C184.821 103.736 184.136 103.489 183.59 103.038L182.072 101.779H168.582L226.638 159.835Z" fill="white"/>
<path d="M226.637 204.286H168.184V101.779H182.035L183.589 103.068C184.135 103.519 184.82 103.766 185.528 103.767H209.979C210.715 103.769 211.426 103.501 211.978 103.014L213.387 101.809H226.637V204.286Z" stroke="#191720" stroke-linecap="round" stroke-linejoin="round"/>
<path d="M199.279 207.448C199.279 207.185 199.201 206.927 199.054 206.708C198.908 206.489 198.7 206.318 198.456 206.218C198.213 206.117 197.945 206.091 197.686 206.143C197.428 206.195 197.191 206.322 197.005 206.509C196.819 206.696 196.693 206.934 196.642 207.192C196.591 207.451 196.619 207.719 196.72 207.962C196.822 208.205 196.993 208.412 197.213 208.558C197.433 208.703 197.691 208.78 197.954 208.779C198.129 208.779 198.301 208.745 198.463 208.678C198.624 208.611 198.77 208.513 198.893 208.389C199.016 208.265 199.114 208.118 199.18 207.957C199.246 207.796 199.28 207.623 199.279 207.448Z" fill="#191720"/>
</svg>
