<svg width="43" height="43" viewBox="0 0 43 43" fill="none" xmlns="http://www.w3.org/2000/svg">
<rect y="0.5" width="43" height="42" rx="8" fill="#FFF1EA"/>
<mask id="path-2-inside-1_2239_2660" fill="white">
<path d="M17.2778 15.5C17.5577 15.5 17.8262 15.3946 18.0242 15.2071C18.2221 15.0196 18.3333 14.7652 18.3333 14.5C18.3333 14.2348 18.2221 13.9804 18.0242 13.7929C17.8262 13.6054 17.5577 13.5 17.2778 13.5C16.9978 13.5 16.7293 13.6054 16.5314 13.7929C16.3334 13.9804 16.2222 14.2348 16.2222 14.5C16.2222 14.7652 16.3334 15.0196 16.5314 15.2071C16.7293 15.3946 16.9978 15.5 17.2778 15.5ZM18.3333 19.5C18.3333 19.7652 18.2221 20.0196 18.0242 20.2071C17.8262 20.3946 17.5577 20.5 17.2778 20.5C16.9978 20.5 16.7293 20.3946 16.5314 20.2071C16.3334 20.0196 16.2222 19.7652 16.2222 19.5C16.2222 19.2348 16.3334 18.9804 16.5314 18.7929C16.7293 18.6054 16.9978 18.5 17.2778 18.5C17.5577 18.5 17.8262 18.6054 18.0242 18.7929C18.2221 18.9804 18.3333 19.2348 18.3333 19.5ZM17.2778 25.5C17.5577 25.5 17.8262 25.3946 18.0242 25.2071C18.2221 25.0196 18.3333 24.7652 18.3333 24.5C18.3333 24.2348 18.2221 23.9804 18.0242 23.7929C17.8262 23.6054 17.5577 23.5 17.2778 23.5C16.9978 23.5 16.7293 23.6054 16.5314 23.7929C16.3334 23.9804 16.2222 24.2348 16.2222 24.5C16.2222 24.7652 16.3334 25.0196 16.5314 25.2071C16.7293 25.3946 16.9978 25.5 17.2778 25.5ZM22.5556 14.5C22.5556 14.7652 22.4443 15.0196 22.2464 15.2071C22.0484 15.3946 21.78 15.5 21.5 15.5C21.22 15.5 20.9516 15.3946 20.7536 15.2071C20.5557 15.0196 20.4444 14.7652 20.4444 14.5C20.4444 14.2348 20.5557 13.9804 20.7536 13.7929C20.9516 13.6054 21.22 13.5 21.5 13.5C21.78 13.5 22.0484 13.6054 22.2464 13.7929C22.4443 13.9804 22.5556 14.2348 22.5556 14.5ZM21.5 20.5C21.78 20.5 22.0484 20.3946 22.2464 20.2071C22.4443 20.0196 22.5556 19.7652 22.5556 19.5C22.5556 19.2348 22.4443 18.9804 22.2464 18.7929C22.0484 18.6054 21.78 18.5 21.5 18.5C21.22 18.5 20.9516 18.6054 20.7536 18.7929C20.5557 18.9804 20.4444 19.2348 20.4444 19.5C20.4444 19.7652 20.5557 20.0196 20.7536 20.2071C20.9516 20.3946 21.22 20.5 21.5 20.5ZM22.5556 24.5C22.5556 24.7652 22.4443 25.0196 22.2464 25.2071C22.0484 25.3946 21.78 25.5 21.5 25.5C21.22 25.5 20.9516 25.3946 20.7536 25.2071C20.5557 25.0196 20.4444 24.7652 20.4444 24.5C20.4444 24.2348 20.5557 23.9804 20.7536 23.7929C20.9516 23.6054 21.22 23.5 21.5 23.5C21.78 23.5 22.0484 23.6054 22.2464 23.7929C22.4443 23.9804 22.5556 24.2348 22.5556 24.5ZM25.7222 25.5C26.0022 25.5 26.2707 25.3946 26.4686 25.2071C26.6666 25.0196 26.7778 24.7652 26.7778 24.5C26.7778 24.2348 26.6666 23.9804 26.4686 23.7929C26.2707 23.6054 26.0022 23.5 25.7222 23.5C25.4423 23.5 25.1738 23.6054 24.9758 23.7929C24.7779 23.9804 24.6667 24.2348 24.6667 24.5C24.6667 24.7652 24.7779 25.0196 24.9758 25.2071C25.1738 25.3946 25.4423 25.5 25.7222 25.5ZM15.1667 9.5C14.3268 9.5 13.5214 9.81607 12.9275 10.3787C12.3336 10.9413 12 11.7044 12 12.5V32.5C12 32.7652 12.1112 33.0196 12.3092 33.2071C12.5071 33.3946 12.7756 33.5 13.0556 33.5H29.9444C30.2244 33.5 30.4929 33.3946 30.6908 33.2071C30.8888 33.0196 31 32.7652 31 32.5V22.5C31 21.7044 30.6664 20.9413 30.0725 20.3787C29.4786 19.8161 28.6732 19.5 27.8333 19.5H26.7778V12.5C26.7778 11.7044 26.4441 10.9413 25.8503 10.3787C25.2564 9.81607 24.451 9.5 23.6111 9.5H15.1667ZM14.1111 12.5C14.1111 12.2348 14.2223 11.9804 14.4203 11.7929C14.6182 11.6054 14.8867 11.5 15.1667 11.5H23.6111C23.8911 11.5 24.1595 11.6054 24.3575 11.7929C24.5555 11.9804 24.6667 12.2348 24.6667 12.5V20.5C24.6667 20.7652 24.7779 21.0196 24.9758 21.2071C25.1738 21.3946 25.4423 21.5 25.7222 21.5H27.8333C28.1133 21.5 28.3818 21.6054 28.5797 21.7929C28.7777 21.9804 28.8889 22.2348 28.8889 22.5V31.5H26.7778V28.5C26.7778 28.2348 26.6666 27.9804 26.4686 27.7929C26.2707 27.6054 26.0022 27.5 25.7222 27.5H17.2778C16.9978 27.5 16.7293 27.6054 16.5314 27.7929C16.3334 27.9804 16.2222 28.2348 16.2222 28.5V31.5H14.1111V12.5ZM24.6667 29.5V31.5H22.5619V29.5H24.6667ZM20.4508 29.5V31.5H18.3333V29.5H20.4508Z"/>
</mask>
<path d="M17.2778 15.5C17.5577 15.5 17.8262 15.3946 18.0242 15.2071C18.2221 15.0196 18.3333 14.7652 18.3333 14.5C18.3333 14.2348 18.2221 13.9804 18.0242 13.7929C17.8262 13.6054 17.5577 13.5 17.2778 13.5C16.9978 13.5 16.7293 13.6054 16.5314 13.7929C16.3334 13.9804 16.2222 14.2348 16.2222 14.5C16.2222 14.7652 16.3334 15.0196 16.5314 15.2071C16.7293 15.3946 16.9978 15.5 17.2778 15.5ZM18.3333 19.5C18.3333 19.7652 18.2221 20.0196 18.0242 20.2071C17.8262 20.3946 17.5577 20.5 17.2778 20.5C16.9978 20.5 16.7293 20.3946 16.5314 20.2071C16.3334 20.0196 16.2222 19.7652 16.2222 19.5C16.2222 19.2348 16.3334 18.9804 16.5314 18.7929C16.7293 18.6054 16.9978 18.5 17.2778 18.5C17.5577 18.5 17.8262 18.6054 18.0242 18.7929C18.2221 18.9804 18.3333 19.2348 18.3333 19.5ZM17.2778 25.5C17.5577 25.5 17.8262 25.3946 18.0242 25.2071C18.2221 25.0196 18.3333 24.7652 18.3333 24.5C18.3333 24.2348 18.2221 23.9804 18.0242 23.7929C17.8262 23.6054 17.5577 23.5 17.2778 23.5C16.9978 23.5 16.7293 23.6054 16.5314 23.7929C16.3334 23.9804 16.2222 24.2348 16.2222 24.5C16.2222 24.7652 16.3334 25.0196 16.5314 25.2071C16.7293 25.3946 16.9978 25.5 17.2778 25.5ZM22.5556 14.5C22.5556 14.7652 22.4443 15.0196 22.2464 15.2071C22.0484 15.3946 21.78 15.5 21.5 15.5C21.22 15.5 20.9516 15.3946 20.7536 15.2071C20.5557 15.0196 20.4444 14.7652 20.4444 14.5C20.4444 14.2348 20.5557 13.9804 20.7536 13.7929C20.9516 13.6054 21.22 13.5 21.5 13.5C21.78 13.5 22.0484 13.6054 22.2464 13.7929C22.4443 13.9804 22.5556 14.2348 22.5556 14.5ZM21.5 20.5C21.78 20.5 22.0484 20.3946 22.2464 20.2071C22.4443 20.0196 22.5556 19.7652 22.5556 19.5C22.5556 19.2348 22.4443 18.9804 22.2464 18.7929C22.0484 18.6054 21.78 18.5 21.5 18.5C21.22 18.5 20.9516 18.6054 20.7536 18.7929C20.5557 18.9804 20.4444 19.2348 20.4444 19.5C20.4444 19.7652 20.5557 20.0196 20.7536 20.2071C20.9516 20.3946 21.22 20.5 21.5 20.5ZM22.5556 24.5C22.5556 24.7652 22.4443 25.0196 22.2464 25.2071C22.0484 25.3946 21.78 25.5 21.5 25.5C21.22 25.5 20.9516 25.3946 20.7536 25.2071C20.5557 25.0196 20.4444 24.7652 20.4444 24.5C20.4444 24.2348 20.5557 23.9804 20.7536 23.7929C20.9516 23.6054 21.22 23.5 21.5 23.5C21.78 23.5 22.0484 23.6054 22.2464 23.7929C22.4443 23.9804 22.5556 24.2348 22.5556 24.5ZM25.7222 25.5C26.0022 25.5 26.2707 25.3946 26.4686 25.2071C26.6666 25.0196 26.7778 24.7652 26.7778 24.5C26.7778 24.2348 26.6666 23.9804 26.4686 23.7929C26.2707 23.6054 26.0022 23.5 25.7222 23.5C25.4423 23.5 25.1738 23.6054 24.9758 23.7929C24.7779 23.9804 24.6667 24.2348 24.6667 24.5C24.6667 24.7652 24.7779 25.0196 24.9758 25.2071C25.1738 25.3946 25.4423 25.5 25.7222 25.5ZM15.1667 9.5C14.3268 9.5 13.5214 9.81607 12.9275 10.3787C12.3336 10.9413 12 11.7044 12 12.5V32.5C12 32.7652 12.1112 33.0196 12.3092 33.2071C12.5071 33.3946 12.7756 33.5 13.0556 33.5H29.9444C30.2244 33.5 30.4929 33.3946 30.6908 33.2071C30.8888 33.0196 31 32.7652 31 32.5V22.5C31 21.7044 30.6664 20.9413 30.0725 20.3787C29.4786 19.8161 28.6732 19.5 27.8333 19.5H26.7778V12.5C26.7778 11.7044 26.4441 10.9413 25.8503 10.3787C25.2564 9.81607 24.451 9.5 23.6111 9.5H15.1667ZM14.1111 12.5C14.1111 12.2348 14.2223 11.9804 14.4203 11.7929C14.6182 11.6054 14.8867 11.5 15.1667 11.5H23.6111C23.8911 11.5 24.1595 11.6054 24.3575 11.7929C24.5555 11.9804 24.6667 12.2348 24.6667 12.5V20.5C24.6667 20.7652 24.7779 21.0196 24.9758 21.2071C25.1738 21.3946 25.4423 21.5 25.7222 21.5H27.8333C28.1133 21.5 28.3818 21.6054 28.5797 21.7929C28.7777 21.9804 28.8889 22.2348 28.8889 22.5V31.5H26.7778V28.5C26.7778 28.2348 26.6666 27.9804 26.4686 27.7929C26.2707 27.6054 26.0022 27.5 25.7222 27.5H17.2778C16.9978 27.5 16.7293 27.6054 16.5314 27.7929C16.3334 27.9804 16.2222 28.2348 16.2222 28.5V31.5H14.1111V12.5ZM24.6667 29.5V31.5H22.5619V29.5H24.6667ZM20.4508 29.5V31.5H18.3333V29.5H20.4508Z" fill="#F36B31" stroke="#FFF1EA" stroke-width="0.4" mask="url(#path-2-inside-1_2239_2660)"/>
</svg>
