<svg width="18" height="20" viewBox="0 0 18 20" fill="none" xmlns="http://www.w3.org/2000/svg">
<path d="M1.125 3.18333H0.15V1.26111H5.625H5.775V1.11111V0.15H12.225V1.11111V1.26111H12.375H17.85V3.18333H16.875H16.725V3.33333V17.7778C16.725 18.3482 16.5213 18.8333 16.1091 19.2411C15.697 19.6489 15.2051 19.8507 14.6252 19.85H14.625H3.375C2.79571 19.85 2.30408 19.6481 1.8919 19.2411C1.4798 18.834 1.27572 18.3489 1.275 17.7777C1.275 17.7777 1.275 17.7776 1.275 17.7776L1.275 3.33333V3.18333H1.125ZM14.775 3.33333V3.18333H14.625H3.375H3.225V3.33333V17.7778V17.9278H3.375H14.625H14.775V17.7778V3.33333ZM7.725 5.70556V15.4056H5.775V5.70556H7.725ZM12.225 5.70556V15.4056H10.275V5.70556H12.225Z" fill="#707070" stroke="white" stroke-width="0.3"/>
</svg>
