<svg width="270" height="18" viewBox="0 0 270 18" fill="none" xmlns="http://www.w3.org/2000/svg">
<path d="M270 8.99998L255 0.339723L255 17.6602L270 8.99998ZM1.31134e-07 10.5L1.98529 10.5L1.98529 7.5L-1.31134e-07 7.5L1.31134e-07 10.5ZM5.95588 10.5L9.92647 10.5L9.92647 7.5L5.95588 7.5L5.95588 10.5ZM13.8971 10.5L17.8676 10.5L17.8676 7.5L13.8971 7.5L13.8971 10.5ZM21.8382 10.5L25.8088 10.5L25.8088 7.5L21.8382 7.5L21.8382 10.5ZM29.7794 10.5L33.75 10.5L33.75 7.5L29.7794 7.5L29.7794 10.5ZM37.7206 10.5L41.6912 10.5L41.6912 7.5L37.7206 7.5L37.7206 10.5ZM45.6618 10.5L49.6324 10.5L49.6324 7.5L45.6618 7.5L45.6618 10.5ZM53.6029 10.5L57.5735 10.5L57.5735 7.49999L53.6029 7.5L53.6029 10.5ZM61.5441 10.5L65.5147 10.5L65.5147 7.49999L61.5441 7.49999L61.5441 10.5ZM69.4853 10.5L73.4559 10.5L73.4559 7.49999L69.4853 7.49999L69.4853 10.5ZM77.4265 10.5L81.3971 10.5L81.3971 7.49999L77.4265 7.49999L77.4265 10.5ZM85.3677 10.5L89.3382 10.5L89.3382 7.49999L85.3677 7.49999L85.3677 10.5ZM93.3088 10.5L97.2794 10.5L97.2794 7.49999L93.3088 7.49999L93.3088 10.5ZM101.25 10.5L105.221 10.5L105.221 7.49999L101.25 7.49999L101.25 10.5ZM109.191 10.5L113.162 10.5L113.162 7.49999L109.191 7.49999L109.191 10.5ZM117.132 10.5L121.103 10.5L121.103 7.49999L117.132 7.49999L117.132 10.5ZM125.074 10.5L129.044 10.5L129.044 7.49999L125.074 7.49999L125.074 10.5ZM133.015 10.5L136.985 10.5L136.985 7.49999L133.015 7.49999L133.015 10.5ZM140.956 10.5L144.926 10.5L144.926 7.49999L140.956 7.49999L140.956 10.5ZM148.897 10.5L152.868 10.5L152.868 7.49999L148.897 7.49999L148.897 10.5ZM156.838 10.5L160.809 10.5L160.809 7.49999L156.838 7.49999L156.838 10.5ZM164.779 10.5L168.75 10.5L168.75 7.49999L164.779 7.49999L164.779 10.5ZM172.721 10.5L176.691 10.5L176.691 7.49998L172.721 7.49998L172.721 10.5ZM180.662 10.5L184.632 10.5L184.632 7.49998L180.662 7.49998L180.662 10.5ZM188.603 10.5L192.573 10.5L192.573 7.49998L188.603 7.49998L188.603 10.5ZM196.544 10.5L200.515 10.5L200.515 7.49998L196.544 7.49998L196.544 10.5ZM204.485 10.5L208.456 10.5L208.456 7.49998L204.485 7.49998L204.485 10.5ZM212.426 10.5L216.397 10.5L216.397 7.49998L212.426 7.49998L212.426 10.5ZM220.367 10.5L224.338 10.5L224.338 7.49998L220.367 7.49998L220.367 10.5ZM228.309 10.5L232.279 10.5L232.279 7.49998L228.309 7.49998L228.309 10.5ZM236.25 10.5L240.22 10.5L240.22 7.49998L236.25 7.49998L236.25 10.5ZM244.191 10.5L248.162 10.5L248.162 7.49998L244.191 7.49998L244.191 10.5ZM252.132 10.5L256.103 10.5L256.103 7.49998L252.132 7.49998L252.132 10.5ZM260.073 10.5L264.044 10.5L264.044 7.49998L260.073 7.49998L260.073 10.5Z" fill="#191720"/>
</svg>
