<svg width="21" height="21" viewBox="0 0 21 21" fill="none" xmlns="http://www.w3.org/2000/svg">
<path d="M4.33333 5.44434H3.22222C2.63285 5.44434 2.06762 5.67846 1.65087 6.09521C1.23413 6.51196 1 7.07719 1 7.66656V17.6666C1 18.2559 1.23413 18.8212 1.65087 19.2379C2.06762 19.6547 2.63285 19.8888 3.22222 19.8888H13.2222C13.8116 19.8888 14.3768 19.6547 14.7936 19.2379C15.2103 18.8212 15.4444 18.2559 15.4444 17.6666V16.5554" stroke="#212529" stroke-width="1.35" stroke-linecap="round" stroke-linejoin="round"/>
<path d="M14.3325 3.22234L17.6658 6.55567M19.2047 4.98345C19.6423 4.54585 19.8881 3.95232 19.8881 3.33345C19.8881 2.71458 19.6423 2.12106 19.2047 1.68345C18.7671 1.24585 18.1736 1 17.5547 1C16.9358 1 16.3423 1.24585 15.9047 1.68345L6.55469 11.0001V14.3335H9.88802L19.2047 4.98345Z" stroke="#212529" stroke-width="1.35" stroke-linecap="round" stroke-linejoin="round"/>
</svg>
