<svg width="31" height="30" viewBox="0 0 31 30" fill="none" xmlns="http://www.w3.org/2000/svg">
<path d="M15.1261 29.2206C15.0341 29.2206 14.94 29.1965 14.8568 29.1484L2.66961 22.1114C2.50326 22.0151 2.40039 21.8378 2.40039 21.6473V7.57336C2.40039 7.38075 2.50326 7.20565 2.66961 7.10934C2.83596 7.01303 3.03952 7.01303 3.20587 7.10934L15.3931 14.1463C15.5595 14.2426 15.6623 14.4199 15.6623 14.6104V28.6843C15.6623 28.8769 15.5595 29.052 15.3931 29.1484C15.3121 29.1987 15.218 29.2206 15.1261 29.2206ZM3.47509 21.3387L14.5898 27.7563V14.9212L3.47509 8.5036V21.3387Z" fill="white"/>
<path d="M15.1261 29.2205C15.0341 29.2205 14.94 29.1965 14.8568 29.1483L2.66961 22.1113C2.50326 22.015 2.40039 21.8377 2.40039 21.6473V7.57331C2.40039 7.38288 2.50326 7.20559 2.66961 7.10928L14.8568 0.0722914C15.0232 -0.0240158 15.2268 -0.0240158 15.3931 0.0722914L27.5825 7.10928C27.7489 7.20559 27.8517 7.38288 27.8517 7.57331V21.6473C27.8517 21.8399 27.7489 22.015 27.5825 22.1113L15.3931 29.1483C15.3121 29.1986 15.218 29.2205 15.1261 29.2205ZM3.47509 21.3387L15.1261 28.067L26.777 21.3387V7.88412L15.1261 1.15575L3.47509 7.88412V21.3387Z" fill="white"/>
<path d="M15.1263 29.2206C15.0344 29.2206 14.9403 29.1965 14.8571 29.1484C14.6908 29.052 14.5879 28.8748 14.5879 28.6843V14.6104C14.5879 14.4177 14.6908 14.2426 14.8571 14.1463L27.0465 7.10934C27.2129 7.01303 27.4164 7.01303 27.5828 7.10934C27.7491 7.20565 27.852 7.38294 27.852 7.57336V21.6473C27.852 21.84 27.7491 22.0151 27.5828 22.1114L15.3934 29.1484C15.3124 29.1987 15.2183 29.2206 15.1263 29.2206ZM15.6626 14.9212V27.7563L26.7773 21.3387V8.5036L15.6626 14.9212Z" fill="white"/>
<path d="M15.1261 15.1466C15.0341 15.1466 14.94 15.1225 14.8568 15.0743L2.66961 8.03733C2.50326 7.94102 2.40039 7.76373 2.40039 7.57331C2.40039 7.38069 2.50326 7.20559 2.66961 7.10928L14.8568 0.0722914C15.0232 -0.0240158 15.2268 -0.0240158 15.3931 0.0722914L27.5825 7.10928C27.7489 7.20559 27.8517 7.38288 27.8517 7.57331C27.8517 7.76592 27.7489 7.94102 27.5825 8.03733L15.3931 15.0743C15.3121 15.1247 15.218 15.1466 15.1261 15.1466ZM4.01135 7.57331L15.1261 13.9909L26.243 7.57331L15.1261 1.15575L4.01135 7.57331Z" fill="white"/>
<path d="M15.126 15.1465C15.034 15.1465 14.9399 15.1225 14.8567 15.0743L8.63617 11.4825C8.46983 11.3862 8.36914 11.2089 8.36914 11.0185C8.36914 10.8259 8.47201 10.6507 8.63617 10.5544L14.8589 6.96481C15.0253 6.8685 15.2288 6.8685 15.3952 6.96481L21.6157 10.5566C21.7821 10.6529 21.885 10.8302 21.885 11.0207C21.885 11.2133 21.7821 11.3884 21.6157 11.4847L15.3952 15.0765C15.312 15.1247 15.2179 15.1465 15.126 15.1465ZM9.97791 11.0207L15.126 13.993L20.274 11.0207L15.126 8.04826L9.97791 11.0207Z" fill="white"/>
<path d="M2.93846 7.57251L0.535156 14.3184L12.7224 21.3554L15.1257 14.6117L2.93846 7.57251Z" fill="white"/>
<path d="M12.7221 21.8924C12.6301 21.8924 12.536 21.8683 12.455 21.8201L0.267813 14.7831C0.0445552 14.654 -0.05613 14.3826 0.031422 14.1396L2.43472 7.39376C2.48725 7.24274 2.60545 7.12454 2.75429 7.06982C2.90313 7.0151 3.06947 7.03042 3.20737 7.10922L15.3946 14.1462C15.6179 14.2753 15.7185 14.5468 15.631 14.7897L13.2277 21.5356C13.1752 21.6844 13.057 21.8048 12.9081 21.8595C12.849 21.8814 12.7856 21.8924 12.7221 21.8924ZM1.19148 14.0784L12.4353 20.5703L14.4709 14.8532L3.22707 8.36121L1.19148 14.0784Z" fill="white"/>
<path d="M27.3144 7.57251L29.7155 14.3184L17.5283 21.3554L15.125 14.6117L27.3144 7.57251Z" fill="white"/>
<path d="M17.528 21.8924C17.4645 21.8924 17.4032 21.8814 17.3419 21.8595C17.1931 21.8048 17.0749 21.6866 17.0224 21.5356L14.6213 14.7897C14.5337 14.5468 14.6344 14.2753 14.8577 14.1462L27.0471 7.10922C27.185 7.03042 27.3513 7.0151 27.5002 7.06982C27.649 7.12454 27.7672 7.24274 27.8197 7.39376L30.2208 14.1396C30.3084 14.3826 30.2077 14.654 29.9844 14.7831L17.795 21.8201C17.7119 21.8683 17.6199 21.8924 17.528 21.8924ZM15.7791 14.8532L17.8147 20.5703L29.0586 14.0784L27.023 8.36121L15.7791 14.8532Z" fill="white"/>
</svg>
