<svg width="43" height="42" viewBox="0 0 43 42" fill="none" xmlns="http://www.w3.org/2000/svg">
<rect width="43" height="42" rx="8" fill="#FFF1EA"/>
<path d="M14.8152 32C14.1314 32 13.5491 31.752 13.0681 31.256C12.5861 30.76 12.3451 30.1589 12.3451 29.4527V17.7296L8.23022 20.8901C8.04985 21.011 7.86387 21.062 7.6723 21.043C7.4797 21.0241 7.31513 20.9217 7.17858 20.7357C7.04101 20.5497 6.98292 20.3579 7.00432 20.1603C7.02572 19.9617 7.1266 19.7915 7.30697 19.6496L20.4968 9.4808C20.7179 9.31056 20.9538 9.18813 21.2045 9.11352C21.4552 9.0389 21.7161 9.00107 21.9871 9.00002C22.2582 8.99897 22.5196 9.0368 22.7713 9.11352C23.023 9.19023 23.2584 9.31213 23.4775 9.47922L28.6302 13.4358V11.4181C28.6302 11.003 28.7698 10.6515 29.049 10.3635C29.3283 10.0756 29.6686 9.93162 30.0701 9.93162C30.4716 9.93162 30.8125 10.0756 31.0927 10.3635C31.3729 10.6515 31.5125 11.0025 31.5115 11.4165V15.6662L36.6964 19.6512C36.8706 19.792 36.97 19.9617 36.9944 20.1603C37.0189 20.3589 36.9628 20.5507 36.8263 20.7357C36.6897 20.9206 36.5252 21.0231 36.3326 21.043C36.14 21.063 35.9535 21.012 35.7731 20.8901L31.6583 17.7281V29.4543C31.6583 30.1583 31.4178 30.7589 30.9368 31.256C30.4558 31.752 29.8734 32 29.1897 32H26.3374C25.6536 32 25.0712 31.752 24.5903 31.256C24.1093 30.76 23.8688 30.1589 23.8688 29.4527V24.7237C23.8688 24.4411 23.7806 24.2088 23.6043 24.027C23.4281 23.8452 23.2029 23.7543 22.9287 23.7543H21.0471C20.772 23.7543 20.5462 23.8452 20.3699 24.027C20.1937 24.2088 20.1055 24.4411 20.1055 24.7237V29.4527C20.1055 30.1589 19.865 30.76 19.384 31.256C18.903 31.752 18.3207 32 17.6369 32H14.8152ZM14.8152 30.4237H17.6369C17.911 30.4237 18.1362 30.3328 18.3125 30.151C18.4888 29.9692 18.577 29.7369 18.577 29.4543V24.7253C18.577 24.0202 18.8174 23.4191 19.2984 22.922C19.7804 22.426 20.3633 22.178 21.0471 22.178H22.9272C23.612 22.178 24.1949 22.426 24.6759 22.922C25.1568 23.4191 25.3973 24.0202 25.3973 24.7253V29.4543C25.3973 29.7369 25.4855 29.9692 25.6618 30.151C25.8381 30.3328 26.0633 30.4237 26.3374 30.4237H29.1897C29.4638 30.4237 29.689 30.3328 29.8653 30.151C30.0416 29.9692 30.1297 29.7369 30.1297 29.4543V16.5679L22.5451 10.7592C22.3902 10.6383 22.2042 10.5779 21.9871 10.5779C21.7701 10.5779 21.5841 10.6383 21.4292 10.7592L13.8736 16.5679V29.4543C13.8736 29.7369 13.9623 29.9692 14.1396 30.151C14.3159 30.3328 14.5411 30.4237 14.8152 30.4237ZM19.2235 17.8226H24.7508C24.7508 17.0828 24.4746 16.4738 23.9223 15.9957C23.369 15.5175 22.7239 15.2785 21.9871 15.2785C21.2504 15.2785 20.6058 15.5175 20.0535 15.9957C19.5012 16.4738 19.2246 17.0828 19.2235 17.8226ZM18.3125 30.151C18.4888 29.9692 18.577 29.7369 18.577 29.4543V24.7253C18.577 24.0202 18.8174 23.4191 19.2984 22.922C19.7804 22.426 20.3633 22.178 21.0471 22.178H22.9272C23.612 22.178 24.1949 22.426 24.6759 22.922C24.1949 22.425 23.6125 22.1769 22.9287 22.178H21.0471C20.3633 22.178 19.7804 22.426 19.2984 22.922C18.8174 23.4191 18.577 24.0202 18.577 24.7253V29.4543C18.577 29.7369 18.4888 29.9692 18.3125 30.151Z" fill="#F36B31"/>
</svg>
