<svg width="67" height="30" viewBox="0 0 67 30" fill="none" xmlns="http://www.w3.org/2000/svg">
<path d="M3.60125 4H10.8038C11.7589 4 12.6749 4.38261 13.3502 5.06366C14.0256 5.74472 14.405 6.66842 14.405 7.63158V12.4737H13.2046V7.63158C13.2046 6.98948 12.9516 6.37367 12.5014 5.91964C12.0512 5.4656 11.4405 5.21053 10.8038 5.21053H3.60125C2.96451 5.21053 2.35385 5.4656 1.90361 5.91964C1.45336 6.37367 1.20042 6.98948 1.20042 7.63158V23.3684C1.20042 24.0105 1.45336 24.6263 1.90361 25.0804C2.35385 25.5344 2.96451 25.7895 3.60125 25.7895H10.8038C11.4405 25.7895 12.0512 25.5344 12.5014 25.0804C12.9516 24.6263 13.2046 24.0105 13.2046 23.3684V18.5263H14.405V23.3684C14.405 24.3316 14.0256 25.2553 13.3502 25.9363C12.6749 26.6174 11.7589 27 10.8038 27H3.60125C2.64614 27 1.73015 26.6174 1.05478 25.9363C0.379417 25.2553 0 24.3316 0 23.3684V7.63158C0 6.66842 0.379417 5.74472 1.05478 5.06366C1.73015 4.38261 2.64614 4 3.60125 4ZM7.20251 14.8947H20.7072L16.8058 10.9605L17.5981 10.0526L23 15.5L17.5981 20.9474L16.8058 20.0395L20.7072 16.1053H7.20251V14.8947Z" fill="#EB001B"/>
<path d="M42.7443 12.1818C42.6676 11.5341 42.3565 11.0312 41.8111 10.6733C41.2656 10.3153 40.5966 10.1364 39.804 10.1364C39.2244 10.1364 38.7173 10.2301 38.2827 10.4176C37.8523 10.6051 37.5156 10.8629 37.2727 11.1911C37.0341 11.5192 36.9148 11.892 36.9148 12.3097C36.9148 12.6591 36.9979 12.9595 37.1641 13.2109C37.3345 13.4581 37.5518 13.6648 37.8161 13.831C38.0803 13.9929 38.3572 14.1271 38.647 14.2337C38.9368 14.3359 39.2031 14.419 39.446 14.483L40.7756 14.8409C41.1165 14.9304 41.4957 15.054 41.9134 15.2116C42.3352 15.3693 42.7379 15.5845 43.1214 15.8572C43.5092 16.1257 43.8288 16.4709 44.0803 16.8928C44.3317 17.3146 44.4574 17.8324 44.4574 18.446C44.4574 19.1534 44.272 19.7926 43.9013 20.3636C43.5348 20.9347 42.9979 21.3885 42.2905 21.7251C41.5874 22.0618 40.733 22.2301 39.7273 22.2301C38.7898 22.2301 37.978 22.0788 37.2919 21.7763C36.6101 21.4737 36.0732 21.0518 35.6811 20.5107C35.2933 19.9695 35.0739 19.3409 35.0227 18.625H36.6591C36.7017 19.1193 36.8679 19.5284 37.1577 19.8523C37.4517 20.1719 37.8224 20.4105 38.2699 20.5682C38.7216 20.7216 39.2074 20.7983 39.7273 20.7983C40.3324 20.7983 40.8757 20.7003 41.3572 20.5043C41.8388 20.304 42.2202 20.027 42.5014 19.6733C42.7827 19.3153 42.9233 18.8977 42.9233 18.4205C42.9233 17.9858 42.8018 17.6321 42.5589 17.3594C42.3161 17.0866 41.9964 16.8651 41.6001 16.6946C41.2038 16.5241 40.7756 16.375 40.3153 16.2472L38.7045 15.7869C37.6818 15.4929 36.8722 15.0732 36.2756 14.5277C35.679 13.9822 35.3807 13.2685 35.3807 12.3864C35.3807 11.6534 35.5788 11.0142 35.9751 10.4688C36.3757 9.91903 36.9126 9.4929 37.5859 9.19034C38.2635 8.88352 39.0199 8.73011 39.8551 8.73011C40.6989 8.73011 41.4489 8.88139 42.1051 9.18395C42.7614 9.48224 43.2813 9.89133 43.6648 10.4112C44.0526 10.9311 44.2571 11.5213 44.2784 12.1818H42.7443ZM49.7484 22.2301C49.1262 22.2301 48.5616 22.1129 48.0545 21.8786C47.5474 21.6399 47.1447 21.2969 46.8464 20.8494C46.5481 20.3977 46.399 19.8523 46.399 19.2131C46.399 18.6506 46.5098 18.1946 46.7314 17.8452C46.9529 17.4915 47.2491 17.2145 47.6199 17.0142C47.9906 16.8139 48.3997 16.6648 48.8471 16.5668C49.2988 16.4645 49.7527 16.3835 50.2086 16.3239C50.8052 16.2472 51.2889 16.1896 51.6596 16.1513C52.0346 16.1087 52.3074 16.0384 52.4778 15.9403C52.6525 15.8423 52.7399 15.6719 52.7399 15.429V15.3778C52.7399 14.7472 52.5673 14.2571 52.2221 13.9077C51.8812 13.5582 51.3635 13.3835 50.6689 13.3835C49.9487 13.3835 49.3841 13.5412 48.975 13.8565C48.5659 14.1719 48.2782 14.5085 48.112 14.8665L46.6802 14.3551C46.9359 13.7585 47.2768 13.294 47.7029 12.9616C48.1333 12.625 48.6021 12.3906 49.1092 12.2585C49.6206 12.1222 50.1234 12.054 50.6177 12.054C50.9331 12.054 51.2953 12.0923 51.7044 12.169C52.1177 12.2415 52.5162 12.3928 52.8997 12.6229C53.2875 12.853 53.6092 13.2003 53.8649 13.6648C54.1206 14.1293 54.2484 14.7514 54.2484 15.5312V22H52.7399V20.6705H52.6632C52.5609 20.8835 52.3904 21.1115 52.1518 21.3544C51.9132 21.5973 51.5957 21.804 51.1994 21.9744C50.8031 22.1449 50.3194 22.2301 49.7484 22.2301ZM49.9785 20.875C50.5751 20.875 51.0779 20.7578 51.487 20.5234C51.9004 20.2891 52.2115 19.9865 52.4203 19.6158C52.6333 19.245 52.7399 18.8551 52.7399 18.446V17.0653C52.676 17.142 52.5353 17.2124 52.318 17.2763C52.1049 17.3359 51.8578 17.3892 51.5765 17.4361C51.2995 17.4787 51.0289 17.517 50.7647 17.5511C50.5048 17.581 50.2939 17.6065 50.1319 17.6278C49.7399 17.679 49.3734 17.7621 49.0325 17.8771C48.6958 17.9879 48.4231 18.1562 48.2143 18.3821C48.0098 18.6037 47.9075 18.9062 47.9075 19.2898C47.9075 19.8139 48.1014 20.2102 48.4892 20.4787C48.8812 20.7429 49.3777 20.875 49.9785 20.875ZM57.0018 22V12.1818H58.5103V22H57.0018ZM57.7688 10.5455C57.4748 10.5455 57.2212 10.4453 57.0082 10.245C56.7994 10.0447 56.695 9.80398 56.695 9.52273C56.695 9.24148 56.7994 9.00071 57.0082 8.80043C57.2212 8.60014 57.4748 8.5 57.7688 8.5C58.0629 8.5 58.3143 8.60014 58.5231 8.80043C58.7362 9.00071 58.8427 9.24148 58.8427 9.52273C58.8427 9.80398 58.7362 10.0447 58.5231 10.245C58.3143 10.4453 58.0629 10.5455 57.7688 10.5455ZM61.2733 22V12.1818H62.7306V13.6648H62.8329C63.0119 13.179 63.3358 12.7848 63.8045 12.4822C64.2733 12.1797 64.8017 12.0284 65.3897 12.0284C65.5005 12.0284 65.639 12.0305 65.8052 12.0348C65.9714 12.0391 66.0971 12.0455 66.1824 12.054V13.5881C66.1312 13.5753 66.014 13.5561 65.8308 13.5305C65.6518 13.5007 65.4622 13.4858 65.2619 13.4858C64.7846 13.4858 64.3585 13.5859 63.9835 13.7862C63.6127 13.9822 63.3187 14.255 63.1014 14.6044C62.8883 14.9496 62.7818 15.3437 62.7818 15.7869V22H61.2733Z" fill="#EB001B"/>
</svg>
