<svg width="389" height="338" viewBox="0 0 389 338" fill="none" xmlns="http://www.w3.org/2000/svg">
<path d="M195.042 279.816C287.297 279.816 362.084 277.346 362.084 274.298C362.084 271.251 287.297 268.78 195.042 268.78C102.787 268.78 28 271.251 28 274.298C28 277.346 102.787 279.816 195.042 279.816Z" fill="#E6E6E6"/>
<path d="M192.535 89.6989C203.894 89.6989 213.102 80.4909 213.102 69.1322C213.102 57.7735 203.894 48.5654 192.535 48.5654C181.177 48.5654 171.969 57.7735 171.969 69.1322C171.969 80.4909 181.177 89.6989 192.535 89.6989Z" fill="#F36B31"/>
<path d="M187.093 116.686L177.787 109.564L144.469 169.91C143.423 170.101 142.455 170.594 141.688 171.331C140.92 172.067 140.386 173.012 140.152 174.05C139.918 175.087 139.995 176.171 140.373 177.165C140.75 178.159 141.412 179.02 142.276 179.641C143.139 180.262 144.167 180.614 145.229 180.655C146.292 180.696 147.343 180.423 148.252 179.871C149.161 179.318 149.887 178.51 150.34 177.548C150.793 176.586 150.952 175.511 150.799 174.459L187.093 116.686Z" fill="#FFB8B8"/>
<path d="M272.045 150.938C271.664 149.836 270.939 148.887 269.977 148.231C269.015 147.574 267.867 147.244 266.703 147.291L213.021 105.182L204.969 113.696L261.52 153.113C261.578 153.882 261.799 154.629 262.168 155.305C262.537 155.981 263.046 156.571 263.662 157.035C264.277 157.498 264.984 157.826 265.735 157.995C266.487 158.164 267.266 158.17 268.021 158.014C268.775 157.858 269.488 157.543 270.111 157.09C270.734 156.637 271.253 156.056 271.634 155.386C272.015 154.717 272.248 153.973 272.319 153.206C272.39 152.439 272.296 151.666 272.045 150.938Z" fill="#FFB8B8"/>
<path d="M209.738 268.387H216.063L219.073 243.993H209.738V268.387Z" fill="#FFB8B8"/>
<path d="M228.262 274.259H208.385V266.58H220.582C222.619 266.58 224.572 267.389 226.012 268.829C227.453 270.269 228.262 272.223 228.262 274.259Z" fill="#191720"/>
<path d="M159.629 262.74L165.439 265.237L177.836 244.014L169.261 240.329L159.629 262.74Z" fill="#FFB8B8"/>
<path d="M174.324 275.449L156.063 267.601L159.095 260.545L170.301 265.361C172.172 266.165 173.647 267.68 174.402 269.572C175.156 271.463 175.128 273.577 174.324 275.449Z" fill="#191720"/>
<path d="M179.339 151.424L149.254 246.199L188.74 250.429L192.532 195.041L197.672 250.429L229.637 246.669C229.637 246.669 223.863 158.945 213.353 153.304C202.842 147.663 179.339 151.424 179.339 151.424Z" fill="#191720"/>
<path d="M195.65 94.6567C202.92 94.6567 208.813 88.7639 208.813 81.4946C208.813 74.2254 202.92 68.3325 195.65 68.3325C188.381 68.3325 182.488 74.2254 182.488 81.4946C182.488 88.7639 188.381 94.6567 195.65 94.6567Z" fill="#FFB8B8"/>
<path d="M195.231 155.673C186.091 155.673 177.296 155.267 176.842 154.482C176.804 154.416 176.789 154.338 176.801 154.263C176.813 154.188 176.85 154.118 176.907 154.067C177.536 153.141 176.059 138.092 172.951 113.818C172.599 110.976 173.227 108.098 174.733 105.662C176.239 103.225 178.532 101.376 181.232 100.42L181.29 100.406L208.836 97.686L209.145 97.7727C211.87 98.5305 214.256 100.192 215.911 102.486C217.566 104.779 218.392 107.567 218.253 110.392C217.543 125.876 216.351 152.102 216.351 153.774C216.351 154.229 215.718 154.457 215.167 154.605C212.485 155.324 203.709 155.673 195.231 155.673Z" fill="#191720"/>
<path d="M84.0078 46.2585L53.293 84.6416L91.6761 115.356L122.391 76.9733L84.0078 46.2585Z" fill="#F2F2F2"/>
<path d="M91.4079 123.974C89.2501 123.645 87.2384 122.684 85.627 121.212C84.0157 119.74 82.8771 117.823 82.3552 115.703C81.8334 113.584 81.9517 111.357 82.6953 109.305C83.4388 107.253 84.7742 105.467 86.5326 104.174C88.2909 102.881 90.3932 102.138 92.5737 102.04C94.7542 101.942 96.9148 102.492 98.7824 103.622C100.65 104.751 102.141 106.409 103.066 108.386C103.991 110.363 104.31 112.57 103.981 114.728C103.762 116.16 103.264 117.536 102.514 118.776C101.764 120.016 100.777 121.096 99.6094 121.955C98.4419 122.814 97.1167 123.434 95.7095 123.78C94.3022 124.127 92.8406 124.193 91.4079 123.974ZM94.5828 103.147C92.6213 102.848 90.6151 103.137 88.8179 103.978C87.0208 104.819 85.5134 106.175 84.4865 107.872C83.4596 109.57 82.9592 111.534 83.0486 113.517C83.138 115.499 83.8132 117.41 84.9888 119.009C86.1644 120.607 87.7877 121.821 89.6532 122.497C91.5188 123.173 93.5429 123.281 95.4696 122.806C97.3963 122.332 99.1391 121.297 100.477 119.832C101.816 118.367 102.69 116.538 102.989 114.577C103.387 111.947 102.725 109.266 101.149 107.123C99.5735 104.981 97.2119 103.55 94.5828 103.147Z" fill="#191720"/>
<path d="M67.9174 248.407C64.1502 260.991 69.9969 273.857 69.9969 273.857C69.9969 273.857 81.9513 266.32 85.7185 253.736C89.4857 241.152 83.639 228.286 83.639 228.286C83.639 228.286 71.6846 235.823 67.9174 248.407Z" fill="#E6E6E6"/>
<path d="M73.6397 248.747C76.8103 261.495 70.3645 274.071 70.3645 274.071C70.3645 274.071 58.7781 265.98 55.6075 253.232C52.4369 240.485 58.8827 227.909 58.8827 227.909C58.8827 227.909 70.4691 236 73.6397 248.747Z" fill="#E6E6E6"/>
<path d="M177.141 72.777C184.14 76.5879 192.019 78.4915 199.986 78.2968C203.037 78.2176 206.4 77.6625 208.332 75.2995C210.513 72.6333 209.967 68.4673 207.864 65.7398C205.76 63.0122 202.469 61.4746 199.187 60.4318C196.081 59.4452 192.752 58.8097 189.567 59.4994C187.886 59.8634 186.303 60.5851 184.926 61.6155C183.549 62.6458 182.41 63.9607 181.586 65.4706C180.763 66.9805 180.274 68.65 180.153 70.3657C180.033 72.0813 180.283 73.8029 180.887 75.4132" fill="#F36B31"/>
<path d="M177.987 66.1227C184.359 66.1227 189.524 60.9572 189.524 54.5853C189.524 48.2133 184.359 43.0479 177.987 43.0479C171.615 43.0479 166.449 48.2133 166.449 54.5853C166.449 60.9572 171.615 66.1227 177.987 66.1227Z" fill="#F36B31"/>
<path d="M386.469 55.8643L341.18 29.4681L346.99 19.5002C347.156 19.2157 347.264 18.9012 347.308 18.5749C347.353 18.2485 347.332 17.9166 347.248 17.5981C347.164 17.2796 347.019 16.9807 346.819 16.7186C346.62 16.4564 346.371 16.2362 346.086 16.0703C345.801 15.9044 345.487 15.7962 345.161 15.7519C344.834 15.7076 344.502 15.728 344.184 15.8119C343.865 15.8958 343.566 16.0417 343.304 16.2411C343.042 16.4405 342.822 16.6897 342.656 16.9742L336.846 26.9421L291.557 0.545917C290.638 0.00997902 289.543 -0.138722 288.514 0.13252C287.485 0.403761 286.605 1.07273 286.069 1.99226L250.706 62.6667C250.17 63.5862 250.021 64.681 250.293 65.7102C250.564 66.7394 251.233 67.6187 252.152 68.1547L297.442 94.5509L257.784 162.593C257.618 162.878 257.51 163.192 257.466 163.518C257.421 163.845 257.441 164.177 257.525 164.495C257.609 164.814 257.755 165.113 257.955 165.375C258.154 165.637 258.403 165.858 258.688 166.024C258.972 166.189 259.287 166.298 259.613 166.342C259.94 166.386 260.272 166.366 260.59 166.282C260.909 166.198 261.208 166.052 261.47 165.852C261.732 165.653 261.952 165.403 262.118 165.119L301.775 97.0767L347.065 123.473C347.52 123.738 348.023 123.911 348.545 123.982C349.068 124.053 349.599 124.021 350.108 123.886C350.618 123.752 351.096 123.519 351.515 123.2C351.935 122.88 352.287 122.482 352.553 122.027L387.916 61.3521C388.181 60.8968 388.354 60.3937 388.425 59.8715C388.496 59.3493 388.464 58.8183 388.329 58.3087C388.195 57.7991 387.962 57.3209 387.642 56.9015C387.323 56.4821 386.925 56.1297 386.469 55.8643Z" fill="#191720"/>
<path opacity="0.1" d="M323.655 92.4107C325.05 90.0171 318.808 83.7794 309.712 78.4782C300.617 73.177 292.112 70.8199 290.717 73.2135C289.322 75.607 295.565 81.8448 304.66 87.146C313.756 92.4471 322.26 94.8042 323.655 92.4107Z" fill="#191720"/>
<path d="M319.309 86.0874C332.607 86.0874 343.387 75.3073 343.387 62.0093C343.387 48.7113 332.607 37.9312 319.309 37.9312C306.011 37.9312 295.23 48.7113 295.23 62.0093C295.23 75.3073 306.011 86.0874 319.309 86.0874Z" fill="#F36B31"/>
<path d="M329.787 73.9213C328.392 76.3149 318.553 77.8244 311.372 73.6393C304.191 69.4542 302.389 61.1592 303.784 58.7656C305.179 56.3721 309.243 60.7864 316.424 64.9715C323.604 69.1567 331.182 71.5278 329.787 73.9213Z" fill="#F2F2F2"/>
<path d="M314.071 54.1009C316.841 54.1009 319.087 51.855 319.087 49.0846C319.087 46.3142 316.841 44.0684 314.071 44.0684C311.301 44.0684 309.055 46.3142 309.055 49.0846C309.055 51.855 311.301 54.1009 314.071 54.1009Z" fill="#F2F2F2"/>
<path d="M332.274 64.7103C335.045 64.7103 337.29 62.4644 337.29 59.694C337.29 56.9236 335.045 54.6777 332.274 54.6777C329.504 54.6777 327.258 56.9236 327.258 59.694C327.258 62.4644 329.504 64.7103 332.274 64.7103Z" fill="#F2F2F2"/>
<path d="M15.9545 314.545V332H13.9091L4.39773 318.295H4.22727V332H2.11364V314.545H4.15909L13.7045 328.284H13.875V314.545H15.9545ZM25.3999 332.273C24.1385 332.273 23.0504 331.994 22.1357 331.438C21.2266 330.875 20.5249 330.091 20.0305 329.085C19.5419 328.074 19.2976 326.898 19.2976 325.557C19.2976 324.216 19.5419 323.034 20.0305 322.011C20.5249 320.983 21.2124 320.182 22.093 319.608C22.9794 319.028 24.0135 318.739 25.1953 318.739C25.8771 318.739 26.5504 318.852 27.2152 319.08C27.88 319.307 28.4851 319.676 29.0305 320.188C29.576 320.693 30.0107 321.364 30.3345 322.199C30.6584 323.034 30.8203 324.062 30.8203 325.284V326.136H20.7294V324.398H28.7749C28.7749 323.659 28.6271 323 28.3317 322.42C28.0419 321.841 27.6271 321.384 27.0874 321.048C26.5533 320.713 25.9226 320.545 25.1953 320.545C24.3942 320.545 23.701 320.744 23.1158 321.142C22.5362 321.534 22.0902 322.045 21.7777 322.676C21.4652 323.307 21.3089 323.983 21.3089 324.705V325.864C21.3089 326.852 21.4794 327.69 21.8203 328.378C22.1669 329.06 22.647 329.58 23.2607 329.938C23.8743 330.29 24.5874 330.466 25.3999 330.466C25.9283 330.466 26.4055 330.392 26.8317 330.244C27.2635 330.091 27.6357 329.864 27.9482 329.562C28.2607 329.256 28.5021 328.875 28.6726 328.42L30.6158 328.966C30.4112 329.625 30.0675 330.205 29.5845 330.705C29.1016 331.199 28.505 331.585 27.7947 331.864C27.0845 332.136 26.2862 332.273 25.3999 332.273ZM35.8913 324.125V332H33.88V318.909H35.8232V320.955H35.9936C36.3004 320.29 36.7663 319.756 37.3913 319.352C38.0163 318.943 38.8232 318.739 39.8118 318.739C40.6982 318.739 41.4737 318.92 42.1385 319.284C42.8033 319.642 43.3203 320.188 43.6896 320.92C44.0589 321.648 44.2436 322.568 44.2436 323.682V332H42.2322V323.818C42.2322 322.79 41.9652 321.989 41.4311 321.415C40.897 320.835 40.1641 320.545 39.2322 320.545C38.5902 320.545 38.0163 320.685 37.5107 320.963C37.0107 321.241 36.6158 321.648 36.326 322.182C36.0362 322.716 35.8913 323.364 35.8913 324.125ZM49.9304 324.125V332H47.919V314.545H49.9304V320.955H50.1009C50.4077 320.278 50.8679 319.741 51.4815 319.344C52.1009 318.94 52.9247 318.739 53.9531 318.739C54.8452 318.739 55.6264 318.918 56.2969 319.276C56.9673 319.628 57.4872 320.17 57.8565 320.903C58.2315 321.631 58.419 322.557 58.419 323.682V332H56.4077V323.818C56.4077 322.778 56.1378 321.974 55.598 321.406C55.0639 320.832 54.3224 320.545 53.3736 320.545C52.7145 320.545 52.1236 320.685 51.6009 320.963C51.0838 321.241 50.6747 321.648 50.3736 322.182C50.0781 322.716 49.9304 323.364 49.9304 324.125ZM70.3487 326.648V318.909H72.3601V332H70.3487V329.784H70.2124C69.9055 330.449 69.4283 331.014 68.7805 331.48C68.1328 331.94 67.3146 332.17 66.326 332.17C65.5078 332.17 64.7805 331.991 64.1442 331.634C63.5078 331.27 63.0078 330.724 62.6442 329.997C62.2805 329.264 62.0987 328.341 62.0987 327.227V318.909H64.1101V327.091C64.1101 328.045 64.3771 328.807 64.9112 329.375C65.451 329.943 66.1385 330.227 66.9737 330.227C67.4737 330.227 67.9822 330.099 68.4993 329.844C69.022 329.588 69.4595 329.196 69.8118 328.668C70.1697 328.139 70.3487 327.466 70.3487 326.648ZM76.044 332V318.909H77.9872V320.955H78.1577C78.4304 320.256 78.8707 319.713 79.4787 319.327C80.0866 318.935 80.8168 318.739 81.669 318.739C82.5327 318.739 83.2514 318.935 83.8253 319.327C84.4048 319.713 84.8565 320.256 85.1804 320.955H85.3168C85.652 320.278 86.1548 319.741 86.8253 319.344C87.4957 318.94 88.2997 318.739 89.2372 318.739C90.4077 318.739 91.3651 319.105 92.1094 319.838C92.8537 320.565 93.2259 321.699 93.2259 323.239V332H91.2145V323.239C91.2145 322.273 90.9503 321.582 90.4219 321.168C89.8935 320.753 89.2713 320.545 88.5554 320.545C87.6349 320.545 86.9219 320.824 86.4162 321.381C85.9105 321.932 85.6577 322.631 85.6577 323.477V332H83.6122V323.034C83.6122 322.29 83.3707 321.69 82.8878 321.236C82.4048 320.776 81.7827 320.545 81.0213 320.545C80.4986 320.545 80.0099 320.685 79.5554 320.963C79.1065 321.241 78.7429 321.628 78.4645 322.122C78.1918 322.611 78.0554 323.176 78.0554 323.818V332H76.044ZM100.756 332.307C99.9261 332.307 99.1733 332.151 98.4972 331.838C97.821 331.52 97.2841 331.062 96.8864 330.466C96.4886 329.864 96.2898 329.136 96.2898 328.284C96.2898 327.534 96.4375 326.926 96.733 326.46C97.0284 325.989 97.4233 325.619 97.9176 325.352C98.4119 325.085 98.9574 324.886 99.554 324.756C100.156 324.619 100.761 324.511 101.369 324.432C102.165 324.33 102.81 324.253 103.304 324.202C103.804 324.145 104.168 324.051 104.395 323.92C104.628 323.79 104.744 323.562 104.744 323.239V323.17C104.744 322.33 104.514 321.676 104.054 321.21C103.599 320.744 102.909 320.511 101.983 320.511C101.023 320.511 100.27 320.722 99.7244 321.142C99.179 321.562 98.7955 322.011 98.5739 322.489L96.6648 321.807C97.0057 321.011 97.4602 320.392 98.0284 319.949C98.6023 319.5 99.2273 319.187 99.9034 319.011C100.585 318.83 101.256 318.739 101.915 318.739C102.335 318.739 102.818 318.79 103.364 318.892C103.915 318.989 104.446 319.19 104.957 319.497C105.474 319.804 105.903 320.267 106.244 320.886C106.585 321.506 106.756 322.335 106.756 323.375V332H104.744V330.227H104.642C104.506 330.511 104.278 330.815 103.96 331.139C103.642 331.463 103.219 331.739 102.69 331.966C102.162 332.193 101.517 332.307 100.756 332.307ZM101.062 330.5C101.858 330.5 102.528 330.344 103.074 330.031C103.625 329.719 104.04 329.315 104.318 328.821C104.602 328.327 104.744 327.807 104.744 327.261V325.42C104.659 325.523 104.472 325.616 104.182 325.702C103.898 325.781 103.568 325.852 103.193 325.915C102.824 325.972 102.463 326.023 102.111 326.068C101.764 326.108 101.483 326.142 101.267 326.17C100.744 326.239 100.256 326.349 99.8011 326.503C99.3523 326.651 98.9886 326.875 98.7102 327.176C98.4375 327.472 98.3011 327.875 98.3011 328.386C98.3011 329.085 98.5597 329.614 99.0767 329.972C99.5994 330.324 100.261 330.5 101.062 330.5ZM122.665 332.273C121.404 332.273 120.316 331.994 119.401 331.438C118.492 330.875 117.79 330.091 117.296 329.085C116.808 328.074 116.563 326.898 116.563 325.557C116.563 324.216 116.808 323.034 117.296 322.011C117.79 320.983 118.478 320.182 119.359 319.608C120.245 319.028 121.279 318.739 122.461 318.739C123.143 318.739 123.816 318.852 124.481 319.08C125.146 319.307 125.751 319.676 126.296 320.188C126.842 320.693 127.276 321.364 127.6 322.199C127.924 323.034 128.086 324.062 128.086 325.284V326.136H117.995V324.398H126.04C126.04 323.659 125.893 323 125.597 322.42C125.308 321.841 124.893 321.384 124.353 321.048C123.819 320.713 123.188 320.545 122.461 320.545C121.66 320.545 120.967 320.744 120.381 321.142C119.802 321.534 119.356 322.045 119.043 322.676C118.731 323.307 118.575 323.983 118.575 324.705V325.864C118.575 326.852 118.745 327.69 119.086 328.378C119.433 329.06 119.913 329.58 120.526 329.938C121.14 330.29 121.853 330.466 122.665 330.466C123.194 330.466 123.671 330.392 124.097 330.244C124.529 330.091 124.901 329.864 125.214 329.562C125.526 329.256 125.768 328.875 125.938 328.42L127.881 328.966C127.677 329.625 127.333 330.205 126.85 330.705C126.367 331.199 125.771 331.585 125.06 331.864C124.35 332.136 123.552 332.273 122.665 332.273ZM133.157 324.125V332H131.146V318.909H133.089V320.955H133.259C133.566 320.29 134.032 319.756 134.657 319.352C135.282 318.943 136.089 318.739 137.077 318.739C137.964 318.739 138.739 318.92 139.404 319.284C140.069 319.642 140.586 320.188 140.955 320.92C141.325 321.648 141.509 322.568 141.509 323.682V332H139.498V323.818C139.498 322.79 139.231 321.989 138.697 321.415C138.163 320.835 137.43 320.545 136.498 320.545C135.856 320.545 135.282 320.685 134.776 320.963C134.276 321.241 133.881 321.648 133.592 322.182C133.302 322.716 133.157 323.364 133.157 324.125ZM150.503 332.273C149.276 332.273 148.219 331.983 147.332 331.403C146.446 330.824 145.764 330.026 145.287 329.009C144.81 327.991 144.571 326.83 144.571 325.523C144.571 324.193 144.815 323.02 145.304 322.003C145.798 320.98 146.486 320.182 147.366 319.608C148.253 319.028 149.287 318.739 150.469 318.739C151.389 318.739 152.219 318.909 152.957 319.25C153.696 319.591 154.301 320.068 154.773 320.682C155.244 321.295 155.537 322.011 155.651 322.83H153.639C153.486 322.233 153.145 321.705 152.616 321.244C152.094 320.778 151.389 320.545 150.503 320.545C149.719 320.545 149.031 320.75 148.44 321.159C147.855 321.562 147.398 322.134 147.068 322.872C146.744 323.605 146.582 324.466 146.582 325.455C146.582 326.466 146.741 327.347 147.06 328.097C147.384 328.847 147.838 329.429 148.423 329.844C149.014 330.259 149.707 330.466 150.503 330.466C151.026 330.466 151.5 330.375 151.926 330.193C152.352 330.011 152.713 329.75 153.009 329.409C153.304 329.068 153.514 328.659 153.639 328.182H155.651C155.537 328.955 155.256 329.651 154.807 330.27C154.364 330.884 153.776 331.372 153.043 331.736C152.315 332.094 151.469 332.273 150.503 332.273ZM163.909 332.273C162.727 332.273 161.69 331.991 160.798 331.429C159.912 330.866 159.219 330.08 158.719 329.068C158.224 328.057 157.977 326.875 157.977 325.523C157.977 324.159 158.224 322.969 158.719 321.952C159.219 320.935 159.912 320.145 160.798 319.582C161.69 319.02 162.727 318.739 163.909 318.739C165.091 318.739 166.125 319.02 167.011 319.582C167.903 320.145 168.597 320.935 169.091 321.952C169.591 322.969 169.841 324.159 169.841 325.523C169.841 326.875 169.591 328.057 169.091 329.068C168.597 330.08 167.903 330.866 167.011 331.429C166.125 331.991 165.091 332.273 163.909 332.273ZM163.909 330.466C164.807 330.466 165.545 330.236 166.125 329.776C166.705 329.315 167.134 328.71 167.412 327.96C167.69 327.21 167.83 326.398 167.83 325.523C167.83 324.648 167.69 323.832 167.412 323.077C167.134 322.321 166.705 321.71 166.125 321.244C165.545 320.778 164.807 320.545 163.909 320.545C163.011 320.545 162.273 320.778 161.693 321.244C161.114 321.71 160.685 322.321 160.406 323.077C160.128 323.832 159.989 324.648 159.989 325.523C159.989 326.398 160.128 327.21 160.406 327.96C160.685 328.71 161.114 329.315 161.693 329.776C162.273 330.236 163.011 330.466 163.909 330.466ZM172.911 332V318.909H174.854V320.955H175.025C175.298 320.256 175.738 319.713 176.346 319.327C176.954 318.935 177.684 318.739 178.536 318.739C179.4 318.739 180.119 318.935 180.692 319.327C181.272 319.713 181.724 320.256 182.048 320.955H182.184C182.519 320.278 183.022 319.741 183.692 319.344C184.363 318.94 185.167 318.739 186.104 318.739C187.275 318.739 188.232 319.105 188.977 319.838C189.721 320.565 190.093 321.699 190.093 323.239V332H188.082V323.239C188.082 322.273 187.817 321.582 187.289 321.168C186.761 320.753 186.138 320.545 185.423 320.545C184.502 320.545 183.789 320.824 183.283 321.381C182.778 321.932 182.525 322.631 182.525 323.477V332H180.479V323.034C180.479 322.29 180.238 321.69 179.755 321.236C179.272 320.776 178.65 320.545 177.888 320.545C177.366 320.545 176.877 320.685 176.423 320.963C175.974 321.241 175.61 321.628 175.332 322.122C175.059 322.611 174.923 323.176 174.923 323.818V332H172.911ZM199.259 332.273C197.998 332.273 196.91 331.994 195.995 331.438C195.086 330.875 194.384 330.091 193.89 329.085C193.401 328.074 193.157 326.898 193.157 325.557C193.157 324.216 193.401 323.034 193.89 322.011C194.384 320.983 195.072 320.182 195.952 319.608C196.839 319.028 197.873 318.739 199.055 318.739C199.737 318.739 200.41 318.852 201.075 319.08C201.739 319.307 202.344 319.676 202.89 320.188C203.435 320.693 203.87 321.364 204.194 322.199C204.518 323.034 204.68 324.062 204.68 325.284V326.136H194.589V324.398H202.634C202.634 323.659 202.487 323 202.191 322.42C201.901 321.841 201.487 321.384 200.947 321.048C200.413 320.713 199.782 320.545 199.055 320.545C198.254 320.545 197.56 320.744 196.975 321.142C196.396 321.534 195.95 322.045 195.637 322.676C195.325 323.307 195.168 323.983 195.168 324.705V325.864C195.168 326.852 195.339 327.69 195.68 328.378C196.026 329.06 196.506 329.58 197.12 329.938C197.734 330.29 198.447 330.466 199.259 330.466C199.788 330.466 200.265 330.392 200.691 330.244C201.123 330.091 201.495 329.864 201.808 329.562C202.12 329.256 202.362 328.875 202.532 328.42L204.475 328.966C204.271 329.625 203.927 330.205 203.444 330.705C202.961 331.199 202.364 331.585 201.654 331.864C200.944 332.136 200.146 332.273 199.259 332.273ZM209.751 324.125V332H207.739V318.909H209.683V320.955H209.853C210.16 320.29 210.626 319.756 211.251 319.352C211.876 318.943 212.683 318.739 213.671 318.739C214.558 318.739 215.333 318.92 215.998 319.284C216.663 319.642 217.18 320.188 217.549 320.92C217.918 321.648 218.103 322.568 218.103 323.682V332H216.092V323.818C216.092 322.79 215.825 321.989 215.29 321.415C214.756 320.835 214.023 320.545 213.092 320.545C212.45 320.545 211.876 320.685 211.37 320.963C210.87 321.241 210.475 321.648 210.185 322.182C209.896 322.716 209.751 323.364 209.751 324.125ZM226.722 332.273C225.631 332.273 224.668 331.997 223.832 331.446C222.997 330.889 222.344 330.105 221.872 329.094C221.401 328.077 221.165 326.875 221.165 325.489C221.165 324.114 221.401 322.92 221.872 321.909C222.344 320.898 223 320.116 223.841 319.565C224.682 319.014 225.653 318.739 226.756 318.739C227.608 318.739 228.281 318.881 228.776 319.165C229.276 319.443 229.656 319.761 229.918 320.119C230.185 320.472 230.392 320.761 230.54 320.989H230.71V314.545H232.722V332H230.778V329.989H230.54C230.392 330.227 230.182 330.528 229.909 330.892C229.636 331.25 229.247 331.571 228.741 331.855C228.236 332.134 227.563 332.273 226.722 332.273ZM226.994 330.466C227.801 330.466 228.483 330.256 229.04 329.835C229.597 329.409 230.02 328.821 230.31 328.071C230.599 327.315 230.744 326.443 230.744 325.455C230.744 324.477 230.602 323.622 230.318 322.889C230.034 322.151 229.614 321.577 229.057 321.168C228.5 320.753 227.813 320.545 226.994 320.545C226.142 320.545 225.432 320.764 224.864 321.202C224.301 321.634 223.878 322.222 223.594 322.966C223.315 323.705 223.176 324.534 223.176 325.455C223.176 326.386 223.318 327.233 223.602 327.994C223.892 328.75 224.318 329.352 224.881 329.801C225.449 330.244 226.153 330.466 226.994 330.466ZM240.537 332.307C239.707 332.307 238.955 332.151 238.278 331.838C237.602 331.52 237.065 331.062 236.668 330.466C236.27 329.864 236.071 329.136 236.071 328.284C236.071 327.534 236.219 326.926 236.514 326.46C236.81 325.989 237.205 325.619 237.699 325.352C238.193 325.085 238.739 324.886 239.335 324.756C239.938 324.619 240.543 324.511 241.151 324.432C241.946 324.33 242.591 324.253 243.085 324.202C243.585 324.145 243.949 324.051 244.176 323.92C244.409 323.79 244.526 323.562 244.526 323.239V323.17C244.526 322.33 244.295 321.676 243.835 321.21C243.381 320.744 242.69 320.511 241.764 320.511C240.804 320.511 240.051 320.722 239.506 321.142C238.96 321.562 238.577 322.011 238.355 322.489L236.446 321.807C236.787 321.011 237.241 320.392 237.81 319.949C238.384 319.5 239.009 319.187 239.685 319.011C240.366 318.83 241.037 318.739 241.696 318.739C242.116 318.739 242.599 318.79 243.145 318.892C243.696 318.989 244.227 319.19 244.739 319.497C245.256 319.804 245.685 320.267 246.026 320.886C246.366 321.506 246.537 322.335 246.537 323.375V332H244.526V330.227H244.423C244.287 330.511 244.06 330.815 243.741 331.139C243.423 331.463 243 331.739 242.472 331.966C241.943 332.193 241.298 332.307 240.537 332.307ZM240.844 330.5C241.639 330.5 242.31 330.344 242.855 330.031C243.406 329.719 243.821 329.315 244.099 328.821C244.384 328.327 244.526 327.807 244.526 327.261V325.42C244.44 325.523 244.253 325.616 243.963 325.702C243.679 325.781 243.349 325.852 242.974 325.915C242.605 325.972 242.244 326.023 241.892 326.068C241.545 326.108 241.264 326.142 241.048 326.17C240.526 326.239 240.037 326.349 239.582 326.503C239.134 326.651 238.77 326.875 238.491 327.176C238.219 327.472 238.082 327.875 238.082 328.386C238.082 329.085 238.341 329.614 238.858 329.972C239.381 330.324 240.043 330.5 240.844 330.5ZM262.447 332.273C261.185 332.273 260.097 331.994 259.183 331.438C258.273 330.875 257.572 330.091 257.077 329.085C256.589 328.074 256.344 326.898 256.344 325.557C256.344 324.216 256.589 323.034 257.077 322.011C257.572 320.983 258.259 320.182 259.14 319.608C260.026 319.028 261.06 318.739 262.242 318.739C262.924 318.739 263.597 318.852 264.262 319.08C264.927 319.307 265.532 319.676 266.077 320.188C266.623 320.693 267.058 321.364 267.381 322.199C267.705 323.034 267.867 324.062 267.867 325.284V326.136H257.776V324.398H265.822C265.822 323.659 265.674 323 265.379 322.42C265.089 321.841 264.674 321.384 264.134 321.048C263.6 320.713 262.969 320.545 262.242 320.545C261.441 320.545 260.748 320.744 260.163 321.142C259.583 321.534 259.137 322.045 258.825 322.676C258.512 323.307 258.356 323.983 258.356 324.705V325.864C258.356 326.852 258.526 327.69 258.867 328.378C259.214 329.06 259.694 329.58 260.308 329.938C260.921 330.29 261.634 330.466 262.447 330.466C262.975 330.466 263.452 330.392 263.879 330.244C264.31 330.091 264.683 329.864 264.995 329.562C265.308 329.256 265.549 328.875 265.719 328.42L267.663 328.966C267.458 329.625 267.114 330.205 266.631 330.705C266.148 331.199 265.552 331.585 264.842 331.864C264.131 332.136 263.333 332.273 262.447 332.273ZM272.938 324.125V332H270.927V318.909H272.87V320.955H273.04C273.347 320.29 273.813 319.756 274.438 319.352C275.063 318.943 275.87 318.739 276.859 318.739C277.745 318.739 278.521 318.92 279.185 319.284C279.85 319.642 280.367 320.188 280.737 320.92C281.106 321.648 281.29 322.568 281.29 323.682V332H279.279V323.818C279.279 322.79 279.012 321.989 278.478 321.415C277.944 320.835 277.211 320.545 276.279 320.545C275.637 320.545 275.063 320.685 274.558 320.963C274.058 321.241 273.663 321.648 273.373 322.182C273.083 322.716 272.938 323.364 272.938 324.125ZM290.284 332.273C289.057 332.273 288 331.983 287.114 331.403C286.227 330.824 285.545 330.026 285.068 329.009C284.591 327.991 284.352 326.83 284.352 325.523C284.352 324.193 284.597 323.02 285.085 322.003C285.58 320.98 286.267 320.182 287.148 319.608C288.034 319.028 289.068 318.739 290.25 318.739C291.17 318.739 292 318.909 292.739 319.25C293.477 319.591 294.082 320.068 294.554 320.682C295.026 321.295 295.318 322.011 295.432 322.83H293.42C293.267 322.233 292.926 321.705 292.398 321.244C291.875 320.778 291.17 320.545 290.284 320.545C289.5 320.545 288.813 320.75 288.222 321.159C287.636 321.562 287.179 322.134 286.849 322.872C286.526 323.605 286.364 324.466 286.364 325.455C286.364 326.466 286.523 327.347 286.841 328.097C287.165 328.847 287.619 329.429 288.205 329.844C288.795 330.259 289.489 330.466 290.284 330.466C290.807 330.466 291.281 330.375 291.707 330.193C292.134 330.011 292.494 329.75 292.79 329.409C293.085 329.068 293.295 328.659 293.42 328.182H295.432C295.318 328.955 295.037 329.651 294.588 330.27C294.145 330.884 293.557 331.372 292.824 331.736C292.097 332.094 291.25 332.273 290.284 332.273ZM303.69 332.273C302.509 332.273 301.472 331.991 300.58 331.429C299.693 330.866 299 330.08 298.5 329.068C298.006 328.057 297.759 326.875 297.759 325.523C297.759 324.159 298.006 322.969 298.5 321.952C299 320.935 299.693 320.145 300.58 319.582C301.472 319.02 302.509 318.739 303.69 318.739C304.872 318.739 305.906 319.02 306.793 319.582C307.685 320.145 308.378 320.935 308.872 321.952C309.372 322.969 309.622 324.159 309.622 325.523C309.622 326.875 309.372 328.057 308.872 329.068C308.378 330.08 307.685 330.866 306.793 331.429C305.906 331.991 304.872 332.273 303.69 332.273ZM303.69 330.466C304.588 330.466 305.327 330.236 305.906 329.776C306.486 329.315 306.915 328.71 307.193 327.96C307.472 327.21 307.611 326.398 307.611 325.523C307.611 324.648 307.472 323.832 307.193 323.077C306.915 322.321 306.486 321.71 305.906 321.244C305.327 320.778 304.588 320.545 303.69 320.545C302.793 320.545 302.054 320.778 301.474 321.244C300.895 321.71 300.466 322.321 300.188 323.077C299.909 323.832 299.77 324.648 299.77 325.523C299.77 326.398 299.909 327.21 300.188 327.96C300.466 328.71 300.895 329.315 301.474 329.776C302.054 330.236 302.793 330.466 303.69 330.466ZM314.704 324.125V332H312.692V318.909H314.636V320.955H314.806C315.113 320.29 315.579 319.756 316.204 319.352C316.829 318.943 317.636 318.739 318.624 318.739C319.511 318.739 320.286 318.92 320.951 319.284C321.616 319.642 322.133 320.188 322.502 320.92C322.871 321.648 323.056 322.568 323.056 323.682V332H321.045V323.818C321.045 322.79 320.778 321.989 320.244 321.415C319.71 320.835 318.977 320.545 318.045 320.545C317.403 320.545 316.829 320.685 316.323 320.963C315.823 321.241 315.428 321.648 315.138 322.182C314.849 322.716 314.704 323.364 314.704 324.125ZM332.425 318.909V320.614H325.641V318.909H332.425ZM327.618 315.773H329.629V328.25C329.629 328.818 329.712 329.244 329.876 329.528C330.047 329.807 330.263 329.994 330.524 330.091C330.791 330.182 331.072 330.227 331.368 330.227C331.589 330.227 331.771 330.216 331.913 330.193C332.055 330.165 332.169 330.142 332.254 330.125L332.663 331.932C332.527 331.983 332.337 332.034 332.092 332.085C331.848 332.142 331.538 332.17 331.163 332.17C330.595 332.17 330.038 332.048 329.493 331.804C328.953 331.56 328.504 331.188 328.146 330.688C327.794 330.188 327.618 329.557 327.618 328.795V315.773ZM335.45 332V318.909H337.393V320.886H337.53C337.768 320.239 338.2 319.713 338.825 319.31C339.45 318.906 340.155 318.705 340.939 318.705C341.087 318.705 341.271 318.707 341.493 318.713C341.714 318.719 341.882 318.727 341.996 318.739V320.784C341.928 320.767 341.771 320.741 341.527 320.707C341.288 320.668 341.036 320.648 340.768 320.648C340.132 320.648 339.564 320.781 339.064 321.048C338.57 321.31 338.178 321.673 337.888 322.139C337.604 322.599 337.462 323.125 337.462 323.716V332H335.45ZM348.232 332.307C347.403 332.307 346.65 332.151 345.974 331.838C345.298 331.52 344.761 331.062 344.363 330.466C343.965 329.864 343.766 329.136 343.766 328.284C343.766 327.534 343.914 326.926 344.21 326.46C344.505 325.989 344.9 325.619 345.394 325.352C345.888 325.085 346.434 324.886 347.031 324.756C347.633 324.619 348.238 324.511 348.846 324.432C349.641 324.33 350.286 324.253 350.781 324.202C351.281 324.145 351.644 324.051 351.871 323.92C352.104 323.79 352.221 323.562 352.221 323.239V323.17C352.221 322.33 351.991 321.676 351.531 321.21C351.076 320.744 350.386 320.511 349.46 320.511C348.499 320.511 347.746 320.722 347.201 321.142C346.656 321.562 346.272 322.011 346.05 322.489L344.141 321.807C344.482 321.011 344.937 320.392 345.505 319.949C346.079 319.5 346.704 319.187 347.38 319.011C348.062 318.83 348.732 318.739 349.391 318.739C349.812 318.739 350.295 318.79 350.84 318.892C351.391 318.989 351.923 319.19 352.434 319.497C352.951 319.804 353.38 320.267 353.721 320.886C354.062 321.506 354.232 322.335 354.232 323.375V332H352.221V330.227H352.119C351.982 330.511 351.755 330.815 351.437 331.139C351.119 331.463 350.695 331.739 350.167 331.966C349.638 332.193 348.994 332.307 348.232 332.307ZM348.539 330.5C349.335 330.5 350.005 330.344 350.55 330.031C351.102 329.719 351.516 329.315 351.795 328.821C352.079 328.327 352.221 327.807 352.221 327.261V325.42C352.136 325.523 351.948 325.616 351.658 325.702C351.374 325.781 351.045 325.852 350.67 325.915C350.3 325.972 349.94 326.023 349.587 326.068C349.241 326.108 348.96 326.142 348.744 326.17C348.221 326.239 347.732 326.349 347.278 326.503C346.829 326.651 346.465 326.875 346.187 327.176C345.914 327.472 345.778 327.875 345.778 328.386C345.778 329.085 346.036 329.614 346.553 329.972C347.076 330.324 347.738 330.5 348.539 330.5ZM362.847 332.273C361.756 332.273 360.793 331.997 359.957 331.446C359.122 330.889 358.469 330.105 357.997 329.094C357.526 328.077 357.29 326.875 357.29 325.489C357.29 324.114 357.526 322.92 357.997 321.909C358.469 320.898 359.125 320.116 359.966 319.565C360.807 319.014 361.778 318.739 362.881 318.739C363.733 318.739 364.406 318.881 364.901 319.165C365.401 319.443 365.781 319.761 366.043 320.119C366.31 320.472 366.517 320.761 366.665 320.989H366.835V314.545H368.847V332H366.903V329.989H366.665C366.517 330.227 366.307 330.528 366.034 330.892C365.761 331.25 365.372 331.571 364.866 331.855C364.361 332.134 363.688 332.273 362.847 332.273ZM363.119 330.466C363.926 330.466 364.608 330.256 365.165 329.835C365.722 329.409 366.145 328.821 366.435 328.071C366.724 327.315 366.869 326.443 366.869 325.455C366.869 324.477 366.727 323.622 366.443 322.889C366.159 322.151 365.739 321.577 365.182 321.168C364.625 320.753 363.938 320.545 363.119 320.545C362.267 320.545 361.557 320.764 360.989 321.202C360.426 321.634 360.003 322.222 359.719 322.966C359.44 323.705 359.301 324.534 359.301 325.455C359.301 326.386 359.443 327.233 359.727 327.994C360.017 328.75 360.443 329.352 361.006 329.801C361.574 330.244 362.278 330.466 363.119 330.466ZM376.662 332.307C375.832 332.307 375.08 332.151 374.403 331.838C373.727 331.52 373.19 331.062 372.793 330.466C372.395 329.864 372.196 329.136 372.196 328.284C372.196 327.534 372.344 326.926 372.639 326.46C372.935 325.989 373.33 325.619 373.824 325.352C374.318 325.085 374.864 324.886 375.46 324.756C376.063 324.619 376.668 324.511 377.276 324.432C378.071 324.33 378.716 324.253 379.21 324.202C379.71 324.145 380.074 324.051 380.301 323.92C380.534 323.79 380.651 323.562 380.651 323.239V323.17C380.651 322.33 380.42 321.676 379.96 321.21C379.506 320.744 378.815 320.511 377.889 320.511C376.929 320.511 376.176 320.722 375.631 321.142C375.085 321.562 374.702 322.011 374.48 322.489L372.571 321.807C372.912 321.011 373.366 320.392 373.935 319.949C374.509 319.5 375.134 319.187 375.81 319.011C376.491 318.83 377.162 318.739 377.821 318.739C378.241 318.739 378.724 318.79 379.27 318.892C379.821 318.989 380.352 319.19 380.864 319.497C381.381 319.804 381.81 320.267 382.151 320.886C382.491 321.506 382.662 322.335 382.662 323.375V332H380.651V330.227H380.548C380.412 330.511 380.185 330.815 379.866 331.139C379.548 331.463 379.125 331.739 378.597 331.966C378.068 332.193 377.423 332.307 376.662 332.307ZM376.969 330.5C377.764 330.5 378.435 330.344 378.98 330.031C379.531 329.719 379.946 329.315 380.224 328.821C380.509 328.327 380.651 327.807 380.651 327.261V325.42C380.565 325.523 380.378 325.616 380.088 325.702C379.804 325.781 379.474 325.852 379.099 325.915C378.73 325.972 378.369 326.023 378.017 326.068C377.67 326.108 377.389 326.142 377.173 326.17C376.651 326.239 376.162 326.349 375.707 326.503C375.259 326.651 374.895 326.875 374.616 327.176C374.344 327.472 374.207 327.875 374.207 328.386C374.207 329.085 374.466 329.614 374.983 329.972C375.506 330.324 376.168 330.5 376.969 330.5Z" fill="#191720"/>
</svg>
