<svg width="23" height="22" viewBox="0 0 23 22" fill="none" xmlns="http://www.w3.org/2000/svg">
<path d="M19.9939 11.572L21.4542 12.8724C21.7239 13.0974 21.9041 13.4116 21.9622 13.758C22.0202 14.1044 21.9524 14.4601 21.7708 14.7608L20.0101 17.7686C19.8735 17.9988 19.6784 18.1889 19.4447 18.3194C19.2083 18.4503 18.9428 18.5197 18.6726 18.5213C18.5049 18.5224 18.3382 18.4973 18.1783 18.447L16.3093 17.83C15.9819 18.04 15.6416 18.2279 15.2884 18.3937L14.8958 20.2886C14.8232 20.6371 14.6291 20.9485 14.3482 21.1673C14.0638 21.39 13.7111 21.5076 13.3499 21.5001H9.70407C9.34289 21.5076 8.99023 21.39 8.70577 21.1673C8.42547 20.9483 8.23199 20.6369 8.15978 20.2886L7.76563 18.3937C7.41703 18.2257 7.07882 18.0369 6.75279 17.8284L4.87736 18.447C4.71744 18.4973 4.55068 18.5224 4.38305 18.5213C4.11338 18.5194 3.84849 18.45 3.61253 18.3194C3.37901 18.1893 3.18398 17.9999 3.04715 17.7702L1.2234 14.7608C1.0338 14.4574 0.961357 14.0953 1.01964 13.7423C1.07793 13.3893 1.26294 13.0697 1.54001 12.8433L2.99869 11.0002V10.4284L1.5384 9.128C1.26873 8.90297 1.08855 8.58882 1.03047 8.24244C0.972398 7.89605 1.04026 7.54032 1.22179 7.23964L3.04553 4.23183C3.18214 4.00159 3.37719 3.81155 3.61091 3.68099C3.84687 3.55042 4.11177 3.481 4.38144 3.47907C4.54755 3.46859 4.71429 3.48385 4.87574 3.5243L6.71403 4.17045C7.04248 3.96045 7.38279 3.77253 7.73494 3.60668L8.12909 1.71186C8.2013 1.36353 8.39478 1.05214 8.67508 0.833101C8.95953 0.610416 9.3122 0.492861 9.67337 0.500336H13.2886C13.6497 0.492861 14.0024 0.610416 14.2869 0.833101C14.5695 1.05441 14.7634 1.36617 14.8328 1.71186L15.227 3.60668C15.577 3.7736 15.9146 3.96206 16.2398 4.17206L18.1169 3.55499C18.3252 3.48722 18.5453 3.46343 18.7633 3.48512C18.9813 3.5068 19.1924 3.5735 19.3833 3.68099C19.6176 3.81345 19.8114 4.00406 19.9487 4.23021L21.7708 7.23964C21.963 7.54045 22.0391 7.90091 21.985 8.25374C21.9309 8.60656 21.7503 8.92765 21.4768 9.15708L19.9939 10.4203V11.572Z" stroke="#707070"/>
<path d="M15.5378 11.0003C15.5378 12.0714 15.1123 13.0986 14.3549 13.8559C13.5976 14.6133 12.5704 15.0387 11.4994 15.0387C10.4283 15.0387 9.40111 14.6133 8.64376 13.8559C7.88641 13.0986 7.46094 12.0714 7.46094 11.0003C7.46094 9.92927 7.88641 8.90209 8.64376 8.14474C9.40111 7.38739 10.4283 6.96191 11.4994 6.96191C12.5704 6.96191 13.5976 7.38739 14.3549 8.14474C15.1123 8.90209 15.5378 9.92927 15.5378 11.0003Z" stroke="#707070"/>
</svg>
