<svg width="200" height="232" viewBox="0 0 200 232" fill="none" xmlns="http://www.w3.org/2000/svg">
<path d="M63.9929 79.2127C62.5622 79.2528 61.2011 79.8391 60.189 80.8512C59.1769 81.8632 58.5906 83.2244 58.5505 84.6551C58.5196 85.8701 58.8888 87.0616 59.6013 88.0461L59.6516 88.1215L63.6036 93.4927C63.6823 93.6044 63.7873 93.6952 63.9092 93.757C64.0312 93.8189 64.1664 93.8499 64.3031 93.8474C64.4398 93.8449 64.5738 93.809 64.6934 93.7428C64.813 93.6766 64.9146 93.5821 64.9893 93.4676L68.5603 88.1592C69.2707 87.173 69.6675 85.9957 69.699 84.7807C69.6976 84.0382 69.5479 83.3035 69.2589 82.6196C68.9699 81.9357 68.5473 81.3163 68.0159 80.7977C67.4845 80.2792 66.855 79.8719 66.1642 79.5998C65.4734 79.3276 64.7352 79.196 63.9929 79.2127ZM64.1227 88.0922C63.4942 88.0922 62.8799 87.9058 62.3574 87.5567C61.8348 87.2075 61.4276 86.7113 61.1871 86.1306C60.9466 85.55 60.8836 84.9111 61.0062 84.2948C61.1288 83.6784 61.4315 83.1122 61.8759 82.6678C62.3202 82.2234 62.8864 81.9208 63.5028 81.7982C64.1192 81.6756 64.7581 81.7385 65.3387 81.979C65.9193 82.2195 66.4156 82.6268 66.7647 83.1493C67.1138 83.6719 67.3002 84.2862 67.3002 84.9147C67.3008 85.3321 67.2189 85.7455 67.0595 86.1313C66.9 86.5171 66.6659 86.8676 66.3708 87.1627C66.0756 87.4579 65.7251 87.6919 65.3393 87.8514C64.9536 88.0109 64.5401 88.0927 64.1227 88.0922Z" fill="#DEDEDE"/>
<path d="M148.551 67.9053C148.878 65.5483 145.549 63.61 143.05 63.409C141.857 63.3127 140.618 63.4928 139.487 63.0992C137.042 62.2619 136.063 59.0844 133.677 58.0755C131.889 57.3219 129.833 57.9918 128.104 58.8625C126.375 59.7333 124.663 60.8302 122.729 60.9558C121.054 61.0604 119.221 60.4366 117.751 61.2614C116.654 61.8726 116.077 63.1369 115.068 63.8821C114.059 64.6273 112.79 64.7654 111.564 64.8324C110.337 64.8994 109.052 64.912 107.947 65.4227C106.841 65.9335 105.908 67.0973 106.138 68.3197L148.551 67.9053Z" fill="#DEDEDE"/>
<path d="M75.4147 55.3625C75.5864 54.1065 73.8155 53.0767 72.4842 52.9678C71.8479 52.9176 71.1906 53.0139 70.5878 52.8046C69.2858 52.3482 68.7667 50.6695 67.494 50.1294C66.5437 49.7317 65.451 50.0876 64.53 50.5481C63.609 51.0086 62.6963 51.5947 61.6665 51.6617C60.7747 51.7161 59.7993 51.3854 59.0164 51.8207C58.4345 52.1473 58.1289 52.8213 57.5889 53.219C57.0295 53.5631 56.3824 53.7376 55.7259 53.7214C55.0698 53.7077 54.4169 53.8156 53.8001 54.0396C53.4951 54.1584 53.2366 54.3725 53.0631 54.6501C52.8896 54.9277 52.8104 55.2539 52.8372 55.5802L75.4147 55.3625Z" fill="#DEDEDE"/>
<path d="M35.969 77.7391C36.2244 75.8846 33.6079 74.3607 31.6444 74.2016C30.7067 74.1262 29.7312 74.2686 28.8437 73.9588C26.9221 73.289 26.1518 70.8022 24.2763 70.011C22.8738 69.4249 21.2579 69.9482 19.8973 70.6306C18.5367 71.313 17.1886 72.1795 15.669 72.2758C14.3461 72.3596 12.9143 71.8572 11.7546 72.5145C10.8922 72.9959 10.4401 73.9923 9.66142 74.5742C8.88274 75.1561 7.85706 75.2859 6.88999 75.3236C5.92292 75.3612 4.93074 75.3864 4.05158 75.7883C3.17243 76.1902 2.44817 77.1196 2.62819 78.0657L35.969 77.7391Z" fill="#DEDEDE"/>
<path d="M183.922 73.7911C183.922 73.7911 183.679 73.7283 183.248 73.6404C182.638 73.5189 182.013 73.5019 181.398 73.5902C180.488 73.7194 179.631 74.0943 178.919 74.6745C178.051 75.3868 177.438 76.3626 177.173 77.4543V77.4878L177.069 77.9064L176.91 77.5171C176.484 76.4795 175.754 75.5951 174.816 74.9801C174.051 74.4786 173.171 74.1803 172.259 74.1135C171.409 74.0686 170.558 74.1763 169.747 74.4317C169.943 74.3065 170.158 74.2132 170.383 74.1554C170.992 73.9639 171.63 73.8831 172.267 73.9167C173.22 73.9586 174.146 74.2471 174.955 74.754C175.947 75.3869 176.719 76.3111 177.165 77.3999H176.901V77.3664C177.174 76.2093 177.827 75.1773 178.756 74.4359C179.507 73.8354 180.413 73.4608 181.368 73.3557C182.005 73.2794 182.65 73.3263 183.269 73.4939C183.502 73.5547 183.723 73.6552 183.922 73.7911Z" fill="#DEDEDE"/>
<path d="M0.832047 109.799L15.8195 191.162L46.996 196.814L74.928 178.842L104.802 186.055L135.782 166.178L120.615 88.9922L89.7689 104.369L63.1599 98.5917L34.1896 113.931L0.832047 109.799Z" fill="white"/>
<path d="M47.0459 197.036L15.6475 191.343L15.6224 191.2L0.584717 109.564L34.1558 113.726L63.1386 98.3825L89.7476 104.172L120.773 88.6825L120.824 88.9504L136.02 166.278L135.899 166.354L104.844 186.277L104.76 186.256L74.9695 179.064L47.0459 197.036ZM16.0034 190.982L46.958 196.596L74.8941 178.616L74.9779 178.637L104.769 185.829L135.552 166.077L120.48 89.3021L89.8021 104.591H89.7309L63.193 98.8263L34.2312 114.161H34.1768L1.10384 110.033L16.0034 190.982Z" fill="#DEDEDE"/>
<path d="M4.05675 112.395L18.2111 189.559L46.792 193.884L74.6444 175.392L103.891 182.354L132.869 164.842L119.222 92.2201L90.2682 107.011L63.14 102.314L33.5168 116.769L20.2667 114.802L4.05675 112.395Z" fill="#DEDEDE"/>
<path d="M25.4511 115.212L25.5349 144.228L125.407 169.866L120.433 173.148L26.1838 148.653L25.3674 190.643L19.2929 189.722L20.2641 114.802L25.4511 115.212Z" fill="#FAFAFA"/>
<path d="M5.61807 119.298L20.6181 122.668L20.099 127.436L6.15394 123.824L5.61807 119.298Z" fill="#FAFAFA"/>
<path d="M9.21378 140.515L19.9604 138.145L19.8892 143.605L9.99245 145.823L9.21378 140.515Z" fill="#FAFAFA"/>
<path d="M13.1743 162.092L19.6424 162.657L19.6047 165.78L13.685 165.587L13.1743 162.092Z" fill="#FAFAFA"/>
<path d="M25.3681 190.643L33.6489 191.895L35.5621 175.191L48.5652 176.514L49.8086 191.878L55.3096 188.228L55.1966 156.193L26.1845 148.653L25.3681 190.643Z" fill="#DEDEDE"/>
<path d="M58.5169 157.055L58.3579 174.266L58.2448 186.277L55.3101 188.228L55.0087 154.916L58.5169 157.055Z" fill="#FAFAFA"/>
<path d="M71.9636 177.167L58.3576 174.266L58.3199 178.298L67.685 180.01L71.9636 177.167Z" fill="#FAFAFA"/>
<path d="M40.7698 113.228L38.5761 147.577L43.5077 148.842L46.2875 110.536L40.7698 113.228Z" fill="#FAFAFA"/>
<path d="M55.5776 151.94L56.4149 109.054L59.3831 110.238L59.1528 125.159L90.0027 134.093L97.3332 104.457L102.977 101.3L93.9464 135.014L86.955 161.309C86.955 161.309 82.8816 160.363 83.0239 159.693C83.1662 159.023 88.6003 139.502 88.6003 139.502L58.6755 129.798L58.1355 154.456L55.5776 151.94Z" fill="#FAFAFA"/>
<path d="M91.0863 139.138L111.818 145.2L121.451 104.093L119.629 95.0333L108.925 139.732L91.8817 134.499L91.0863 139.138Z" fill="#FAFAFA"/>
<path d="M79.5664 176.874L83.0202 159.693L87.123 160.673L83.4766 178.055L79.5664 176.874Z" fill="#FAFAFA"/>
<path d="M122.272 134.566L113.798 176.368L121.296 171.641L128.677 143.939L127.613 136.697L122.272 134.566Z" fill="#DEDEDE"/>
<path opacity="0.1" d="M33.5168 116.769L46.792 193.884L18.2111 189.559L4.05675 112.394L33.5168 116.769Z" fill="#212529"/>
<path d="M52.5166 107.496L55.443 108.664L127.739 137.547L125.62 126.289L63.1377 102.313L52.5166 107.496Z" fill="#DEDEDE"/>
<path opacity="0.1" d="M63.1369 102.313L74.6412 175.392L103.888 182.354L90.2651 107.011L63.1369 102.313Z" fill="#212529"/>
<path d="M49.7441 90.5369C49.7441 90.5662 49.2668 90.3737 48.3793 90.1769C47.1254 89.9019 45.8329 89.8509 44.5612 90.0262C42.6732 90.2756 40.8917 91.0452 39.4161 92.2492C37.6064 93.7211 36.3298 95.7463 35.7823 98.0139C35.7823 98.0348 35.7823 98.0558 35.7823 98.0767L35.6776 98.4954L35.5185 98.1018C34.6264 95.9557 33.1038 94.1309 31.1521 92.8688C29.5629 91.8347 27.7353 91.2251 25.8437 91.0979C24.5689 91.0072 23.2878 91.1246 22.0507 91.4454C21.1758 91.6756 20.7111 91.864 20.7027 91.864C20.8061 91.8004 20.9154 91.7471 21.0292 91.7049C21.355 91.5538 21.6907 91.4252 22.034 91.3198C23.2789 90.962 24.576 90.8204 25.8688 90.9011C27.8042 91.0049 29.6795 91.6093 31.3112 92.6553C33.3134 93.9423 34.8726 95.8127 35.7781 98.0139L35.5143 98.039V97.9721C36.0744 95.6456 37.389 93.57 39.2528 92.0692C40.7713 90.8499 42.6021 90.0824 44.5361 89.8545C45.829 89.6939 47.1404 89.7734 48.4044 90.089C48.7464 90.173 49.0821 90.2807 49.4092 90.4113C49.5248 90.4415 49.6371 90.4836 49.7441 90.5369Z" fill="#212529"/>
<path d="M90.933 75.6793C90.933 75.6793 90.6651 75.604 90.1753 75.4993C89.4859 75.3608 88.778 75.341 88.082 75.4407C87.0548 75.5819 86.0868 76.0051 85.2855 76.6632C84.3024 77.4666 83.6085 78.5691 83.3095 79.803V79.8365L83.2048 80.2551L83.0457 79.8616C82.5652 78.6909 81.7403 77.6938 80.6804 77.0023C79.815 76.4353 78.8194 76.0982 77.7876 76.0226C77.0851 75.9657 76.3781 76.0236 75.6943 76.1943C75.2129 76.3115 74.9533 76.4162 74.945 76.3952C74.9366 76.3743 75.0036 76.3534 75.125 76.2948C75.2998 76.2133 75.4803 76.1448 75.665 76.0896C76.5207 75.8279 77.4228 75.7546 78.3095 75.8745C79.1962 75.9945 80.0464 76.3049 80.8018 76.7846C81.9164 77.4982 82.7846 78.5374 83.2886 79.7611H83.0248V79.7235C83.3395 78.4288 84.0759 77.2756 85.118 76.4455C85.9619 75.7736 86.9771 75.3516 88.0485 75.2272C88.7648 75.1448 89.4902 75.1959 90.1878 75.3779C90.3765 75.4267 90.5612 75.4897 90.7404 75.5663C90.8744 75.6375 90.9372 75.6668 90.933 75.6793Z" fill="#212529"/>
<path d="M62.9615 61.0143C62.9615 61.0143 62.7019 61.3157 62.2289 61.8516C61.5651 62.6067 60.9657 63.4161 60.4371 64.2713C58.6793 67.0956 57.7576 70.3601 57.7787 73.6867C57.7766 73.7257 57.7766 73.7648 57.7787 73.8039H57.5024C57.232 72.0178 56.6496 70.2932 55.7817 68.709C54.5951 66.5326 52.9199 64.6611 50.8878 63.2415C50.5773 63.0476 50.2769 62.838 49.9877 62.6135C50.0773 62.6456 50.163 62.6877 50.2431 62.7391C50.4063 62.8312 50.6617 62.9526 50.9506 63.1577C51.7976 63.6996 52.5849 64.3297 53.2992 65.0375C55.6988 67.3881 57.2707 70.4541 57.7787 73.7746H57.5024V73.6573C57.4781 70.2804 58.4414 66.9699 60.2738 64.1332C60.8209 63.2783 61.4505 62.479 62.1535 61.7469C62.3963 61.479 62.6098 61.299 62.7438 61.1692C62.8125 61.1123 62.8852 61.0605 62.9615 61.0143Z" fill="#212529"/>
<path d="M199.453 206.679H66.9072V209.748H199.453V206.679Z" fill="#DEDEDE"/>
<path d="M68.2448 209.808C68.2448 209.808 68.2448 209.753 68.2448 209.635C68.2448 209.516 68.2448 209.329 68.2448 209.092C68.2448 208.598 68.2448 207.863 68.2448 206.866V206.822H68.2843C76.1014 206.763 101.877 206.723 132.44 206.723L179.876 206.763L194.247 206.807L198.155 206.837H199.172C199.404 206.837 199.518 206.837 199.518 206.837C199.518 206.837 199.404 206.837 199.172 206.837H198.155L194.247 206.866L179.876 206.911L132.44 206.955C101.902 206.955 76.1261 206.911 68.309 206.851L68.3484 206.812C68.3484 207.799 68.3484 208.544 68.3484 209.038C68.3484 209.275 68.3484 209.452 68.3484 209.581C68.3484 209.709 68.2448 209.808 68.2448 209.808Z" fill="#212529"/>
<path d="M84.0269 206.896C84.2177 207.857 84.2177 208.846 84.0269 209.807C83.8361 208.846 83.8361 207.857 84.0269 206.896Z" fill="#212529"/>
<path d="M101.408 206.896C101.599 207.857 101.599 208.846 101.408 209.807C101.217 208.846 101.217 207.857 101.408 206.896Z" fill="#212529"/>
<path d="M118.789 206.896C118.98 207.857 118.98 208.846 118.789 209.807C118.598 208.846 118.598 207.857 118.789 206.896Z" fill="#212529"/>
<path d="M136.17 206.896C136.361 207.857 136.361 208.846 136.17 209.807C135.98 208.846 135.98 207.857 136.17 206.896Z" fill="#212529"/>
<path d="M153.548 206.896C153.739 207.857 153.739 208.846 153.548 209.807C153.357 208.846 153.357 207.857 153.548 206.896Z" fill="#212529"/>
<path d="M170.933 206.896C171.123 207.857 171.123 208.846 170.933 209.807C170.742 208.846 170.742 207.857 170.933 206.896Z" fill="#212529"/>
<path d="M188.296 206.896C188.486 207.857 188.486 208.846 188.296 209.807C188.105 208.846 188.105 207.857 188.296 206.896Z" fill="#212529"/>
<path d="M125.388 58H90.2655V206.531H125.388V58Z" fill="#707070"/>
<path d="M107.446 65.4125H96.7711V85.9818H107.446V65.4125Z" fill="white"/>
<path d="M102.425 85.9868C102.346 85.9868 102.282 81.3774 102.282 75.6972C102.282 70.0169 102.346 65.4125 102.425 65.4125C102.504 65.4125 102.563 70.0169 102.563 75.6972C102.563 81.3774 102.489 85.9868 102.425 85.9868Z" fill="#212529"/>
<path d="M107.446 72.5585C105.671 72.7015 103.89 72.7492 102.111 72.7016C100.33 72.7493 98.5472 72.7015 96.7711 72.5585C98.5472 72.4156 100.33 72.3678 102.111 72.4154C103.89 72.3678 105.671 72.4156 107.446 72.5585Z" fill="#212529"/>
<path d="M107.502 79.9166C105.711 80.0595 103.914 80.1072 102.118 80.0598C100.323 80.1073 98.5276 80.0595 96.7384 79.9166C98.5276 79.7737 100.323 79.726 102.118 79.7735C103.914 79.7261 105.711 79.7738 107.502 79.9166Z" fill="#212529"/>
<path d="M107.489 92.5553H96.8149V113.125H107.489V92.5553Z" fill="white"/>
<path d="M102.45 113.13C102.371 113.13 102.307 108.525 102.307 102.845C102.307 97.1647 102.371 92.5603 102.45 92.5603C102.529 92.5603 102.594 97.1647 102.594 102.845C102.594 108.525 102.529 113.13 102.45 113.13Z" fill="#212529"/>
<path d="M107.489 99.7013C105.713 99.8441 103.931 99.8919 102.15 99.8445C100.37 99.8921 98.5893 99.8443 96.8149 99.7013C98.5893 99.5584 100.37 99.5106 102.15 99.5582C103.931 99.5108 105.713 99.5585 107.489 99.7013Z" fill="#212529"/>
<path d="M107.542 107.059C105.753 107.202 103.957 107.25 102.163 107.203C100.367 107.25 98.5694 107.202 96.7784 107.059C98.5694 106.916 100.367 106.869 102.163 106.916C103.957 106.869 105.753 106.916 107.542 107.059Z" fill="#212529"/>
<path d="M107.489 119.461H96.8149V140.031H107.489V119.461Z" fill="white"/>
<path d="M102.45 140.031C102.371 140.031 102.307 135.426 102.307 129.746C102.307 124.066 102.371 119.461 102.45 119.461C102.529 119.461 102.594 124.066 102.594 129.746C102.594 135.426 102.529 140.031 102.45 140.031Z" fill="#212529"/>
<path d="M107.489 126.607C105.713 126.75 103.931 126.798 102.15 126.75C100.37 126.798 98.5893 126.75 96.8149 126.607C98.5893 126.464 100.37 126.417 102.15 126.464C103.931 126.417 105.713 126.464 107.489 126.607Z" fill="#212529"/>
<path d="M107.542 133.966C105.753 134.108 103.957 134.156 102.163 134.109C100.367 134.156 98.5694 134.108 96.7784 133.966C98.5694 133.823 100.367 133.775 102.163 133.822C103.957 133.775 105.753 133.823 107.542 133.966Z" fill="#212529"/>
<path d="M107.489 147.142H96.8149V167.711H107.489V147.142Z" fill="white"/>
<path d="M102.45 167.716C102.371 167.716 102.307 163.112 102.307 157.432C102.307 151.751 102.371 147.142 102.45 147.142C102.529 147.142 102.594 151.746 102.594 157.432C102.594 163.117 102.529 167.716 102.45 167.716Z" fill="#212529"/>
<path d="M107.489 154.288C105.713 154.431 103.931 154.479 102.15 154.431C100.37 154.479 98.5893 154.431 96.8149 154.288C98.5897 154.151 100.37 154.105 102.15 154.15C103.931 154.105 105.713 154.151 107.489 154.288Z" fill="#212529"/>
<path d="M107.542 161.646C105.753 161.789 103.957 161.837 102.163 161.789C100.367 161.837 98.5694 161.789 96.7784 161.646C98.5694 161.503 100.367 161.455 102.163 161.503C103.957 161.456 105.753 161.503 107.542 161.646Z" fill="#212529"/>
<path d="M140.325 58H114.732V206.531H140.325V58Z" fill="#707070"/>
<g opacity="0.3">
<path d="M140.329 58H114.735V206.531H140.329V58Z" fill="#212529"/>
</g>
<path d="M132.674 65.4125H121.999V85.9818H132.674V65.4125Z" fill="white"/>
<path d="M127.635 85.9868C127.556 85.9868 127.492 81.3774 127.492 75.6972C127.492 70.0169 127.556 65.4125 127.635 65.4125C127.714 65.4125 127.778 70.0169 127.778 75.6972C127.778 81.3774 127.714 85.9868 127.635 85.9868Z" fill="#212529"/>
<path d="M132.674 72.5585C130.899 72.7015 129.118 72.7492 127.339 72.7016C125.558 72.7493 123.775 72.7015 121.999 72.5585C123.775 72.4156 125.558 72.3678 127.339 72.4154C129.118 72.3678 130.899 72.4156 132.674 72.5585Z" fill="#212529"/>
<path d="M132.73 79.9166C130.939 80.0595 129.142 80.1072 127.346 80.0598C125.551 80.1073 123.756 80.0595 121.966 79.9166C123.756 79.7737 125.551 79.726 127.346 79.7735C129.142 79.7261 130.939 79.7738 132.73 79.9166Z" fill="#212529"/>
<path d="M132.721 93.3301H122.047V113.899H132.721V93.3301Z" fill="white"/>
<path d="M127.675 113.904C127.596 113.904 127.532 109.295 127.532 103.615C127.532 97.9345 127.596 93.3301 127.675 93.3301C127.754 93.3301 127.818 97.9345 127.818 103.615C127.818 109.295 127.754 113.904 127.675 113.904Z" fill="#212529"/>
<path d="M132.721 100.476C130.945 100.619 129.163 100.667 127.381 100.619C125.602 100.667 123.821 100.619 122.047 100.476C123.821 100.333 125.602 100.286 127.381 100.333C129.163 100.286 130.945 100.333 132.721 100.476Z" fill="#212529"/>
<path d="M132.77 107.834C130.981 107.977 129.185 108.025 127.391 107.977C125.595 108.025 123.797 107.977 122.006 107.834C123.797 107.691 125.595 107.644 127.391 107.691C129.185 107.644 130.981 107.691 132.77 107.834Z" fill="#212529"/>
<path d="M132.721 119.461H122.047V140.031H132.721V119.461Z" fill="white"/>
<path d="M127.675 140.031C127.596 140.031 127.532 135.426 127.532 129.746C127.532 124.066 127.596 119.461 127.675 119.461C127.754 119.461 127.818 124.066 127.818 129.746C127.818 135.426 127.754 140.031 127.675 140.031Z" fill="#212529"/>
<path d="M132.721 126.607C130.945 126.75 129.163 126.798 127.381 126.75C125.602 126.798 123.821 126.75 122.047 126.607C123.821 126.464 125.602 126.417 127.381 126.464C129.163 126.417 130.945 126.464 132.721 126.607Z" fill="#212529"/>
<path d="M132.77 133.966C130.981 134.108 129.185 134.156 127.391 134.109C125.595 134.156 123.797 134.108 122.006 133.966C123.797 133.823 125.595 133.775 127.391 133.822C129.185 133.775 130.981 133.823 132.77 133.966Z" fill="#212529"/>
<path d="M133.151 147.591H122.477V168.161H133.151V147.591Z" fill="white"/>
<path d="M128.111 168.161C128.032 168.161 127.973 163.556 127.973 157.876C127.973 152.196 128.032 147.591 128.111 147.591C128.19 147.591 128.254 152.196 128.254 157.876C128.254 163.556 128.19 168.161 128.111 168.161Z" fill="#212529"/>
<path d="M133.151 154.737C131.377 154.88 129.596 154.928 127.816 154.88C126.035 154.928 124.253 154.88 122.477 154.737C124.253 154.594 126.035 154.546 127.816 154.594C129.596 154.546 131.377 154.594 133.151 154.737Z" fill="#212529"/>
<path d="M133.206 162.095C131.417 162.238 129.621 162.286 127.827 162.238C126.032 162.286 124.237 162.238 122.447 162.095C124.237 161.952 126.032 161.905 127.827 161.952C129.621 161.905 131.417 161.952 133.206 162.095Z" fill="#212529"/>
<path d="M107.489 175.479H96.8149V196.049H107.489V175.479Z" fill="white"/>
<path d="M102.45 196.039C102.371 196.039 102.307 191.429 102.307 185.749C102.307 180.069 102.371 175.464 102.45 175.464C102.529 175.464 102.594 180.069 102.594 185.749C102.594 191.429 102.529 196.039 102.45 196.039Z" fill="#212529"/>
<path d="M107.489 182.625C105.713 182.768 103.931 182.816 102.15 182.768C100.37 182.816 98.5893 182.768 96.8149 182.625C98.5893 182.482 100.37 182.434 102.15 182.482C103.931 182.435 105.713 182.482 107.489 182.625Z" fill="#212529"/>
<path d="M107.542 189.983C105.753 190.126 103.957 190.174 102.163 190.126C100.367 190.174 98.5694 190.126 96.7784 189.983C98.5694 189.84 100.367 189.792 102.163 189.84C103.957 189.793 105.753 189.84 107.542 189.983Z" fill="#212529"/>
<path d="M132.721 176.362H122.047V196.932H132.721V176.362Z" fill="white"/>
<path d="M127.675 196.932C127.596 196.932 127.532 192.327 127.532 186.647C127.532 180.967 127.596 176.362 127.675 176.362C127.754 176.362 127.818 180.967 127.818 186.647C127.818 192.327 127.754 196.932 127.675 196.932Z" fill="#212529"/>
<path d="M132.721 183.509C130.945 183.651 129.163 183.699 127.381 183.652C125.602 183.699 123.821 183.652 122.047 183.509C123.821 183.366 125.602 183.318 127.381 183.365C129.163 183.318 130.945 183.366 132.721 183.509Z" fill="#212529"/>
<path d="M132.77 190.867C130.981 191.01 129.185 191.058 127.391 191.01C125.595 191.058 123.797 191.01 122.006 190.867C123.797 190.724 125.595 190.676 127.391 190.724C129.185 190.676 130.981 190.724 132.77 190.867Z" fill="#212529"/>
<path d="M157.808 140.411H170.254V122.422H157.808V140.411Z" fill="#F36B31"/>
<g opacity="0.3">
<path d="M157.804 140.411H170.25V122.422H157.804V140.411Z" fill="#212529"/>
</g>
<path d="M146.608 140.411H159.054V122.422H146.608V140.411Z" fill="#F36B31"/>
<path d="M149.579 136.778C149.579 136.778 149.579 136.719 149.579 136.596C149.579 136.473 149.579 136.27 149.579 136.043C149.579 135.55 149.579 134.824 149.579 133.931C149.579 132.1 149.554 129.529 149.534 126.528V126.454H155.229L155.318 126.548V129.415C155.318 130.348 155.318 131.246 155.318 132.115C155.318 133.842 155.318 135.421 155.318 136.788V136.857H155.229L151.079 136.823H149.959H149.672C149.608 136.823 149.579 136.823 149.579 136.823H149.687H149.988H151.123L155.229 136.788L155.16 136.853C155.16 135.486 155.16 133.891 155.16 132.179C155.16 131.31 155.16 130.412 155.16 129.48V126.612C155.081 126.528 155.269 126.716 155.249 126.696H149.579L149.662 126.612C149.662 129.573 149.633 132.14 149.623 133.961C149.623 134.859 149.623 135.579 149.598 136.088C149.598 136.324 149.598 136.517 149.598 136.66C149.594 136.7 149.588 136.739 149.579 136.778Z" fill="#212529"/>
<path d="M150.71 132.208C150.71 132.208 150.849 132.208 150.918 132.352C150.938 132.4 150.946 132.453 150.941 132.506C150.935 132.558 150.917 132.609 150.888 132.653C150.844 132.705 150.786 132.742 150.72 132.76C150.654 132.778 150.585 132.776 150.521 132.753C150.456 132.731 150.4 132.689 150.36 132.634C150.32 132.579 150.298 132.513 150.296 132.445C150.301 132.392 150.32 132.341 150.349 132.297C150.378 132.252 150.417 132.215 150.464 132.189C150.622 132.105 150.73 132.189 150.71 132.189C150.691 132.189 150.617 132.189 150.533 132.273C150.507 132.29 150.487 132.315 150.475 132.343C150.463 132.372 150.459 132.403 150.465 132.434C150.47 132.464 150.484 132.493 150.504 132.516C150.525 132.539 150.552 132.556 150.582 132.564C150.735 132.623 150.819 132.485 150.794 132.366C150.77 132.248 150.706 132.233 150.71 132.208Z" fill="#212529"/>
<path d="M133.927 206.644H185.543V137.074H133.927V206.644Z" fill="#F36B31"/>
<path d="M164.874 206.644L192.56 206.679V137.079H164.874V206.644Z" fill="#F36B31"/>
<g opacity="0.3">
<path d="M164.874 206.644L192.56 206.678V137.079H164.874V206.644Z" fill="#212529"/>
</g>
<path d="M137.713 184.264H147.154V174.823H137.713V184.264Z" fill="#DEDEDE"/>
<path d="M142.071 185.211C142.022 185.211 141.983 182.768 141.983 179.783C141.983 176.797 142.022 174.354 142.071 174.354C142.121 174.354 142.16 176.792 142.16 179.783C142.16 182.773 142.121 185.211 142.071 185.211Z" fill="#707070"/>
<path d="M135.943 177.986C135.943 177.937 138.687 177.897 142.073 177.897C145.458 177.897 148.207 177.937 148.207 177.986C148.207 178.036 145.463 178.075 142.073 178.075C138.682 178.075 135.943 178.036 135.943 177.986Z" fill="#707070"/>
<path d="M151.184 184.264H160.625V174.823H151.184V184.264Z" fill="#DEDEDE"/>
<path d="M155.54 185.211C155.49 185.211 155.446 182.768 155.446 179.783C155.446 176.797 155.49 174.354 155.54 174.354C155.589 174.354 155.628 176.792 155.628 179.783C155.628 182.773 155.589 185.211 155.54 185.211Z" fill="#707070"/>
<path d="M149.407 177.986C149.407 177.937 152.151 177.897 155.536 177.897C158.922 177.897 161.67 177.937 161.67 177.986C161.67 178.036 158.926 178.075 155.536 178.075C152.146 178.075 149.407 178.036 149.407 177.986Z" fill="#707070"/>
<path d="M137.713 169.35H147.154V159.909H137.713V169.35Z" fill="#DEDEDE"/>
<path d="M142.071 170.297C142.022 170.297 141.983 167.855 141.983 164.869C141.983 161.883 142.022 159.44 142.071 159.44C142.121 159.44 142.16 161.878 142.16 164.869C142.16 167.86 142.121 170.297 142.071 170.297Z" fill="#707070"/>
<path d="M135.943 163.072C135.943 163.023 138.687 162.984 142.073 162.984C145.458 162.984 148.207 163.023 148.207 163.072C148.207 163.122 145.463 163.161 142.073 163.161C138.682 163.161 135.943 163.122 135.943 163.072Z" fill="#707070"/>
<path d="M151.184 169.35H160.625V159.909H151.184V169.35Z" fill="#DEDEDE"/>
<path d="M155.54 170.297C155.49 170.297 155.446 167.855 155.446 164.869C155.446 161.883 155.49 159.44 155.54 159.44C155.589 159.44 155.628 161.878 155.628 164.869C155.628 167.86 155.589 170.297 155.54 170.297Z" fill="#707070"/>
<path d="M149.407 163.072C149.407 163.023 152.151 162.984 155.536 162.984C158.922 162.984 161.67 163.023 161.67 163.072C161.67 163.122 158.926 163.161 155.536 163.161C152.146 163.161 149.407 163.122 149.407 163.072Z" fill="#707070"/>
<path d="M137.713 154.397H147.154V144.956H137.713V154.397Z" fill="#DEDEDE"/>
<path d="M142.071 155.349C142.022 155.349 141.983 152.906 141.983 149.921C141.983 146.935 142.022 144.492 142.071 144.492C142.121 144.492 142.16 146.93 142.16 149.921C142.16 152.911 142.121 155.349 142.071 155.349Z" fill="#707070"/>
<path d="M135.943 148.124C135.943 148.075 138.687 148.035 142.073 148.035C145.458 148.035 148.207 148.075 148.207 148.124C148.207 148.174 145.463 148.213 142.073 148.213C138.682 148.213 135.943 148.169 135.943 148.124Z" fill="#707070"/>
<path d="M151.184 154.397H160.625V144.956H151.184V154.397Z" fill="#DEDEDE"/>
<path d="M155.54 155.349C155.49 155.349 155.446 152.906 155.446 149.921C155.446 146.935 155.49 144.492 155.54 144.492C155.589 144.492 155.628 146.93 155.628 149.921C155.628 152.911 155.589 155.349 155.54 155.349Z" fill="#707070"/>
<path d="M149.407 148.124C149.407 148.075 152.151 148.035 155.536 148.035C158.922 148.035 161.67 148.075 161.67 148.124C161.67 148.174 158.926 148.213 155.536 148.213C152.146 148.213 149.407 148.169 149.407 148.124Z" fill="#707070"/>
<g opacity="0.7">
<path d="M174.353 154.396H183.794V144.956H174.353V154.396Z" fill="white"/>
</g>
<path d="M179.075 155.349C179.026 155.349 178.986 152.906 178.986 149.921C178.986 146.935 179.026 144.492 179.075 144.492C179.124 144.492 179.164 146.93 179.164 149.921C179.164 152.911 179.124 155.349 179.075 155.349Z" fill="#212529"/>
<path d="M172.583 148.124C172.583 148.075 175.331 148.035 178.717 148.035C182.102 148.035 184.846 148.075 184.846 148.124C184.846 148.174 182.102 148.213 178.717 148.213C175.331 148.213 172.583 148.169 172.583 148.124Z" fill="#212529"/>
<g opacity="0.7">
<path d="M174.353 169.493H183.794V160.052H174.353V169.493Z" fill="white"/>
</g>
<path d="M179.075 170.445C179.026 170.445 178.986 168.003 178.986 165.017C178.986 162.031 179.026 159.588 179.075 159.588C179.124 159.588 179.164 162.026 179.164 165.017C179.164 168.007 179.124 170.445 179.075 170.445Z" fill="#212529"/>
<path d="M172.583 163.221C172.583 163.171 175.331 163.132 178.717 163.132C182.102 163.132 184.846 163.171 184.846 163.221C184.846 163.27 182.102 163.309 178.717 163.309C175.331 163.309 172.583 163.27 172.583 163.221Z" fill="#212529"/>
<g opacity="0.7">
<path d="M174.353 184.594H183.794V175.154H174.353V184.594Z" fill="white"/>
</g>
<path d="M179.075 185.537C179.026 185.537 178.986 183.099 178.986 180.108C178.986 177.118 179.026 174.68 179.075 174.68C179.124 174.68 179.164 177.123 179.164 180.108C179.164 183.094 179.124 185.537 179.075 185.537Z" fill="#212529"/>
<path d="M172.583 178.317C172.583 178.267 175.331 178.228 178.717 178.228C182.102 178.228 184.846 178.267 184.846 178.317C184.846 178.366 182.102 178.406 178.717 178.406C175.331 178.406 172.583 178.366 172.583 178.317Z" fill="#212529"/>
<path d="M144.615 206.333C144.615 206.333 144.615 206.304 144.615 206.249C144.615 206.195 144.615 206.101 144.615 205.998C144.615 205.764 144.615 205.443 144.615 205.035C144.615 204.182 144.615 202.963 144.59 201.443C144.59 198.368 144.59 194.084 144.556 189.174V189.09H154.426V189.174C154.426 194.109 154.426 198.447 154.396 201.551C154.396 203.086 154.396 204.32 154.396 205.178C154.396 205.598 154.396 205.919 154.396 206.165C154.396 206.269 154.396 206.353 154.396 206.417C154.396 206.481 154.396 206.501 154.396 206.501C154.394 206.473 154.394 206.445 154.396 206.417C154.396 206.353 154.396 206.269 154.396 206.165C154.396 205.929 154.396 205.608 154.396 205.178C154.396 204.32 154.396 203.086 154.396 201.551C154.396 198.447 154.396 194.124 154.367 189.174L154.45 189.263H144.778L144.867 189.174C144.867 194.109 144.842 198.368 144.832 201.443C144.832 202.963 144.832 204.182 144.807 205.035C144.807 205.447 144.807 205.767 144.807 205.998C144.807 206.101 144.807 206.185 144.807 206.249C144.807 206.313 144.615 206.333 144.615 206.333Z" fill="#212529"/>
<path d="M149.777 198.087H153.073V190.196H149.777V198.087Z" fill="#DEDEDE"/>
<path d="M153.084 198.097H149.767V190.2H153.084V198.097ZM149.782 198.097H153.064V190.2H149.802L149.782 198.097Z" fill="#212529"/>
<path d="M145.833 198.087H149.13V190.196H145.833V198.087Z" fill="#DEDEDE"/>
<path d="M149.14 198.097H145.824V190.2H149.14V198.097ZM145.839 198.097H149.121V190.2H145.854L145.839 198.097Z" fill="#212529"/>
<path d="M145.764 198.906C145.764 198.93 145.601 198.93 145.527 199.118C145.505 199.168 145.494 199.222 145.494 199.276C145.494 199.33 145.505 199.384 145.527 199.434C145.559 199.488 145.605 199.532 145.661 199.56C145.718 199.588 145.781 199.599 145.843 199.592C145.904 199.575 145.959 199.54 146 199.493C146.042 199.446 146.07 199.388 146.08 199.325C146.089 199.272 146.084 199.218 146.065 199.167C146.046 199.117 146.013 199.073 145.971 199.039C145.813 198.911 145.665 198.94 145.66 198.916C145.656 198.891 145.813 198.797 146.045 198.94C146.113 198.982 146.168 199.042 146.203 199.114C146.238 199.186 146.252 199.266 146.243 199.345C146.243 199.452 146.205 199.557 146.135 199.639C146.066 199.721 145.97 199.775 145.864 199.793C145.758 199.811 145.649 199.791 145.557 199.736C145.464 199.681 145.394 199.595 145.359 199.493C145.329 199.421 145.316 199.342 145.322 199.264C145.328 199.186 145.353 199.111 145.394 199.044C145.419 198.999 145.453 198.959 145.495 198.928C145.537 198.898 145.585 198.876 145.636 198.866C145.73 198.876 145.764 198.891 145.764 198.906Z" fill="#212529"/>
<path d="M135.621 189.174C135.618 189.138 135.618 189.102 135.621 189.065C135.621 188.972 135.621 188.863 135.621 188.735C135.621 188.409 135.621 187.99 135.621 187.476H135.645H141.153L141.187 187.511V189.228H141.153H137.205H136.055H137.215H141.163L141.128 189.263V187.58C141.197 187.654 141.128 187.58 141.163 187.619H135.655V187.595C135.655 188.088 135.655 188.518 135.655 188.838C135.655 188.967 135.655 189.08 135.655 189.174C135.655 189.268 135.621 189.174 135.621 189.174Z" fill="#212529"/>
<path d="M157.047 185.675C157.045 185.637 157.045 185.599 157.047 185.562C157.047 185.468 157.047 185.359 157.047 185.231C157.047 184.91 157.047 184.491 157.047 183.977V183.953H157.072H162.58C162.58 183.953 162.545 183.913 162.614 183.987V185.715H162.58H158.631H157.482H158.636H162.584L162.55 185.754V184.061L162.584 184.096H157.077C157.077 184.589 157.077 185.019 157.077 185.335C157.077 185.468 157.077 185.576 157.077 185.67C157.077 185.764 157.047 185.675 157.047 185.675Z" fill="#212529"/>
<path d="M160.483 171.857C160.483 171.857 160.483 171.822 160.483 171.748V171.417C160.483 171.097 160.483 170.677 160.483 170.159H165.99L166.03 170.194V171.911H165.995H162.047H160.897H162.052H166L165.965 171.946C165.965 171.679 165.965 171.398 165.965 171.116V170.263C166.039 170.337 165.965 170.263 166 170.302H160.492L160.517 170.277C160.517 170.771 160.517 171.205 160.517 171.521V171.857C160.506 171.857 160.494 171.857 160.483 171.857Z" fill="#212529"/>
<path d="M140.678 157.002V156.889C140.678 156.795 140.678 156.687 140.678 156.558C140.678 156.237 140.678 155.818 140.678 155.305H146.19L146.225 155.339V157.052H146.19H142.242H141.092H142.247H146.195L146.161 157.091C146.161 156.82 146.161 156.543 146.161 156.257V155.398L146.2 155.433H140.688H140.712C140.712 155.927 140.712 156.356 140.712 156.672V157.007C140.683 156.958 140.678 157.002 140.678 157.002Z" fill="#212529"/>
<path d="M156.359 141.141C156.356 141.105 156.356 141.069 156.359 141.032C156.359 140.939 156.359 140.83 156.359 140.702C156.359 140.373 156.359 139.953 156.359 139.443H161.866L161.901 139.478V141.195H161.866H157.918H156.768H157.923H161.871L161.837 141.23V139.547C161.906 139.621 161.837 139.547 161.871 139.586H156.364V139.562C156.364 140.055 156.364 140.49 156.364 140.805C156.364 140.934 156.364 141.047 156.364 141.141C156.364 141.235 156.359 141.141 156.359 141.141Z" fill="#212529"/>
<path d="M137.341 158.641C137.339 158.605 137.339 158.568 137.341 158.532V158.202C137.341 157.881 137.341 157.461 137.341 156.948V156.923H137.366H142.873C142.873 156.923 142.839 156.889 142.913 156.963V157.817C142.913 158.103 142.913 158.379 142.913 158.646V158.68H142.878H138.93H137.785H138.94H142.888L142.853 158.715V157.032L142.888 157.066H137.38H137.405C137.405 157.56 137.405 157.989 137.405 158.305C137.405 158.438 137.405 158.547 137.405 158.641C137.384 158.641 137.362 158.641 137.341 158.641Z" fill="#212529"/>
<path d="M162.844 173.52C162.844 173.52 162.844 173.485 162.844 173.411C162.844 173.337 162.844 173.209 162.844 173.081C162.844 172.755 162.844 172.335 162.844 171.822H168.352L168.391 171.857V172.71C168.391 172.992 168.391 173.268 168.391 173.54V173.574H168.357H164.409H163.264H164.419H168.367L168.332 173.609V171.857L168.367 171.891H162.859L162.884 171.867C162.884 172.373 162.884 172.788 162.884 173.11C162.884 173.239 162.884 173.347 162.884 173.446C162.884 173.544 162.844 173.52 162.844 173.52Z" fill="#212529"/>
<path d="M160.483 142.839C160.483 142.839 160.483 142.804 160.483 142.73V142.399C160.483 142.074 160.483 141.654 160.483 141.141H165.99L166.03 141.176V142.893H165.995H162.047H160.897H162.052H166L165.965 142.927C165.965 142.656 165.965 142.38 165.965 142.098V141.245L166 141.279H160.492L160.517 141.255C160.517 141.764 160.517 142.179 160.517 142.498V142.74C160.488 142.794 160.483 142.839 160.483 142.839Z" fill="#212529"/>
<path d="M133.831 190.872C133.829 190.835 133.829 190.799 133.831 190.763C133.831 190.669 133.831 190.561 133.831 190.432C133.831 190.112 133.831 189.692 133.831 189.174H133.856H139.363L139.398 189.208V190.926H139.363H135.415H134.266H135.425H139.373L139.339 190.96V190.131C139.339 189.988 139.339 189.845 139.339 189.702V189.278L139.378 189.317H133.871V189.292C133.871 189.786 133.871 190.22 133.871 190.536C133.871 190.664 133.871 190.778 133.871 190.872H133.831Z" fill="#212529"/>
<path d="M175.006 90.064H134.661V118.147H149.749L154.899 123.744L160.023 118.147H175.006V90.064Z" fill="white"/>
<path d="M175.009 90.064C175.009 90.064 175.009 90.2273 175.009 90.558C175.009 90.8887 175.009 91.3953 175.009 92.0233C175.009 93.3211 175.009 95.2175 175.03 97.6498C175.03 102.54 175.055 109.564 175.076 118.163V118.247H174.988H160.005L160.076 118.214L154.956 123.815L154.881 123.899L154.805 123.815L149.652 118.218L149.731 118.251H134.535V118.142C134.535 108.057 134.535 98.5248 134.535 90.0598V89.9594H134.652L163.827 90.0096L172.079 90.0347H174.256H174.842H175.026H174.833H174.264H172.066L163.794 90.064L134.681 90.1101L134.777 90.0138C134.777 98.4788 134.777 108.015 134.777 118.096L134.669 117.988H149.807L149.836 118.021L154.981 123.623H154.83L159.955 118.025L159.984 117.996H160.03H175.013L174.93 118.084C174.93 109.527 174.963 102.519 174.976 97.6415C174.976 95.2008 174.976 93.2959 174.997 91.994C174.997 91.3493 174.997 90.8552 174.997 90.512C174.997 90.1687 175.009 90.064 175.009 90.064Z" fill="#212529"/>
<path d="M154.676 72.5479C153.11 72.5828 151.583 73.0452 150.261 73.8852C148.939 74.7251 147.872 75.9106 147.175 77.3134C146.477 78.7162 146.177 80.2829 146.306 81.844C146.435 83.4051 146.989 84.9013 147.907 86.1706L147.99 86.2836L154.082 94.5434C154.206 94.7119 154.369 94.8481 154.557 94.9405C154.745 95.0329 154.952 95.0787 155.161 95.0742C155.37 95.0697 155.576 95.0149 155.759 94.9145C155.943 94.8142 156.1 94.6711 156.217 94.4974L161.718 86.3213C162.756 84.7346 163.472 83.0768 163.472 81.1217C163.47 79.9775 163.24 78.8452 162.794 77.7913C162.349 76.7374 161.697 75.7831 160.878 74.9844C160.058 74.1858 159.088 73.5588 158.023 73.1404C156.958 72.722 155.82 72.5205 154.676 72.5479ZM154.881 87.3846C153.604 87.3846 152.355 87.0058 151.292 86.296C150.23 85.5862 149.402 84.5773 148.913 83.397C148.424 82.2166 148.296 80.9178 148.546 79.6647C148.795 78.4117 149.41 77.2607 150.314 76.3573C151.217 75.4538 152.368 74.8386 153.621 74.5894C154.874 74.3401 156.173 74.468 157.353 74.957C158.534 75.4459 159.543 76.2738 160.252 77.3361C160.962 78.3984 161.341 79.6473 161.341 80.9249C161.341 82.6382 160.66 84.2812 159.449 85.4926C158.238 86.7041 156.594 87.3846 154.881 87.3846Z" fill="#F36B31"/>
<g opacity="0.3">
<path d="M154.676 72.5479C153.11 72.5828 151.583 73.0452 150.261 73.8852C148.939 74.7251 147.872 75.9106 147.175 77.3134C146.477 78.7162 146.177 80.2829 146.306 81.844C146.435 83.4051 146.989 84.9013 147.907 86.1706L147.99 86.2836L154.082 94.5434C154.206 94.7119 154.369 94.8481 154.557 94.9405C154.745 95.0329 154.952 95.0787 155.161 95.0742C155.37 95.0697 155.576 95.0149 155.759 94.9145C155.943 94.8142 156.1 94.6711 156.217 94.4974L161.718 86.3213C162.756 84.7346 163.472 83.0768 163.472 81.1217C163.47 79.9775 163.24 78.8452 162.794 77.7913C162.349 76.7374 161.697 75.7831 160.878 74.9844C160.058 74.1858 159.088 73.5588 158.023 73.1404C156.958 72.722 155.82 72.5205 154.676 72.5479ZM154.881 87.3846C153.604 87.3846 152.355 87.0058 151.292 86.296C150.23 85.5862 149.402 84.5773 148.913 83.397C148.424 82.2166 148.296 80.9178 148.546 79.6647C148.795 78.4117 149.41 77.2607 150.314 76.3573C151.217 75.4538 152.368 74.8386 153.621 74.5894C154.874 74.3401 156.173 74.468 157.353 74.957C158.534 75.4459 159.543 76.2738 160.252 77.3361C160.962 78.3984 161.341 79.6473 161.341 80.9249C161.341 82.6382 160.66 84.2812 159.449 85.4926C158.238 86.7041 156.594 87.3846 154.881 87.3846Z" fill="#212529"/>
</g>
<path d="M154.166 72.5479C152.6 72.5828 151.073 73.0452 149.751 73.8852C148.429 74.7251 147.361 75.9106 146.664 77.3134C145.967 78.7162 145.667 80.2829 145.796 81.844C145.925 83.4051 146.479 84.9013 147.397 86.1706L147.48 86.2836L153.572 94.5434C153.696 94.712 153.859 94.8481 154.048 94.9404C154.236 95.0328 154.443 95.0786 154.653 95.0741C154.863 95.0696 155.068 95.0148 155.252 94.9145C155.436 94.8142 155.593 94.6711 155.711 94.4974L161.208 86.3213C162.25 84.7346 162.962 83.0768 162.962 81.1217C162.96 79.9775 162.729 78.8452 162.284 77.7913C161.838 76.7374 161.187 75.7831 160.368 74.9844C159.548 74.1858 158.578 73.5588 157.513 73.1404C156.448 72.722 155.31 72.5205 154.166 72.5479ZM154.371 86.2208C153.403 86.2216 152.456 85.9353 151.651 85.398C150.846 84.8608 150.218 84.0968 149.847 83.2026C149.476 82.3084 149.378 81.3243 149.567 80.3746C149.755 79.425 150.221 78.5526 150.905 77.8678C151.589 77.1829 152.461 76.7164 153.411 76.5272C154.36 76.3381 155.344 76.4347 156.239 76.805C157.133 77.1753 157.898 77.8026 158.436 78.6075C158.974 79.4124 159.261 80.3587 159.261 81.3268C159.261 82.6241 158.746 83.8682 157.829 84.7859C156.912 85.7036 155.668 86.2197 154.371 86.2208Z" fill="#F36B31"/>
<path d="M138.853 102.953H138.513L139.03 101.455H139.438L139.955 102.953H139.616L139.24 101.797H139.229L138.853 102.953ZM138.831 102.364H139.633V102.611H138.831V102.364ZM140.666 102.953H140.135V101.455H140.671C140.821 101.455 140.951 101.485 141.06 101.545C141.169 101.604 141.252 101.69 141.311 101.801C141.37 101.913 141.399 102.047 141.399 102.202C141.399 102.358 141.37 102.492 141.311 102.605C141.252 102.717 141.168 102.803 141.058 102.863C140.949 102.923 140.819 102.953 140.666 102.953ZM140.452 102.681H140.653C140.747 102.681 140.826 102.665 140.889 102.632C140.954 102.598 141.002 102.546 141.034 102.476C141.067 102.405 141.083 102.314 141.083 102.202C141.083 102.091 141.067 102.001 141.034 101.931C141.002 101.861 140.954 101.809 140.89 101.776C140.826 101.743 140.748 101.726 140.654 101.726H140.452V102.681ZM142.165 102.953H141.634V101.455H142.169C142.32 101.455 142.45 101.485 142.559 101.545C142.667 101.604 142.751 101.69 142.81 101.801C142.869 101.913 142.898 102.047 142.898 102.202C142.898 102.358 142.869 102.492 142.81 102.605C142.751 102.717 142.667 102.803 142.557 102.863C142.448 102.923 142.317 102.953 142.165 102.953ZM141.951 102.681H142.152C142.246 102.681 142.324 102.665 142.388 102.632C142.453 102.598 142.501 102.546 142.533 102.476C142.566 102.405 142.582 102.314 142.582 102.202C142.582 102.091 142.566 102.001 142.533 101.931C142.501 101.861 142.453 101.809 142.389 101.776C142.325 101.743 142.246 101.726 142.153 101.726H141.951V102.681ZM143.133 102.953V101.455H143.724C143.837 101.455 143.934 101.475 144.013 101.515C144.094 101.555 144.155 101.612 144.197 101.686C144.24 101.759 144.261 101.845 144.261 101.944C144.261 102.043 144.239 102.129 144.196 102.201C144.153 102.272 144.091 102.327 144.01 102.365C143.929 102.403 143.831 102.422 143.716 102.422H143.32V102.167H143.665C143.725 102.167 143.775 102.159 143.815 102.142C143.855 102.126 143.885 102.101 143.904 102.068C143.924 102.034 143.934 101.993 143.934 101.944C143.934 101.894 143.924 101.852 143.904 101.818C143.885 101.784 143.855 101.758 143.815 101.741C143.775 101.723 143.724 101.714 143.663 101.714H143.449V102.953H143.133ZM143.942 102.271L144.314 102.953H143.964L143.6 102.271H143.942ZM144.485 102.953V101.455H145.494V101.716H144.801V102.073H145.442V102.334H144.801V102.692H145.497V102.953H144.485ZM146.559 101.885C146.553 101.826 146.528 101.781 146.483 101.748C146.439 101.715 146.379 101.699 146.303 101.699C146.251 101.699 146.207 101.706 146.172 101.721C146.136 101.735 146.109 101.755 146.09 101.78C146.071 101.805 146.062 101.834 146.062 101.866C146.061 101.893 146.067 101.917 146.079 101.937C146.091 101.957 146.109 101.974 146.131 101.989C146.153 102.003 146.178 102.015 146.207 102.026C146.236 102.036 146.266 102.045 146.299 102.052L146.434 102.084C146.499 102.099 146.559 102.119 146.614 102.143C146.668 102.167 146.715 102.197 146.755 102.233C146.795 102.269 146.826 102.31 146.848 102.359C146.871 102.407 146.882 102.462 146.883 102.525C146.882 102.616 146.859 102.696 146.813 102.763C146.767 102.83 146.7 102.882 146.614 102.919C146.527 102.956 146.423 102.974 146.301 102.974C146.18 102.974 146.075 102.955 145.985 102.918C145.896 102.881 145.826 102.826 145.776 102.754C145.726 102.681 145.7 102.59 145.698 102.482H146.004C146.008 102.533 146.022 102.575 146.047 102.608C146.073 102.641 146.108 102.666 146.15 102.684C146.194 102.7 146.243 102.708 146.298 102.708C146.351 102.708 146.398 102.701 146.437 102.685C146.477 102.669 146.508 102.648 146.53 102.62C146.552 102.592 146.563 102.56 146.563 102.524C146.563 102.49 146.553 102.462 146.533 102.439C146.514 102.416 146.485 102.397 146.447 102.381C146.409 102.365 146.363 102.35 146.309 102.337L146.145 102.296C146.019 102.265 145.919 102.217 145.846 102.152C145.773 102.086 145.737 101.998 145.737 101.888C145.737 101.797 145.761 101.718 145.81 101.65C145.859 101.582 145.926 101.529 146.012 101.491C146.098 101.453 146.196 101.434 146.305 101.434C146.416 101.434 146.513 101.453 146.596 101.491C146.679 101.529 146.744 101.582 146.791 101.65C146.837 101.718 146.861 101.796 146.862 101.885H146.559ZM147.909 101.885C147.903 101.826 147.878 101.781 147.833 101.748C147.789 101.715 147.729 101.699 147.653 101.699C147.601 101.699 147.557 101.706 147.522 101.721C147.486 101.735 147.459 101.755 147.44 101.78C147.421 101.805 147.412 101.834 147.412 101.866C147.411 101.893 147.416 101.917 147.429 101.937C147.441 101.957 147.459 101.974 147.481 101.989C147.503 102.003 147.528 102.015 147.557 102.026C147.585 102.036 147.616 102.045 147.649 102.052L147.783 102.084C147.849 102.099 147.909 102.119 147.963 102.143C148.018 102.167 148.065 102.197 148.105 102.233C148.145 102.269 148.176 102.31 148.198 102.359C148.221 102.407 148.232 102.462 148.233 102.525C148.232 102.616 148.209 102.696 148.162 102.763C148.117 102.83 148.05 102.882 147.963 102.919C147.877 102.956 147.773 102.974 147.651 102.974C147.53 102.974 147.425 102.955 147.335 102.918C147.246 102.881 147.176 102.826 147.126 102.754C147.076 102.681 147.05 102.59 147.048 102.482H147.354C147.357 102.533 147.372 102.575 147.397 102.608C147.423 102.641 147.457 102.666 147.5 102.684C147.544 102.7 147.593 102.708 147.647 102.708C147.701 102.708 147.748 102.701 147.787 102.685C147.827 102.669 147.858 102.648 147.88 102.62C147.902 102.592 147.913 102.56 147.913 102.524C147.913 102.49 147.903 102.462 147.883 102.439C147.863 102.416 147.835 102.397 147.797 102.381C147.759 102.365 147.713 102.35 147.658 102.337L147.495 102.296C147.369 102.265 147.269 102.217 147.196 102.152C147.123 102.086 147.087 101.998 147.087 101.888C147.087 101.797 147.111 101.718 147.159 101.65C147.209 101.582 147.276 101.529 147.362 101.491C147.448 101.453 147.545 101.434 147.655 101.434C147.766 101.434 147.863 101.453 147.946 101.491C148.029 101.529 148.094 101.582 148.14 101.65C148.187 101.718 148.211 101.796 148.212 101.885H147.909ZM148.622 102.779C148.574 102.779 148.532 102.762 148.498 102.727C148.463 102.693 148.446 102.652 148.446 102.603C148.446 102.555 148.463 102.514 148.498 102.48C148.532 102.446 148.574 102.429 148.622 102.429C148.669 102.429 148.71 102.446 148.745 102.48C148.78 102.514 148.798 102.555 148.798 102.603C148.798 102.635 148.789 102.665 148.773 102.692C148.757 102.718 148.735 102.739 148.709 102.755C148.683 102.771 148.654 102.779 148.622 102.779ZM148.622 102.043C148.574 102.043 148.532 102.026 148.498 101.992C148.463 101.958 148.446 101.917 148.446 101.868C148.446 101.82 148.463 101.779 148.498 101.746C148.532 101.712 148.574 101.695 148.622 101.695C148.669 101.695 148.71 101.712 148.745 101.746C148.78 101.779 148.798 101.82 148.798 101.868C148.798 101.901 148.789 101.93 148.773 101.957C148.757 101.983 148.735 102.004 148.709 102.02C148.683 102.036 148.654 102.043 148.622 102.043Z" fill="#212529"/>
<path d="M146.245 112.416H145.925C145.919 112.375 145.907 112.338 145.889 112.306C145.871 112.273 145.848 112.245 145.819 112.222C145.791 112.199 145.758 112.182 145.721 112.169C145.685 112.157 145.645 112.151 145.602 112.151C145.524 112.151 145.457 112.17 145.399 112.209C145.342 112.247 145.297 112.303 145.266 112.376C145.234 112.448 145.218 112.537 145.218 112.641C145.218 112.747 145.234 112.837 145.266 112.91C145.298 112.982 145.343 113.037 145.4 113.074C145.458 113.111 145.524 113.13 145.6 113.13C145.642 113.13 145.682 113.124 145.718 113.113C145.754 113.102 145.787 113.086 145.815 113.064C145.843 113.042 145.867 113.016 145.885 112.984C145.904 112.953 145.917 112.918 145.925 112.878L146.245 112.879C146.237 112.948 146.216 113.014 146.183 113.078C146.15 113.141 146.106 113.198 146.05 113.248C145.995 113.298 145.929 113.338 145.853 113.367C145.777 113.396 145.691 113.41 145.595 113.41C145.461 113.41 145.342 113.38 145.236 113.319C145.131 113.259 145.048 113.171 144.988 113.057C144.927 112.942 144.897 112.803 144.897 112.641C144.897 112.477 144.928 112.338 144.989 112.224C145.05 112.109 145.134 112.022 145.239 111.962C145.345 111.901 145.463 111.871 145.595 111.871C145.682 111.871 145.762 111.883 145.836 111.908C145.911 111.932 145.977 111.968 146.034 112.014C146.092 112.061 146.139 112.118 146.175 112.185C146.211 112.252 146.235 112.329 146.245 112.416ZM147.849 112.641C147.849 112.804 147.818 112.943 147.756 113.058C147.695 113.172 147.611 113.26 147.504 113.32C147.399 113.38 147.28 113.41 147.147 113.41C147.014 113.41 146.895 113.38 146.789 113.319C146.683 113.259 146.599 113.171 146.538 113.057C146.477 112.942 146.446 112.803 146.446 112.641C146.446 112.477 146.477 112.338 146.538 112.224C146.599 112.109 146.683 112.022 146.789 111.962C146.895 111.901 147.014 111.871 147.147 111.871C147.28 111.871 147.399 111.901 147.504 111.962C147.611 112.022 147.695 112.109 147.756 112.224C147.818 112.338 147.849 112.477 147.849 112.641ZM147.528 112.641C147.528 112.535 147.512 112.445 147.48 112.373C147.449 112.3 147.405 112.245 147.348 112.207C147.291 112.17 147.224 112.151 147.147 112.151C147.071 112.151 147.004 112.17 146.947 112.207C146.89 112.245 146.846 112.3 146.814 112.373C146.783 112.445 146.767 112.535 146.767 112.641C146.767 112.746 146.783 112.836 146.814 112.908C146.846 112.981 146.89 113.036 146.947 113.074C147.004 113.111 147.071 113.13 147.147 113.13C147.224 113.13 147.291 113.111 147.348 113.074C147.405 113.036 147.449 112.981 147.48 112.908C147.512 112.836 147.528 112.746 147.528 112.641ZM148.615 113.39H148.084V111.891H148.619C148.77 111.891 148.899 111.921 149.008 111.981C149.117 112.041 149.201 112.127 149.259 112.238C149.318 112.35 149.348 112.484 149.348 112.639C149.348 112.795 149.318 112.929 149.259 113.041C149.201 113.154 149.116 113.24 149.007 113.3C148.898 113.36 148.767 113.39 148.615 113.39ZM148.4 113.118H148.601C148.695 113.118 148.774 113.102 148.838 113.069C148.902 113.035 148.95 112.983 148.983 112.913C149.015 112.842 149.032 112.751 149.032 112.639C149.032 112.528 149.015 112.438 148.983 112.368C148.95 112.297 148.902 112.246 148.839 112.213C148.775 112.179 148.696 112.163 148.602 112.163H148.4V113.118ZM149.582 113.39V111.891H150.592V112.153H149.899V112.51H150.54V112.771H149.899V113.128H150.595V113.39H149.582ZM151.497 113.216C151.448 113.216 151.407 113.198 151.372 113.164C151.338 113.13 151.321 113.089 151.321 113.04C151.321 112.992 151.338 112.951 151.372 112.917C151.407 112.883 151.448 112.866 151.497 112.866C151.544 112.866 151.585 112.883 151.62 112.917C151.655 112.951 151.672 112.992 151.672 113.04C151.672 113.072 151.664 113.102 151.647 113.128C151.631 113.155 151.61 113.176 151.584 113.192C151.557 113.208 151.528 113.216 151.497 113.216ZM151.497 112.48C151.448 112.48 151.407 112.463 151.372 112.429C151.338 112.395 151.321 112.354 151.321 112.305C151.321 112.257 151.338 112.216 151.372 112.183C151.407 112.148 151.448 112.131 151.497 112.131C151.544 112.131 151.585 112.148 151.62 112.183C151.655 112.216 151.672 112.257 151.672 112.305C151.672 112.337 151.664 112.367 151.647 112.394C151.631 112.42 151.61 112.441 151.584 112.457C151.557 112.473 151.528 112.48 151.497 112.48Z" fill="#212529"/>
<path d="M139.916 105.198H139.596C139.59 105.157 139.578 105.12 139.56 105.088C139.542 105.055 139.519 105.028 139.49 105.005C139.462 104.982 139.429 104.964 139.392 104.952C139.356 104.94 139.316 104.934 139.273 104.934C139.196 104.934 139.128 104.953 139.071 104.991C139.013 105.029 138.968 105.085 138.937 105.158C138.905 105.231 138.889 105.319 138.889 105.423C138.889 105.53 138.905 105.62 138.937 105.692C138.969 105.765 139.014 105.82 139.071 105.857C139.129 105.894 139.195 105.912 139.271 105.912C139.313 105.912 139.353 105.907 139.389 105.896C139.425 105.884 139.458 105.868 139.486 105.847C139.514 105.825 139.538 105.798 139.556 105.767C139.575 105.736 139.588 105.7 139.596 105.66L139.916 105.662C139.908 105.73 139.887 105.797 139.854 105.86C139.821 105.924 139.777 105.981 139.722 106.031C139.666 106.081 139.601 106.12 139.524 106.149C139.448 106.178 139.362 106.193 139.266 106.193C139.132 106.193 139.013 106.162 138.907 106.102C138.803 106.041 138.72 105.954 138.659 105.839C138.598 105.725 138.568 105.586 138.568 105.423C138.568 105.26 138.599 105.121 138.66 105.006C138.722 104.891 138.805 104.804 138.91 104.744C139.016 104.684 139.134 104.653 139.266 104.653C139.353 104.653 139.433 104.666 139.507 104.69C139.582 104.714 139.648 104.75 139.705 104.797C139.763 104.843 139.81 104.9 139.846 104.967C139.883 105.035 139.906 105.112 139.916 105.198ZM140.46 104.674V106.172H140.143V104.674H140.46ZM140.664 104.935V104.674H141.894V104.935H141.435V106.172H141.122V104.935H140.664ZM142.009 104.674H142.364L142.705 105.319H142.72L143.062 104.674H143.416L142.87 105.642V106.172H142.555V105.642L142.009 104.674ZM143.637 105.998C143.589 105.998 143.547 105.981 143.513 105.947C143.478 105.913 143.461 105.871 143.461 105.822C143.461 105.775 143.478 105.734 143.513 105.7C143.547 105.665 143.589 105.648 143.637 105.648C143.684 105.648 143.725 105.665 143.76 105.7C143.795 105.734 143.813 105.775 143.813 105.822C143.813 105.855 143.804 105.884 143.788 105.911C143.772 105.937 143.75 105.959 143.724 105.975C143.698 105.99 143.669 105.998 143.637 105.998ZM143.637 105.263C143.589 105.263 143.547 105.246 143.513 105.212C143.478 105.177 143.461 105.136 143.461 105.087C143.461 105.039 143.478 104.999 143.513 104.965C143.547 104.931 143.589 104.914 143.637 104.914C143.684 104.914 143.725 104.931 143.76 104.965C143.795 104.999 143.813 105.039 143.813 105.087C143.813 105.12 143.804 105.15 143.788 105.177C143.772 105.203 143.75 105.224 143.724 105.239C143.698 105.255 143.669 105.263 143.637 105.263Z" fill="#212529"/>
<path d="M150.26 100.733V98.5507H151.121C151.286 98.5507 151.426 98.5802 151.543 98.6391C151.66 98.6974 151.749 98.7801 151.81 98.8874C151.872 98.9939 151.903 99.1193 151.903 99.2634C151.903 99.4083 151.872 99.533 151.809 99.6374C151.747 99.7411 151.656 99.8206 151.538 99.876C151.42 99.9314 151.277 99.9591 151.109 99.9591H150.533V99.5884H151.035C151.123 99.5884 151.196 99.5763 151.254 99.5521C151.312 99.528 151.356 99.4918 151.384 99.4435C151.413 99.3952 151.428 99.3352 151.428 99.2634C151.428 99.191 151.413 99.1299 151.384 99.0802C151.356 99.0305 151.312 98.9928 151.253 98.9673C151.195 98.941 151.121 98.9279 151.033 98.9279H150.722V100.733H150.26ZM151.438 99.7396L151.981 100.733H151.472L150.941 99.7396H151.438ZM152.01 98.5507H152.527L153.025 99.4904H153.046L153.543 98.5507H154.06L153.264 99.9612V100.733H152.806V99.9612L152.01 98.5507ZM150.636 104.733H150.142L150.895 102.551H151.49L152.242 104.733H151.747L151.201 103.049H151.184L150.636 104.733ZM150.605 103.875H151.773V104.235H150.605V103.875ZM153.278 104.733H152.504V102.551H153.284C153.504 102.551 153.693 102.594 153.851 102.682C154.009 102.768 154.131 102.893 154.216 103.056C154.302 103.218 154.345 103.413 154.345 103.64C154.345 103.867 154.302 104.062 154.216 104.225C154.131 104.389 154.009 104.514 153.849 104.602C153.69 104.689 153.499 104.733 153.278 104.733ZM152.966 104.337H153.259C153.395 104.337 153.51 104.313 153.603 104.265C153.696 104.216 153.767 104.14 153.814 104.038C153.861 103.935 153.885 103.802 153.885 103.64C153.885 103.478 153.861 103.347 153.814 103.244C153.767 103.142 153.697 103.067 153.604 103.018C153.511 102.97 153.396 102.946 153.26 102.946H152.966V104.337ZM155.46 104.733H154.687V102.551H155.467C155.686 102.551 155.875 102.594 156.034 102.682C156.192 102.768 156.314 102.893 156.399 103.056C156.485 103.218 156.528 103.413 156.528 103.64C156.528 103.867 156.485 104.062 156.399 104.225C156.314 104.389 156.191 104.514 156.031 104.602C155.872 104.689 155.682 104.733 155.46 104.733ZM155.148 104.337H155.441C155.578 104.337 155.692 104.313 155.785 104.265C155.879 104.216 155.949 104.14 155.996 104.038C156.044 103.935 156.068 103.802 156.068 103.64C156.068 103.478 156.044 103.347 155.996 103.244C155.949 103.142 155.879 103.067 155.786 103.018C155.693 102.97 155.579 102.946 155.442 102.946H155.148V104.337ZM156.87 104.733V102.551H157.73C157.895 102.551 158.036 102.58 158.152 102.639C158.269 102.697 158.359 102.78 158.42 102.887C158.481 102.994 158.512 103.119 158.512 103.263C158.512 103.408 158.481 103.533 158.419 103.637C158.356 103.741 158.266 103.821 158.147 103.876C158.029 103.931 157.886 103.959 157.719 103.959H157.142V103.588H157.644C157.732 103.588 157.805 103.576 157.864 103.552C157.922 103.528 157.965 103.492 157.994 103.443C158.023 103.395 158.037 103.335 158.037 103.263C158.037 103.191 158.023 103.13 157.994 103.08C157.965 103.03 157.921 102.993 157.862 102.967C157.804 102.941 157.731 102.928 157.642 102.928H157.331V104.733H156.87ZM158.048 103.74L158.59 104.733H158.081L157.55 103.74H158.048ZM158.838 104.733V102.551H160.309V102.931H159.3V103.451H160.233V103.831H159.3V104.352H160.313V104.733H158.838ZM161.859 103.178C161.85 103.092 161.814 103.026 161.749 102.978C161.684 102.93 161.597 102.907 161.486 102.907C161.411 102.907 161.347 102.917 161.295 102.939C161.243 102.959 161.204 102.988 161.176 103.025C161.149 103.062 161.135 103.104 161.135 103.151C161.134 103.19 161.142 103.224 161.16 103.253C161.178 103.282 161.204 103.307 161.236 103.328C161.268 103.349 161.305 103.367 161.346 103.383C161.388 103.398 161.433 103.41 161.481 103.421L161.677 103.468C161.772 103.489 161.859 103.518 161.939 103.553C162.018 103.589 162.087 103.632 162.145 103.684C162.204 103.736 162.249 103.797 162.281 103.867C162.313 103.938 162.33 104.018 162.331 104.109C162.33 104.243 162.296 104.359 162.229 104.457C162.162 104.554 162.065 104.63 161.939 104.684C161.813 104.737 161.661 104.763 161.484 104.763C161.308 104.763 161.154 104.736 161.024 104.682C160.894 104.628 160.792 104.549 160.719 104.443C160.646 104.336 160.608 104.204 160.605 104.048H161.051C161.056 104.121 161.077 104.182 161.114 104.231C161.152 104.279 161.202 104.316 161.264 104.34C161.328 104.365 161.399 104.377 161.479 104.377C161.557 104.377 161.624 104.365 161.682 104.343C161.74 104.32 161.785 104.288 161.817 104.248C161.849 104.207 161.865 104.161 161.865 104.108C161.865 104.059 161.851 104.018 161.822 103.985C161.793 103.951 161.751 103.923 161.696 103.899C161.641 103.876 161.574 103.855 161.495 103.836L161.257 103.776C161.073 103.731 160.928 103.661 160.821 103.566C160.715 103.471 160.662 103.343 160.662 103.181C160.662 103.049 160.697 102.934 160.768 102.835C160.84 102.736 160.938 102.659 161.063 102.604C161.188 102.549 161.33 102.521 161.489 102.521C161.651 102.521 161.792 102.549 161.913 102.604C162.035 102.659 162.129 102.736 162.197 102.835C162.264 102.934 162.299 103.048 162.301 103.178H161.859ZM163.825 103.178C163.816 103.092 163.78 103.026 163.715 102.978C163.65 102.93 163.563 102.907 163.452 102.907C163.377 102.907 163.313 102.917 163.261 102.939C163.209 102.959 163.169 102.988 163.142 103.025C163.115 103.062 163.101 103.104 163.101 103.151C163.1 103.19 163.108 103.224 163.126 103.253C163.144 103.282 163.169 103.307 163.201 103.328C163.233 103.349 163.27 103.367 163.312 103.383C163.354 103.398 163.399 103.41 163.446 103.421L163.642 103.468C163.738 103.489 163.825 103.518 163.905 103.553C163.984 103.589 164.053 103.632 164.111 103.684C164.169 103.736 164.215 103.797 164.247 103.867C164.279 103.938 164.296 104.018 164.297 104.109C164.296 104.243 164.262 104.359 164.194 104.457C164.128 104.554 164.031 104.63 163.905 104.684C163.779 104.737 163.627 104.763 163.45 104.763C163.274 104.763 163.12 104.736 162.989 104.682C162.859 104.628 162.758 104.549 162.685 104.443C162.612 104.336 162.574 104.204 162.571 104.048H163.017C163.022 104.121 163.043 104.182 163.08 104.231C163.118 104.279 163.168 104.316 163.23 104.34C163.293 104.365 163.365 104.377 163.444 104.377C163.522 104.377 163.59 104.365 163.648 104.343C163.706 104.32 163.751 104.288 163.783 104.248C163.815 104.207 163.831 104.161 163.831 104.108C163.831 104.059 163.817 104.018 163.787 103.985C163.759 103.951 163.717 103.923 163.662 103.899C163.607 103.876 163.54 103.855 163.46 103.836L163.223 103.776C163.039 103.731 162.894 103.661 162.787 103.566C162.68 103.471 162.628 103.343 162.628 103.181C162.628 103.049 162.663 102.934 162.734 102.835C162.805 102.736 162.904 102.659 163.029 102.604C163.154 102.549 163.296 102.521 163.455 102.521C163.617 102.521 163.758 102.549 163.879 102.604C164 102.659 164.095 102.736 164.162 102.835C164.23 102.934 164.265 103.048 164.267 103.178H163.825Z" fill="#212529"/>
<path d="M169.189 101.941C169.189 102 165.203 102.05 160.284 102.05C155.365 102.05 151.375 102 151.375 101.941C151.375 101.882 155.365 101.832 160.284 101.832C165.203 101.832 169.189 101.878 169.189 101.941Z" fill="#212529"/>
<path d="M160.844 105.508C160.844 105.567 157.549 105.617 153.484 105.617C149.419 105.617 146.129 105.567 146.129 105.508C146.129 105.449 149.423 105.399 153.484 105.399C157.545 105.399 160.844 105.449 160.844 105.508Z" fill="#212529"/>
<path d="M139.916 108.665H139.596C139.59 108.623 139.578 108.587 139.56 108.554C139.542 108.522 139.519 108.494 139.49 108.471C139.462 108.448 139.429 108.431 139.392 108.418C139.356 108.406 139.316 108.4 139.273 108.4C139.196 108.4 139.128 108.419 139.071 108.458C139.013 108.496 138.968 108.551 138.937 108.625C138.905 108.697 138.889 108.786 138.889 108.889C138.889 108.996 138.905 109.086 138.937 109.159C138.969 109.231 139.014 109.286 139.071 109.323C139.129 109.36 139.195 109.379 139.271 109.379C139.313 109.379 139.353 109.373 139.389 109.362C139.425 109.351 139.458 109.334 139.486 109.313C139.514 109.291 139.538 109.264 139.556 109.233C139.575 109.202 139.588 109.166 139.596 109.126L139.916 109.128C139.908 109.197 139.887 109.263 139.854 109.327C139.821 109.39 139.777 109.447 139.722 109.497C139.666 109.547 139.601 109.587 139.524 109.616C139.448 109.645 139.362 109.659 139.266 109.659C139.132 109.659 139.013 109.629 138.907 109.568C138.803 109.508 138.72 109.42 138.659 109.306C138.598 109.191 138.568 109.052 138.568 108.889C138.568 108.726 138.599 108.587 138.66 108.472C138.722 108.358 138.805 108.271 138.91 108.211C139.016 108.15 139.134 108.12 139.266 108.12C139.353 108.12 139.433 108.132 139.507 108.156C139.582 108.181 139.648 108.216 139.705 108.263C139.763 108.31 139.81 108.366 139.846 108.434C139.883 108.501 139.906 108.578 139.916 108.665ZM141.52 108.889C141.52 109.053 141.489 109.192 141.427 109.306C141.366 109.421 141.282 109.509 141.176 109.569C141.07 109.629 140.951 109.659 140.819 109.659C140.685 109.659 140.566 109.629 140.46 109.568C140.354 109.508 140.271 109.42 140.209 109.306C140.148 109.191 140.117 109.052 140.117 108.889C140.117 108.726 140.148 108.587 140.209 108.472C140.271 108.358 140.354 108.271 140.46 108.211C140.566 108.15 140.685 108.12 140.819 108.12C140.951 108.12 141.07 108.15 141.176 108.211C141.282 108.271 141.366 108.358 141.427 108.472C141.489 108.587 141.52 108.726 141.52 108.889ZM141.199 108.889C141.199 108.784 141.183 108.694 141.151 108.622C141.12 108.549 141.076 108.494 141.019 108.456C140.962 108.419 140.895 108.4 140.819 108.4C140.742 108.4 140.675 108.419 140.618 108.456C140.561 108.494 140.517 108.549 140.485 108.622C140.454 108.694 140.438 108.784 140.438 108.889C140.438 108.995 140.454 109.085 140.485 109.157C140.517 109.23 140.561 109.285 140.618 109.323C140.675 109.36 140.742 109.379 140.819 109.379C140.895 109.379 140.962 109.36 141.019 109.323C141.076 109.285 141.12 109.23 141.151 109.157C141.183 109.085 141.199 108.995 141.199 108.889ZM142.68 108.14H142.997V109.113C142.997 109.223 142.971 109.318 142.919 109.4C142.867 109.482 142.794 109.546 142.701 109.592C142.608 109.637 142.5 109.66 142.376 109.66C142.251 109.66 142.143 109.637 142.05 109.592C141.956 109.546 141.884 109.482 141.832 109.4C141.781 109.318 141.755 109.223 141.755 109.113V108.14H142.071V109.086C142.071 109.143 142.084 109.194 142.109 109.238C142.134 109.283 142.17 109.318 142.216 109.343C142.261 109.368 142.315 109.381 142.376 109.381C142.437 109.381 142.491 109.368 142.536 109.343C142.582 109.318 142.617 109.283 142.642 109.238C142.667 109.194 142.68 109.143 142.68 109.086V108.14ZM144.511 108.14V109.639H144.237L143.585 108.696H143.574V109.639H143.257V108.14H143.535L144.182 109.083H144.195V108.14H144.511ZM144.715 108.402V108.14H145.946V108.402H145.487V109.639H145.174V108.402H144.715ZM146.148 109.639V108.14H146.739C146.853 108.14 146.949 108.161 147.029 108.201C147.11 108.241 147.171 108.298 147.213 108.372C147.255 108.445 147.276 108.531 147.276 108.63C147.276 108.729 147.255 108.815 147.212 108.887C147.169 108.958 147.107 109.012 147.025 109.05C146.944 109.088 146.846 109.107 146.731 109.107H146.336V108.853H146.68C146.741 108.853 146.791 108.845 146.831 108.828C146.871 108.811 146.901 108.787 146.92 108.753C146.94 108.72 146.95 108.679 146.95 108.63C146.95 108.58 146.94 108.538 146.92 108.504C146.901 108.47 146.871 108.444 146.83 108.426C146.79 108.408 146.74 108.399 146.679 108.399H146.465V109.639H146.148ZM146.957 108.957L147.33 109.639H146.98L146.616 108.957H146.957ZM147.35 108.14H147.705L148.046 108.786H148.061L148.403 108.14H148.757L148.211 109.109V109.639H147.896V109.109L147.35 108.14ZM148.978 109.464C148.93 109.464 148.888 109.447 148.854 109.413C148.82 109.379 148.802 109.338 148.802 109.289C148.802 109.241 148.82 109.2 148.854 109.166C148.888 109.132 148.93 109.115 148.978 109.115C149.025 109.115 149.066 109.132 149.101 109.166C149.136 109.2 149.154 109.241 149.154 109.289C149.154 109.321 149.145 109.351 149.129 109.377C149.113 109.404 149.091 109.425 149.065 109.441C149.039 109.457 149.01 109.464 148.978 109.464ZM148.978 108.729C148.93 108.729 148.888 108.712 148.854 108.678C148.82 108.644 148.802 108.602 148.802 108.554C148.802 108.506 148.82 108.465 148.854 108.432C148.888 108.397 148.93 108.38 148.978 108.38C149.025 108.38 149.066 108.397 149.101 108.432C149.136 108.465 149.154 108.506 149.154 108.554C149.154 108.586 149.145 108.616 149.129 108.643C149.113 108.669 149.091 108.69 149.065 108.706C149.039 108.721 149.01 108.729 148.978 108.729Z" fill="#212529"/>
<path d="M162.314 109.217C162.314 109.28 159.865 109.326 156.847 109.326C153.829 109.326 151.375 109.28 151.375 109.217C151.375 109.154 153.824 109.108 156.847 109.108C159.87 109.108 162.314 109.158 162.314 109.217Z" fill="#212529"/>
<path d="M170.735 113.508C170.735 113.571 166.967 113.617 162.316 113.617C157.665 113.617 153.914 113.571 153.914 113.508C153.914 113.445 157.681 113.399 162.333 113.399C166.984 113.399 170.735 113.45 170.735 113.508Z" fill="#212529"/>
<path d="M83.5867 173.859C83.2694 173.902 82.9463 173.866 82.6466 173.753C82.3468 173.641 82.0797 173.456 81.8692 173.214C81.7616 173.09 81.584 173.273 81.6909 173.396C81.9247 173.662 82.22 173.866 82.5509 173.991C82.8818 174.116 83.2384 174.158 83.5894 174.114C83.6228 174.113 83.6544 174.098 83.6778 174.075C83.7013 174.051 83.7147 174.019 83.7154 173.985C83.7149 173.951 83.7011 173.919 83.677 173.896C83.6529 173.872 83.6204 173.859 83.5867 173.859Z" fill="white"/>
<path d="M48.9099 142.379C48.8798 142.511 48.8602 142.645 48.8513 142.781L38.3222 148.855L35.7629 147.382L33.0346 150.953L37.3118 154.002C37.6573 154.248 38.0734 154.376 38.4976 154.365C38.9218 154.355 39.3312 154.207 39.6643 153.945L50.5217 145.379C51.0117 145.56 51.5453 145.588 52.0515 145.459C52.5577 145.33 53.0126 145.049 53.3556 144.655C53.6986 144.261 53.9135 143.772 53.9717 143.253C54.0299 142.734 53.9287 142.209 53.6814 141.749C53.4342 141.288 53.0527 140.914 52.5876 140.676C52.1226 140.438 51.596 140.347 51.078 140.415C50.5601 140.484 50.0752 140.708 49.6879 141.059C49.3006 141.41 49.0292 141.87 48.9099 142.379Z" fill="#FFB6B6"/>
<path d="M38.1761 148.184C38.1427 148.029 38.0763 147.883 37.9813 147.756C37.8864 147.629 37.7652 147.524 37.626 147.449L32.7649 144.8C32.1176 144.311 31.3029 144.099 30.4995 144.211C29.6961 144.322 28.9697 144.747 28.4794 145.393C27.9891 146.039 27.7751 146.853 27.8843 147.657C27.9934 148.461 28.4168 149.188 29.0615 149.68L32.9576 153.638C33.0688 153.751 33.203 153.839 33.3512 153.895C33.4993 153.952 33.6578 153.975 33.816 153.965C33.9741 153.955 34.1282 153.91 34.2677 153.835C34.4071 153.76 34.5287 153.655 34.6242 153.529L37.9786 149.081C38.0741 148.955 38.1412 148.809 38.1753 148.654C38.2094 148.499 38.2096 148.339 38.1761 148.184Z" fill="#3F3D56"/>
<path d="M29.4916 132.786C28.7922 130.557 27.2017 128.513 25.0021 127.759C22.8023 127.006 19.5813 128.154 17.9276 129.802C14.9027 132.817 14.1645 143.173 16.2427 146.446C16.6561 146.424 18.0825 146.408 18.5009 146.392L19.0927 144.42V146.373C22.3584 146.272 25.7582 146.335 29.1598 146.401C29.4647 144.083 30.191 135.015 29.4916 132.786Z" fill="#2F2E41"/>
<path d="M30.4274 226.348H33.4059L34.8228 214.859L30.4268 214.86L30.4274 226.348Z" fill="#FFB6B6"/>
<path d="M4.35306 224.496L7.23521 225.247L11.5043 214.488L7.25047 213.379L4.35306 224.496Z" fill="#FFB6B6"/>
<path d="M20.7674 155.786L20.0924 157.541L20.2275 159.296L33.4359 163.87L32.7805 156.191L31.2959 154.436L20.7674 155.786Z" fill="#FFB6B6"/>
<path d="M24.9435 139.995C22.3381 139.995 20.2259 137.883 20.2259 135.278C20.2259 132.672 22.3381 130.56 24.9435 130.56C27.5489 130.56 29.661 132.672 29.661 135.278C29.661 137.883 27.5489 139.995 24.9435 139.995Z" fill="#FFB7B7"/>
<path d="M28.1854 129.134C27.279 128.582 26.2407 128.283 25.1792 128.269C24.1176 128.255 23.0719 128.526 22.1512 129.055C21.2305 129.583 20.4686 130.35 19.9454 131.273C19.4221 132.197 19.1567 133.244 19.1767 134.306C21.7483 134.963 24.4887 135.238 27.3927 134.464L28.0565 132.839L28.4479 134.465C29.3363 135.09 30.1938 135.089 31.0204 134.462C31.0554 133.403 30.812 132.354 30.3145 131.419C29.817 130.485 29.0829 129.697 28.1854 129.134Z" fill="#2F2E41"/>
<path d="M29.0949 232.004H31.2085L31.5857 230.009L32.5519 232.004H38.1575C38.4262 232.004 38.6879 231.918 38.9043 231.759C39.1208 231.6 39.2806 231.376 39.3606 231.119C39.4406 230.862 39.4364 230.587 39.3488 230.333C39.2612 230.079 39.0947 229.86 38.8736 229.707L34.3971 226.615V224.598L29.6886 224.879L29.0949 232.004Z" fill="#2F2E41"/>
<path d="M1.37621 229.565L3.42141 230.098L4.28979 228.262L4.72144 230.437L10.1458 231.851C10.4058 231.919 10.6807 231.901 10.9303 231.802C11.1799 231.702 11.3911 231.526 11.5332 231.298C11.6753 231.07 11.7408 230.802 11.72 230.534C11.6993 230.266 11.5935 230.012 11.418 229.809L7.86613 225.688L8.37498 223.736L3.74786 222.82L1.37621 229.565Z" fill="#2F2E41"/>
<path d="M4.7188 217.271L13.4496 199.327L16.1903 177.486C14.3006 173.977 17.8101 166.836 17.8101 166.836V163.838L31.4048 166.402C34.1854 173.986 35.5338 182.02 35.3814 190.097L34.8336 219.129H35.0054C35.2906 219.129 35.5641 219.242 35.7657 219.444C35.9673 219.645 36.0806 219.919 36.0806 220.204C36.0806 220.489 35.9673 220.763 35.7657 220.964C35.5641 221.166 35.2906 221.279 35.0054 221.279H29.6295C29.3444 221.279 29.0709 221.166 28.8693 220.964C28.6676 220.763 28.5543 220.489 28.5543 220.204C28.5543 219.919 28.6676 219.645 28.8693 219.444C29.0709 219.242 29.3444 219.129 29.6295 219.129H29.7681L25.9089 182.195L21.4215 200.421L10.5772 217.202C10.8539 217.224 11.1114 217.352 11.2956 217.559C11.4799 217.766 11.5767 218.037 11.5655 218.314C11.5544 218.592 11.4363 218.854 11.2359 219.046C11.0356 219.238 10.7687 219.344 10.4912 219.344H5.11531C4.86527 219.344 4.62298 219.257 4.43019 219.098C4.23741 218.939 4.10623 218.717 4.05925 218.472C4.01227 218.226 4.05244 217.972 4.17284 217.753C4.29324 217.533 4.48632 217.363 4.7188 217.271Z" fill="#2F2E41"/>
<path d="M16.5808 168.674C16.6254 168.499 16.7245 168.342 16.8638 168.226C17.0031 168.111 17.1754 168.042 17.356 168.03C17.5352 165.981 18.7192 152.842 18.7643 152.457L18.766 152.441L19.1089 145.117C19.1213 144.851 19.2313 144.599 19.4178 144.409C19.6044 144.219 19.8544 144.104 20.1201 144.087L21.9308 143.969C21.9557 143.968 21.9792 143.957 21.9965 143.939C22.0138 143.921 22.0234 143.898 22.0234 143.873C22.0234 143.673 22.0628 143.475 22.1394 143.29C22.2159 143.105 22.328 142.937 22.4694 142.796C22.6108 142.655 22.7787 142.542 22.9635 142.466C23.1482 142.389 23.3462 142.35 23.5462 142.35H28.9073C29.2546 142.35 29.5898 142.477 29.8502 142.707C30.1105 142.937 30.278 143.253 30.3213 143.598C30.3237 143.622 30.3349 143.644 30.3528 143.659C30.3707 143.675 30.3938 143.684 30.4177 143.683L30.4183 143.683C31.0275 143.671 31.621 143.877 32.0911 144.264C32.5612 144.652 32.8768 145.195 32.9806 145.796C33.7135 150.06 35.1823 159.739 34.4561 165.119C34.2033 166.993 34.3182 169.81 34.4138 171.377C34.4233 171.528 34.4028 171.68 34.3535 171.824C34.3043 171.967 34.2271 172.1 34.1266 172.213C34.3404 172.275 34.5219 172.417 34.6329 172.61C34.7439 172.803 34.7756 173.031 34.7215 173.247C34.6657 173.468 34.5243 173.658 34.3285 173.775C34.1327 173.892 33.8984 173.927 33.6772 173.871L17.2046 169.718C16.9834 169.663 16.7934 169.521 16.6764 169.326C16.5594 169.13 16.525 168.895 16.5808 168.674Z" fill="#3F3D56"/>
<path d="M31.0697 143.756C31.0721 143.394 31.2026 143.044 31.4383 142.769C31.674 142.493 31.9997 142.31 32.3574 142.252L54.368 138.638C54.579 138.603 54.795 138.612 55.0022 138.666L60.1605 140L63.1202 140.766L68.5821 142.178C68.9118 142.263 69.2038 142.456 69.4123 142.725C69.6207 142.995 69.7339 143.326 69.734 143.667V161.707C69.7323 162.058 69.6108 162.399 69.3895 162.672C69.1682 162.945 68.8604 163.135 68.5168 163.209L46.0975 167.98C45.9923 168.002 45.8849 168.013 45.7772 168.013C45.6203 168.013 45.4643 167.989 45.3147 167.942L31.9948 163.736C31.6805 163.638 31.4061 163.441 31.2125 163.175C31.0188 162.908 30.9162 162.587 30.9198 162.257L31.0697 143.756Z" fill="white"/>
<path d="M54.6171 139.962C54.6331 139.962 54.6491 139.964 54.6647 139.969L68.2447 143.48C68.2859 143.491 68.3224 143.515 68.3484 143.549C68.3744 143.582 68.3885 143.624 68.3885 143.666V161.706C68.3884 161.75 68.3732 161.792 68.3456 161.827C68.318 161.861 68.2795 161.884 68.2366 161.894L45.8173 166.664C45.7848 166.671 45.7512 166.669 45.7195 166.659L32.3994 162.453C32.3601 162.441 32.3259 162.416 32.3018 162.383C32.2776 162.349 32.2649 162.309 32.2654 162.268L32.4146 143.767C32.415 143.722 32.4313 143.678 32.4608 143.644C32.4902 143.609 32.5309 143.586 32.5756 143.579L54.5861 139.965C54.5963 139.963 54.6067 139.962 54.6171 139.962Z" fill="#F36B31"/>
<path d="M31.0697 143.756C31.0721 143.394 31.2026 143.044 31.4383 142.769C31.674 142.493 31.9997 142.31 32.3574 142.252L54.368 138.638C54.579 138.603 54.795 138.612 55.0022 138.666L60.1605 140L63.1202 140.766L68.5821 142.178C68.9118 142.263 69.2038 142.456 69.4123 142.725C69.6207 142.995 69.7339 143.326 69.734 143.667V161.707C69.7323 162.058 69.6108 162.399 69.3895 162.672C69.1682 162.945 68.8604 163.135 68.5168 163.209L46.0975 167.98C45.9923 168.002 45.8849 168.013 45.7772 168.013C45.6203 168.013 45.4643 167.989 45.3147 167.942L31.9948 163.736C31.6805 163.638 31.4061 163.441 31.2125 163.175C31.0188 162.908 30.9162 162.587 30.9198 162.257L31.0697 143.756ZM32.1101 163.37L45.43 167.576C45.62 167.635 45.822 167.645 46.0168 167.604L68.4373 162.834C68.695 162.778 68.9257 162.636 69.0916 162.431C69.2574 162.226 69.3484 161.97 69.3496 161.707V143.667C69.3494 143.43 69.2769 143.2 69.1417 143.006C69.0065 142.813 68.8152 142.665 68.5937 142.584C68.5585 142.571 68.5225 142.56 68.486 142.551L62.7076 141.057L59.2905 140.173L54.9061 139.039C54.8121 139.014 54.7151 139.001 54.6178 139.002C54.5551 139.002 54.4926 139.007 54.4307 139.017L32.4202 142.631C32.2431 142.66 32.0751 142.73 31.9297 142.835C31.7843 142.941 31.6653 143.078 31.5822 143.237C31.4991 143.399 31.4552 143.577 31.4541 143.759L31.3042 162.26C31.3015 162.507 31.3783 162.748 31.5235 162.948C31.6687 163.148 31.8744 163.296 32.1101 163.37Z" fill="#3F3D56"/>
<path d="M31.5821 143.237C31.5971 143.247 31.6135 143.254 31.6308 143.259L38.105 145.009L40.1204 145.554L45.8527 147.103C45.869 147.107 45.8858 147.109 45.9026 147.109C45.9142 147.109 45.9258 147.108 45.9372 147.106L69.051 142.892L69.1278 142.878C69.1779 142.869 69.2223 142.84 69.2512 142.798C69.2801 142.756 69.2912 142.704 69.282 142.654C69.2729 142.604 69.2442 142.56 69.2024 142.531C69.1605 142.501 69.1088 142.49 69.0586 142.499L68.5935 142.584L45.9103 146.72L40.9699 145.384L38.2062 144.637L31.832 142.914L31.7308 142.887C31.687 142.876 31.6406 142.88 31.5996 142.899C31.5586 142.918 31.5257 142.951 31.5065 142.992C31.5016 143.002 31.4977 143.012 31.495 143.023C31.4845 143.063 31.4872 143.106 31.5029 143.145C31.5186 143.183 31.5464 143.216 31.5821 143.237Z" fill="#3F3D56"/>
<path d="M45.7104 168.058C45.761 168.058 45.8097 168.038 45.8457 168.002C45.8816 167.966 45.9021 167.918 45.9026 167.867L46.0947 146.919C46.0952 146.868 46.0754 146.819 46.0397 146.782C46.004 146.746 45.9553 146.725 45.9043 146.725H45.9026C45.8519 146.725 45.8033 146.745 45.7673 146.781C45.7313 146.816 45.7108 146.865 45.7104 146.915L45.5182 167.864C45.5177 167.915 45.5376 167.964 45.5733 168C45.609 168.036 45.6577 168.057 45.7086 168.058H45.7104Z" fill="#3F3D56"/>
<path d="M38.1048 165.509L40.1202 166.054L40.9697 145.385L62.6446 141.072C62.6658 141.068 62.6868 141.063 62.7073 141.057C62.8738 141.009 63.0193 140.907 63.1199 140.766L60.1602 140L59.2903 140.173L38.7237 144.264C38.6155 144.285 38.5133 144.33 38.4239 144.394C38.3346 144.459 38.2603 144.542 38.206 144.638C38.142 144.749 38.1061 165.376 38.1048 165.509Z" fill="#3F3D56"/>
<path d="M39.0077 153.725C38.9047 153.813 38.8087 153.909 38.7207 154.012L26.6472 152.602L25.473 149.892L21.1522 151.13L22.7648 156.129C22.895 156.533 23.1528 156.883 23.4993 157.128C23.8459 157.373 24.2625 157.499 24.6866 157.487L38.5103 157.094C38.7952 157.532 39.2067 157.873 39.6901 158.071C40.1734 158.269 40.7057 158.316 41.2161 158.204C41.7266 158.093 42.191 157.829 42.5475 157.447C42.9041 157.065 43.136 156.584 43.2123 156.067C43.2886 155.55 43.2057 155.022 42.9747 154.553C42.7437 154.085 42.3755 153.697 41.9191 153.443C41.4626 153.189 40.9396 153.08 40.4195 153.13C39.8995 153.18 39.407 153.388 39.0077 153.725Z" fill="#FFB6B6"/>
<path d="M26.9303 151.977C26.996 151.832 27.0298 151.676 27.0294 151.517C27.029 151.359 26.9943 151.202 26.9279 151.058L24.6082 146.032C24.3803 145.254 23.853 144.597 23.1421 144.207C22.4311 143.817 21.5945 143.725 20.8155 143.951C20.0366 144.176 19.379 144.702 18.987 145.412C18.5949 146.122 18.5003 146.958 18.724 147.738L19.488 153.239C19.5098 153.396 19.5652 153.546 19.6504 153.68C19.7356 153.813 19.8486 153.927 19.9817 154.013C20.1149 154.099 20.2649 154.155 20.4218 154.178C20.5786 154.201 20.7386 154.19 20.8907 154.145L26.2365 152.579C26.3886 152.534 26.5294 152.457 26.6491 152.353C26.7689 152.25 26.8648 152.121 26.9303 151.977Z" fill="#3F3D56"/>
<path d="M60.5946 156.446C60.6185 156.446 60.6424 156.443 60.6658 156.438L67.3319 154.933C67.4153 154.914 67.4877 154.862 67.5333 154.79C67.5789 154.718 67.594 154.63 67.5752 154.547C67.5564 154.464 67.5052 154.391 67.433 154.345C67.3608 154.3 67.2734 154.285 67.19 154.303L60.5238 155.808C60.4464 155.826 60.3782 155.871 60.3321 155.936C60.2861 156.001 60.2655 156.08 60.2743 156.159C60.283 156.238 60.3205 156.311 60.3796 156.363C60.4387 156.416 60.5152 156.446 60.5946 156.446Z" fill="white"/>
<circle cx="114" cy="15" r="15" fill="#F36B31"/>
<path d="M116.691 7.45455V22H114.489V9.65625H114.404L110.924 11.929V9.8267L114.553 7.45455H116.691Z" fill="white"/>
</svg>
