<svg width="97" height="232" viewBox="0 0 97 232" fill="none" xmlns="http://www.w3.org/2000/svg">
<path d="M90.0431 106.123H89.1385V81.3422C89.1385 79.4588 88.7675 77.5938 88.0467 75.8537C87.326 74.1136 86.2695 72.5325 84.9377 71.2007C83.6059 69.8689 82.0248 68.8125 80.2848 68.0917C78.5447 67.371 76.6797 67 74.7962 67H22.2956C20.4122 67 18.5472 67.371 16.8071 68.0917C15.067 68.8125 13.4859 69.8689 12.1541 71.2007C10.8223 72.5325 9.76588 74.1136 9.04511 75.8537C8.32434 77.5938 7.95337 79.4588 7.95337 81.3422V217.289C7.95337 219.173 8.32434 221.038 9.04511 222.778C9.76588 224.518 10.8223 226.099 12.1541 227.431C13.4859 228.763 15.067 229.819 16.8071 230.54C18.5472 231.261 20.4122 231.632 22.2956 231.632H74.7962C76.6797 231.632 78.5447 231.261 80.2848 230.54C82.0248 229.819 83.6059 228.763 84.9377 227.431C86.2695 226.099 87.326 224.518 88.0467 222.778C88.7675 221.038 89.1385 219.173 89.1385 217.289V123.762H90.0431V106.123Z" fill="#3F3D56"/>
<path d="M86.0857 81.4425V217.189C86.0833 218.776 85.7294 220.344 85.0494 221.778C84.3694 223.213 83.3801 224.479 82.1526 225.486C81.8811 225.709 81.598 225.917 81.3046 226.11C79.5486 227.28 77.4848 227.903 75.3746 227.9H22.6214C21.7662 227.901 20.914 227.799 20.0834 227.596C17.7522 227.027 15.6795 225.692 14.1974 223.805C12.7154 221.918 11.91 219.588 11.9103 217.189V81.4425C11.9105 78.6019 13.0391 75.8776 15.0478 73.8689C17.0564 71.8603 19.7807 70.7317 22.6214 70.7314H29.0225C28.7073 71.504 28.587 72.3422 28.6722 73.1723C28.7573 74.0023 29.0453 74.7986 29.5108 75.4911C29.9762 76.1836 30.6049 76.751 31.3413 77.1432C32.0777 77.5355 32.8993 77.7406 33.7337 77.7405H63.8094C64.6435 77.7396 65.4646 77.5339 66.2005 77.1414C66.9365 76.7489 67.5649 76.1817 68.0304 75.4896C68.4959 74.7975 68.7843 74.0017 68.8703 73.172C68.9563 72.3424 68.8372 71.5043 68.5236 70.7314H75.3746C78.2152 70.7317 80.9395 71.8603 82.9482 73.8689C84.9568 75.8776 86.0854 78.6019 86.0857 81.4425Z" fill="white"/>
<path d="M23.8457 140.699H22.3848C22.3431 140.46 22.2663 140.247 22.1543 140.062C22.0423 139.875 21.903 139.716 21.7363 139.586C21.5697 139.456 21.3796 139.358 21.166 139.293C20.9551 139.225 20.7272 139.191 20.4824 139.191C20.0475 139.191 19.6621 139.301 19.3262 139.52C18.9902 139.736 18.7272 140.053 18.5371 140.473C18.347 140.889 18.252 141.398 18.252 142C18.252 142.612 18.347 143.128 18.5371 143.547C18.7298 143.964 18.9928 144.279 19.3262 144.492C19.6621 144.703 20.0462 144.809 20.4785 144.809C20.7181 144.809 20.9421 144.777 21.1504 144.715C21.3613 144.65 21.5501 144.555 21.7168 144.43C21.8861 144.305 22.028 144.151 22.1426 143.969C22.2598 143.786 22.3405 143.578 22.3848 143.344L23.8457 143.352C23.791 143.732 23.6725 144.089 23.4902 144.422C23.3105 144.755 23.0749 145.049 22.7832 145.305C22.4915 145.557 22.1504 145.755 21.7598 145.898C21.3691 146.039 20.9355 146.109 20.459 146.109C19.7559 146.109 19.1283 145.947 18.5762 145.621C18.0241 145.296 17.5892 144.826 17.2715 144.211C16.9538 143.596 16.7949 142.859 16.7949 142C16.7949 141.138 16.9551 140.401 17.2754 139.789C17.5957 139.174 18.0319 138.704 18.584 138.379C19.1361 138.053 19.7611 137.891 20.459 137.891C20.9043 137.891 21.3184 137.953 21.7012 138.078C22.084 138.203 22.4251 138.387 22.7246 138.629C23.0241 138.868 23.2702 139.163 23.4629 139.512C23.6582 139.858 23.7858 140.254 23.8457 140.699ZM26.5244 142.484V146H25.1104V138H26.4932V141.02H26.5635C26.7041 140.681 26.9215 140.414 27.2158 140.219C27.5127 140.021 27.8903 139.922 28.3486 139.922C28.7653 139.922 29.1286 140.009 29.4385 140.184C29.7484 140.358 29.988 140.613 30.1572 140.949C30.3291 141.285 30.415 141.695 30.415 142.18V146H29.001V142.398C29.001 141.995 28.8968 141.681 28.6885 141.457C28.4827 141.23 28.1937 141.117 27.8213 141.117C27.5713 141.117 27.3473 141.172 27.1494 141.281C26.9541 141.388 26.8005 141.543 26.6885 141.746C26.5791 141.949 26.5244 142.195 26.5244 142.484ZM34.5127 146.117C33.9111 146.117 33.3916 145.992 32.9541 145.742C32.5192 145.49 32.1846 145.133 31.9502 144.672C31.7158 144.208 31.5986 143.663 31.5986 143.035C31.5986 142.418 31.7158 141.876 31.9502 141.41C32.1872 140.941 32.5179 140.577 32.9424 140.316C33.3669 140.053 33.8656 139.922 34.4385 139.922C34.8083 139.922 35.1572 139.982 35.4854 140.102C35.8161 140.219 36.1077 140.401 36.3604 140.648C36.6156 140.896 36.8161 141.211 36.9619 141.594C37.1077 141.974 37.1807 142.427 37.1807 142.953V143.387H32.2627V142.434H35.8252C35.8226 142.163 35.764 141.922 35.6494 141.711C35.5348 141.497 35.3747 141.329 35.1689 141.207C34.9658 141.085 34.7288 141.023 34.458 141.023C34.1689 141.023 33.915 141.094 33.6963 141.234C33.4775 141.372 33.307 141.555 33.1846 141.781C33.0648 142.005 33.0036 142.251 33.001 142.52V143.352C33.001 143.701 33.0648 144 33.1924 144.25C33.32 144.497 33.4984 144.687 33.7275 144.82C33.9567 144.951 34.2249 145.016 34.5322 145.016C34.738 145.016 34.9242 144.987 35.0908 144.93C35.2575 144.87 35.402 144.783 35.5244 144.668C35.6468 144.553 35.7393 144.411 35.8018 144.242L37.1221 144.391C37.0387 144.74 36.8799 145.044 36.6455 145.305C36.4137 145.562 36.1169 145.763 35.7549 145.906C35.3929 146.047 34.9788 146.117 34.5127 146.117ZM40.9863 148.375C40.4785 148.375 40.0423 148.306 39.6777 148.168C39.3132 148.033 39.0202 147.85 38.7988 147.621C38.5775 147.392 38.4238 147.138 38.3379 146.859L39.6113 146.551C39.6686 146.668 39.752 146.784 39.8613 146.898C39.9707 147.016 40.1178 147.112 40.3027 147.188C40.4902 147.266 40.7259 147.305 41.0098 147.305C41.4108 147.305 41.7428 147.207 42.0059 147.012C42.2689 146.819 42.4004 146.501 42.4004 146.059V144.922H42.3301C42.2572 145.068 42.1504 145.217 42.0098 145.371C41.8717 145.525 41.6882 145.654 41.459 145.758C41.2324 145.862 40.9473 145.914 40.6035 145.914C40.1426 145.914 39.7246 145.806 39.3496 145.59C38.9772 145.371 38.6803 145.046 38.459 144.613C38.2402 144.178 38.1309 143.634 38.1309 142.98C38.1309 142.322 38.2402 141.766 38.459 141.312C38.6803 140.857 38.9785 140.512 39.3535 140.277C39.7285 140.04 40.1465 139.922 40.6074 139.922C40.959 139.922 41.248 139.982 41.4746 140.102C41.7038 140.219 41.8861 140.361 42.0215 140.527C42.1569 140.691 42.2598 140.846 42.3301 140.992H42.4082V140H43.8027V146.098C43.8027 146.611 43.6803 147.035 43.4355 147.371C43.1908 147.707 42.8561 147.958 42.4316 148.125C42.0072 148.292 41.5254 148.375 40.9863 148.375ZM40.998 144.805C41.2975 144.805 41.5527 144.732 41.7637 144.586C41.9746 144.44 42.1348 144.23 42.2441 143.957C42.3535 143.684 42.4082 143.355 42.4082 142.973C42.4082 142.595 42.3535 142.264 42.2441 141.98C42.1374 141.697 41.9785 141.477 41.7676 141.32C41.5592 141.161 41.3027 141.082 40.998 141.082C40.6829 141.082 40.4199 141.164 40.209 141.328C39.998 141.492 39.8392 141.717 39.7324 142.004C39.6257 142.288 39.5723 142.611 39.5723 142.973C39.5723 143.34 39.6257 143.661 39.7324 143.938C39.8418 144.211 40.002 144.424 40.2129 144.578C40.4264 144.729 40.6882 144.805 40.998 144.805ZM47.8691 146.117C47.2832 146.117 46.7754 145.988 46.3457 145.73C45.916 145.473 45.5827 145.112 45.3457 144.648C45.1113 144.185 44.9941 143.643 44.9941 143.023C44.9941 142.404 45.1113 141.861 45.3457 141.395C45.5827 140.928 45.916 140.566 46.3457 140.309C46.7754 140.051 47.2832 139.922 47.8691 139.922C48.4551 139.922 48.9629 140.051 49.3926 140.309C49.8223 140.566 50.1543 140.928 50.3887 141.395C50.6257 141.861 50.7441 142.404 50.7441 143.023C50.7441 143.643 50.6257 144.185 50.3887 144.648C50.1543 145.112 49.8223 145.473 49.3926 145.73C48.9629 145.988 48.4551 146.117 47.8691 146.117ZM47.877 144.984C48.1947 144.984 48.4603 144.897 48.6738 144.723C48.8874 144.546 49.0462 144.309 49.1504 144.012C49.2572 143.715 49.3105 143.384 49.3105 143.02C49.3105 142.652 49.2572 142.32 49.1504 142.023C49.0462 141.724 48.8874 141.486 48.6738 141.309C48.4603 141.132 48.1947 141.043 47.877 141.043C47.5514 141.043 47.2806 141.132 47.0645 141.309C46.8509 141.486 46.6908 141.724 46.584 142.023C46.4798 142.32 46.4277 142.652 46.4277 143.02C46.4277 143.384 46.4798 143.715 46.584 144.012C46.6908 144.309 46.8509 144.546 47.0645 144.723C47.2806 144.897 47.5514 144.984 47.877 144.984ZM55.7686 143.477V140H57.1826V146H55.8115V144.934H55.749C55.6136 145.27 55.391 145.544 55.0811 145.758C54.7738 145.971 54.3949 146.078 53.9443 146.078C53.5511 146.078 53.2035 145.991 52.9014 145.816C52.6019 145.639 52.3675 145.383 52.1982 145.047C52.029 144.708 51.9443 144.299 51.9443 143.82V140H53.3584V143.602C53.3584 143.982 53.4626 144.284 53.6709 144.508C53.8792 144.732 54.1527 144.844 54.4912 144.844C54.6995 144.844 54.9014 144.793 55.0967 144.691C55.292 144.59 55.4521 144.439 55.5771 144.238C55.7048 144.035 55.7686 143.781 55.7686 143.477ZM65.7754 140.199C65.7389 139.858 65.5853 139.592 65.3145 139.402C65.0462 139.212 64.6973 139.117 64.2676 139.117C63.9655 139.117 63.7064 139.163 63.4902 139.254C63.2741 139.345 63.1087 139.469 62.9941 139.625C62.8796 139.781 62.821 139.96 62.8184 140.16C62.8184 140.327 62.8561 140.471 62.9316 140.594C63.0098 140.716 63.1152 140.82 63.248 140.906C63.3809 140.99 63.528 141.06 63.6895 141.117C63.8509 141.174 64.0137 141.223 64.1777 141.262L64.9277 141.449C65.2298 141.52 65.5202 141.615 65.7988 141.734C66.0801 141.854 66.3314 142.005 66.5527 142.188C66.7767 142.37 66.9538 142.59 67.084 142.848C67.2142 143.105 67.2793 143.408 67.2793 143.754C67.2793 144.223 67.1595 144.635 66.9199 144.992C66.6803 145.346 66.334 145.624 65.8809 145.824C65.4303 146.022 64.8848 146.121 64.2441 146.121C63.6217 146.121 63.0814 146.025 62.623 145.832C62.1673 145.639 61.8105 145.358 61.5527 144.988C61.2975 144.618 61.1595 144.168 61.1387 143.637H62.5645C62.5853 143.915 62.6712 144.147 62.8223 144.332C62.9733 144.517 63.1699 144.655 63.4121 144.746C63.6569 144.837 63.9303 144.883 64.2324 144.883C64.5475 144.883 64.8236 144.836 65.0605 144.742C65.3001 144.646 65.4876 144.513 65.623 144.344C65.7585 144.172 65.8275 143.971 65.8301 143.742C65.8275 143.534 65.7663 143.362 65.6465 143.227C65.5267 143.089 65.3587 142.974 65.1426 142.883C64.929 142.789 64.679 142.706 64.3926 142.633L63.4824 142.398C62.8236 142.229 62.3027 141.973 61.9199 141.629C61.5397 141.283 61.3496 140.823 61.3496 140.25C61.3496 139.779 61.4772 139.366 61.7324 139.012C61.9902 138.658 62.3405 138.383 62.7832 138.187C63.2259 137.99 63.7272 137.891 64.2871 137.891C64.8548 137.891 65.3522 137.99 65.7793 138.187C66.209 138.383 66.5462 138.655 66.791 139.004C67.0358 139.35 67.1621 139.749 67.1699 140.199H65.7754ZM72.333 143.477V140H73.7471V146H72.376V144.934H72.3135C72.1781 145.27 71.9554 145.544 71.6455 145.758C71.3382 145.971 70.9593 146.078 70.5088 146.078C70.1156 146.078 69.7679 145.991 69.4658 145.816C69.1663 145.639 68.932 145.383 68.7627 145.047C68.5934 144.708 68.5088 144.299 68.5088 143.82V140H69.9229V143.602C69.9229 143.982 70.027 144.284 70.2354 144.508C70.4437 144.732 70.7171 144.844 71.0557 144.844C71.264 144.844 71.4658 144.793 71.6611 144.691C71.8564 144.59 72.0166 144.439 72.1416 144.238C72.2692 144.035 72.333 143.781 72.333 143.477ZM76.9277 146.121C76.5475 146.121 76.2051 146.053 75.9004 145.918C75.5983 145.78 75.3587 145.577 75.1816 145.309C75.0072 145.04 74.9199 144.71 74.9199 144.316C74.9199 143.978 74.9824 143.698 75.1074 143.477C75.2324 143.255 75.403 143.078 75.6191 142.945C75.8353 142.812 76.0788 142.712 76.3496 142.645C76.623 142.574 76.9056 142.523 77.1973 142.492C77.5488 142.456 77.834 142.423 78.0527 142.395C78.2715 142.363 78.4303 142.316 78.5293 142.254C78.6309 142.189 78.6816 142.089 78.6816 141.953V141.93C78.6816 141.635 78.5944 141.408 78.4199 141.246C78.2454 141.085 77.9941 141.004 77.666 141.004C77.3197 141.004 77.0449 141.079 76.8418 141.23C76.6413 141.382 76.5059 141.56 76.4355 141.766L75.1152 141.578C75.2194 141.214 75.3913 140.909 75.6309 140.664C75.8704 140.417 76.1634 140.232 76.5098 140.109C76.8561 139.984 77.2389 139.922 77.6582 139.922C77.9473 139.922 78.235 139.956 78.5215 140.023C78.8079 140.091 79.0697 140.203 79.3066 140.359C79.5436 140.513 79.7337 140.723 79.877 140.988C80.0228 141.254 80.0957 141.586 80.0957 141.984V146H78.7363V145.176H78.6895C78.6035 145.342 78.4824 145.499 78.3262 145.645C78.1725 145.788 77.9785 145.904 77.7441 145.992C77.5124 146.078 77.2402 146.121 76.9277 146.121ZM77.2949 145.082C77.5788 145.082 77.8249 145.026 78.0332 144.914C78.2415 144.799 78.4017 144.648 78.5137 144.461C78.6283 144.273 78.6855 144.069 78.6855 143.848V143.141C78.6413 143.177 78.5658 143.211 78.459 143.242C78.3548 143.273 78.2376 143.301 78.1074 143.324C77.9772 143.348 77.8483 143.368 77.7207 143.387C77.5931 143.405 77.4824 143.421 77.3887 143.434C77.1777 143.462 76.9889 143.509 76.8223 143.574C76.6556 143.639 76.5241 143.73 76.4277 143.848C76.3314 143.962 76.2832 144.111 76.2832 144.293C76.2832 144.553 76.3783 144.75 76.5684 144.883C76.7585 145.016 77.0007 145.082 77.2949 145.082ZM17.9058 159V151H23.1089V152.215H19.355V154.387H22.8394V155.602H19.355V157.785H23.1401V159H17.9058ZM25.939 155.484V159H24.5249V153H25.8765V154.02H25.9468C26.0848 153.684 26.3049 153.417 26.6069 153.219C26.9116 153.021 27.2879 152.922 27.7358 152.922C28.1499 152.922 28.5106 153.01 28.8179 153.187C29.1278 153.365 29.3674 153.621 29.5366 153.957C29.7085 154.293 29.7931 154.701 29.7905 155.18V159H28.3765V155.398C28.3765 154.997 28.2723 154.684 28.064 154.457C27.8582 154.23 27.5731 154.117 27.2085 154.117C26.9611 154.117 26.741 154.172 26.5483 154.281C26.3582 154.388 26.2085 154.543 26.0991 154.746C25.9924 154.949 25.939 155.195 25.939 155.484ZM33.8452 159.117C33.2463 159.117 32.7319 158.986 32.3022 158.723C31.8752 158.46 31.5457 158.096 31.314 157.633C31.0848 157.167 30.9702 156.63 30.9702 156.023C30.9702 155.414 31.0874 154.876 31.3218 154.41C31.5562 153.941 31.8869 153.577 32.314 153.316C32.7437 153.053 33.2515 152.922 33.8374 152.922C34.3244 152.922 34.7554 153.012 35.1304 153.191C35.508 153.368 35.8088 153.62 36.0327 153.945C36.2567 154.268 36.3843 154.646 36.4155 155.078H35.064C35.0093 154.789 34.8791 154.548 34.6733 154.355C34.4702 154.16 34.1981 154.062 33.8569 154.062C33.5679 154.062 33.314 154.141 33.0952 154.297C32.8765 154.451 32.7059 154.672 32.5835 154.961C32.4637 155.25 32.4038 155.596 32.4038 156C32.4038 156.409 32.4637 156.76 32.5835 157.055C32.7033 157.346 32.8713 157.572 33.0874 157.73C33.3062 157.887 33.5627 157.965 33.8569 157.965C34.0653 157.965 34.2515 157.926 34.4155 157.848C34.5822 157.767 34.7215 157.651 34.8335 157.5C34.9455 157.349 35.0223 157.165 35.064 156.949H36.4155C36.3817 157.374 36.2567 157.75 36.0405 158.078C35.8244 158.404 35.5301 158.659 35.1577 158.844C34.7853 159.026 34.3478 159.117 33.8452 159.117ZM40.1938 159.117C39.6079 159.117 39.1001 158.988 38.6704 158.73C38.2407 158.473 37.9074 158.112 37.6704 157.648C37.436 157.185 37.3188 156.643 37.3188 156.023C37.3188 155.404 37.436 154.861 37.6704 154.395C37.9074 153.928 38.2407 153.566 38.6704 153.309C39.1001 153.051 39.6079 152.922 40.1938 152.922C40.7798 152.922 41.2876 153.051 41.7173 153.309C42.147 153.566 42.479 153.928 42.7134 154.395C42.9504 154.861 43.0688 155.404 43.0688 156.023C43.0688 156.643 42.9504 157.185 42.7134 157.648C42.479 158.112 42.147 158.473 41.7173 158.73C41.2876 158.988 40.7798 159.117 40.1938 159.117ZM40.2017 157.984C40.5194 157.984 40.785 157.897 40.9985 157.723C41.2121 157.546 41.3709 157.309 41.4751 157.012C41.5819 156.715 41.6353 156.384 41.6353 156.02C41.6353 155.652 41.5819 155.32 41.4751 155.023C41.3709 154.724 41.2121 154.486 40.9985 154.309C40.785 154.132 40.5194 154.043 40.2017 154.043C39.8761 154.043 39.6053 154.132 39.3892 154.309C39.1756 154.486 39.0155 154.724 38.9087 155.023C38.8045 155.32 38.7524 155.652 38.7524 156.02C38.7524 156.384 38.8045 156.715 38.9087 157.012C39.0155 157.309 39.1756 157.546 39.3892 157.723C39.6053 157.897 39.8761 157.984 40.2017 157.984ZM44.269 159V153H45.6206V154.02H45.6909C45.8159 153.676 46.0229 153.408 46.312 153.215C46.6011 153.02 46.9461 152.922 47.3472 152.922C47.7534 152.922 48.0959 153.021 48.3745 153.219C48.6558 153.414 48.8537 153.681 48.9683 154.02H49.0308C49.1636 153.686 49.3875 153.421 49.7026 153.223C50.0203 153.022 50.3966 152.922 50.8315 152.922C51.3836 152.922 51.8341 153.096 52.1831 153.445C52.5321 153.794 52.7065 154.303 52.7065 154.973V159H51.2886V155.191C51.2886 154.819 51.1896 154.547 50.9917 154.375C50.7938 154.201 50.5516 154.113 50.2651 154.113C49.924 154.113 49.6571 154.22 49.4644 154.434C49.2743 154.645 49.1792 154.919 49.1792 155.258V159H47.7925V155.133C47.7925 154.823 47.6987 154.576 47.5112 154.391C47.3263 154.206 47.0841 154.113 46.7847 154.113C46.5815 154.113 46.3966 154.165 46.23 154.27C46.0633 154.371 45.9305 154.516 45.8315 154.703C45.7326 154.888 45.6831 155.104 45.6831 155.352V159H44.269ZM56.7974 159.117C56.1958 159.117 55.6763 158.992 55.2388 158.742C54.8039 158.49 54.4692 158.133 54.2349 157.672C54.0005 157.208 53.8833 156.663 53.8833 156.035C53.8833 155.418 54.0005 154.876 54.2349 154.41C54.4718 153.941 54.8026 153.577 55.2271 153.316C55.6515 153.053 56.1502 152.922 56.7231 152.922C57.0929 152.922 57.4419 152.982 57.77 153.102C58.1007 153.219 58.3924 153.401 58.645 153.648C58.9002 153.896 59.1007 154.211 59.2466 154.594C59.3924 154.974 59.4653 155.427 59.4653 155.953V156.387H54.5474V155.434H58.1099C58.1073 155.163 58.0487 154.922 57.9341 154.711C57.8195 154.497 57.6593 154.329 57.4536 154.207C57.2505 154.085 57.0135 154.023 56.7427 154.023C56.4536 154.023 56.1997 154.094 55.981 154.234C55.7622 154.372 55.5916 154.555 55.4692 154.781C55.3494 155.005 55.2882 155.251 55.2856 155.52V156.352C55.2856 156.701 55.3494 157 55.4771 157.25C55.6047 157.497 55.783 157.687 56.0122 157.82C56.2414 157.951 56.5096 158.016 56.8169 158.016C57.0226 158.016 57.2088 157.987 57.3755 157.93C57.5422 157.87 57.6867 157.783 57.8091 157.668C57.9315 157.553 58.0239 157.411 58.0864 157.242L59.4067 157.391C59.3234 157.74 59.1646 158.044 58.9302 158.305C58.6984 158.562 58.4015 158.763 58.0396 158.906C57.6776 159.047 57.2635 159.117 56.7974 159.117ZM62.0757 155.484V159H60.6616V153H62.0132V154.02H62.0835C62.2215 153.684 62.4416 153.417 62.7437 153.219C63.0483 153.021 63.4246 152.922 63.8726 152.922C64.2866 152.922 64.6473 153.01 64.9546 153.187C65.2645 153.365 65.5041 153.621 65.6733 153.957C65.8452 154.293 65.9299 154.701 65.9272 155.18V159H64.5132V155.398C64.5132 154.997 64.409 154.684 64.2007 154.457C63.995 154.23 63.7098 154.117 63.3452 154.117C63.0978 154.117 62.8778 154.172 62.6851 154.281C62.495 154.388 62.3452 154.543 62.2358 154.746C62.1291 154.949 62.0757 155.195 62.0757 155.484ZM69.5913 159.105C69.12 159.105 68.6981 158.984 68.3257 158.742C67.9533 158.5 67.659 158.148 67.4429 157.687C67.2267 157.227 67.1187 156.667 67.1187 156.008C67.1187 155.341 67.228 154.779 67.4468 154.32C67.6681 153.859 67.9663 153.512 68.3413 153.277C68.7163 153.04 69.1343 152.922 69.5952 152.922C69.9468 152.922 70.2358 152.982 70.4624 153.102C70.689 153.219 70.8687 153.361 71.0015 153.527C71.1343 153.691 71.2371 153.846 71.3101 153.992H71.3687V151H72.7866V159H71.396V158.055H71.3101C71.2371 158.201 71.1317 158.355 70.9937 158.52C70.8556 158.681 70.6733 158.819 70.4468 158.934C70.2202 159.048 69.9351 159.105 69.5913 159.105ZM69.9858 157.945C70.2853 157.945 70.5405 157.865 70.7515 157.703C70.9624 157.539 71.1226 157.311 71.2319 157.02C71.3413 156.728 71.396 156.388 71.396 156C71.396 155.612 71.3413 155.275 71.2319 154.988C71.1252 154.702 70.9663 154.479 70.7554 154.32C70.547 154.161 70.2905 154.082 69.9858 154.082C69.6707 154.082 69.4077 154.164 69.1968 154.328C68.9858 154.492 68.827 154.719 68.7202 155.008C68.6134 155.297 68.5601 155.628 68.5601 156C68.5601 156.375 68.6134 156.71 68.7202 157.004C68.8296 157.296 68.9897 157.526 69.2007 157.695C69.4142 157.862 69.6759 157.945 69.9858 157.945ZM76.02 159.121C75.6398 159.121 75.2974 159.053 74.9927 158.918C74.6906 158.78 74.451 158.577 74.2739 158.309C74.0994 158.04 74.0122 157.71 74.0122 157.316C74.0122 156.978 74.0747 156.698 74.1997 156.477C74.3247 156.255 74.4953 156.078 74.7114 155.945C74.9276 155.812 75.1711 155.712 75.4419 155.645C75.7153 155.574 75.9979 155.523 76.2896 155.492C76.6411 155.456 76.9263 155.423 77.145 155.395C77.3638 155.363 77.5226 155.316 77.6216 155.254C77.7231 155.189 77.7739 155.089 77.7739 154.953V154.93C77.7739 154.635 77.6867 154.408 77.5122 154.246C77.3377 154.085 77.0864 154.004 76.7583 154.004C76.4119 154.004 76.1372 154.079 75.9341 154.23C75.7336 154.382 75.5981 154.56 75.5278 154.766L74.2075 154.578C74.3117 154.214 74.4836 153.909 74.7231 153.664C74.9627 153.417 75.2557 153.232 75.6021 153.109C75.9484 152.984 76.3312 152.922 76.7505 152.922C77.0396 152.922 77.3273 152.956 77.6138 153.023C77.9002 153.091 78.1619 153.203 78.3989 153.359C78.6359 153.513 78.826 153.723 78.9692 153.988C79.1151 154.254 79.188 154.586 79.188 154.984V159H77.8286V158.176H77.7817C77.6958 158.342 77.5747 158.499 77.4185 158.645C77.2648 158.788 77.0708 158.904 76.8364 158.992C76.6047 159.078 76.3325 159.121 76.02 159.121ZM76.3872 158.082C76.6711 158.082 76.9172 158.026 77.1255 157.914C77.3338 157.799 77.494 157.648 77.606 157.461C77.7205 157.273 77.7778 157.069 77.7778 156.848V156.141C77.7336 156.177 77.658 156.211 77.5513 156.242C77.4471 156.273 77.3299 156.301 77.1997 156.324C77.0695 156.348 76.9406 156.368 76.813 156.387C76.6854 156.405 76.5747 156.421 76.481 156.434C76.27 156.462 76.0812 156.509 75.9146 156.574C75.7479 156.639 75.6164 156.73 75.52 156.848C75.4237 156.962 75.3755 157.111 75.3755 157.293C75.3755 157.553 75.4705 157.75 75.6606 157.883C75.8507 158.016 76.0929 158.082 76.3872 158.082Z" fill="#F36B31"/>
<circle cx="48" cy="15" r="15" fill="#F36B31"/>
<path d="M48.5178 22.1989C47.5424 22.1989 46.6712 22.0308 45.9041 21.6946C45.1418 21.3584 44.5381 20.892 44.093 20.2955C43.6527 19.6941 43.416 18.9981 43.3828 18.2074H45.6129C45.6413 18.6383 45.7857 19.0123 46.0462 19.3295C46.3113 19.642 46.657 19.8835 47.0831 20.054C47.5092 20.2244 47.9827 20.3097 48.5036 20.3097C49.0765 20.3097 49.5831 20.2102 50.0234 20.0114C50.4685 19.8125 50.8165 19.5355 51.0675 19.1804C51.3184 18.8205 51.4439 18.4062 51.4439 17.9375C51.4439 17.4498 51.3184 17.0213 51.0675 16.652C50.8213 16.2779 50.459 15.9844 49.9808 15.7713C49.5073 15.5582 48.9344 15.4517 48.2621 15.4517H47.0334V13.6619H48.2621C48.8018 13.6619 49.2753 13.5649 49.6825 13.3707C50.0945 13.1766 50.4164 12.9067 50.6484 12.5611C50.8804 12.2107 50.9964 11.8011 50.9964 11.3324C50.9964 10.8826 50.8946 10.492 50.6911 10.1605C50.4922 9.82434 50.2081 9.56155 49.8388 9.37216C49.4742 9.18276 49.0433 9.08807 48.5462 9.08807C48.0727 9.08807 47.63 9.17566 47.218 9.35085C46.8108 9.52131 46.4794 9.76752 46.2237 10.0895C45.968 10.4067 45.8307 10.7879 45.8118 11.233H43.6882C43.7119 10.447 43.9439 9.75568 44.3842 9.15909C44.8293 8.5625 45.4164 8.09612 46.1456 7.75994C46.8748 7.42377 47.6844 7.25568 48.5746 7.25568C49.5073 7.25568 50.3123 7.43797 50.9893 7.80256C51.6712 8.1624 52.1967 8.64299 52.5661 9.24432C52.9401 9.84564 53.1248 10.5038 53.12 11.2188C53.1248 12.0331 52.8975 12.7244 52.4382 13.2926C51.9837 13.8608 51.3776 14.242 50.62 14.4361V14.5497C51.5859 14.6965 52.334 15.08 52.8643 15.7003C53.3994 16.3205 53.6645 17.09 53.6598 18.0085C53.6645 18.8087 53.442 19.526 52.9922 20.1605C52.5471 20.795 51.9387 21.2945 51.1669 21.6591C50.3951 22.0189 49.5121 22.1989 48.5178 22.1989Z" fill="white"/>
</svg>
