<svg width="142" height="233" viewBox="0 0 142 233" fill="none" xmlns="http://www.w3.org/2000/svg">
<path d="M69.844 97.8324C69.889 98.0304 69.9184 98.2317 69.9318 98.4343L85.6962 107.529L89.5279 105.323L93.6128 110.67L87.2089 115.235C86.6916 115.604 86.0686 115.794 85.4335 115.779C84.7983 115.764 84.1854 115.542 83.6866 115.149L67.4308 102.325C66.6972 102.596 65.8983 102.638 65.1404 102.444C64.3824 102.251 63.7014 101.831 63.1878 101.241C62.6743 100.651 62.3525 99.9186 62.2654 99.1412C62.1782 98.3638 62.3298 97.5783 62.7 96.8891C63.0702 96.2 63.6414 95.6399 64.3377 95.2833C65.034 94.9267 65.8223 94.7906 66.5979 94.893C67.3734 94.9954 68.0994 95.3315 68.6792 95.8566C69.2591 96.3816 69.6654 97.0708 69.844 97.8324Z" fill="#FFB6B6"/>
<path d="M76.1277 99.7437L72.8064 95.0616C72.2965 94.343 71.4591 93.6863 70.4782 93.2363C69.4974 92.7862 68.4535 92.5795 67.5762 92.6617L55.4673 93.7959C54.59 93.878 53.9511 94.2424 53.6913 94.8087C53.4314 95.3749 53.5718 96.0968 54.0817 96.8155L72.3027 122.501C72.8125 123.22 73.65 123.877 74.6308 124.327C75.6117 124.777 76.6556 124.984 77.5329 124.901L89.6418 123.767C90.5191 123.685 91.158 123.321 91.4178 122.754C91.6777 122.188 91.5373 121.466 91.0274 120.748L78.4919 103.076C78.5472 103.071 78.5875 103.048 78.6039 103.013C78.6203 102.977 78.6114 102.931 78.5793 102.886L76.4576 99.895C76.4254 99.8497 76.3726 99.8083 76.3107 99.7799C76.2489 99.7515 76.183 99.7385 76.1277 99.7437Z" fill="#3F3D56"/>
<path d="M72.1152 95.1456L90.31 120.795C90.6882 121.327 90.7945 121.863 90.6058 122.284C90.4171 122.706 89.9487 122.98 89.3023 123.046C89.2943 123.048 89.2858 123.05 89.2767 123.05L77.1089 124.19C76.4535 124.251 75.6736 124.097 74.9409 123.761C74.2082 123.424 73.5825 122.934 73.2016 122.397L55.0067 96.7481C54.8183 96.4823 54.6956 96.2132 54.6457 95.956C54.5958 95.6989 54.6196 95.4588 54.7158 95.2494C54.8121 95.0401 54.9788 94.8656 55.2065 94.7359C55.4342 94.6062 55.7184 94.5239 56.0429 94.4936L57.5185 94.3554C57.5494 94.5083 57.634 94.6695 57.7651 94.8247C57.8961 94.9798 58.0695 95.1242 58.2699 95.2451C58.4703 95.366 58.6916 95.4597 58.9143 95.5179C59.137 95.5761 59.3542 95.597 59.5468 95.5788L66.484 94.929C66.6354 94.9148 66.7677 94.876 66.8733 94.8149C66.9825 94.7541 67.0628 94.6719 67.1096 94.5729C67.1564 94.474 67.1687 94.3602 67.146 94.2383C67.1232 94.1163 67.0658 93.9885 66.977 93.8622C66.8881 93.7358 66.7697 93.6135 66.6284 93.5021L68.2107 93.3539C68.8656 93.2926 69.6449 93.447 70.3771 93.7829C71.1093 94.1189 71.7345 94.6091 72.1152 95.1456Z" fill="white"/>
<path d="M60.3474 94.3719C60.3041 94.3107 60.2922 94.2493 60.3143 94.2011C60.3364 94.153 60.3907 94.1219 60.4653 94.1149L62.3801 93.9355C62.4171 93.932 62.4579 93.9344 62.5004 93.9428C62.5428 93.9511 62.586 93.9652 62.6274 93.9842C62.6688 94.0031 62.7077 94.0267 62.7418 94.0533C62.7759 94.08 62.8045 94.1094 62.826 94.1397C62.8475 94.1701 62.8615 94.2008 62.8672 94.2302C62.8729 94.2595 62.8702 94.2869 62.8591 94.3108C62.8481 94.3347 62.829 94.3546 62.803 94.3693C62.7769 94.3841 62.7444 94.3935 62.7073 94.3969L60.7926 94.5762C60.7179 94.5831 60.629 94.5655 60.5456 94.5272C60.4621 94.4889 60.3908 94.4331 60.3474 94.3719Z" fill="white"/>
<path d="M63.7774 94.2967C63.9329 94.2821 63.9858 94.167 63.8954 94.0396C63.805 93.9122 63.6057 93.8208 63.4502 93.8353C63.2946 93.8499 63.2418 93.965 63.3322 94.0924C63.4226 94.2198 63.6219 94.3112 63.7774 94.2967Z" fill="white"/>
<path d="M75.6014 87.0592C81.969 87.0592 87.131 81.8972 87.131 75.5296C87.131 69.162 81.969 64 75.6014 64C69.2338 64 64.0718 69.162 64.0718 75.5296C64.0718 81.8972 69.2338 87.0592 75.6014 87.0592Z" fill="#F36B31"/>
<path d="M74.0284 81.5302C73.8293 81.5302 73.6329 81.4838 73.4548 81.3947C73.2768 81.3057 73.1219 81.1764 73.0025 81.0171L69.857 76.823C69.6529 76.5509 69.5653 76.2089 69.6134 75.8722C69.6615 75.5355 69.8414 75.2317 70.1136 75.0276C70.3857 74.8235 70.7277 74.7359 71.0644 74.784C71.4011 74.8321 71.7049 75.012 71.909 75.2841L73.9669 78.0278L79.2522 70.0998C79.3454 69.9591 79.4654 69.8382 79.6054 69.7439C79.7454 69.6497 79.9027 69.584 80.0681 69.5507C80.2335 69.5173 80.4039 69.517 80.5695 69.5496C80.7351 69.5822 80.8926 69.6472 81.033 69.7408C81.1734 69.8344 81.294 69.9548 81.3878 70.0951C81.4816 70.2354 81.5468 70.3928 81.5796 70.5584C81.6124 70.7239 81.6123 70.8943 81.5791 71.0598C81.546 71.2252 81.4805 71.3825 81.3865 71.5227L75.0956 80.959C74.9818 81.1297 74.8287 81.2706 74.6492 81.3699C74.4698 81.4692 74.2691 81.524 74.064 81.5298C74.0522 81.53 74.0403 81.5302 74.0284 81.5302Z" fill="white"/>
<path d="M12.4069 160.658C10.8172 152.15 13.32 142.47 20.2764 137.32C19.8821 146.725 22.827 155.965 28.5899 163.407C30.8228 166.269 33.6044 169.22 33.518 172.849C33.4642 175.107 32.2431 177.21 30.6338 178.795C29.0243 180.38 27.0419 181.523 25.0831 182.647L24.7783 183.122C19.0364 176.645 13.9966 169.166 12.4069 160.658Z" fill="#F0F0F0"/>
<path d="M20.4032 137.45C17.4806 143.991 16.6932 151.287 18.153 158.301C18.4405 159.816 18.965 161.277 19.7073 162.629C20.473 163.923 21.5711 164.988 22.8877 165.714C24.1017 166.416 25.4247 166.992 26.447 167.977C26.9628 168.488 27.3647 169.103 27.6262 169.781C27.8877 170.459 28.003 171.184 27.9644 171.91C27.9155 173.72 27.219 175.405 26.4807 177.029C25.6609 178.832 24.7808 180.691 24.834 182.718C24.8404 182.964 24.4589 182.96 24.4525 182.714C24.36 179.188 26.9096 176.355 27.4778 172.971C27.7428 171.392 27.5337 169.724 26.4236 168.5C25.4528 167.43 24.0891 166.834 22.8537 166.134C21.559 165.445 20.4528 164.449 19.6316 163.234C18.8228 161.924 18.2429 160.485 17.9166 158.981C17.128 155.605 16.8751 152.127 17.1671 148.673C17.4785 144.728 18.4622 140.867 20.0758 137.254C20.1758 137.031 20.5025 137.228 20.4032 137.45Z" fill="white"/>
<path d="M17.5501 156.07C16.34 156.155 15.1391 155.807 14.1618 155.089C13.1845 154.37 12.4944 153.328 12.2148 152.148C12.1591 151.909 12.5279 151.811 12.5837 152.05C12.8421 153.15 13.485 154.121 14.3964 154.788C15.3078 155.455 16.4278 155.775 17.554 155.689C17.7988 155.67 17.7934 156.052 17.5501 156.07Z" fill="white"/>
<path d="M22.2253 165.44C23.868 163.582 24.7501 161.174 24.6959 158.695C24.6904 158.449 25.0718 158.453 25.0774 158.699C25.129 161.278 24.2059 163.783 22.4923 165.712C22.3288 165.896 22.0628 165.622 22.2253 165.44Z" fill="white"/>
<path d="M17.9253 144.966C18.4004 145.03 18.8841 144.976 19.3329 144.807C19.7817 144.639 20.1817 144.361 20.4968 144C20.6579 143.814 20.9237 144.088 20.7637 144.273C20.4137 144.67 19.9716 144.976 19.4761 145.163C18.9806 145.35 18.4468 145.414 17.9213 145.347C17.8713 145.345 17.8239 145.324 17.7889 145.288C17.7538 145.252 17.7337 145.204 17.7326 145.154C17.7334 145.104 17.7541 145.056 17.7902 145.02C17.8262 144.985 17.8748 144.965 17.9253 144.966Z" fill="white"/>
<path d="M48.7243 144.358C48.627 144.477 48.5298 144.596 48.4333 144.718C47.134 146.322 45.9671 148.03 44.9443 149.823C44.863 149.961 44.7827 150.101 44.7055 150.241C42.2874 154.588 40.6973 159.347 40.0163 164.274C39.747 166.235 39.6274 168.214 39.6584 170.193C39.7014 172.927 39.9655 175.887 39.1276 178.401C39.0431 178.665 38.9424 178.922 38.8261 179.173L25.3807 183.457C25.3452 183.451 25.3106 183.449 25.275 183.443L24.746 183.639C24.7373 183.537 24.7304 183.431 24.7217 183.329C24.7164 183.27 24.714 183.21 24.7087 183.151C24.7061 183.111 24.7037 183.071 24.6991 183.036C24.6982 183.022 24.6974 183.009 24.6975 182.999C24.6929 182.963 24.6924 182.93 24.6887 182.897C24.6488 182.305 24.6117 181.712 24.581 181.117C24.5801 181.114 24.5801 181.114 24.5821 181.11C24.3513 176.577 24.4969 171.986 25.3346 167.563C25.3599 167.43 25.384 167.294 25.4154 167.159C25.8041 165.167 26.3549 163.211 27.0624 161.309C27.4531 160.269 27.8962 159.249 28.3901 158.254C29.671 155.684 31.3482 153.332 33.36 151.284C37.3711 147.201 42.6433 144.447 48.2926 144.36C48.4371 144.358 48.5788 144.357 48.7243 144.358Z" fill="#F0F0F0"/>
<path d="M48.7483 144.538C42.4767 148.001 37.4557 153.352 34.3984 159.831C33.7154 161.214 33.2548 162.697 33.0334 164.223C32.8658 165.717 33.1013 167.229 33.7155 168.601C34.2624 169.892 34.9714 171.149 35.195 172.551C35.2988 173.27 35.2495 174.003 35.0502 174.701C34.8509 175.4 34.5062 176.049 34.0386 176.605C32.9096 178.021 31.3392 178.946 29.7721 179.798C28.032 180.744 26.2096 181.699 25.0317 183.35C24.889 183.55 24.587 183.317 24.7295 183.117C26.779 180.245 30.5199 179.519 33.0109 177.159C34.1732 176.058 35.0108 174.6 34.8613 172.954C34.7306 171.515 34.0006 170.218 33.4355 168.916C32.8167 167.586 32.533 166.125 32.6091 164.66C32.7521 163.127 33.1548 161.63 33.8002 160.232C35.2029 157.062 37.0953 154.132 39.408 151.55C42.0312 148.589 45.1417 146.097 48.605 144.185C48.8194 144.066 48.9613 144.421 48.7483 144.538Z" fill="white"/>
<path d="M35.26 157.687C34.2426 157.027 33.4931 156.026 33.1454 154.864C32.7977 153.702 32.8744 152.454 33.3618 151.343C33.4612 151.119 33.8146 151.263 33.715 151.487C33.2593 152.521 33.1879 153.683 33.514 154.765C33.84 155.846 34.5418 156.776 35.4929 157.385C35.6994 157.518 35.4654 157.819 35.26 157.687Z" fill="white"/>
<path d="M33.3519 167.983C35.7818 167.489 37.9362 166.097 39.3855 164.085C39.5289 163.885 39.8309 164.118 39.6876 164.318C38.1756 166.409 35.9307 167.853 33.4009 168.361C33.1598 168.41 33.112 168.031 33.3519 167.983Z" fill="white"/>
<path d="M42.2454 149.047C42.5858 149.384 43.0047 149.632 43.4645 149.768C43.9244 149.903 44.4107 149.923 44.8798 149.824C45.1203 149.773 45.1677 150.151 44.9289 150.202C44.41 150.309 43.873 150.287 43.3646 150.138C42.8562 149.989 42.392 149.718 42.0125 149.349C41.9739 149.317 41.9487 149.272 41.9423 149.222C41.9359 149.172 41.9486 149.122 41.9779 149.081C42.0089 149.042 42.0544 149.016 42.1045 149.009C42.1546 149.003 42.2052 149.016 42.2454 149.047Z" fill="white"/>
<path d="M85.9151 106.525C85.9651 106.293 86.0645 106.074 86.2067 105.884C86.3488 105.694 86.5303 105.537 86.7387 105.423L94.0168 101.458C94.986 100.726 96.2057 100.409 97.4086 100.576C98.6114 100.742 99.6991 101.379 100.433 102.346C101.167 103.314 101.488 104.532 101.324 105.736C101.161 106.939 100.527 108.028 99.5615 108.765L93.7283 114.691C93.5618 114.86 93.3608 114.991 93.139 115.076C92.9172 115.16 92.6799 115.196 92.4431 115.18C92.2063 115.164 91.9756 115.098 91.7668 114.985C91.558 114.872 91.376 114.716 91.2331 114.527L86.2108 107.868C86.0678 107.678 85.9673 107.46 85.9163 107.228C85.8652 106.997 85.8648 106.757 85.9151 106.525Z" fill="#3F3D56"/>
<path d="M98.9176 83.4706C99.9648 80.1333 102.346 77.0724 105.639 75.9442C108.933 74.816 113.755 76.5346 116.231 79.0022C120.76 83.5159 121.866 99.0222 118.754 103.922C118.135 103.89 115.999 103.865 115.373 103.842L114.487 100.888V103.813C109.598 103.662 104.507 103.756 99.4144 103.854C98.9579 100.385 97.8704 86.8079 98.9176 83.4706Z" fill="#191720"/>
<path d="M97.5165 223.553H93.057L90.9357 206.352L97.5174 206.352L97.5165 223.553Z" fill="#FFB6B6"/>
<path d="M136.555 220.78L132.24 221.905L125.848 205.795L132.217 204.135L136.555 220.78Z" fill="#FFB6B6"/>
<path d="M111.979 117.906L112.99 120.533L112.788 123.161L93.012 130.01L93.9933 118.512L96.2161 115.885L111.979 117.906Z" fill="#FFB6B6"/>
<path d="M105.727 94.2637C109.628 94.2637 112.79 91.1014 112.79 87.2005C112.79 83.2996 109.628 80.1373 105.727 80.1373C101.826 80.1373 98.6636 83.2996 98.6636 87.2005C98.6636 91.1014 101.826 94.2637 105.727 94.2637Z" fill="#FFB7B7"/>
<path d="M100.873 78.0031C102.231 77.1757 103.785 76.7281 105.374 76.7072C106.964 76.6862 108.529 77.0927 109.908 77.884C111.286 78.6753 112.427 79.8224 113.211 81.2054C113.994 82.5884 114.391 84.1564 114.361 85.7456C110.511 86.7297 106.408 87.1413 102.06 85.9826L101.066 83.5502L100.48 85.9844C99.1503 86.9201 97.8664 86.9184 96.6289 85.9794C96.5764 84.3947 96.9408 82.824 97.6856 81.4242C98.4305 80.0245 99.5297 78.8448 100.873 78.0031Z" fill="#191720"/>
<path d="M99.5114 232.021H96.347L95.7822 229.033L94.3356 232.021H85.9428C85.5405 232.021 85.1487 231.892 84.8246 231.654C84.5006 231.416 84.2612 231.08 84.1415 230.696C84.0218 230.312 84.028 229.899 84.1592 229.519C84.2904 229.139 84.5397 228.81 84.8707 228.582L91.573 223.953V220.933L98.6225 221.353L99.5114 232.021Z" fill="#191720"/>
<path d="M141.012 228.369L137.95 229.167L136.65 226.419L136.004 229.674L127.882 231.791C127.493 231.893 127.082 231.867 126.708 231.718C126.334 231.569 126.018 231.305 125.805 230.963C125.592 230.622 125.494 230.221 125.525 229.82C125.556 229.419 125.715 229.039 125.978 228.734L131.296 222.564L130.534 219.641L137.462 218.271L141.012 228.369Z" fill="#191720"/>
<path d="M136.008 209.963L122.936 183.096L118.832 150.396C121.662 145.142 116.407 134.45 116.407 134.45V129.961L96.053 133.801C91.8899 145.156 89.8711 157.185 90.0992 169.277L90.9194 212.744H90.6621C90.2351 212.744 89.8257 212.914 89.5238 213.215C89.2219 213.517 89.0523 213.927 89.0523 214.354C89.0523 214.781 89.2219 215.19 89.5238 215.492C89.8257 215.794 90.2351 215.964 90.6621 215.964H98.711C99.138 215.964 99.5474 215.794 99.8493 215.492C100.151 215.19 100.321 214.781 100.321 214.354C100.321 213.927 100.151 213.517 99.8493 213.215C99.5474 212.914 99.138 212.744 98.711 212.744H98.5035L104.282 157.446L111 184.734L127.236 209.859C126.822 209.892 126.437 210.083 126.161 210.394C125.885 210.704 125.74 211.11 125.757 211.525C125.773 211.94 125.95 212.332 126.25 212.62C126.55 212.907 126.95 213.067 127.365 213.066H135.414C135.788 213.066 136.151 212.936 136.44 212.698C136.728 212.459 136.925 212.128 136.995 211.76C137.066 211.392 137.005 211.012 136.825 210.683C136.645 210.355 136.356 210.1 136.008 209.963Z" fill="#191720"/>
<path d="M118.248 137.202C118.181 136.94 118.032 136.705 117.824 136.532C117.615 136.358 117.357 136.256 117.087 136.238C116.819 133.171 115.046 113.499 114.979 112.921L114.976 112.897L114.463 101.932C114.444 101.534 114.279 101.156 114 100.872C113.721 100.587 113.346 100.416 112.949 100.39L110.237 100.212C110.2 100.211 110.165 100.196 110.139 100.169C110.113 100.142 110.099 100.106 110.099 100.069C110.099 99.7697 110.04 99.4732 109.925 99.1966C109.811 98.92 109.643 98.6687 109.431 98.457C109.219 98.2453 108.968 98.0773 108.691 97.9627C108.415 97.8482 108.118 97.7892 107.819 97.7892H99.7922C99.2723 97.7894 98.7703 97.9794 98.3805 98.3234C97.9907 98.6674 97.7399 99.1419 97.6751 99.6578C97.6715 99.6933 97.6547 99.7261 97.628 99.7498C97.6012 99.7734 97.5665 99.7861 97.5309 99.7853L97.5299 99.7853C96.6178 99.7665 95.7293 100.075 95.0254 100.656C94.3215 101.236 93.849 102.049 93.6936 102.948C92.5963 109.333 90.3971 123.824 91.4844 131.88C91.8629 134.685 91.6909 138.902 91.5477 141.249C91.5335 141.476 91.5642 141.703 91.638 141.918C91.7118 142.133 91.8272 142.331 91.9778 142.501C91.6577 142.593 91.3859 142.806 91.2197 143.095C91.0536 143.384 91.006 143.726 91.0871 144.049C91.1706 144.38 91.3822 144.665 91.6755 144.84C91.9687 145.015 92.3195 145.066 92.6507 144.983L117.314 138.766C117.645 138.682 117.929 138.471 118.104 138.177C118.28 137.884 118.331 137.533 118.248 137.202Z" fill="#3F3D56"/>
<path d="M77.486 183.301C77.4814 182.581 77.222 181.886 76.7537 181.339C76.2855 180.792 75.6386 180.428 74.9279 180.313L31.2015 173.132C30.7822 173.063 30.3531 173.082 29.9416 173.188L19.694 175.838L13.8143 177.36L2.96349 180.165C2.30846 180.335 1.72842 180.718 1.3143 181.253C0.900185 181.789 0.675412 182.446 0.675232 183.123V228.942C0.67849 229.64 0.91986 230.317 1.35949 230.86C1.79912 231.403 2.41072 231.779 3.09331 231.928L47.6317 231.423C47.8408 231.468 48.0542 231.49 48.268 231.489C48.5797 231.49 48.8896 231.443 49.1869 231.349L75.6483 232.008C76.2727 231.813 76.8178 231.422 77.2025 230.893C77.5871 230.364 77.791 229.725 77.7838 229.071L77.486 183.301Z" fill="white"/>
<path d="M77.486 183.301C77.4814 182.581 77.222 181.886 76.7537 181.339C76.2855 180.792 75.6386 180.428 74.9279 180.313L31.2015 173.132C30.7822 173.063 30.3531 173.082 29.9416 173.188L19.694 175.838L13.8143 177.36L2.96349 180.165C2.30846 180.335 1.72842 180.718 1.3143 181.253C0.900185 181.789 0.675412 182.446 0.675232 183.123V228.942C0.67849 229.64 0.91986 230.317 1.35949 230.86C1.79912 231.403 2.41072 231.779 3.09331 231.928L47.6317 231.423C47.8408 231.468 48.0542 231.49 48.268 231.489C48.5797 231.49 48.8896 231.443 49.1869 231.349L75.6483 232.008C76.2727 231.813 76.8178 231.422 77.2025 230.893C77.5871 230.364 77.791 229.725 77.7838 229.071L77.486 183.301ZM75.4192 231.28L48.9578 231.909C48.5803 232.027 48.1791 232.046 47.792 231.965L3.25113 231.182C2.73935 231.07 2.2809 230.788 1.95143 230.38C1.62195 229.973 1.44114 229.466 1.43884 228.942V183.123C1.43917 182.654 1.58332 182.196 1.85185 181.812C2.12037 181.427 2.50037 181.134 2.94059 180.972C3.0105 180.946 3.08189 180.924 3.15439 180.906L14.6339 177.938L21.4223 176.182L30.1325 173.929C30.3192 173.879 30.5118 173.854 30.7052 173.855C30.8297 173.855 30.954 173.866 31.0768 173.886L74.8032 181.066C75.1551 181.124 75.4887 181.263 75.7776 181.472C76.0665 181.681 76.3029 181.954 76.4679 182.27C76.633 182.591 76.7203 182.946 76.7224 183.306L77.0202 229.076C77.0257 229.566 76.873 230.046 76.5846 230.443C76.2962 230.84 75.8875 231.133 75.4192 231.28Z" fill="#CCCCCC"/>
<path d="M76.4679 182.27C76.4382 182.29 76.4055 182.304 76.3712 182.313L63.5095 185.79L59.5057 186.872L48.1179 189.949C48.0854 189.957 48.0521 189.962 48.0186 189.962C47.9956 189.962 47.9727 189.96 47.9499 189.957L2.03192 181.586L1.8792 181.557C1.77972 181.539 1.69169 181.482 1.63435 181.398C1.577 181.315 1.55501 181.212 1.57318 181.112C1.59134 181.013 1.64818 180.925 1.73128 180.867C1.81439 180.809 1.91699 180.786 2.01665 180.804L2.94062 180.972L48.0033 189.188L57.8182 186.536L63.3085 185.052L75.9715 181.629L76.1726 181.575C76.2595 181.552 76.3518 181.561 76.4332 181.599C76.5146 181.637 76.58 181.703 76.618 181.784C76.6279 181.804 76.6356 181.824 76.641 181.845C76.6619 181.925 76.6564 182.01 76.6252 182.086C76.594 182.163 76.5388 182.228 76.4679 182.27Z" fill="#CCCCCC"/>
<path d="M48.4003 231.578C48.191 231.578 48.0205 231.41 48.0185 232.488L47.6367 190.872C47.6347 189.373 47.8043 189.2 48.0151 189.198H48.0185C48.2278 189.198 48.3984 189.367 48.4003 190.865L48.7821 232.481C48.7841 231.404 48.6146 231.576 48.4038 231.578H48.4003Z" fill="#CCCCCC"/>
<path d="M63.6178 232.061L59.5057 232.105L57.8182 186.536L14.7587 177.969C14.7165 177.961 14.6748 177.951 14.6339 177.938C14.3032 177.844 14.0142 177.64 13.8143 177.36L19.6941 175.838L21.4224 176.182L62.2802 184.309C62.495 184.351 62.6982 184.44 62.8757 184.568C63.0531 184.696 63.2008 184.862 63.3085 185.052C63.4357 185.274 63.6153 231.797 63.6178 232.061Z" fill="#CCCCCC"/>
<path d="M102.752 112.203C102.654 111.987 102.603 111.752 102.604 111.515C102.605 111.277 102.657 111.043 102.756 110.828L106.229 103.302C106.57 102.137 107.36 101.154 108.424 100.57C109.489 99.986 110.741 99.8478 111.908 100.186C113.074 100.524 114.058 101.311 114.645 102.374C115.232 103.436 115.374 104.689 115.039 105.856L113.895 114.092C113.862 114.327 113.78 114.552 113.652 114.752C113.524 114.952 113.355 115.123 113.156 115.252C112.957 115.38 112.732 115.465 112.497 115.499C112.262 115.533 112.023 115.516 111.795 115.449L103.791 113.104C103.563 113.037 103.353 112.922 103.173 112.767C102.994 112.611 102.85 112.419 102.752 112.203Z" fill="#3F3D56"/>
<path d="M13.9382 209.601C13.9031 209.608 13.8673 209.611 13.8314 209.611L3.60093 209.438C3.47302 209.436 3.35129 209.383 3.26244 209.291C3.1736 209.199 3.1249 209.075 3.12702 208.947C3.12914 208.819 3.18193 208.698 3.27378 208.609C3.36563 208.52 3.48905 208.471 3.61696 208.472L13.8475 208.645C13.9662 208.647 14.0801 208.692 14.1673 208.773C14.2545 208.854 14.3089 208.964 14.3201 209.082C14.3314 209.2 14.2986 209.319 14.2282 209.414C14.1577 209.51 14.0545 209.576 13.9382 209.601Z" fill="#E6E6E6"/>
<path d="M17.4797 215.074C17.4446 215.081 17.4088 215.084 17.3729 215.084L7.14243 214.912C7.01453 214.909 6.89279 214.856 6.80395 214.764C6.7151 214.672 6.6664 214.549 6.66852 214.421C6.67065 214.293 6.72343 214.171 6.81528 214.082C6.90714 213.993 7.03055 213.944 7.15846 213.946L17.389 214.118C17.5077 214.12 17.6216 214.166 17.7088 214.246C17.796 214.327 17.8504 214.437 17.8616 214.555C17.8729 214.674 17.8401 214.792 17.7697 214.887C17.6992 214.983 17.596 215.049 17.4797 215.074Z" fill="#E6E6E6"/>
<path d="M43.0926 149.477C43.1376 149.675 43.167 149.877 43.1804 150.079L58.9447 159.174L62.7765 156.968L66.8614 162.315L60.4575 166.88C59.9402 167.248 59.3172 167.439 58.6821 167.424C58.0469 167.408 57.434 167.187 56.9352 166.794L40.6794 153.97C39.9458 154.241 39.1469 154.283 38.389 154.089C37.631 153.896 36.95 153.476 36.4364 152.886C35.9229 152.296 35.6011 151.563 35.514 150.786C35.4268 150.009 35.5784 149.223 35.9486 148.534C36.3188 147.845 36.89 147.285 37.5863 146.928C38.2826 146.572 39.0709 146.436 39.8465 146.538C40.622 146.64 41.348 146.976 41.9278 147.501C42.5077 148.027 42.914 148.716 43.0926 149.477Z" fill="#FFB6B6"/>
<path d="M69.8034 151.54C69.7999 150.997 69.6044 150.473 69.2515 150.061C68.8986 149.649 68.4111 149.375 67.8755 149.288L34.9209 143.876C34.6049 143.824 34.2815 143.838 33.9713 143.918L26.2482 145.915L21.817 147.062L13.6392 149.176C13.1456 149.305 12.7084 149.593 12.3963 149.996C12.0842 150.4 11.9148 150.895 11.9147 151.406V178.415C11.9171 178.942 12.099 179.452 12.4304 179.861C12.7617 180.27 13.2226 180.554 13.7371 180.665L47.3035 187.807C47.4611 187.841 47.6219 187.858 47.7831 187.857C48.018 187.858 48.2516 187.822 48.4756 187.752L68.4183 181.454C68.889 181.307 69.2998 181.012 69.5897 180.614C69.8796 180.215 70.0332 179.733 70.0278 179.24L69.8034 151.54Z" fill="white"/>
<path d="M34.5479 145.86C34.5238 145.86 34.4999 145.863 34.4766 145.869L14.1444 151.127C14.0827 151.143 14.0281 151.179 13.9891 151.229C13.9502 151.28 13.929 151.341 13.929 151.405V178.414C13.9293 178.48 13.9519 178.544 13.9933 178.595C14.0347 178.646 14.0923 178.682 14.1565 178.696L47.723 185.837C47.7716 185.848 47.8221 185.845 47.8695 185.83L67.8126 179.533C67.8713 179.514 67.9226 179.477 67.9588 179.428C67.9949 179.378 68.014 179.318 68.0132 179.256L67.7897 151.556C67.7892 151.488 67.7648 151.423 67.7207 151.371C67.6766 151.32 67.6157 151.286 67.5488 151.275L34.5943 145.863C34.579 145.861 34.5634 145.86 34.5479 145.86Z" fill="#F36B31"/>
<path d="M69.8034 151.54C69.7999 150.997 69.6044 150.473 69.2515 150.061C68.8986 149.649 68.4111 149.375 67.8755 149.288L34.9209 143.876C34.6049 143.824 34.2815 143.838 33.9713 143.918L26.2482 145.915L21.817 147.062L13.6392 149.176C13.1456 149.305 12.7084 149.593 12.3963 149.996C12.0842 150.4 11.9148 150.895 11.9147 151.406V178.415C11.9171 178.942 12.099 179.452 12.4304 179.861C12.7617 180.27 13.2226 180.554 13.7371 180.665L47.3035 187.807C47.4611 187.841 47.6219 187.858 47.7831 187.857C48.018 187.858 48.2516 187.822 48.4756 187.752L68.4183 181.454C68.889 181.307 69.2998 181.012 69.5897 180.614C69.8796 180.215 70.0332 179.733 70.0278 179.24L69.8034 151.54ZM68.2457 180.905L48.303 187.203C48.0185 187.292 47.7161 187.306 47.4244 187.245L13.856 180.103C13.4703 180.019 13.1248 179.806 12.8765 179.499C12.6282 179.192 12.4919 178.81 12.4902 178.415V151.406C12.4904 151.052 12.5991 150.707 12.8014 150.417C13.0038 150.127 13.2902 149.907 13.622 149.785C13.6746 149.765 13.7285 149.748 13.7831 149.735L22.4347 147.498L27.5508 146.174L34.1152 144.477C34.256 144.439 34.4011 144.42 34.5468 144.421C34.6407 144.421 34.7343 144.429 34.8269 144.444L67.7815 149.856C68.0466 149.899 68.2981 150.004 68.5158 150.161C68.7336 150.319 68.9117 150.525 69.036 150.763C69.1605 151.004 69.2262 151.272 69.2279 151.544L69.4523 179.244C69.4564 179.614 69.3413 179.975 69.124 180.274C68.9066 180.574 68.5986 180.795 68.2457 180.905Z" fill="#3F3D56"/>
<path d="M69.0361 150.763C69.0137 150.777 68.9891 150.788 68.9632 150.795L59.27 153.416L56.2525 154.231L47.67 156.55C47.6455 156.556 47.6204 156.559 47.5952 156.56C47.5779 156.56 47.5606 156.558 47.5434 156.556L12.9372 150.247L12.8221 150.226C12.7471 150.212 12.6807 150.168 12.6374 150.106C12.5941 150.043 12.5775 149.965 12.5912 149.89C12.6049 149.815 12.6478 149.748 12.7105 149.705C12.7732 149.661 12.8506 149.644 12.9257 149.658L13.6221 149.784L47.5837 155.977L54.9807 153.978L59.1185 152.859L68.662 150.279L68.8136 150.239C68.8791 150.222 68.9486 150.228 69.01 150.257C69.0713 150.286 69.1206 150.335 69.1493 150.396C69.1567 150.411 69.1625 150.426 69.1665 150.442C69.1824 150.503 69.1782 150.567 69.1547 150.624C69.1312 150.682 69.0896 150.731 69.0361 150.763Z" fill="#3F3D56"/>
<path d="M47.883 187.924C47.8071 187.924 47.7343 187.894 47.6805 187.841C47.6266 187.788 47.5959 187.715 47.5953 187.639L47.3075 156.275C47.3068 156.199 47.3365 156.125 47.3899 156.071C47.4434 156.016 47.5163 155.985 47.5926 155.984H47.5953C47.6711 155.984 47.7439 156.014 47.7978 156.068C47.8517 156.121 47.8823 156.194 47.883 156.27L48.1707 187.634C48.1714 187.71 48.1418 187.784 48.0883 187.838C48.0348 187.893 47.9619 187.924 47.8856 187.924H47.883Z" fill="#3F3D56"/>
<path d="M59.27 184.109L56.2525 184.924L54.9807 153.978L22.5287 147.521C22.4969 147.515 22.4655 147.507 22.4347 147.498C22.1855 147.427 21.9676 147.273 21.817 147.062L26.2483 145.915L27.5508 146.174L58.3435 152.299C58.5054 152.331 58.6585 152.398 58.7923 152.495C58.926 152.591 59.0373 152.716 59.1185 152.859C59.2144 153.026 59.2681 183.909 59.27 184.109Z" fill="#3F3D56"/>
<path d="M25.5983 170.539C25.5624 170.539 25.5267 170.535 25.4917 170.527L15.511 168.273C15.3862 168.245 15.2778 168.168 15.2095 168.06C15.1412 167.951 15.1186 167.821 15.1468 167.696C15.1749 167.571 15.2515 167.462 15.3597 167.394C15.4678 167.325 15.5987 167.303 15.7236 167.331L25.7042 169.584C25.8201 169.611 25.9223 169.679 25.9912 169.775C26.0601 169.872 26.091 169.991 26.0779 170.109C26.0648 170.227 26.0086 170.336 25.9201 170.415C25.8316 170.495 25.7171 170.538 25.5983 170.539Z" fill="white"/>
<path d="M72.7369 104.94C72.7459 104.979 72.7517 105.019 72.7544 105.06L75.8904 106.869L76.6527 106.43L77.4653 107.494L76.1913 108.402C76.0884 108.475 75.9645 108.513 75.8381 108.51C75.7118 108.507 75.5899 108.463 75.4906 108.385L72.2568 105.834C72.1109 105.888 71.952 105.896 71.8012 105.857C71.6504 105.819 71.5149 105.735 71.4128 105.618C71.3106 105.501 71.2466 105.355 71.2293 105.2C71.2119 105.046 71.2421 104.889 71.3157 104.752C71.3894 104.615 71.503 104.504 71.6415 104.433C71.78 104.362 71.9368 104.335 72.0911 104.355C72.2454 104.376 72.3898 104.442 72.5052 104.547C72.6205 104.651 72.7014 104.788 72.7369 104.94Z" fill="#FFB6B6"/>
<path d="M78.0505 105.35C78.0498 105.243 78.0109 105.138 77.9407 105.056C77.8705 104.974 77.7735 104.92 77.667 104.902L71.1112 103.826C71.0484 103.816 70.984 103.818 70.9223 103.834L69.386 104.232L68.5044 104.46L66.8776 104.88C66.7794 104.906 66.6924 104.963 66.6304 105.043C66.5683 105.124 66.5346 105.222 66.5345 105.324V110.697C66.535 110.802 66.5712 110.903 66.6371 110.984C66.703 111.066 66.7947 111.122 66.8971 111.145L73.5745 112.565C73.6059 112.572 73.6379 112.575 73.6699 112.575C73.7167 112.575 73.7631 112.568 73.8077 112.554L77.775 111.301C77.8686 111.272 77.9503 111.214 78.008 111.134C78.0656 111.055 78.0962 110.959 78.0951 110.861L78.0505 105.35Z" fill="white"/>
<path d="M71.0369 104.22C71.0322 104.22 71.0274 104.221 71.0228 104.222L66.978 105.268C66.9658 105.271 66.9549 105.279 66.9471 105.289C66.9394 105.299 66.9352 105.311 66.9352 105.324V110.697C66.9352 110.71 66.9397 110.722 66.948 110.733C66.9562 110.743 66.9677 110.75 66.9804 110.753L73.6579 112.173C73.6676 112.175 73.6776 112.175 73.687 112.172L77.6544 110.919C77.6661 110.915 77.6763 110.908 77.6834 110.898C77.6906 110.888 77.6944 110.876 77.6943 110.864L77.6498 105.354C77.6497 105.34 77.6449 105.327 77.6361 105.317C77.6273 105.307 77.6152 105.3 77.6019 105.298L71.0462 104.221C71.0431 104.221 71.04 104.22 71.0369 104.22Z" fill="#F36B31"/>
<path d="M78.0505 105.35C78.0498 105.243 78.0109 105.138 77.9407 105.056C77.8705 104.974 77.7735 104.92 77.667 104.902L71.1112 103.826C71.0484 103.816 70.984 103.818 70.9223 103.834L69.386 104.232L68.5044 104.46L66.8776 104.88C66.7794 104.906 66.6924 104.963 66.6304 105.043C66.5683 105.124 66.5346 105.222 66.5345 105.324V110.697C66.535 110.802 66.5712 110.903 66.6371 110.984C66.703 111.066 66.7947 111.122 66.8971 111.145L73.5745 112.565C73.6059 112.572 73.6379 112.575 73.6699 112.575C73.7167 112.575 73.7631 112.568 73.8077 112.554L77.775 111.301C77.8686 111.272 77.9503 111.214 78.008 111.134C78.0656 111.055 78.0962 110.959 78.0951 110.861L78.0505 105.35ZM77.7406 111.192L73.7734 112.445C73.7168 112.463 73.6566 112.466 73.5986 112.453L66.9207 111.033C66.844 111.016 66.7753 110.974 66.7259 110.913C66.6765 110.851 66.6494 110.775 66.649 110.697V105.324C66.6491 105.253 66.6707 105.185 66.711 105.127C66.7512 105.07 66.8082 105.026 66.8742 105.001C66.8847 104.997 66.8954 104.994 66.9062 104.991L68.6273 104.546L69.6451 104.283L70.9509 103.945C70.979 103.938 71.0078 103.934 71.0368 103.934C71.0555 103.934 71.0741 103.936 71.0925 103.939L77.6483 105.015C77.701 105.024 77.751 105.045 77.7943 105.076C77.8377 105.108 77.8731 105.149 77.8978 105.196C77.9226 105.244 77.9357 105.297 77.936 105.351L77.9806 110.862C77.9815 110.935 77.9586 111.007 77.9153 111.067C77.8721 111.126 77.8108 111.17 77.7406 111.192Z" fill="#3F3D56"/>
<path d="M77.8979 105.196C77.8934 105.199 77.8885 105.201 77.8834 105.202L75.9551 105.724L75.3548 105.886L73.6475 106.347C73.6426 106.348 73.6376 106.349 73.6326 106.349C73.6291 106.349 73.6257 106.349 73.6223 106.348L66.738 105.093L66.7151 105.089C66.7001 105.086 66.6869 105.078 66.6783 105.065C66.6697 105.053 66.6664 105.037 66.6691 105.022C66.6719 105.007 66.6804 104.994 66.6929 104.985C66.7053 104.977 66.7207 104.973 66.7357 104.976L66.8742 105.001L73.6303 106.233L75.1018 105.835L75.9249 105.613L77.8234 105.1L77.8536 105.092C77.8666 105.088 77.8805 105.089 77.8927 105.095C77.9049 105.101 77.9147 105.111 77.9204 105.123C77.9218 105.126 77.923 105.129 77.9238 105.132C77.927 105.144 77.9261 105.157 77.9214 105.168C77.9168 105.18 77.9085 105.189 77.8979 105.196Z" fill="#3F3D56"/>
<path d="M73.6897 112.589C73.6747 112.589 73.6602 112.583 73.6495 112.572C73.6387 112.561 73.6326 112.547 73.6325 112.532L73.5753 106.293C73.5751 106.277 73.581 106.263 73.5917 106.252C73.6023 106.241 73.6168 106.235 73.632 106.235H73.6325C73.6476 106.235 73.6621 106.241 73.6728 106.251C73.6835 106.262 73.6896 106.276 73.6897 106.291L73.747 112.531C73.7471 112.546 73.7412 112.561 73.7306 112.571C73.7199 112.582 73.7054 112.588 73.6903 112.589H73.6897Z" fill="#3F3D56"/>
<path d="M75.955 111.829L75.3547 111.992L75.1017 105.835L68.646 104.551C68.6397 104.55 68.6334 104.548 68.6273 104.546C68.5777 104.532 68.5344 104.502 68.5044 104.46L69.3859 104.231L69.645 104.283L75.7707 105.501C75.8029 105.508 75.8334 105.521 75.86 105.54C75.8866 105.56 75.9087 105.584 75.9249 105.613C75.9439 105.646 75.9546 111.79 75.955 111.829Z" fill="#3F3D56"/>
<path d="M69.2565 109.13C69.2494 109.13 69.2423 109.129 69.2353 109.127L67.2499 108.679C67.225 108.674 67.2035 108.658 67.1899 108.637C67.1763 108.615 67.1718 108.589 67.1774 108.564C67.183 108.539 67.1982 108.518 67.2198 108.504C67.2413 108.491 67.2673 108.486 67.2921 108.492L69.2776 108.94C69.3007 108.945 69.321 108.959 69.3347 108.978C69.3484 108.997 69.3546 109.021 69.3519 109.044C69.3493 109.068 69.3382 109.09 69.3206 109.105C69.303 109.121 69.2802 109.13 69.2565 109.13Z" fill="white"/>
<path d="M84.6697 114.82C84.824 114.952 84.9677 115.096 85.0993 115.25L103.176 113.139L104.934 109.082L111.403 110.935L108.989 118.419C108.794 119.024 108.408 119.549 107.889 119.916C107.37 120.282 106.746 120.471 106.111 120.453L85.4144 119.864C84.9879 120.52 84.3718 121.03 83.6481 121.327C82.9244 121.624 82.1274 121.694 81.3632 121.527C80.599 121.36 79.9037 120.965 79.3698 120.393C78.8359 119.821 78.4888 119.1 78.3745 118.326C78.2602 117.553 78.3843 116.762 78.7302 116.061C79.0761 115.359 79.6274 114.779 80.3107 114.399C80.9941 114.018 81.7772 113.854 82.5559 113.929C83.3345 114.005 84.0718 114.315 84.6697 114.82Z" fill="#FFB6B6"/>
<circle cx="66" cy="15" r="15" fill="#F36B31"/>
<path d="M61.7663 22V20.4091L66.6882 15.3097C67.2138 14.7557 67.647 14.2704 67.9879 13.8537C68.3336 13.4323 68.5916 13.0322 68.7621 12.6534C68.9325 12.2746 69.0178 11.8722 69.0178 11.446C69.0178 10.9631 68.9041 10.5464 68.6768 10.196C68.4496 9.84091 68.1394 9.56866 67.7464 9.37926C67.3535 9.18513 66.9107 9.08807 66.4183 9.08807C65.8975 9.08807 65.4429 9.1946 65.0547 9.40767C64.6664 9.62074 64.3681 9.9214 64.1598 10.3097C63.9515 10.6979 63.8473 11.1525 63.8473 11.6733H61.7521C61.7521 10.7879 61.9557 10.0137 62.3629 9.35085C62.7701 8.68797 63.3288 8.17424 64.0391 7.80966C64.7493 7.44034 65.5566 7.25568 66.4609 7.25568C67.3748 7.25568 68.1797 7.43797 68.8757 7.80256C69.5765 8.1624 70.1233 8.65483 70.5163 9.27983C70.9093 9.90009 71.1058 10.6009 71.1058 11.3821C71.1058 11.9219 71.004 12.4498 70.8004 12.9659C70.6016 13.482 70.2536 14.0573 69.7564 14.6918C69.2592 15.3215 68.5679 16.0862 67.6825 16.9858L64.7919 20.0114V20.1179H71.3402V22H61.7663Z" fill="white"/>
</svg>
