<svg width="749" height="750" viewBox="0 0 749 750" fill="none" xmlns="http://www.w3.org/2000/svg">
<rect y="0.45105" width="749" height="749" fill="#FFF8F5"/>
<mask id="mask0_10_30" style="mask-type:alpha" maskUnits="userSpaceOnUse" x="0" y="0" width="749" height="750">
<rect y="0.45105" width="749" height="749" fill="#FFF8F5"/>
</mask>
<g mask="url(#mask0_10_30)">
<g filter="url(#filter0_f_10_30)">
<ellipse cx="666.038" cy="66.2415" rx="191.851" ry="105.848" transform="rotate(90 666.038 66.2415)" fill="url(#paint0_linear_10_30)" fill-opacity="0.34"/>
</g>
<g filter="url(#filter1_f_10_30)">
<ellipse cx="61.1163" cy="636.733" rx="191.851" ry="105.848" transform="rotate(90 61.1163 636.733)" fill="url(#paint1_linear_10_30)" fill-opacity="0.34"/>
</g>
</g>
<mask id="mask1_10_30" style="mask-type:alpha" maskUnits="userSpaceOnUse" x="0" y="66" width="749" height="684">
<rect y="66.451" width="749" height="683" fill="#FFF8F5"/>
<mask id="mask2_10_30" style="mask-type:alpha" maskUnits="userSpaceOnUse" x="0" y="66" width="749" height="684">
<rect y="66.451" width="749" height="683" fill="#FFF8F5"/>
</mask>
<g mask="url(#mask2_10_30)">
<ellipse cx="666.038" cy="126.444" rx="174.945" ry="105.848" transform="rotate(90 666.038 126.444)" fill="url(#paint2_linear_10_30)" fill-opacity="0.34"/>
<ellipse cx="61.1163" cy="646.666" rx="174.945" ry="105.848" transform="rotate(90 61.1163 646.666)" fill="url(#paint3_linear_10_30)" fill-opacity="0.34"/>
</g>
</mask>
<g mask="url(#mask1_10_30)">
<g clip-path="url(#clip0_10_30)">
<circle cx="79" cy="79" r="79" transform="matrix(-1 0 0 1 249.326 684.1)" fill="#F36B31"/>
</g>
<g clip-path="url(#clip1_10_30)">
<circle cx="176.592" cy="745.978" r="27.65" fill="#F36B31"/>
</g>
</g>
<defs>
<filter id="filter0_f_10_30" x="210.189" y="-475.609" width="911.697" height="1083.7" filterUnits="userSpaceOnUse" color-interpolation-filters="sRGB">
<feFlood flood-opacity="0" result="BackgroundImageFix"/>
<feBlend mode="normal" in="SourceGraphic" in2="BackgroundImageFix" result="shape"/>
<feGaussianBlur stdDeviation="175" result="effect1_foregroundBlur_10_30"/>
</filter>
<filter id="filter1_f_10_30" x="-394.732" y="94.8823" width="911.697" height="1083.7" filterUnits="userSpaceOnUse" color-interpolation-filters="sRGB">
<feFlood flood-opacity="0" result="BackgroundImageFix"/>
<feBlend mode="normal" in="SourceGraphic" in2="BackgroundImageFix" result="shape"/>
<feGaussianBlur stdDeviation="175" result="effect1_foregroundBlur_10_30"/>
</filter>
<linearGradient id="paint0_linear_10_30" x1="481.088" y1="66.3938" x2="851.539" y2="66.3938" gradientUnits="userSpaceOnUse">
<stop stop-color="#F36B31"/>
<stop offset="0.0001" stop-color="#FFAE8C"/>
<stop offset="0.811667" stop-color="#F36B31"/>
</linearGradient>
<linearGradient id="paint1_linear_10_30" x1="-123.833" y1="636.885" x2="246.618" y2="636.885" gradientUnits="userSpaceOnUse">
<stop stop-color="#F36B31"/>
<stop offset="0.0001" stop-color="#FFAE8C"/>
<stop offset="0.811667" stop-color="#F36B31"/>
</linearGradient>
<linearGradient id="paint2_linear_10_30" x1="497.385" y1="126.597" x2="835.194" y2="126.597" gradientUnits="userSpaceOnUse">
<stop stop-color="#F36B31"/>
<stop offset="0.0001" stop-color="#FFAE8C"/>
<stop offset="0.811667" stop-color="#F36B31"/>
</linearGradient>
<linearGradient id="paint3_linear_10_30" x1="-107.536" y1="646.818" x2="230.272" y2="646.818" gradientUnits="userSpaceOnUse">
<stop stop-color="#F36B31"/>
<stop offset="0.0001" stop-color="#FFAE8C"/>
<stop offset="0.811667" stop-color="#F36B31"/>
</linearGradient>
<clipPath id="clip0_10_30">
<rect width="98.3258" height="158" fill="white" transform="matrix(-1 0 0 1 171.326 670.451)"/>
</clipPath>
<clipPath id="clip1_10_30">
<rect width="34.414" height="55.3" fill="white" transform="translate(176.242 704.451)"/>
</clipPath>
</defs>
</svg>
