<svg width="74" height="68" viewBox="0 0 74 68" fill="none" xmlns="http://www.w3.org/2000/svg">
<path d="M71.7676 13.0113L50.2151 0.56677C48.9048 -0.188923 47.2929 -0.188923 45.9826 0.56677L24.4301 13.0113C24.4301 13.0113 24.4301 13.0113 24.427 13.0144L8.36244 22.2899C7.18929 22.9664 6.75964 24.426 7.40868 25.5443C8.05468 26.6656 9.53255 27.0252 10.7057 26.3457L22.3153 19.6419V25.0902L1.25648 37.2484C0.0833313 37.9248 -0.346314 39.3844 0.302729 40.5027C0.948726 41.6241 2.42659 41.9836 3.59975 41.3041L22.3153 30.4989V35.9076L11.9825 41.8739C10.8093 42.5504 10.3827 44.01 11.0287 45.1283C11.6747 46.2497 13.1526 46.6092 14.3257 45.9297L22.3153 41.3163V41.5601C22.3153 42.3158 22.5165 43.0441 22.8821 43.6748C23.2478 44.3056 23.7749 44.8449 24.4301 45.2228L24.6738 45.3629L4.81251 56.8294C3.63936 57.5058 3.21276 58.9654 3.85875 60.0837C4.50475 61.2051 5.98262 61.5646 7.15577 60.8851L29.3573 48.0658L34.0438 50.7716L24.2259 56.4454C23.0528 57.1219 22.6262 58.5815 23.2722 59.6998C23.9182 60.8211 25.396 61.1807 26.5692 60.5012L38.7273 53.4836L43.4138 56.1895L31.8042 62.8932C30.631 63.5697 30.2044 65.0293 30.8504 66.1506C31.4964 67.2719 32.9743 67.6285 34.1474 66.952L56.5014 54.0443L71.7676 45.2319C73.0748 44.4762 73.8823 43.0806 73.8823 41.5662V16.6771C73.8823 15.1626 73.0778 13.767 71.7676 13.0113Z" fill="#F36B31"/>
<path d="M48.0972 49.4583C47.9693 49.4583 47.8382 49.4248 47.7224 49.3578L30.7559 39.5612C30.5243 39.4271 30.3811 39.1803 30.3811 38.9152V19.322C30.3811 19.0538 30.5243 18.8101 30.7559 18.676C30.9875 18.5419 31.2709 18.5419 31.5025 18.676L48.469 28.4726C48.7006 28.6066 48.8438 28.8535 48.8438 29.1186V48.7118C48.8438 48.9799 48.7006 49.2237 48.469 49.3578C48.3563 49.4278 48.2252 49.4583 48.0972 49.4583ZM31.8773 38.4855L47.3507 47.4198V29.5513L31.8773 20.617V38.4855Z" fill="white"/>
<path d="M48.0972 49.4583C47.9693 49.4583 47.8382 49.4248 47.7224 49.3578L30.7559 39.5612C30.5243 39.4271 30.3811 39.1803 30.3811 38.9152V19.322C30.3811 19.0569 30.5243 18.8101 30.7559 18.676L47.7224 8.87939C47.954 8.74531 48.2374 8.74531 48.469 8.87939L65.4386 18.676C65.6702 18.8101 65.8134 19.0569 65.8134 19.322V38.9152C65.8134 39.1833 65.6702 39.4271 65.4386 39.5612L48.469 49.3578C48.3563 49.4278 48.2252 49.4583 48.0972 49.4583ZM31.8773 38.4855L48.0972 47.8525L64.3172 38.4855V19.7547L48.0972 10.3877L31.8773 19.7547V38.4855Z" fill="white"/>
<path d="M48.0973 49.4583C47.9693 49.4583 47.8382 49.4248 47.7224 49.3578C47.4909 49.2237 47.3477 48.9769 47.3477 48.7118V29.1186C47.3477 28.8504 47.4909 28.6066 47.7224 28.4726L64.692 18.676C64.9236 18.5419 65.207 18.5419 65.4386 18.676C65.6702 18.8101 65.8134 19.0569 65.8134 19.322V38.9152C65.8134 39.1833 65.6702 39.4271 65.4386 39.5612L48.469 49.3578C48.3563 49.4278 48.2252 49.4583 48.0973 49.4583ZM48.8438 29.5513V47.4198L64.3172 38.4855V20.617L48.8438 29.5513Z" fill="white"/>
<path d="M48.0972 29.8651C47.9693 29.8651 47.8382 29.8316 47.7224 29.7646L30.7559 19.968C30.5243 19.8339 30.3811 19.5871 30.3811 19.322C30.3811 19.0538 30.5243 18.8101 30.7559 18.676L47.7224 8.87939C47.954 8.74531 48.2374 8.74531 48.469 8.87939L65.4386 18.676C65.6702 18.8101 65.8134 19.0569 65.8134 19.322C65.8134 19.5901 65.6702 19.8339 65.4386 19.968L48.469 29.7646C48.3563 29.8347 48.2252 29.8651 48.0972 29.8651ZM32.6238 19.322L48.0972 28.2562L63.5737 19.322L48.0972 10.3877L32.6238 19.322Z" fill="white"/>
<path d="M48.0972 29.8651C47.9692 29.8651 47.8382 29.8316 47.7224 29.7646L39.0624 24.7642C38.8308 24.6301 38.6907 24.3833 38.6907 24.1182C38.6907 23.85 38.8339 23.6063 39.0624 23.4722L47.7255 18.4749C47.9571 18.3408 48.2404 18.3408 48.472 18.4749L57.132 23.4752C57.3636 23.6093 57.5068 23.8561 57.5068 24.1212C57.5068 24.3894 57.3636 24.6332 57.132 24.7672L48.472 29.7676C48.3562 29.8347 48.2252 29.8651 48.0972 29.8651ZM40.9303 24.1212L48.0972 28.2593L55.2641 24.1212L48.0972 19.9832L40.9303 24.1212Z" fill="white"/>
<path d="M31.1307 19.322L27.7849 28.7133L44.7514 38.5099L48.0972 29.1216L31.1307 19.322Z" fill="white"/>
<path d="M44.7514 39.2564C44.6234 39.2564 44.4924 39.2229 44.3797 39.1559L27.4131 29.3593C27.1023 29.1795 26.9621 28.8017 27.084 28.4634L30.4298 19.0721C30.5029 18.8619 30.6675 18.6973 30.8747 18.6211C31.0819 18.545 31.3135 18.5663 31.5054 18.676L48.472 28.4726C48.7828 28.6524 48.923 29.0302 48.8011 29.3684L45.4553 38.7598C45.3822 38.967 45.2176 39.1346 45.0104 39.2107C44.9281 39.2412 44.8398 39.2564 44.7514 39.2564ZM28.699 28.3781L44.3522 37.416L47.1861 29.4568L31.5329 20.419L28.699 28.3781Z" fill="white"/>
<path d="M65.0668 19.322L68.4095 28.7133L51.4429 38.5099L48.0972 29.1216L65.0668 19.322Z" fill="white"/>
<path d="M51.4429 39.2564C51.3545 39.2564 51.2692 39.2412 51.1839 39.2107C50.9767 39.1346 50.8121 38.97 50.739 38.7598L47.3963 29.3684C47.2744 29.0302 47.4146 28.6524 47.7254 28.4726L64.695 18.676C64.8869 18.5663 65.1185 18.545 65.3257 18.6211C65.5329 18.6973 65.6975 18.8619 65.7706 19.0721L69.1133 28.4634C69.2352 28.8017 69.0951 29.1795 68.7842 29.3593L51.8147 39.1559C51.6989 39.2229 51.5709 39.2564 51.4429 39.2564ZM49.0082 29.4568L51.8421 37.416L67.4953 28.3781L64.6614 20.419L49.0082 29.4568Z" fill="white"/>
<path d="M5.24519 29.4599C6.3574 28.8169 6.74134 27.3939 6.09839 26.2817C5.45544 25.1695 4.03242 24.7886 2.92021 25.4315C1.808 26.0745 1.42711 27.4975 2.06701 28.6097C2.70996 29.7219 4.13298 30.1028 5.24519 29.4599Z" fill="#F36B31"/>
<path d="M9.22785 48.858C10.3401 48.2151 10.721 46.792 10.0811 45.6798C9.43811 44.5676 8.01508 44.1867 6.90287 44.8297C5.79066 45.4726 5.40977 46.8957 6.04967 48.0079C6.69262 49.117 8.11564 49.4979 9.22785 48.858Z" fill="#F36B31"/>
<path d="M18.3541 59.8552C17.2419 60.4982 16.861 61.9212 17.5039 63.0334C18.1469 64.1456 19.5699 64.5265 20.6821 63.8866C21.7943 63.2436 22.1783 61.8206 21.5353 60.7084C20.8924 59.5932 19.4694 59.2123 18.3541 59.8552Z" fill="#F36B31"/>
</svg>
