<svg width="213" height="68" viewBox="0 0 213 68" fill="none" xmlns="http://www.w3.org/2000/svg">
<path d="M71.7676 13.0113L50.2151 0.56677C48.9048 -0.188923 47.2929 -0.188923 45.9826 0.56677L24.4301 13.0113C24.4301 13.0113 24.4301 13.0113 24.427 13.0144L8.36244 22.2899C7.18929 22.9664 6.75964 24.426 7.40868 25.5443C8.05468 26.6656 9.53255 27.0252 10.7057 26.3457L22.3153 19.6419V25.0902L1.25648 37.2484C0.0833313 37.9248 -0.346314 39.3844 0.302729 40.5027C0.948726 41.6241 2.42659 41.9836 3.59975 41.3041L22.3153 30.4989V35.9076L11.9825 41.8739C10.8093 42.5504 10.3827 44.01 11.0287 45.1283C11.6747 46.2497 13.1526 46.6092 14.3257 45.9297L22.3153 41.3163V41.5601C22.3153 42.3158 22.5165 43.0441 22.8821 43.6748C23.2478 44.3056 23.7749 44.8449 24.4301 45.2228L24.6738 45.3629L4.81251 56.8294C3.63936 57.5058 3.21276 58.9654 3.85875 60.0837C4.50475 61.2051 5.98262 61.5646 7.15577 60.8851L29.3573 48.0658L34.0438 50.7716L24.2259 56.4454C23.0528 57.1219 22.6262 58.5815 23.2722 59.6998C23.9182 60.8211 25.396 61.1807 26.5692 60.5012L38.7273 53.4836L43.4138 56.1895L31.8042 62.8932C30.631 63.5697 30.2044 65.0293 30.8504 66.1506C31.4964 67.2719 32.9743 67.6285 34.1474 66.952L56.5014 54.0443L71.7676 45.2319C73.0748 44.4762 73.8823 43.0806 73.8823 41.5662V16.6771C73.8823 15.1626 73.0778 13.767 71.7676 13.0113Z" fill="#F36B31"/>
<path d="M48.0972 49.4583C47.9693 49.4583 47.8382 49.4248 47.7224 49.3578L30.7559 39.5612C30.5243 39.4271 30.3811 39.1803 30.3811 38.9152V19.322C30.3811 19.0538 30.5243 18.8101 30.7559 18.676C30.9875 18.5419 31.2709 18.5419 31.5025 18.676L48.469 28.4726C48.7006 28.6066 48.8438 28.8535 48.8438 29.1186V48.7118C48.8438 48.9799 48.7006 49.2237 48.469 49.3578C48.3563 49.4278 48.2252 49.4583 48.0972 49.4583ZM31.8773 38.4855L47.3507 47.4198V29.5513L31.8773 20.617V38.4855Z" fill="white"/>
<path d="M48.0972 49.4583C47.9693 49.4583 47.8382 49.4248 47.7224 49.3578L30.7559 39.5612C30.5243 39.4271 30.3811 39.1803 30.3811 38.9152V19.322C30.3811 19.0569 30.5243 18.8101 30.7559 18.676L47.7224 8.87939C47.954 8.74531 48.2374 8.74531 48.469 8.87939L65.4386 18.676C65.6702 18.8101 65.8134 19.0569 65.8134 19.322V38.9152C65.8134 39.1833 65.6702 39.4271 65.4386 39.5612L48.469 49.3578C48.3563 49.4278 48.2252 49.4583 48.0972 49.4583ZM31.8773 38.4855L48.0972 47.8525L64.3172 38.4855V19.7547L48.0972 10.3877L31.8773 19.7547V38.4855Z" fill="white"/>
<path d="M48.0973 49.4583C47.9693 49.4583 47.8382 49.4248 47.7224 49.3578C47.4909 49.2237 47.3477 48.9769 47.3477 48.7118V29.1186C47.3477 28.8504 47.4909 28.6066 47.7224 28.4726L64.692 18.676C64.9236 18.5419 65.207 18.5419 65.4386 18.676C65.6702 18.8101 65.8134 19.0569 65.8134 19.322V38.9152C65.8134 39.1833 65.6702 39.4271 65.4386 39.5612L48.469 49.3578C48.3563 49.4278 48.2252 49.4583 48.0973 49.4583ZM48.8438 29.5513V47.4198L64.3172 38.4855V20.617L48.8438 29.5513Z" fill="white"/>
<path d="M48.0972 29.8651C47.9693 29.8651 47.8382 29.8316 47.7224 29.7646L30.7559 19.968C30.5243 19.8339 30.3811 19.5871 30.3811 19.322C30.3811 19.0538 30.5243 18.8101 30.7559 18.676L47.7224 8.87939C47.954 8.74531 48.2374 8.74531 48.469 8.87939L65.4386 18.676C65.6702 18.8101 65.8134 19.0569 65.8134 19.322C65.8134 19.5901 65.6702 19.8339 65.4386 19.968L48.469 29.7646C48.3563 29.8347 48.2252 29.8651 48.0972 29.8651ZM32.6238 19.322L48.0972 28.2562L63.5737 19.322L48.0972 10.3877L32.6238 19.322Z" fill="white"/>
<path d="M48.0972 29.8651C47.9692 29.8651 47.8382 29.8316 47.7224 29.7646L39.0624 24.7642C38.8308 24.6301 38.6907 24.3833 38.6907 24.1182C38.6907 23.85 38.8339 23.6063 39.0624 23.4722L47.7255 18.4749C47.9571 18.3408 48.2404 18.3408 48.472 18.4749L57.132 23.4752C57.3636 23.6093 57.5068 23.8561 57.5068 24.1212C57.5068 24.3894 57.3636 24.6332 57.132 24.7672L48.472 29.7676C48.3562 29.8347 48.2252 29.8651 48.0972 29.8651ZM40.9303 24.1212L48.0972 28.2593L55.2641 24.1212L48.0972 19.9832L40.9303 24.1212Z" fill="white"/>
<path d="M31.1307 19.322L27.7849 28.7133L44.7514 38.5099L48.0972 29.1216L31.1307 19.322Z" fill="white"/>
<path d="M44.7514 39.2564C44.6234 39.2564 44.4924 39.2229 44.3797 39.1559L27.4131 29.3593C27.1023 29.1795 26.9621 28.8017 27.084 28.4634L30.4298 19.0721C30.5029 18.8619 30.6675 18.6973 30.8747 18.6211C31.0819 18.545 31.3135 18.5663 31.5054 18.676L48.472 28.4726C48.7828 28.6524 48.923 29.0302 48.8011 29.3684L45.4553 38.7598C45.3822 38.967 45.2176 39.1346 45.0104 39.2107C44.9281 39.2412 44.8398 39.2564 44.7514 39.2564ZM28.699 28.3781L44.3522 37.416L47.1861 29.4568L31.5329 20.419L28.699 28.3781Z" fill="white"/>
<path d="M65.0668 19.322L68.4095 28.7133L51.4429 38.5099L48.0972 29.1216L65.0668 19.322Z" fill="white"/>
<path d="M51.4429 39.2564C51.3545 39.2564 51.2692 39.2412 51.1839 39.2107C50.9767 39.1346 50.8121 38.97 50.739 38.7598L47.3963 29.3684C47.2744 29.0302 47.4146 28.6524 47.7254 28.4726L64.695 18.676C64.8869 18.5663 65.1185 18.545 65.3257 18.6211C65.5329 18.6973 65.6975 18.8619 65.7706 19.0721L69.1133 28.4634C69.2352 28.8017 69.0951 29.1795 68.7842 29.3593L51.8147 39.1559C51.6989 39.2229 51.5709 39.2564 51.4429 39.2564ZM49.0082 29.4568L51.8421 37.416L67.4953 28.3781L64.6614 20.419L49.0082 29.4568Z" fill="white"/>
<path d="M5.24519 29.4599C6.3574 28.8169 6.74134 27.3939 6.09839 26.2817C5.45544 25.1695 4.03242 24.7886 2.92021 25.4315C1.808 26.0745 1.42711 27.4975 2.06701 28.6097C2.70996 29.7219 4.13298 30.1028 5.24519 29.4599Z" fill="#F36B31"/>
<path d="M9.22785 48.858C10.3401 48.2151 10.721 46.792 10.0811 45.6798C9.43811 44.5676 8.01508 44.1867 6.90287 44.8297C5.79066 45.4726 5.40977 46.8957 6.04967 48.0079C6.69262 49.117 8.11564 49.4979 9.22785 48.858Z" fill="#F36B31"/>
<path d="M18.3541 59.8552C17.2419 60.4982 16.861 61.9212 17.5039 63.0334C18.1469 64.1456 19.5699 64.5265 20.6821 63.8866C21.7943 63.2436 22.1783 61.8206 21.5353 60.7084C20.8924 59.5932 19.4694 59.2123 18.3541 59.8552Z" fill="#F36B31"/>
<path d="M89.7044 24.3465C88.3601 24.3465 87.2215 24.0737 86.2884 23.5281C85.3633 22.9746 84.6595 22.1957 84.1771 21.1915C83.6948 20.1873 83.4536 18.9972 83.4536 17.6213C83.4536 16.5775 83.5722 15.5259 83.8095 14.4663C84.0546 13.4067 84.4223 12.4025 84.9125 11.4536C85.4028 10.4968 86.0196 9.6507 86.7629 8.91532C87.5061 8.17202 88.376 7.58688 89.3723 7.15988C90.3765 6.72498 91.5112 6.50752 92.7764 6.50752C93.7411 6.50752 94.5832 6.59846 95.3028 6.78033C96.0303 6.9622 96.738 7.23896 97.4259 7.6106L96.3229 9.9235C95.8168 9.63884 95.2791 9.40162 94.7097 9.21184C94.1404 9.02206 93.496 8.92718 92.7764 8.92718C91.8987 8.92718 91.1119 9.09323 90.4161 9.42534C89.7281 9.75745 89.1272 10.2121 88.6132 10.7894C88.1071 11.3666 87.688 12.0269 87.3559 12.7702C87.0238 13.5055 86.7747 14.2805 86.6087 15.0949C86.4426 15.9015 86.3596 16.7041 86.3596 17.5027C86.3596 18.9181 86.6877 20.0093 87.344 20.7764C88.0004 21.5355 88.9651 21.915 90.2381 21.915C90.9103 21.915 91.5745 21.8399 92.2308 21.6897C92.895 21.5394 93.5474 21.3457 94.1879 21.1085V23.5281C93.6343 23.7337 92.9899 23.9235 92.2545 24.0974C91.527 24.2635 90.677 24.3465 89.7044 24.3465Z" fill="#191720"/>
<path d="M96.9871 24.1093L100.901 5.65353H103.665L102.799 9.6507C102.736 9.99862 102.649 10.3782 102.538 10.7894C102.435 11.2005 102.325 11.6078 102.206 12.011C102.095 12.4143 101.988 12.786 101.886 13.126H101.992C102.309 12.7148 102.665 12.3273 103.06 11.9636C103.463 11.5999 103.914 11.3073 104.412 11.0859C104.918 10.8566 105.48 10.7419 106.096 10.7419C106.816 10.7419 107.425 10.8842 107.923 11.1689C108.421 11.4457 108.801 11.8489 109.062 12.3787C109.323 12.9006 109.453 13.5411 109.453 14.3002C109.453 14.6007 109.429 14.9249 109.382 15.2728C109.334 15.6128 109.271 15.9687 109.192 16.3403L107.543 24.1093H104.768L106.452 16.1387C106.523 15.8303 106.575 15.5535 106.606 15.3084C106.638 15.0633 106.654 14.8419 106.654 14.6442C106.654 14.1065 106.527 13.6993 106.274 13.4225C106.021 13.1458 105.63 13.0074 105.1 13.0074C104.539 13.0074 103.985 13.2248 103.439 13.6597C102.894 14.0867 102.404 14.7114 101.969 15.5338C101.534 16.3482 101.194 17.3367 100.949 18.499L99.7626 24.1093H96.9871Z" fill="#191720"/>
<path d="M116.878 24.3465C115.874 24.3465 114.996 24.1567 114.245 23.7772C113.502 23.3897 112.924 22.8244 112.513 22.0811C112.11 21.3299 111.908 20.4126 111.908 19.3293C111.908 18.2539 112.062 17.2062 112.371 16.1861C112.679 15.1582 113.134 14.233 113.735 13.4106C114.336 12.5883 115.067 11.9359 115.929 11.4536C116.791 10.9712 117.772 10.7301 118.871 10.7301C120.215 10.7301 121.223 11.0345 121.895 11.6434C122.575 12.2443 122.915 13.043 122.915 14.0393C122.915 14.7193 122.761 15.34 122.453 15.9015C122.144 16.4629 121.674 16.9492 121.041 17.3604C120.417 17.7636 119.622 18.076 118.657 18.2974C117.7 18.5188 116.574 18.6295 115.277 18.6295H114.743C114.735 18.7481 114.727 18.8707 114.719 18.9972C114.711 19.1158 114.707 19.2344 114.707 19.353C114.707 20.2307 114.937 20.9226 115.395 21.4287C115.854 21.9269 116.522 22.176 117.4 22.176C118.064 22.176 118.677 22.0929 119.238 21.9269C119.8 21.7608 120.428 21.5117 121.124 21.1796V23.3739C120.484 23.6823 119.835 23.9235 119.179 24.0974C118.523 24.2635 117.756 24.3465 116.878 24.3465ZM115.087 16.6131H115.49C116.455 16.6131 117.293 16.5222 118.005 16.3403C118.716 16.1505 119.266 15.8738 119.654 15.5101C120.041 15.1384 120.235 14.6877 120.235 14.1579C120.235 13.7467 120.104 13.4265 119.843 13.1971C119.59 12.9599 119.211 12.8413 118.705 12.8413C118.206 12.8413 117.716 12.9955 117.234 13.3039C116.752 13.6044 116.321 14.0393 115.941 14.6086C115.561 15.17 115.277 15.8382 115.087 16.6131Z" fill="#191720"/>
<path d="M127.422 29.9449C125.833 29.9449 124.592 29.6484 123.698 29.0554C122.812 28.4702 122.37 27.6518 122.37 26.6001C122.37 25.7778 122.65 25.0661 123.212 24.4651C123.765 23.8642 124.647 23.3621 125.857 22.9588C125.556 22.7927 125.331 22.5832 125.181 22.3301C125.031 22.0771 124.955 21.7845 124.955 21.4524C124.955 20.9068 125.141 20.4363 125.513 20.041C125.892 19.6377 126.462 19.2581 127.221 18.9023C126.707 18.5781 126.312 18.1669 126.035 17.6688C125.758 17.1627 125.62 16.5696 125.62 15.8896C125.628 15.1147 125.754 14.4109 125.999 13.7783C126.252 13.1458 126.612 12.6041 127.079 12.1534C127.537 11.7027 128.091 11.3547 128.739 11.1096C129.387 10.8645 130.107 10.7419 130.898 10.7419C131.214 10.7419 131.53 10.7656 131.847 10.8131C132.163 10.8526 132.475 10.9159 132.784 11.0029H137.315L136.971 12.5804L134.646 12.9599C134.772 13.1813 134.863 13.4344 134.919 13.719C134.982 14.0037 135.014 14.3121 135.014 14.6442C135.014 15.4033 134.887 16.0912 134.634 16.708C134.389 17.3169 134.037 17.8388 133.578 18.2737C133.136 18.7007 132.594 19.0288 131.953 19.2581C131.321 19.4795 130.609 19.5942 129.818 19.6021C129.597 19.6021 129.395 19.5942 129.214 19.5784C129.032 19.5547 128.87 19.527 128.727 19.4954C128.276 19.6456 127.94 19.8314 127.719 20.0528C127.498 20.2663 127.387 20.4996 127.387 20.7526C127.387 20.9582 127.45 21.1243 127.577 21.2508C127.695 21.3615 127.861 21.4485 128.075 21.5117C128.288 21.5671 128.553 21.6145 128.87 21.6541L130.388 21.8438C131.289 21.9545 132.025 22.1404 132.594 22.4013C133.171 22.6623 133.594 23.0141 133.863 23.4569C134.14 23.8919 134.278 24.4335 134.278 25.0819C134.278 25.9359 134.096 26.6792 133.733 27.3118C133.377 27.9444 132.855 28.4663 132.167 28.8774C131.59 29.2254 130.902 29.4903 130.103 29.6721C129.304 29.854 128.411 29.9449 127.422 29.9449ZM127.565 28.0116C128.253 28.0116 128.858 27.9523 129.38 27.8337C129.909 27.7151 130.348 27.5411 130.696 27.3118C131.028 27.0983 131.281 26.8413 131.455 26.5408C131.629 26.2403 131.716 25.8964 131.716 25.5089C131.716 25.3349 131.689 25.1808 131.633 25.0463C131.586 24.9198 131.511 24.8052 131.408 24.7024C131.218 24.5126 130.957 24.3663 130.625 24.2635C130.293 24.1607 129.878 24.0816 129.38 24.0263L127.624 23.8365C127.015 23.9472 126.501 24.1172 126.082 24.3465C125.671 24.5758 125.359 24.8526 125.145 25.1768C124.94 25.5089 124.837 25.8806 124.837 26.2917C124.837 26.8453 125.066 27.2683 125.525 27.5609C125.983 27.8613 126.663 28.0116 127.565 28.0116ZM129.866 17.8111C130.404 17.8111 130.866 17.6569 131.254 17.3485C131.641 17.0322 131.938 16.6131 132.143 16.0912C132.357 15.5614 132.463 14.9724 132.463 14.3239C132.463 14.0235 132.424 13.7625 132.345 13.5411C132.274 13.3197 132.163 13.1378 132.013 12.9955C131.878 12.8532 131.708 12.7464 131.503 12.6753C131.305 12.6041 131.076 12.5685 130.815 12.5685C130.411 12.5685 130.048 12.6594 129.724 12.8413C129.407 13.0153 129.134 13.2604 128.905 13.5767C128.684 13.8851 128.51 14.2488 128.383 14.6679C128.265 15.087 128.205 15.5377 128.205 16.0201C128.205 16.2573 128.229 16.4708 128.276 16.6606C128.332 16.8503 128.411 17.0164 128.514 17.1587C128.783 17.5936 129.233 17.8111 129.866 17.8111Z" fill="#191720"/>
<path d="M142.557 24.3228C141.561 24.3228 140.691 24.1172 139.948 23.706C139.204 23.2948 138.627 22.7137 138.216 21.9625C137.813 21.2034 137.611 20.3059 137.611 19.27C137.611 18.3923 137.702 17.5383 137.884 16.708C138.074 15.8777 138.35 15.1028 138.714 14.3833C139.078 13.6637 139.533 13.035 140.078 12.4973C140.624 11.9517 141.256 11.5287 141.976 11.2282C142.696 10.9198 143.502 10.7656 144.396 10.7656C145.416 10.7656 146.293 10.9712 147.029 11.3824C147.764 11.7936 148.33 12.3827 148.725 13.1497C149.12 13.9167 149.318 14.834 149.318 15.9015C149.318 16.7555 149.227 17.5897 149.045 18.4041C148.871 19.2186 148.606 19.9856 148.25 20.7052C147.895 21.4168 147.444 22.0455 146.898 22.5911C146.361 23.1288 145.728 23.5518 145.001 23.8602C144.281 24.1686 143.467 24.3228 142.557 24.3228ZM142.759 22.0455C143.202 22.0455 143.613 21.9466 143.992 21.749C144.38 21.5434 144.728 21.2547 145.036 20.8831C145.345 20.5035 145.605 20.0568 145.819 19.5428C146.04 19.0209 146.21 18.4437 146.329 17.8111C146.448 17.1785 146.507 16.5024 146.507 15.7829C146.507 15.3005 146.436 14.8537 146.293 14.4426C146.151 14.0235 145.914 13.6874 145.582 13.4344C145.258 13.1734 144.823 13.043 144.277 13.043C143.787 13.043 143.336 13.1616 142.925 13.3988C142.522 13.6281 142.162 13.9483 141.846 14.3595C141.537 14.7707 141.276 15.2452 141.063 15.7829C140.849 16.3126 140.687 16.882 140.576 17.4908C140.466 18.0918 140.41 18.7007 140.41 19.3174C140.41 20.1952 140.608 20.8712 141.003 21.3457C141.407 21.8122 141.992 22.0455 142.759 22.0455Z" fill="#191720"/>
<path d="M155.071 24.3465C154.367 24.3465 153.766 24.2081 153.268 23.9314C152.777 23.6546 152.402 23.2553 152.141 22.7334C151.888 22.2036 151.761 21.571 151.761 20.8357C151.761 20.5115 151.785 20.1556 151.833 19.7682C151.888 19.3728 151.955 18.9656 152.034 18.5465L153.647 10.9791H156.423L154.727 18.9498C154.671 19.2581 154.624 19.5389 154.584 19.7919C154.553 20.037 154.537 20.2624 154.537 20.468C154.537 20.9978 154.659 21.401 154.905 21.6778C155.158 21.9466 155.549 22.0811 156.079 22.0811C156.648 22.0811 157.202 21.8676 157.739 21.4406C158.285 21.0057 158.779 20.377 159.222 19.5547C159.665 18.7323 160.009 17.7399 160.254 16.5775L161.44 10.9791H164.192L161.416 24.1093H159.234L159.518 21.6185H159.4C159.084 22.085 158.716 22.5278 158.297 22.9469C157.878 23.3581 157.403 23.6942 156.873 23.9551C156.344 24.2161 155.743 24.3465 155.071 24.3465Z" fill="#191720"/>
<path d="M175.721 24.3465C174.851 24.3465 174.072 24.2675 173.384 24.1093C172.704 23.9512 172.099 23.7218 171.569 23.4214V20.8119C172.178 21.1361 172.823 21.4089 173.503 21.6303C174.191 21.8438 174.938 21.9506 175.744 21.9506C176.219 21.9506 176.666 21.9032 177.085 21.8083C177.504 21.7055 177.875 21.5473 178.2 21.3338C178.524 21.1203 178.777 20.8515 178.959 20.5273C179.141 20.1952 179.232 19.8037 179.232 19.353C179.232 18.8944 179.137 18.499 178.947 18.1669C178.757 17.8348 178.476 17.5225 178.105 17.2299C177.733 16.9294 177.267 16.6052 176.705 16.2573C176.167 15.9094 175.665 15.5259 175.199 15.1068C174.732 14.6877 174.357 14.2014 174.072 13.6479C173.787 13.0864 173.645 12.4222 173.645 11.6552C173.645 10.8645 173.787 10.1528 174.072 9.52023C174.365 8.88764 174.772 8.34994 175.294 7.90713C175.823 7.45641 176.44 7.11244 177.144 6.87522C177.856 6.638 178.627 6.51939 179.457 6.51939C180.358 6.51939 181.169 6.61427 181.888 6.80405C182.608 6.98592 183.304 7.25477 183.976 7.6106L182.944 9.84048C182.414 9.57953 181.853 9.36603 181.26 9.19998C180.675 9.02602 180.074 8.93904 179.457 8.93904C179.046 8.93904 178.662 8.99439 178.306 9.10509C177.958 9.2158 177.654 9.3779 177.393 9.59139C177.132 9.80489 176.927 10.0698 176.776 10.3861C176.634 10.6945 176.563 11.0503 176.563 11.4536C176.563 11.9122 176.654 12.2997 176.836 12.616C177.017 12.9323 177.282 13.2248 177.63 13.4937C177.978 13.7546 178.401 14.0393 178.899 14.3477C179.572 14.7668 180.149 15.1977 180.631 15.6405C181.113 16.0833 181.481 16.5775 181.734 17.1232C181.987 17.6688 182.114 18.3132 182.114 19.0565C182.114 19.95 181.952 20.7289 181.627 21.3931C181.311 22.0494 180.86 22.599 180.275 23.0418C179.698 23.4767 179.022 23.8049 178.247 24.0263C177.472 24.2398 176.63 24.3465 175.721 24.3465Z" fill="#191720"/>
<path d="M188.305 24.3465C187.601 24.3465 187 24.2081 186.502 23.9314C186.012 23.6546 185.636 23.2553 185.376 22.7334C185.122 22.2036 184.996 21.571 184.996 20.8357C184.996 20.5115 185.02 20.1556 185.067 19.7682C185.122 19.3728 185.19 18.9656 185.269 18.5465L186.882 10.9791H189.657L187.961 18.9498C187.906 19.2581 187.858 19.5389 187.819 19.7919C187.787 20.037 187.771 20.2624 187.771 20.468C187.771 20.9978 187.894 21.401 188.139 21.6778C188.392 21.9466 188.784 22.0811 189.313 22.0811C189.883 22.0811 190.436 21.8676 190.974 21.4406C191.52 21.0057 192.014 20.377 192.457 19.5547C192.899 18.7323 193.243 17.7399 193.488 16.5775L194.675 10.9791H197.426L194.651 24.1093H192.468L192.753 21.6185H192.634C192.318 22.085 191.95 22.5278 191.531 22.9469C191.112 23.3581 190.638 23.6942 190.108 23.9551C189.578 24.2161 188.977 24.3465 188.305 24.3465Z" fill="#191720"/>
<path d="M202.776 24.3465C202.104 24.3465 201.491 24.1844 200.937 23.8602C200.392 23.5281 199.957 23.022 199.632 22.342C199.308 21.6541 199.146 20.7803 199.146 19.7207C199.146 18.8035 199.241 17.9099 199.431 17.0401C199.629 16.1703 199.905 15.3559 200.261 14.5968C200.625 13.8376 201.064 13.1695 201.578 12.5922C202.092 12.0071 202.673 11.5524 203.321 11.2282C203.97 10.8961 204.669 10.7301 205.421 10.7301C205.99 10.7301 206.488 10.8289 206.915 11.0266C207.342 11.2164 207.702 11.4733 207.995 11.7975C208.287 12.1217 208.524 12.4815 208.706 12.8769H208.813L209.525 10.9791H211.66L208.872 24.1093H206.749L207.01 21.9862H206.915C206.575 22.4211 206.196 22.8165 205.777 23.1723C205.365 23.5281 204.911 23.8128 204.412 24.0263C203.914 24.2398 203.369 24.3465 202.776 24.3465ZM203.796 22.0811C204.349 22.0811 204.879 21.8755 205.385 21.4643C205.891 21.0452 206.338 20.4917 206.725 19.8037C207.121 19.1158 207.413 18.3607 207.603 17.5383C207.698 17.1429 207.761 16.7673 207.793 16.4115C207.832 16.0557 207.852 15.6998 207.852 15.344C207.852 14.6561 207.67 14.0946 207.307 13.6597C206.943 13.2248 206.445 13.0074 205.812 13.0074C205.377 13.0074 204.962 13.1299 204.567 13.3751C204.179 13.6202 203.827 13.9602 203.511 14.3951C203.195 14.8221 202.918 15.3163 202.681 15.8777C202.451 16.4392 202.274 17.0441 202.147 17.6925C202.028 18.333 201.969 18.9853 201.969 19.6496C201.969 20.4482 202.127 21.0531 202.444 21.4643C202.768 21.8755 203.218 22.0811 203.796 22.0811Z" fill="#191720"/>
<path d="M82.6589 53.2584L86.324 35.9175H95.5637L95.0537 38.3134H88.625L87.6287 43.0223H93.6423L93.1441 45.4063H87.1305L85.9682 50.8506H92.3968L91.8868 53.2584H82.6589Z" fill="#191720"/>
<path d="M95.2079 53.2584L98.0071 40.0926H100.249L99.9642 42.5716H100.035C100.352 42.105 100.719 41.6662 101.138 41.255C101.558 40.8359 102.032 40.4959 102.562 40.2349C103.099 39.974 103.7 39.8435 104.365 39.8435C105.092 39.8435 105.709 39.9859 106.215 40.2705C106.721 40.5552 107.105 40.9624 107.365 41.4922C107.626 42.022 107.757 42.6546 107.757 43.39C107.757 43.7142 107.729 44.0621 107.674 44.4337C107.626 44.7975 107.563 45.1533 107.484 45.5012L105.835 53.2584H103.001L104.685 45.2759C104.756 44.9675 104.807 44.6907 104.839 44.4456C104.879 44.2005 104.898 43.9712 104.898 43.7577C104.898 43.2358 104.768 42.8444 104.507 42.5834C104.254 42.3225 103.874 42.192 103.368 42.192C102.815 42.192 102.269 42.4055 101.731 42.8325C101.194 43.2595 100.707 43.8802 100.273 44.6947C99.8377 45.5091 99.4937 46.4936 99.2407 47.6481L98.0546 53.2584H95.2079Z" fill="#191720"/>
<path d="M115.04 53.4956C114.099 53.4956 113.26 53.3216 112.525 52.9737C111.79 52.6258 111.212 52.092 110.793 51.3725C110.374 50.6529 110.165 49.7356 110.165 48.6207C110.165 47.6797 110.264 46.7783 110.461 45.9164C110.667 45.0466 110.963 44.2479 111.351 43.5204C111.738 42.7851 112.213 42.1485 112.774 41.6108C113.336 41.0652 113.976 40.6422 114.696 40.3417C115.415 40.0333 116.21 39.8791 117.08 39.8791C117.76 39.8791 118.396 39.9463 118.989 40.0807C119.582 40.2073 120.128 40.3852 120.626 40.6145L119.796 42.8088C119.416 42.6348 119.009 42.4846 118.574 42.3581C118.147 42.2236 117.677 42.1564 117.163 42.1564C116.522 42.1564 115.945 42.3304 115.431 42.6783C114.917 43.0183 114.478 43.4888 114.114 44.0898C113.751 44.6828 113.47 45.3549 113.272 46.1062C113.082 46.8573 112.988 47.6441 112.988 48.4665C112.988 49.0516 113.086 49.5498 113.284 49.961C113.482 50.3722 113.766 50.6885 114.138 50.9099C114.518 51.1234 114.972 51.2301 115.502 51.2301C116.087 51.2301 116.637 51.1471 117.151 50.981C117.665 50.8071 118.179 50.5936 118.693 50.3405V52.6416C118.203 52.9025 117.657 53.1081 117.056 53.2584C116.455 53.4165 115.783 53.4956 115.04 53.4956Z" fill="#191720"/>
<path d="M126.497 53.4719C125.501 53.4719 124.631 53.2663 123.888 52.8551C123.145 52.4439 122.567 51.8627 122.156 51.1115C121.753 50.3524 121.551 49.4549 121.551 48.4191C121.551 47.5413 121.642 46.6873 121.824 45.8571C122.014 45.0268 122.291 44.2519 122.654 43.5323C123.018 42.8127 123.473 42.1841 124.018 41.6464C124.564 41.1008 125.197 40.6777 125.916 40.3773C126.636 40.0689 127.442 39.9147 128.336 39.9147C129.356 39.9147 130.234 40.1203 130.969 40.5315C131.704 40.9426 132.27 41.5317 132.665 42.2988C133.06 43.0658 133.258 43.983 133.258 45.0505C133.258 45.9045 133.167 46.7387 132.985 47.5532C132.811 48.3677 132.546 49.1347 132.191 49.8542C131.835 50.5659 131.384 51.1945 130.838 51.7401C130.301 52.2778 129.668 52.7009 128.941 53.0093C128.221 53.3177 127.407 53.4719 126.497 53.4719ZM126.699 51.1945C127.142 51.1945 127.553 51.0957 127.933 50.898C128.32 50.6924 128.668 50.4038 128.976 50.0322C129.285 49.6526 129.546 49.2058 129.759 48.6919C129.981 48.17 130.151 47.5927 130.269 46.9601C130.388 46.3276 130.447 45.6515 130.447 44.9319C130.447 44.4496 130.376 44.0028 130.234 43.5916C130.091 43.1725 129.854 42.8365 129.522 42.5834C129.198 42.3225 128.763 42.192 128.217 42.192C127.727 42.192 127.276 42.3106 126.865 42.5478C126.462 42.7772 126.102 43.0974 125.786 43.5086C125.477 43.9198 125.216 44.3942 125.003 44.9319C124.789 45.4617 124.627 46.031 124.517 46.6399C124.406 47.2409 124.35 47.8497 124.35 48.4665C124.35 49.3442 124.548 50.0203 124.944 50.4947C125.347 50.9613 125.932 51.1945 126.699 51.1945Z" fill="#191720"/>
<path d="M134.942 53.2584L137.73 40.1282H139.9L139.616 42.6071H139.734C140.043 42.1406 140.398 41.7018 140.802 41.2906C141.213 40.8715 141.675 40.5315 142.189 40.2705C142.711 40.0096 143.297 39.8791 143.945 39.8791C144.862 39.8791 145.562 40.1321 146.044 40.6382C146.535 41.1443 146.839 41.8362 146.958 42.7139H147.053C147.377 42.2078 147.752 41.7413 148.179 41.3143C148.614 40.8873 149.101 40.5433 149.638 40.2824C150.184 40.0135 150.777 39.8791 151.417 39.8791C152.477 39.8791 153.28 40.1875 153.825 40.8043C154.371 41.421 154.644 42.2829 154.644 43.39C154.644 43.7221 154.62 44.0621 154.572 44.41C154.533 44.7579 154.47 45.1177 154.383 45.4894L152.746 53.2584H149.97L151.666 45.2877C151.73 44.9794 151.777 44.7026 151.809 44.4575C151.848 44.2044 151.868 43.9672 151.868 43.7458C151.868 43.2318 151.746 42.8404 151.5 42.5716C151.263 42.2948 150.899 42.1564 150.409 42.1564C149.998 42.1564 149.591 42.279 149.187 42.5241C148.792 42.7692 148.417 43.1251 148.061 43.5916C147.705 44.0581 147.389 44.6235 147.112 45.2877C146.835 45.944 146.61 46.6873 146.436 47.5176L145.226 53.2584H142.462L144.135 45.3115C144.206 44.9952 144.257 44.7105 144.289 44.4575C144.321 44.2044 144.336 43.983 144.336 43.7933C144.336 43.2635 144.222 42.8602 143.992 42.5834C143.771 42.2988 143.415 42.1564 142.925 42.1564C142.514 42.1564 142.106 42.279 141.703 42.5241C141.3 42.7692 140.92 43.129 140.565 43.6035C140.209 44.0779 139.888 44.6552 139.604 45.3352C139.319 46.0073 139.086 46.7783 138.904 47.6481L137.718 53.2584H134.942Z" fill="#191720"/>
<path d="M162.069 53.4956C161.064 53.4956 160.187 53.3058 159.435 52.9263C158.692 52.5388 158.115 51.9734 157.704 51.2301C157.3 50.4789 157.099 49.5617 157.099 48.4784C157.099 47.403 157.253 46.3552 157.561 45.3352C157.87 44.3072 158.324 43.3821 158.925 42.5597C159.526 41.7373 160.258 41.085 161.12 40.6026C161.982 40.1203 162.962 39.8791 164.061 39.8791C165.405 39.8791 166.414 40.1835 167.086 40.7924C167.766 41.3934 168.106 42.192 168.106 43.1883C168.106 43.8684 167.952 44.4891 167.643 45.0505C167.335 45.6119 166.864 46.0982 166.232 46.5094C165.607 46.9127 164.812 47.225 163.848 47.4464C162.891 47.6679 161.764 47.7786 160.467 47.7786H159.934C159.926 47.8972 159.918 48.0197 159.91 48.1462C159.902 48.2649 159.898 48.3835 159.898 48.5021C159.898 49.3798 160.127 50.0717 160.586 50.5778C161.045 51.0759 161.713 51.325 162.59 51.325C163.255 51.325 163.868 51.242 164.429 51.0759C164.99 50.9099 165.619 50.6608 166.315 50.3287V52.523C165.674 52.8314 165.026 53.0725 164.37 53.2465C163.713 53.4126 162.946 53.4956 162.069 53.4956ZM160.278 45.7622H160.681C161.646 45.7622 162.484 45.6712 163.195 45.4894C163.907 45.2996 164.457 45.0228 164.844 44.6591C165.232 44.2875 165.425 43.8367 165.425 43.3069C165.425 42.8958 165.295 42.5755 165.034 42.3462C164.781 42.109 164.401 41.9904 163.895 41.9904C163.397 41.9904 162.907 42.1446 162.424 42.453C161.942 42.7534 161.511 43.1883 161.132 43.7577C160.752 44.3191 160.467 44.9873 160.278 45.7622Z" fill="#191720"/>
<path d="M169.316 53.2584L172.115 40.0926H174.357L174.072 42.5716H174.143C174.459 42.105 174.827 41.6662 175.246 41.255C175.665 40.8359 176.14 40.4959 176.67 40.2349C177.207 39.974 177.808 39.8435 178.472 39.8435C179.2 39.8435 179.817 39.9859 180.323 40.2705C180.829 40.5552 181.212 40.9624 181.473 41.4922C181.734 42.022 181.865 42.6546 181.865 43.39C181.865 43.7142 181.837 44.0621 181.782 44.4337C181.734 44.7975 181.671 45.1533 181.592 45.5012L179.943 53.2584H177.108L178.793 45.2759C178.864 44.9675 178.915 44.6907 178.947 44.4456C178.986 44.2005 179.006 43.9712 179.006 43.7577C179.006 43.2358 178.876 42.8444 178.615 42.5834C178.362 42.3225 177.982 42.192 177.476 42.192C176.923 42.192 176.377 42.4055 175.839 42.8325C175.302 43.2595 174.815 43.8802 174.38 44.6947C173.945 45.5091 173.601 46.4936 173.348 47.6481L172.162 53.2584H169.316Z" fill="#191720"/>
<path d="M187.914 53.4956C187.234 53.4956 186.617 53.3335 186.063 53.0093C185.518 52.6851 185.083 52.183 184.759 51.5029C184.435 50.815 184.272 49.9333 184.272 48.8579C184.272 47.9565 184.363 47.0748 184.545 46.2129C184.735 45.3431 185.008 44.5286 185.364 43.7695C185.719 43.0025 186.154 42.3304 186.668 41.7532C187.182 41.168 187.764 40.7133 188.412 40.3891C189.068 40.057 189.78 39.891 190.547 39.891C191.116 39.891 191.603 39.9898 192.006 40.1875C192.409 40.3852 192.749 40.6461 193.026 40.9703C193.303 41.2945 193.536 41.6464 193.726 42.026H193.832C193.856 41.8204 193.884 41.5594 193.915 41.2431C193.955 40.9189 194.002 40.571 194.058 40.1994C194.113 39.8198 194.18 39.4521 194.259 39.0963L195.173 34.8026H197.936L194.022 53.2584H191.852L192.113 51.1352H192.03C191.682 51.578 191.302 51.9774 190.891 52.3332C190.488 52.689 190.041 52.9737 189.551 53.1872C189.06 53.3928 188.515 53.4956 187.914 53.4956ZM188.993 51.2301C189.365 51.2301 189.721 51.1352 190.061 50.9455C190.409 50.7557 190.729 50.4947 191.021 50.1626C191.322 49.8226 191.595 49.4352 191.84 49.0002C192.085 48.5574 192.294 48.0869 192.468 47.5888C192.642 47.0906 192.777 46.5845 192.872 46.0706C192.967 45.5566 193.014 45.0584 193.014 44.5761C193.014 43.8407 192.836 43.2556 192.48 42.8206C192.132 42.3778 191.61 42.1564 190.915 42.1564C190.464 42.1564 190.045 42.2829 189.657 42.536C189.27 42.789 188.918 43.133 188.602 43.5679C188.285 44.0028 188.013 44.5049 187.783 45.0742C187.562 45.6357 187.392 46.2366 187.273 46.8771C187.155 47.5176 187.095 48.1581 187.095 48.7986C187.095 49.5973 187.254 50.2022 187.57 50.6133C187.894 51.0245 188.368 51.2301 188.993 51.2301Z" fill="#191720"/>
<path d="M202.135 53.4956C201.463 53.4956 200.85 53.3335 200.297 53.0093C199.751 52.6772 199.316 52.1711 198.992 51.4911C198.668 50.8031 198.506 49.9294 198.506 48.8698C198.506 47.9525 198.601 47.059 198.79 46.1892C198.988 45.3194 199.265 44.5049 199.621 43.7458C199.984 42.9867 200.423 42.3185 200.937 41.7413C201.451 41.1561 202.032 40.7015 202.681 40.3773C203.329 40.0452 204.029 39.8791 204.78 39.8791C205.35 39.8791 205.848 39.978 206.275 40.1756C206.702 40.3654 207.061 40.6224 207.354 40.9466C207.647 41.2708 207.884 41.6306 208.066 42.026H208.172L208.884 40.1282H211.019L208.232 53.2584H206.109L206.37 51.1352H206.275C205.935 51.5701 205.555 51.9655 205.136 52.3213C204.725 52.6772 204.27 52.9618 203.772 53.1753C203.274 53.3888 202.728 53.4956 202.135 53.4956ZM203.155 51.2301C203.709 51.2301 204.239 51.0245 204.745 50.6133C205.251 50.1943 205.697 49.6407 206.085 48.9528C206.48 48.2649 206.773 47.5097 206.963 46.6873C207.057 46.292 207.121 45.9164 207.152 45.5605C207.192 45.2047 207.212 44.8489 207.212 44.493C207.212 43.8051 207.03 43.2437 206.666 42.8088C206.302 42.3739 205.804 42.1564 205.172 42.1564C204.737 42.1564 204.322 42.279 203.926 42.5241C203.539 42.7692 203.187 43.1093 202.871 43.5442C202.554 43.9712 202.277 44.4654 202.04 45.0268C201.811 45.5882 201.633 46.1931 201.507 46.8415C201.388 47.482 201.329 48.1344 201.329 48.7986C201.329 49.5973 201.487 50.2022 201.803 50.6133C202.127 51.0245 202.578 51.2301 203.155 51.2301Z" fill="#191720"/>
</svg>
