<svg width="244" height="78" viewBox="0 0 244 78" fill="none" xmlns="http://www.w3.org/2000/svg">
<path d="M82.2143 15.3517L57.5265 1.09993C56.0267 0.234918 54.1781 0.234918 52.6783 1.09993L27.9905 15.3517L9.58797 25.9761C8.24161 26.7504 7.7533 28.4246 8.49275 29.7082C9.23219 30.9918 10.9273 31.4033 12.2667 30.629L25.5628 22.9485V29.185L1.44009 43.1089C0.0937315 43.8833 -0.394583 45.5575 0.344865 46.8411C1.08431 48.1247 2.77947 48.5362 4.11884 47.7619L25.5559 35.3866V41.5812L13.7177 48.4176C12.3714 49.1919 11.883 50.8662 12.6225 52.1497C13.3619 53.4333 15.0571 53.8449 16.3965 53.0706L25.5489 47.7828V48.0619C25.5489 48.9269 25.7791 49.764 26.1976 50.4825C26.6162 51.208 27.2231 51.8219 27.9695 52.2544L28.2486 52.4148L5.50007 65.5505C4.15372 66.3248 3.66541 67.9991 4.40485 69.2826C5.1443 70.5662 6.83945 70.9778 8.17883 70.2035L33.6131 55.5191L38.9775 58.6164L27.7324 65.104C26.386 65.8784 25.8977 67.5526 26.6371 68.8362C27.3766 70.1197 29.0717 70.5313 30.4111 69.757L44.3351 61.7137L49.6995 64.811L36.4034 72.4915C35.0571 73.2659 34.5688 74.9401 35.3082 76.2237C36.0477 77.5072 37.7428 77.9188 39.0822 77.1445L64.6908 62.3625L82.1795 52.2683C83.6793 51.4033 84.6001 49.8058 84.6001 48.0688V19.5582C84.642 17.8142 83.7142 16.2168 82.2143 15.3517Z" fill="#F36B31"/>
<path d="M55.1058 57.1024C54.9593 57.1024 54.8128 57.0675 54.6803 56.9908L35.2454 45.7665C34.9803 45.613 34.8198 45.334 34.8198 45.027V22.5855C34.8198 22.2786 34.9803 21.9995 35.2454 21.8461C35.5104 21.6926 35.8383 21.6926 36.1034 21.8461L55.5383 33.0703C55.8034 33.2238 55.9639 33.5028 55.9639 33.8097V56.2513C55.9639 56.5583 55.8034 56.8373 55.5383 56.9908C55.3988 57.0605 55.2523 57.1024 55.1058 57.1024ZM36.522 44.5318L54.2478 54.7655V34.2981L36.522 24.0644V44.5318Z" fill="white"/>
<path d="M55.1058 57.1025C54.9593 57.1025 54.8128 57.0677 54.6803 56.9909L35.2454 45.7667C34.9803 45.6132 34.8198 45.3341 34.8198 45.0272V22.5857C34.8198 22.2787 34.9803 21.9997 35.2454 21.8462L54.6803 10.6219C54.9454 10.4685 55.2732 10.4685 55.5383 10.6219L74.9733 21.8462C75.2383 21.9997 75.3988 22.2787 75.3988 22.5857V45.0272C75.3988 45.3341 75.2383 45.6132 74.9733 45.7667L55.5383 56.9909C55.3988 57.0607 55.2523 57.1025 55.1058 57.1025ZM36.522 44.5319L55.1058 55.2609L73.6897 44.5319V23.074L55.1058 12.345L36.522 23.074V44.5319Z" fill="white"/>
<path d="M55.1057 57.1024C54.9592 57.1024 54.8127 57.0675 54.6802 56.9908C54.4151 56.8373 54.2546 56.5583 54.2546 56.2513V33.8097C54.2546 33.5028 54.4151 33.2238 54.6802 33.0703L74.1151 21.8461C74.3802 21.6926 74.7081 21.6926 74.9731 21.8461C75.2382 21.9995 75.3987 22.2786 75.3987 22.5855V45.027C75.3987 45.334 75.2382 45.613 74.9731 45.7665L55.5382 56.9908C55.3987 57.0605 55.2522 57.1024 55.1057 57.1024ZM55.9568 34.2981V54.7655L73.6826 44.5318V24.0644L55.9568 34.2981Z" fill="white"/>
<path d="M55.1058 34.6542C54.9593 34.6542 54.8128 34.6193 54.6803 34.5426L35.2454 23.3183C34.9803 23.1648 34.8198 22.8858 34.8198 22.5788C34.8198 22.2719 34.9803 21.9929 35.2454 21.8394L54.6803 10.6151C54.9454 10.4616 55.2732 10.4616 55.5383 10.6151L74.9733 21.8394C75.2383 21.9929 75.3988 22.2719 75.3988 22.5788C75.3988 22.8858 75.2383 23.1648 74.9733 23.3183L55.5383 34.5426C55.3988 34.6193 55.2523 34.6542 55.1058 34.6542ZM37.38 22.5788L55.1058 32.8125L72.8316 22.5788L55.1058 12.3452L37.38 22.5788Z" fill="white"/>
<path d="M55.1058 34.6542C54.9593 34.6542 54.8128 34.6194 54.6803 34.5426L44.7605 28.8154C44.4954 28.6619 44.335 28.3829 44.335 28.0759C44.335 27.769 44.4954 27.49 44.7605 27.3365L54.6803 21.6092C54.9453 21.4558 55.2732 21.4558 55.5383 21.6092L65.4581 27.3365C65.7231 27.49 65.8836 27.769 65.8836 28.0759C65.8836 28.3829 65.7231 28.6619 65.4581 28.8154L55.5383 34.5426C55.3988 34.6194 55.2523 34.6542 55.1058 34.6542ZM46.8951 28.0759L55.1058 32.8126L63.3164 28.0759L55.1058 23.3393L46.8951 28.0759Z" fill="white"/>
<path d="M35.664 22.5786L31.8342 33.3355L51.2692 44.5598L55.1059 33.8029L35.664 22.5786Z" fill="white"/>
<path d="M51.2692 45.4113C51.1227 45.4113 50.9762 45.3695 50.8436 45.2997L31.4087 34.0754C31.0529 33.8662 30.8925 33.4337 31.032 33.05L34.8618 22.2931C34.9455 22.0559 35.1339 21.8676 35.371 21.7769C35.6082 21.6862 35.8733 21.7141 36.0965 21.8397L55.5315 33.064C55.8872 33.2732 56.0477 33.7057 55.9082 34.0894L52.0784 44.8463C51.9947 45.0834 51.8063 45.2718 51.5691 45.3625C51.4715 45.3974 51.3738 45.4113 51.2692 45.4113ZM32.8806 32.9523L50.8088 43.3046L54.0595 34.1871L36.1314 23.8348L32.8806 32.9523Z" fill="white"/>
<path d="M74.5409 22.5786L78.3707 33.3355L58.9357 44.5598L55.106 33.8029L74.5409 22.5786Z" fill="white"/>
<path d="M58.9357 45.4109C58.8381 45.4109 58.7334 45.3969 58.6428 45.3551C58.4056 45.2644 58.2172 45.076 58.1335 44.8389L54.3037 34.082C54.1642 33.6913 54.3247 33.2588 54.6804 33.0565L74.1154 21.8322C74.3386 21.7067 74.6037 21.6858 74.8409 21.7695C75.078 21.8602 75.2664 22.0485 75.3501 22.2857L79.1799 33.0425C79.3194 33.4332 79.159 33.8657 78.8032 34.068L59.3683 45.2923C59.2287 45.376 59.0822 45.4109 58.9357 45.4109ZM56.1454 34.1866L59.3962 43.3041L77.3243 32.9519L74.0735 23.8343L56.1454 34.1866Z" fill="white"/>
<path d="M6.01631 34.1939C7.2929 33.4544 7.72541 31.829 6.99294 30.5524C6.26047 29.2758 4.6281 28.8433 3.35151 29.5758C2.07491 30.3083 1.64241 31.9406 2.37488 33.2172C3.11433 34.4868 4.73972 34.9263 6.01631 34.1939Z" fill="white"/>
<path d="M10.5786 56.4121C11.8552 55.6727 12.2877 54.0473 11.5552 52.7707C10.8157 51.4941 9.19036 51.0616 7.91376 51.7941C6.63717 52.5265 6.20467 54.1589 6.93714 55.4355C7.66961 56.7121 9.30197 57.1446 10.5786 56.4121Z" fill="white"/>
<path d="M21.0353 69.0105C19.7588 69.743 19.3262 71.3754 20.0587 72.652C20.7982 73.9286 22.4236 74.3611 23.7002 73.6286C24.9767 72.8961 25.4092 71.2638 24.6768 69.9872C23.9373 68.7106 22.3119 68.2711 21.0353 69.0105Z" fill="white"/>
<path d="M102.765 27.9632C101.225 27.9632 99.921 27.6507 98.8522 27.0257C97.7924 26.3917 96.9862 25.4995 96.4337 24.3491C95.8812 23.1987 95.6049 21.8355 95.6049 20.2594C95.6049 19.0638 95.7408 17.8591 96.0125 16.6453C96.2933 15.4316 96.7145 14.2812 97.2761 13.1943C97.8377 12.0983 98.5442 11.1291 99.3956 10.2867C100.247 9.43524 101.243 8.76495 102.385 8.27583C103.535 7.77764 104.835 7.52855 106.284 7.52855C107.389 7.52855 108.354 7.63271 109.178 7.84105C110.012 8.04938 110.822 8.36641 111.61 8.79213L110.347 11.4416C109.767 11.1155 109.151 10.8437 108.499 10.6264C107.847 10.409 107.108 10.3003 106.284 10.3003C105.279 10.3003 104.377 10.4905 103.58 10.8709C102.792 11.2514 102.104 11.7722 101.515 12.4334C100.935 13.0946 100.455 13.851 100.075 14.7024C99.6946 15.5448 99.4092 16.4325 99.219 17.3654C99.0288 18.2894 98.9337 19.2087 98.9337 20.1236C98.9337 21.7449 99.3096 22.9949 100.061 23.8736C100.813 24.7431 101.918 25.1779 103.377 25.1779C104.147 25.1779 104.907 25.0919 105.659 24.9197C106.42 24.7476 107.167 24.5257 107.901 24.254V27.0257C107.267 27.2612 106.529 27.4786 105.686 27.6779C104.853 27.8681 103.879 27.9632 102.765 27.9632Z" fill="white"/>
<path d="M111.108 27.6915L115.591 6.55029H118.757L117.765 11.1291C117.693 11.5276 117.593 11.9624 117.466 12.4334C117.348 12.9044 117.222 13.3709 117.086 13.8329C116.959 14.2948 116.837 14.7205 116.719 15.11H116.841C117.204 14.639 117.611 14.1952 118.064 13.7785C118.526 13.3618 119.042 13.0267 119.613 12.7731C120.193 12.5104 120.836 12.3791 121.542 12.3791C122.367 12.3791 123.064 12.5421 123.635 12.8682C124.205 13.1852 124.64 13.6472 124.939 14.2541C125.238 14.8519 125.387 15.5856 125.387 16.4551C125.387 16.7993 125.36 17.1707 125.306 17.5692C125.251 17.9587 125.179 18.3663 125.088 18.7921L123.2 27.6915H120.021L121.95 18.5611C122.031 18.2078 122.09 17.8908 122.126 17.61C122.163 17.3292 122.181 17.0756 122.181 16.8491C122.181 16.2332 122.036 15.7667 121.746 15.4497C121.456 15.1327 121.008 14.9742 120.401 14.9742C119.758 14.9742 119.124 15.2232 118.499 15.7214C117.874 16.2106 117.312 16.9261 116.814 17.8682C116.316 18.8011 115.926 19.9334 115.646 21.2649L114.287 27.6915H111.108Z" fill="white"/>
<path d="M133.893 27.9632C132.742 27.9632 131.737 27.7458 130.876 27.311C130.025 26.8672 129.364 26.2196 128.893 25.3681C128.431 24.5076 128.2 23.4569 128.2 22.216C128.2 20.9841 128.376 19.7839 128.73 18.6154C129.083 17.4379 129.604 16.3781 130.292 15.4361C130.981 14.4941 131.818 13.7468 132.806 13.1943C133.793 12.6417 134.916 12.3655 136.175 12.3655C137.715 12.3655 138.87 12.7142 139.64 13.4117C140.419 14.1001 140.808 15.0149 140.808 16.1562C140.808 16.9352 140.632 17.6462 140.279 18.2894C139.925 18.9325 139.386 19.4895 138.662 19.9605C137.946 20.4225 137.036 20.7803 135.931 21.0339C134.835 21.2875 133.544 21.4143 132.058 21.4143H131.447C131.438 21.5502 131.429 21.6906 131.42 21.8355C131.411 21.9714 131.406 22.1073 131.406 22.2431C131.406 23.2486 131.669 24.0411 132.194 24.6208C132.72 25.1915 133.485 25.4768 134.491 25.4768C135.251 25.4768 135.953 25.3817 136.597 25.1915C137.24 25.0013 137.96 24.7159 138.757 24.3355V26.8491C138.023 27.2023 137.28 27.4786 136.529 27.6779C135.777 27.8681 134.898 27.9632 133.893 27.9632ZM131.841 19.1046H132.303C133.408 19.1046 134.368 19.0004 135.183 18.7921C135.999 18.5747 136.628 18.2577 137.072 17.841C137.516 17.4153 137.738 16.899 137.738 16.2921C137.738 15.8211 137.588 15.4542 137.289 15.1915C137 14.9198 136.565 14.7839 135.985 14.7839C135.414 14.7839 134.853 14.9606 134.3 15.3138C133.748 15.658 133.254 16.1562 132.819 16.8084C132.385 17.4515 132.058 18.2169 131.841 19.1046Z" fill="white"/>
<path d="M145.971 34.3762C144.151 34.3762 142.729 34.0365 141.705 33.3572C140.691 32.6869 140.183 31.7494 140.183 30.5447C140.183 29.6027 140.505 28.7875 141.148 28.0991C141.782 27.4107 142.792 26.8355 144.178 26.3735C143.834 26.1833 143.576 25.9433 143.404 25.6534C143.231 25.3636 143.145 25.0284 143.145 24.648C143.145 24.023 143.358 23.4841 143.784 23.0312C144.219 22.5692 144.871 22.1344 145.74 21.7268C145.152 21.3555 144.699 20.8844 144.382 20.3138C144.065 19.7341 143.906 19.0547 143.906 18.2758C143.915 17.3881 144.06 16.5819 144.341 15.8573C144.631 15.1327 145.043 14.5122 145.577 13.9959C146.103 13.4796 146.737 13.0811 147.48 12.8003C148.222 12.5195 149.047 12.3791 149.952 12.3791C150.315 12.3791 150.677 12.4062 151.039 12.4606C151.402 12.5059 151.759 12.5783 152.113 12.678H157.303L156.909 14.485L154.246 14.9198C154.391 15.1734 154.495 15.4633 154.558 15.7894C154.631 16.1155 154.667 16.4687 154.667 16.8491C154.667 17.7187 154.522 18.5067 154.232 19.2133C153.951 19.9107 153.548 20.5085 153.023 21.0067C152.516 21.4959 151.895 21.8718 151.162 22.1344C150.437 22.3881 149.622 22.5194 148.716 22.5285C148.462 22.5285 148.231 22.5194 148.023 22.5013C147.815 22.4741 147.629 22.4424 147.466 22.4062C146.95 22.5783 146.565 22.7911 146.311 23.0448C146.057 23.2893 145.931 23.5565 145.931 23.8464C145.931 24.0819 146.003 24.2721 146.148 24.417C146.284 24.5438 146.474 24.6435 146.719 24.7159C146.963 24.7794 147.267 24.8337 147.629 24.879L149.368 25.0964C150.401 25.2232 151.243 25.4361 151.895 25.735C152.557 26.0339 153.041 26.437 153.349 26.9442C153.666 27.4424 153.825 28.0628 153.825 28.8056C153.825 29.7838 153.616 30.6353 153.2 31.3599C152.792 32.0846 152.194 32.6824 151.406 33.1534C150.745 33.5519 149.957 33.8554 149.042 34.0637C148.127 34.272 147.104 34.3762 145.971 34.3762ZM146.134 32.1616C146.923 32.1616 147.615 32.0936 148.213 31.9577C148.82 31.8219 149.323 31.6226 149.721 31.3599C150.102 31.1154 150.392 30.821 150.591 30.4768C150.79 30.1326 150.89 29.7386 150.89 29.2947C150.89 29.0954 150.858 28.9188 150.795 28.7648C150.74 28.6199 150.654 28.4886 150.537 28.3708C150.319 28.1534 150.02 27.9859 149.64 27.8681C149.259 27.7503 148.784 27.6598 148.213 27.5964L146.202 27.379C145.505 27.5058 144.916 27.7005 144.436 27.9632C143.965 28.2259 143.607 28.5429 143.363 28.9143C143.127 29.2947 143.01 29.7204 143.01 30.1915C143.01 30.8255 143.272 31.3101 143.798 31.6453C144.323 31.9895 145.102 32.1616 146.134 32.1616ZM148.77 20.4768C149.386 20.4768 149.916 20.3002 150.36 19.947C150.804 19.5846 151.144 19.1046 151.379 18.5067C151.624 17.8999 151.746 17.225 151.746 16.4823C151.746 16.1381 151.701 15.8392 151.61 15.5856C151.528 15.3319 151.402 15.1236 151.23 14.9606C151.076 14.7975 150.881 14.6752 150.645 14.5937C150.419 14.5122 150.156 14.4714 149.857 14.4714C149.395 14.4714 148.979 14.5756 148.607 14.7839C148.245 14.9832 147.932 15.264 147.67 15.6263C147.416 15.9796 147.217 16.3962 147.072 16.8763C146.936 17.3564 146.868 17.8727 146.868 18.4252C146.868 18.697 146.895 18.9415 146.95 19.1589C147.013 19.3763 147.104 19.5665 147.221 19.7296C147.529 20.2277 148.046 20.4768 148.77 20.4768Z" fill="white"/>
<path d="M163.308 27.936C162.167 27.936 161.171 27.7005 160.319 27.2295C159.468 26.7585 158.807 26.0927 158.336 25.2322C157.874 24.3627 157.643 23.3346 157.643 22.148C157.643 21.1426 157.747 20.1643 157.955 19.2133C158.172 18.2622 158.489 17.3745 158.906 16.5502C159.323 15.726 159.844 15.0059 160.469 14.3899C161.094 13.7649 161.818 13.2803 162.643 12.9361C163.467 12.5829 164.391 12.4062 165.414 12.4062C166.583 12.4062 167.588 12.6417 168.431 13.1128C169.273 13.5838 169.921 14.2586 170.373 15.1372C170.826 16.0158 171.053 17.0665 171.053 18.2894C171.053 19.2676 170.949 20.2232 170.74 21.1562C170.541 22.0891 170.238 22.9678 169.83 23.792C169.422 24.6073 168.906 25.3274 168.281 25.9524C167.665 26.5683 166.941 27.0529 166.107 27.4061C165.283 27.7594 164.35 27.936 163.308 27.936ZM163.539 25.3274C164.047 25.3274 164.518 25.2141 164.952 24.9877C165.396 24.7522 165.795 24.4216 166.148 23.9958C166.501 23.5611 166.8 23.0493 167.045 22.4605C167.298 21.8627 167.493 21.2015 167.629 20.4768C167.765 19.7522 167.833 18.9778 167.833 18.1535C167.833 17.601 167.751 17.0892 167.588 16.6182C167.425 16.1381 167.153 15.7531 166.773 15.4633C166.402 15.1644 165.903 15.0149 165.278 15.0149C164.717 15.0149 164.201 15.1508 163.729 15.4225C163.268 15.6852 162.855 16.052 162.493 16.5231C162.14 16.9941 161.841 17.5375 161.596 18.1535C161.352 18.7604 161.166 19.4125 161.039 20.11C160.912 20.7984 160.849 21.4959 160.849 22.2024C160.849 23.2078 161.076 23.9823 161.528 24.5257C161.99 25.0601 162.661 25.3274 163.539 25.3274Z" fill="white"/>
<path d="M177.642 27.9632C176.836 27.9632 176.148 27.8047 175.577 27.4877C175.016 27.1706 174.585 26.7132 174.286 26.1154C173.997 25.5085 173.852 24.7839 173.852 23.9415C173.852 23.5701 173.879 23.1625 173.933 22.7187C173.997 22.2658 174.074 21.7993 174.164 21.3192L176.012 12.6508H179.191L177.248 21.7812C177.185 22.1344 177.131 22.456 177.085 22.7458C177.049 23.0266 177.031 23.2848 177.031 23.5203C177.031 24.1272 177.171 24.5891 177.452 24.9062C177.742 25.2141 178.19 25.3681 178.797 25.3681C179.45 25.3681 180.084 25.1236 180.7 24.6344C181.324 24.1362 181.891 23.4161 182.398 22.4741C182.905 21.5321 183.299 20.3953 183.58 19.0638L184.939 12.6508H188.091L184.911 27.6915H182.411L182.738 24.8382H182.602C182.239 25.3726 181.818 25.8799 181.338 26.36C180.858 26.831 180.315 27.2159 179.708 27.5148C179.101 27.8138 178.412 27.9632 177.642 27.9632Z" fill="white"/>
<path d="M201.297 27.9632C200.301 27.9632 199.409 27.8726 198.621 27.6915C197.842 27.5103 197.149 27.2476 196.542 26.9034V23.9143C197.239 24.2857 197.977 24.5982 198.756 24.8518C199.544 25.0964 200.4 25.2187 201.324 25.2187C201.868 25.2187 202.38 25.1643 202.86 25.0556C203.34 24.9379 203.765 24.7567 204.137 24.5121C204.508 24.2676 204.798 23.9596 205.006 23.5882C205.215 23.2078 205.319 22.7594 205.319 22.2431C205.319 21.7178 205.21 21.2649 204.993 20.8844C204.775 20.504 204.454 20.1462 204.028 19.8111C203.602 19.4669 203.068 19.0955 202.425 18.697C201.809 18.2984 201.234 17.8591 200.699 17.379C200.165 16.899 199.735 16.3419 199.409 15.7078C199.083 15.0647 198.92 14.3039 198.92 13.4253C198.92 12.5195 199.083 11.7042 199.409 10.9796C199.744 10.255 200.21 9.63904 200.808 9.1318C201.415 8.6155 202.121 8.22148 202.928 7.94974C203.743 7.678 204.626 7.54213 205.577 7.54213C206.61 7.54213 207.538 7.65083 208.362 7.86822C209.187 8.07655 209.984 8.38452 210.754 8.79213L209.572 11.3465C208.965 11.0475 208.322 10.803 207.642 10.6128C206.972 10.4135 206.284 10.3139 205.577 10.3139C205.106 10.3139 204.667 10.3773 204.259 10.5041C203.861 10.6309 203.512 10.8166 203.213 11.0611C202.914 11.3057 202.679 11.6091 202.506 11.9715C202.343 12.3247 202.262 12.7323 202.262 13.1943C202.262 13.7196 202.366 14.1635 202.574 14.5258C202.783 14.8881 203.086 15.2232 203.485 15.5312C203.883 15.8301 204.368 16.1562 204.938 16.5095C205.708 16.9895 206.37 17.4832 206.922 17.9904C207.475 18.4977 207.896 19.0638 208.186 19.6888C208.476 20.3138 208.621 21.052 208.621 21.9035C208.621 22.927 208.435 23.8192 208.063 24.5801C207.701 25.3319 207.185 25.9614 206.515 26.4687C205.853 26.9668 205.079 27.3427 204.191 27.5964C203.304 27.8409 202.339 27.9632 201.297 27.9632Z" fill="white"/>
<path d="M215.713 27.9632C214.907 27.9632 214.218 27.8047 213.648 27.4877C213.086 27.1706 212.656 26.7132 212.357 26.1154C212.067 25.5085 211.922 24.7839 211.922 23.9415C211.922 23.5701 211.949 23.1625 212.004 22.7187C212.067 22.2658 212.144 21.7993 212.235 21.3192L214.082 12.6508H217.262L215.319 21.7812C215.255 22.1344 215.201 22.456 215.156 22.7458C215.12 23.0266 215.101 23.2848 215.101 23.5203C215.101 24.1272 215.242 24.5891 215.523 24.9062C215.813 25.2141 216.261 25.3681 216.868 25.3681C217.52 25.3681 218.154 25.1236 218.77 24.6344C219.395 24.1362 219.961 23.4161 220.468 22.4741C220.976 21.5321 221.37 20.3953 221.65 19.0638L223.009 12.6508H226.161L222.982 27.6915H220.482L220.808 24.8382H220.672C220.31 25.3726 219.889 25.8799 219.409 26.36C218.928 26.831 218.385 27.2159 217.778 27.5148C217.171 27.8138 216.483 27.9632 215.713 27.9632Z" fill="white"/>
<path d="M232.289 27.9632C231.519 27.9632 230.817 27.7775 230.183 27.4061C229.558 27.0257 229.06 26.446 228.688 25.667C228.317 24.879 228.131 23.8781 228.131 22.6643C228.131 21.6136 228.24 20.5901 228.457 19.5937C228.684 18.5973 229.001 17.6644 229.408 16.7948C229.825 15.9252 230.328 15.1598 230.917 14.4986C231.505 13.8283 232.171 13.3075 232.914 12.9361C233.657 12.5557 234.458 12.3655 235.319 12.3655C235.971 12.3655 236.542 12.4787 237.031 12.7051C237.52 12.9225 237.932 13.2169 238.267 13.5883C238.602 13.9597 238.874 14.3718 239.082 14.8247H239.205L240.02 12.6508H242.465L239.273 27.6915H236.84L237.139 25.2594H237.031C236.641 25.7576 236.206 26.2105 235.726 26.6181C235.255 27.0257 234.735 27.3518 234.164 27.5964C233.593 27.8409 232.968 27.9632 232.289 27.9632ZM233.457 25.3681C234.091 25.3681 234.698 25.1326 235.278 24.6616C235.858 24.1815 236.369 23.5475 236.813 22.7594C237.266 21.9714 237.601 21.1064 237.819 20.1643C237.927 19.7114 238 19.2812 238.036 18.8736C238.081 18.466 238.104 18.0584 238.104 17.6508C238.104 16.8627 237.896 16.2196 237.479 15.7214C237.062 15.2232 236.492 14.9742 235.767 14.9742C235.269 14.9742 234.793 15.1146 234.34 15.3953C233.897 15.6761 233.494 16.0656 233.131 16.5638C232.769 17.0529 232.452 17.6191 232.18 18.2622C231.917 18.9053 231.714 19.5982 231.569 20.341C231.433 21.0747 231.365 21.8219 231.365 22.5828C231.365 23.4977 231.546 24.1906 231.908 24.6616C232.28 25.1326 232.796 25.3681 233.457 25.3681Z" fill="white"/>
<path d="M94.6946 61.0852L98.8929 41.2212H109.477L108.893 43.9658H101.529L100.387 49.3598H107.276L106.705 52.0907H99.8168L98.4853 58.3271H105.849L105.265 61.0852H94.6946Z" fill="white"/>
<path d="M109.069 61.0852L112.276 46.0038H114.844L114.518 48.8434H114.599C114.962 48.309 115.383 47.8063 115.863 47.3353C116.343 46.8552 116.886 46.4657 117.493 46.1668C118.109 45.8679 118.798 45.7185 119.559 45.7185C120.392 45.7185 121.098 45.8815 121.678 46.2076C122.258 46.5337 122.697 47.0002 122.996 47.607C123.295 48.2139 123.444 48.9386 123.444 49.7809C123.444 50.1523 123.413 50.5509 123.349 50.9766C123.295 51.3933 123.222 51.8009 123.132 52.1994L121.243 61.0852H117.996L119.925 51.9413C120.007 51.588 120.066 51.271 120.102 50.9902C120.147 50.7094 120.17 50.4467 120.17 50.2021C120.17 49.6043 120.021 49.1559 119.722 48.857C119.432 48.5581 118.997 48.4087 118.417 48.4087C117.783 48.4087 117.158 48.6532 116.542 49.1424C115.926 49.6315 115.369 50.3425 114.871 51.2755C114.373 52.2085 113.979 53.3362 113.689 54.6586L112.33 61.0852H109.069Z" fill="white"/>
<path d="M131.787 61.357C130.709 61.357 129.749 61.1577 128.906 60.7591C128.064 60.3606 127.403 59.7492 126.923 58.9249C126.443 58.1006 126.203 57.0499 126.203 55.7728C126.203 54.6949 126.316 53.6623 126.542 52.6749C126.778 51.6786 127.117 50.7637 127.561 49.9304C128.005 49.088 128.549 48.3588 129.192 47.7429C129.835 47.1179 130.568 46.6333 131.393 46.2891C132.217 45.9359 133.127 45.7592 134.124 45.7592C134.903 45.7592 135.632 45.8362 136.311 45.9902C136.991 46.1351 137.616 46.3389 138.186 46.6016L137.235 49.1152C136.8 48.9159 136.334 48.7438 135.836 48.5989C135.347 48.4449 134.808 48.3679 134.219 48.3679C133.485 48.3679 132.824 48.5672 132.235 48.9657C131.646 49.3552 131.144 49.8942 130.727 50.5826C130.31 51.2619 129.989 52.0318 129.762 52.8923C129.545 53.7528 129.436 54.6541 129.436 55.5961C129.436 56.2664 129.549 56.8371 129.776 57.3081C130.002 57.7791 130.328 58.1414 130.754 58.395C131.189 58.6396 131.71 58.7619 132.317 58.7619C132.987 58.7619 133.616 58.6668 134.205 58.4765C134.794 58.2773 135.383 58.0327 135.972 57.7429V60.3787C135.41 60.6776 134.785 60.9131 134.097 61.0852C133.408 61.2664 132.638 61.357 131.787 61.357Z" fill="white"/>
<path d="M144.912 61.3298C143.77 61.3298 142.774 61.0943 141.923 60.6233C141.071 60.1523 140.41 59.4865 139.939 58.626C139.477 57.7564 139.246 56.7284 139.246 55.5418C139.246 54.5364 139.35 53.5581 139.558 52.607C139.776 51.6559 140.093 50.7683 140.51 49.944C140.926 49.1197 141.447 48.3996 142.072 47.7837C142.697 47.1587 143.422 46.6741 144.246 46.3299C145.07 45.9766 145.994 45.8 147.018 45.8C148.186 45.8 149.192 46.0355 150.034 46.5065C150.876 46.9775 151.524 47.6523 151.977 48.5309C152.43 49.4096 152.656 50.4603 152.656 51.6831C152.656 52.6614 152.552 53.617 152.344 54.5499C152.144 55.4829 151.841 56.3615 151.433 57.1858C151.026 58.001 150.509 58.7211 149.884 59.3461C149.269 59.962 148.544 60.4466 147.711 60.7999C146.886 61.1532 145.953 61.3298 144.912 61.3298ZM145.143 58.7211C145.65 58.7211 146.121 58.6079 146.556 58.3814C147 58.1459 147.398 57.8153 147.751 57.3896C148.105 56.9548 148.403 56.443 148.648 55.8543C148.902 55.2565 149.096 54.5952 149.232 53.8706C149.368 53.146 149.436 52.3715 149.436 51.5472C149.436 50.9947 149.355 50.4829 149.192 50.0119C149.028 49.5318 148.757 49.1469 148.376 48.857C148.005 48.5581 147.507 48.4087 146.882 48.4087C146.32 48.4087 145.804 48.5445 145.333 48.8163C144.871 49.079 144.459 49.4458 144.096 49.9168C143.743 50.3878 143.444 50.9313 143.2 51.5472C142.955 52.1541 142.769 52.8063 142.643 53.5037C142.516 54.1921 142.452 54.8896 142.452 55.5961C142.452 56.6016 142.679 57.376 143.132 57.9195C143.594 58.4539 144.264 58.7211 145.143 58.7211Z" fill="white"/>
<path d="M154.586 61.0852L157.778 46.0446H160.265L159.939 48.8842H160.075C160.428 48.3498 160.835 47.8471 161.297 47.3761C161.768 46.896 162.298 46.5065 162.887 46.2076C163.485 45.9087 164.155 45.7592 164.898 45.7592C165.949 45.7592 166.75 46.0491 167.303 46.6288C167.864 47.2085 168.213 48.0011 168.349 49.0065H168.458C168.829 48.4268 169.259 47.8924 169.748 47.4032C170.247 46.9141 170.804 46.5201 171.42 46.2212C172.045 45.9132 172.724 45.7592 173.458 45.7592C174.671 45.7592 175.591 46.1125 176.216 46.819C176.841 47.5255 177.153 48.5128 177.153 49.7809C177.153 50.1614 177.126 50.5509 177.072 50.9494C177.027 51.348 176.954 51.7601 176.854 52.1858L174.979 61.0852H171.8L173.743 51.9548C173.815 51.6016 173.87 51.2846 173.906 51.0038C173.951 50.7139 173.974 50.4422 173.974 50.1885C173.974 49.5998 173.834 49.1514 173.553 48.8434C173.281 48.5264 172.864 48.3679 172.303 48.3679C171.832 48.3679 171.365 48.5083 170.903 48.7891C170.45 49.0699 170.02 49.4775 169.613 50.0119C169.205 50.5463 168.843 51.194 168.526 51.9548C168.209 52.7066 167.95 53.5581 167.751 54.5092L166.365 61.0852H163.2L165.115 51.982C165.197 51.6197 165.256 51.2936 165.292 51.0038C165.328 50.7139 165.346 50.4603 165.346 50.2429C165.346 49.636 165.215 49.1741 164.952 48.857C164.699 48.531 164.291 48.3679 163.729 48.3679C163.258 48.3679 162.792 48.5083 162.33 48.7891C161.868 49.0699 161.433 49.482 161.026 50.0255C160.618 50.569 160.251 51.2302 159.925 52.0092C159.599 52.7791 159.332 53.6623 159.124 54.6586L157.765 61.0852H154.586Z" fill="white"/>
<path d="M185.659 61.357C184.508 61.357 183.503 61.1396 182.642 60.7048C181.791 60.261 181.13 59.6133 180.659 58.7619C180.197 57.9014 179.966 56.8506 179.966 55.6097C179.966 54.3778 180.142 53.1777 180.496 52.0092C180.849 50.8317 181.37 49.7719 182.058 48.8299C182.747 47.8878 183.584 47.1406 184.572 46.588C185.559 46.0355 186.682 45.7592 187.941 45.7592C189.481 45.7592 190.636 46.108 191.406 46.8054C192.185 47.4938 192.574 48.4087 192.574 49.55C192.574 50.3289 192.398 51.04 192.045 51.6831C191.691 52.3262 191.152 52.8833 190.428 53.3543C189.712 53.8162 188.802 54.174 187.697 54.4277C186.601 54.6813 185.31 54.8081 183.824 54.8081H183.213C183.204 54.944 183.195 55.0844 183.186 55.2293C183.177 55.3652 183.172 55.501 183.172 55.6369C183.172 56.6423 183.435 57.4349 183.96 58.0146C184.486 58.5852 185.251 58.8706 186.257 58.8706C187.017 58.8706 187.719 58.7755 188.362 58.5852C189.006 58.395 189.726 58.1097 190.523 57.7293V60.2428C189.789 60.5961 189.046 60.8724 188.295 61.0716C187.543 61.2619 186.664 61.357 185.659 61.357ZM183.607 52.4983H184.069C185.174 52.4983 186.134 52.3941 186.949 52.1858C187.765 51.9684 188.394 51.6514 188.838 51.2347C189.282 50.809 189.504 50.2927 189.504 49.6858C189.504 49.2148 189.354 48.848 189.055 48.5853C188.766 48.3136 188.331 48.1777 187.751 48.1777C187.18 48.1777 186.619 48.3543 186.066 48.7076C185.514 49.0518 185.02 49.55 184.585 50.2021C184.151 50.8452 183.824 51.6106 183.607 52.4983Z" fill="white"/>
<path d="M193.96 61.0852L197.167 46.0038H199.735L199.409 48.8434H199.49C199.852 48.309 200.274 47.8063 200.754 47.3353C201.234 46.8552 201.777 46.4657 202.384 46.1668C203 45.8679 203.688 45.7185 204.449 45.7185C205.283 45.7185 205.989 45.8815 206.569 46.2076C207.149 46.5337 207.588 47.0002 207.887 47.607C208.186 48.2139 208.335 48.9386 208.335 49.7809C208.335 50.1523 208.303 50.5509 208.24 50.9766C208.186 51.3933 208.113 51.8009 208.023 52.1994L206.134 61.0852H202.887L204.816 51.9413C204.898 51.588 204.957 51.271 204.993 50.9902C205.038 50.7094 205.061 50.4467 205.061 50.2021C205.061 49.6043 204.911 49.1559 204.612 48.857C204.323 48.5581 203.888 48.4087 203.308 48.4087C202.674 48.4087 202.049 48.6532 201.433 49.1424C200.817 49.6315 200.26 50.3425 199.762 51.2755C199.264 52.2085 198.87 53.3362 198.58 54.6586L197.221 61.0852H193.96Z" fill="white"/>
<path d="M215.265 61.357C214.486 61.357 213.779 61.1713 213.145 60.7999C212.52 60.4285 212.022 59.8533 211.65 59.0744C211.279 58.2863 211.093 57.2764 211.093 56.0445C211.093 55.0119 211.198 54.0019 211.406 53.0146C211.623 52.0182 211.936 51.0853 212.343 50.2157C212.751 49.3371 213.249 48.5672 213.838 47.906C214.427 47.2357 215.092 46.7148 215.835 46.3435C216.587 45.963 217.402 45.7728 218.281 45.7728C218.933 45.7728 219.49 45.886 219.952 46.1125C220.414 46.3389 220.803 46.6378 221.12 47.0092C221.437 47.3806 221.705 47.7837 221.922 48.2185H222.044C222.072 47.9829 222.103 47.684 222.139 47.3217C222.185 46.9503 222.239 46.5518 222.303 46.1261C222.366 45.6913 222.443 45.2701 222.533 44.8625L223.58 39.944H226.745L222.262 61.0852H219.775L220.074 58.6532H219.979C219.581 59.1604 219.146 59.6178 218.675 60.0254C218.213 60.4331 217.701 60.7591 217.139 61.0037C216.578 61.2392 215.953 61.357 215.265 61.357ZM216.501 58.7619C216.927 58.7619 217.334 58.6532 217.724 58.4358C218.122 58.2184 218.489 57.9195 218.824 57.5391C219.168 57.1496 219.481 56.7057 219.762 56.2075C220.043 55.7003 220.283 55.1613 220.482 54.5907C220.681 54.02 220.835 53.4403 220.944 52.8516C221.053 52.2628 221.107 51.6922 221.107 51.1396C221.107 50.2972 220.903 49.627 220.495 49.1288C220.097 48.6215 219.499 48.3679 218.702 48.3679C218.186 48.3679 217.706 48.5128 217.262 48.8027C216.818 49.0925 216.415 49.4866 216.053 49.9847C215.69 50.4829 215.378 51.0581 215.115 51.7103C214.861 52.3534 214.667 53.0418 214.531 53.7755C214.395 54.5092 214.327 55.2429 214.327 55.9766C214.327 56.8914 214.508 57.5843 214.87 58.0554C215.242 58.5264 215.785 58.7619 216.501 58.7619Z" fill="white"/>
<path d="M231.555 61.357C230.785 61.357 230.083 61.1713 229.449 60.7999C228.824 60.4195 228.326 59.8398 227.955 59.0608C227.583 58.2727 227.398 57.2718 227.398 56.0581C227.398 55.0074 227.506 53.9838 227.724 52.9874C227.95 51.9911 228.267 51.0581 228.675 50.1885C229.091 49.319 229.594 48.5536 230.183 47.8924C230.772 47.2221 231.437 46.7013 232.18 46.3299C232.923 45.9494 233.725 45.7592 234.585 45.7592C235.237 45.7592 235.808 45.8725 236.297 46.0989C236.786 46.3163 237.198 46.6107 237.533 46.982C237.869 47.3534 238.14 47.7656 238.349 48.2185H238.471L239.286 46.0446H241.732L238.539 61.0852H236.107L236.406 58.6532H236.297C235.908 59.1514 235.473 59.6043 234.993 60.0119C234.522 60.4195 234.001 60.7455 233.43 60.9901C232.86 61.2347 232.235 61.357 231.555 61.357ZM232.724 58.7619C233.358 58.7619 233.965 58.5264 234.544 58.0554C235.124 57.5753 235.636 56.9412 236.08 56.1532C236.533 55.3652 236.868 54.5001 237.085 53.5581C237.194 53.1052 237.266 52.6749 237.302 52.2673C237.348 51.8597 237.37 51.4521 237.37 51.0445C237.37 50.2565 237.162 49.6134 236.745 49.1152C236.329 48.617 235.758 48.3679 235.033 48.3679C234.535 48.3679 234.06 48.5083 233.607 48.7891C233.163 49.0699 232.76 49.4594 232.398 49.9576C232.035 50.4467 231.718 51.0128 231.446 51.6559C231.184 52.299 230.98 52.992 230.835 53.7347C230.699 54.4684 230.631 55.2157 230.631 55.9766C230.631 56.8914 230.812 57.5843 231.175 58.0554C231.546 58.5264 232.062 58.7619 232.724 58.7619Z" fill="white"/>
</svg>
